<?xml version="1.0" encoding="utf-8" ?>
<svg xmlns="http://www.w3.org/2000/svg" xmlns:xlink="http://www.w3.org/1999/xlink" width="900" height="750">
	<rect fill-opacity="0" width="900" height="750"/>
	<rect fill="white" width="900" height="750"/>
	<clipPath id="cl_3">
		<rect width="900" height="700"/>
	</clipPath>
	<g clip-path="url(#cl_3)">
		<path fill="white" d="M0 0L900 0L900 700L0 700L0 0Z"/>
	</g>
	<clipPath id="cl_6">
		<rect width="900" height="700"/>
	</clipPath>
	<g clip-path="url(#cl_6)">
		<defs>
			<linearGradient id="gradient_0" gradientUnits="userSpaceOnUse" x1="0" y1="0" x2="200" y2="0" gradientTransform="matrix(0.707107 0.707107 -0.707107 0.707107 0 0)">
				<stop offset="0" stop-color="#FF6464"/>
				<stop offset="0.5" stop-color="#6464FF"/>
				<stop offset="1" stop-color="#64FF64"/>
			</linearGradient>
		</defs>
		<path fill="url(#gradient_0)" transform="translate(50 200)" d="M20 0L180 0Q180.49097 0 180.98135 0.024090873Q181.47174 0.048181746 181.96034 0.09630546Q182.44894 0.14442916 182.9346 0.21646976Q183.42026 0.28851038 183.90179 0.38429433Q184.38333 0.48007828 184.8596 0.59937483Q185.33586 0.71867144 185.80569 0.86119318Q186.27551 1.0037149 186.73778 1.1691185Q187.20004 1.334522 187.65364 1.5224091Q188.10724 1.7102962 188.55109 1.9202138Q188.99493 2.1301317 189.42793 2.3615744Q189.86093 2.5930171 190.28204 2.8454275Q190.70316 3.0978374 191.11139 3.3706071Q191.51962 3.6433768 191.91397 3.9358487Q192.30833 4.2283211 192.68787 4.5397906Q193.06738 4.8512602 193.43117 5.1809769Q193.79495 5.510694 194.14212 5.8578639Q194.48929 6.2050338 194.81902 6.56882Q195.14873 6.9326072 195.46021 7.3121343Q195.77167 7.6916609 196.06413 8.0860138Q196.3566 8.4803658 196.62936 8.8885946Q196.90213 9.2968235 197.15454 9.7179451Q197.40695 10.139067 197.63841 10.572065Q197.86986 11.005064 198.07977 11.448896Q198.28969 11.892731 198.47757 12.34633Q198.66545 12.799929 198.83086 13.262201Q198.99628 13.724474 199.13881 14.194306Q199.28131 14.664138 199.4006 15.140396Q199.5199 15.616655 199.61569 16.098194Q199.71147 16.579731 199.78352 17.06539Q199.85556 17.551048 199.90369 18.039658Q199.95181 18.528265 199.97589 19.018646Q200 19.509027 200 20L200 130Q200 130.49097 199.97591 130.98135Q199.95181 131.47174 199.9037 131.96034Q199.85556 132.44894 199.78351 132.9346Q199.71146 133.42026 199.61568 133.90179Q199.5199 134.38333 199.4006 134.85959Q199.28131 135.33585 199.13879 135.80569Q198.99626 136.27551 198.83086 136.73779Q198.66544 137.20004 198.47755 137.65366Q198.28967 138.10724 198.07976 138.55109Q197.86984 138.99492 197.63841 139.42793Q197.40695 139.86093 197.15454 140.28204Q196.90213 140.70316 196.62936 141.11139Q196.3566 141.51962 196.06413 141.91397Q195.77167 142.30832 195.46021 142.68785Q195.14873 143.06737 194.819 143.43115Q194.48929 143.79494 194.14212 144.14212Q193.79495 144.48929 193.43118 144.81902Q193.06738 145.14874 192.68787 145.46021Q192.30833 145.77167 191.91397 146.06415Q191.51962 146.35661 191.11139 146.62938Q190.70316 146.90216 190.28204 147.15457Q189.86093 147.40698 189.42793 147.63841Q188.99493 147.86986 188.55109 148.07977Q188.10724 148.28969 187.65364 148.47757Q187.20004 148.66547 186.73778 148.83087Q186.27551 148.99628 185.80569 149.13879Q185.33586 149.28131 184.8596 149.4006Q184.38333 149.5199 183.90179 149.61569Q183.42026 149.71149 182.9346 149.78352Q182.44894 149.85556 181.96036 149.90369Q181.47174 149.95181 180.98135 149.97591Q180.49097 150 180 150L20 150Q19.509027 150 19.018646 149.97591Q18.528265 149.95181 18.039658 149.9037Q17.551048 149.85556 17.06539 149.78352Q16.579731 149.71149 16.098192 149.61569Q15.616653 149.5199 15.140394 149.4006Q14.664137 149.28131 14.194306 149.13879Q13.724474 148.99628 13.262202 148.83087Q12.79993 148.66547 12.346331 148.47757Q11.892731 148.28969 11.448898 148.07977Q11.005064 147.86986 10.572065 147.63841Q10.139067 147.40698 9.7179451 147.15457Q9.2968235 146.90216 8.8885946 146.62938Q8.4803658 146.35661 8.0860128 146.06415Q7.6916609 145.77167 7.3121338 145.46021Q6.9326067 145.14874 6.56882 144.819Q6.2050338 144.48929 5.8578639 144.14212Q5.510694 143.79494 5.1809769 143.43115Q4.8512602 143.06737 4.5397906 142.68785Q4.2283211 142.30832 3.9358487 141.91397Q3.6433768 141.51962 3.3706071 141.11139Q3.0978374 140.70316 2.845427 140.28204Q2.5930171 139.86093 2.3615744 139.42793Q2.1301317 138.99492 1.9202138 138.55109Q1.7102962 138.10724 1.5224091 137.65366Q1.334522 137.20004 1.1691184 136.73778Q1.0037149 136.27551 0.86119318 135.80569Q0.71867144 135.33585 0.59937489 134.85959Q0.48007828 134.38333 0.38429433 133.90179Q0.28851038 133.42026 0.21646976 132.93459Q0.14442916 132.44893 0.09630546 131.96033Q0.048181746 131.47173 0.024090873 130.98135Q0 130.49097 0 130L0 20Q0 19.509027 0.024090873 19.018646Q0.048181746 18.528265 0.09630546 18.039658Q0.14442916 17.551048 0.21646976 17.06539Q0.28851038 16.579731 0.38429433 16.098192Q0.48007828 15.616653 0.59937483 15.140394Q0.71867144 14.664137 0.86119318 14.194306Q1.0037149 13.724474 1.1691185 13.262202Q1.334522 12.79993 1.5224091 12.346331Q1.7102962 11.892731 1.9202138 11.448898Q2.1301317 11.005064 2.3615744 10.572065Q2.5930171 10.139067 2.8454275 9.7179451Q3.0978374 9.2968235 3.3706071 8.8885946Q3.6433768 8.4803658 3.9358487 8.0860128Q4.2283211 7.6916609 4.5397906 7.3121338Q4.8512602 6.9326067 5.1809769 6.56882Q5.510694 6.2050338 5.8578639 5.8578639Q6.2050338 5.510694 6.56882 5.1809769Q6.9326072 4.8512602 7.3121343 4.5397906Q7.6916609 4.2283211 8.0860138 3.9358487Q8.4803658 3.6433768 8.8885946 3.3706071Q9.2968235 3.0978374 9.7179451 2.845427Q10.139067 2.5930171 10.572065 2.3615744Q11.005064 2.1301317 11.448896 1.9202138Q11.892731 1.7102962 12.34633 1.5224091Q12.799929 1.334522 13.262201 1.1691184Q13.724474 1.0037149 14.194306 0.86119318Q14.664138 0.71867144 15.140396 0.59937489Q15.616655 0.48007828 16.098194 0.38429433Q16.579731 0.28851038 17.06539 0.21646976Q17.551048 0.14442916 18.039658 0.09630546Q18.528265 0.048181746 19.018646 0.024090873Q19.509027 0 20 0Z"/>
		<path transform="translate(50 200)" d="M180 0L20 0Q19.509027 0 19.018646 0.024090873Q18.528265 0.048181746 18.039658 0.09630546Q17.551048 0.14442916 17.06539 0.21646976Q16.579731 0.28851038 16.098192 0.38429433Q15.616653 0.48007828 15.140394 0.59937483Q14.664137 0.71867144 14.194306 0.86119318Q13.724474 1.0037149 13.262202 1.1691185Q12.79993 1.334522 12.346331 1.5224091Q11.892731 1.7102962 11.448898 1.9202138Q11.005064 2.1301317 10.572065 2.3615744Q10.139067 2.5930171 9.7179451 2.8454275Q9.2968235 3.0978374 8.8885946 3.3706071Q8.4803658 3.6433768 8.0860128 3.9358487Q7.6916609 4.2283211 7.3121338 4.5397906Q6.9326067 4.8512602 6.56882 5.1809769Q6.2050338 5.510694 5.8578639 5.8578639Q5.510694 6.2050338 5.1809769 6.56882Q4.8512602 6.9326072 4.5397906 7.3121343Q4.2283211 7.6916609 3.9358487 8.0860138Q3.6433768 8.4803658 3.3706071 8.8885946Q3.0978374 9.2968235 2.845427 9.7179451Q2.5930171 10.139067 2.3615744 10.572065Q2.1301317 11.005064 1.9202138 11.448896Q1.7102962 11.892731 1.5224091 12.34633Q1.334522 12.799929 1.1691184 13.262201Q1.0037149 13.724474 0.86119318 14.194306Q0.71867144 14.664138 0.59937489 15.140396Q0.48007828 15.616655 0.38429433 16.098194Q0.28851038 16.579731 0.21646976 17.06539Q0.14442916 17.551048 0.09630546 18.039658Q0.048181746 18.528265 0.024090873 19.018646Q0 19.509027 0 20L0 130Q0 130.49097 0.024090873 130.98135Q0.048181746 131.47174 0.09630546 131.96034Q0.14442916 132.44894 0.21646976 132.9346Q0.28851038 133.42026 0.38429433 133.90179Q0.48007828 134.38333 0.59937483 134.85959Q0.71867144 135.33585 0.86119318 135.80569Q1.0037149 136.27551 1.1691185 136.73779Q1.334522 137.20004 1.5224091 137.65366Q1.7102962 138.10724 1.9202138 138.55109Q2.1301317 138.99492 2.3615744 139.42793Q2.5930171 139.86093 2.8454275 140.28204Q3.0978374 140.70316 3.3706071 141.11139Q3.6433768 141.51962 3.9358487 141.91397Q4.2283211 142.30832 4.5397906 142.68785Q4.8512602 143.06737 5.1809769 143.43115Q5.510694 143.79494 5.8578639 144.14212Q6.2050338 144.48929 6.56882 144.81902Q6.9326072 145.14874 7.3121343 145.46021Q7.6916609 145.77167 8.0860138 146.06415Q8.4803658 146.35661 8.8885946 146.62938Q9.2968235 146.90216 9.7179451 147.15457Q10.139067 147.40698 10.572065 147.63841Q11.005064 147.86986 11.448896 148.07977Q11.892731 148.28969 12.34633 148.47757Q12.799929 148.66547 13.262201 148.83087Q13.724474 148.99628 14.194306 149.13879Q14.664138 149.28131 15.140396 149.4006Q15.616655 149.5199 16.098194 149.61569Q16.579731 149.71149 17.06539 149.78352Q17.551048 149.85556 18.039658 149.90369Q18.528265 149.95181 19.018646 149.97591Q19.509027 150 20 150L180 150Q180.49097 150 180.98135 149.97591Q181.47174 149.95181 181.96034 149.9037Q182.44894 149.85556 182.9346 149.78352Q183.42026 149.71149 183.90179 149.61569Q184.38333 149.5199 184.8596 149.4006Q185.33586 149.28131 185.80569 149.13879Q186.27551 148.99628 186.73778 148.83087Q187.20004 148.66547 187.65364 148.47757Q188.10724 148.28969 188.55109 148.07977Q188.99493 147.86986 189.42793 147.63841Q189.86093 147.40698 190.28204 147.15457Q190.70316 146.90216 191.11139 146.62938Q191.51962 146.35661 191.91397 146.06415Q192.30833 145.77167 192.68787 145.46021Q193.06738 145.14874 193.43117 144.819Q193.79495 144.48929 194.14212 144.14212Q194.48929 143.79494 194.81902 143.43115Q195.14873 143.06737 195.46021 142.68785Q195.77167 142.30832 196.06413 141.91397Q196.3566 141.51962 196.62936 141.11139Q196.90213 140.70316 197.15454 140.28204Q197.40695 139.86093 197.63841 139.42793Q197.86986 138.99492 198.07977 138.55109Q198.28969 138.10724 198.47757 137.65366Q198.66545 137.20004 198.83086 136.73778Q198.99628 136.27551 199.13881 135.80569Q199.28131 135.33585 199.4006 134.85959Q199.5199 134.38333 199.61569 133.90179Q199.71147 133.42026 199.78352 132.93459Q199.85556 132.44893 199.90369 131.96033Q199.95181 131.47173 199.97589 130.98135Q200 130.49097 200 130L200 20Q200 19.509027 199.97591 19.018646Q199.95181 18.528265 199.9037 18.039658Q199.85556 17.551048 199.78351 17.06539Q199.71146 16.579731 199.61568 16.098192Q199.5199 15.616653 199.4006 15.140394Q199.28131 14.664137 199.13879 14.194306Q198.99626 13.724474 198.83086 13.262202Q198.66544 12.79993 198.47755 12.346331Q198.28967 11.892731 198.07976 11.448898Q197.86984 11.005064 197.63841 10.572065Q197.40695 10.139067 197.15454 9.7179451Q196.90213 9.2968235 196.62936 8.8885946Q196.3566 8.4803658 196.06413 8.0860128Q195.77167 7.6916609 195.46021 7.3121338Q195.14873 6.9326067 194.819 6.56882Q194.48929 6.2050338 194.14212 5.8578639Q193.79495 5.510694 193.43118 5.1809769Q193.06738 4.8512602 192.68787 4.5397906Q192.30833 4.2283211 191.91397 3.9358487Q191.51962 3.6433768 191.11139 3.3706071Q190.70316 3.0978374 190.28204 2.845427Q189.86093 2.5930171 189.42793 2.3615744Q188.99493 2.1301317 188.55109 1.9202138Q188.10724 1.7102962 187.65364 1.5224091Q187.20004 1.334522 186.73778 1.1691184Q186.27551 1.0037149 185.80569 0.86119318Q185.33586 0.71867144 184.8596 0.59937489Q184.38333 0.48007828 183.90179 0.38429433Q183.42026 0.28851038 182.9346 0.21646976Q182.44894 0.14442916 181.96036 0.09630546Q181.47174 0.048181746 180.98135 0.024090873Q180.49097 0 180 0ZM7.9791846 7.9791846Q12.958369 3 20 3L180 3Q187.04163 3 192.02081 7.9791846Q197 12.958372 197 20L197 130Q197 137.04161 192.02081 142.0208Q187.04161 147 180 147L20 147Q12.958387 147 7.9791846 142.0208Q3 137.04161 3 130L3 20Q3 12.95837 7.9791846 7.9791846Z" fill-rule="evenodd"/>
	</g>
	<clipPath id="cl_7">
		<rect width="900" height="700"/>
	</clipPath>
	<g clip-path="url(#cl_7)">
		<defs>
			<radialGradient id="gradient_1" gradientUnits="userSpaceOnUse" cx="90" cy="75" r="75">
				<stop offset="0" stop-color="yellow"/>
				<stop offset="0.69999999" stop-color="#FF8000"/>
				<stop offset="1" stop-color="red"/>
			</radialGradient>
		</defs>
		<path fill="url(#gradient_1)" transform="translate(300 200)" d="M90 0Q92.209373 0 94.416092 0.090340771Q96.622803 0.18068154 98.821541 0.36114547Q101.02027 0.54160935 103.20573 0.81176162Q105.39119 1.0819139 107.55812 1.4411037Q109.72504 1.8002934 111.8682 2.2476556Q114.01137 2.6950178 116.12561 3.2294745Q118.23985 3.763931 120.32007 4.3841944Q122.4003 5.004458 124.44149 5.709034Q126.48269 6.41361 128.47995 7.2008014Q130.4772 7.9879932 132.42569 8.8559036Q134.37419 9.723814 136.26924 10.670353Q138.16428 11.616891 140.00131 12.639777Q141.83833 13.662664 143.61292 14.759434Q145.38751 15.856205 147.0954 17.024216Q148.80325 18.192226 150.44029 19.428663Q152.07733 20.6651 153.6396 21.96699Q155.20187 23.268875 156.68558 24.633076Q158.16931 25.997276 159.57092 27.420502Q160.97253 28.843727 162.28867 30.322548Q163.6048 31.801371 164.83224 33.33223Q166.05972 34.863083 167.19556 36.442287Q168.33142 38.021492 169.37291 39.645241Q170.4144 41.268986 171.35902 42.933365Q172.30365 44.59774 173.14914 46.298737Q173.99463 47.999733 174.73895 49.733253Q175.48328 51.466774 176.12463 53.228645Q176.76598 54.990509 177.3028 56.776482Q177.83963 58.56245 178.27066 60.368221Q178.70169 62.173988 179.02588 63.995209Q179.35007 65.816429 179.56664 67.648712Q179.78317 69.480995 179.89159 71.319923Q180 73.158859 180 75Q180 76.841156 179.8916 78.680084Q179.78317 80.519012 179.56664 82.351288Q179.35007 84.183563 179.02589 86.004784Q178.70169 87.826004 178.27068 89.631767Q177.83965 91.437531 177.30281 93.223503Q176.76599 95.009476 176.12463 96.771347Q175.48328 98.533211 174.73895 100.26673Q173.99463 102.00025 173.14914 103.70125Q172.30365 105.40225 171.35901 107.06663Q170.41438 108.731 169.37289 110.35476Q168.33141 111.9785 167.19556 113.5577Q166.05972 115.1369 164.83224 116.66776Q163.60478 118.19862 162.28867 119.67744Q160.97253 121.15627 159.57092 122.5795Q158.1693 124.00272 156.68558 125.36691Q155.20184 126.73111 153.63959 128.033Q152.07733 129.33488 150.44028 130.57132Q148.80324 131.80777 147.09537 132.97578Q145.3875 134.1438 143.61292 135.24057Q141.83832 136.33734 140.0013 137.36021Q138.16428 138.3831 136.26923 139.32964Q134.37418 140.27618 132.42569 141.14409Q130.4772 142.01199 128.47995 142.79919Q126.48269 143.58636 124.44149 144.29095Q122.4003 144.99551 120.32008 145.61578Q118.23985 146.23605 116.12561 146.77052Q114.01137 147.30498 111.86819 147.75235Q109.72504 148.19971 107.55812 148.55888Q105.39119 148.91808 103.20573 149.18823Q101.02027 149.45839 98.821541 149.63885Q96.622803 149.81932 94.416084 149.90967Q92.209373 150 90 150Q87.790619 150 85.583908 149.90967Q83.377197 149.81932 81.178459 149.63885Q78.979721 149.45839 76.79425 149.18823Q74.608795 148.91808 72.441864 148.55888Q70.27494 148.19971 68.131775 147.75233Q65.988617 147.30498 63.874374 146.77052Q61.760132 146.23605 59.679905 145.61578Q57.599678 144.99551 55.558483 144.29095Q53.517288 143.58636 51.520035 142.79918Q49.522785 142.01199 47.574291 141.14409Q45.625793 140.27618 43.730747 139.32964Q41.835705 138.38309 39.998676 137.3602Q38.161648 136.33731 36.387062 135.24055Q34.612473 134.14378 32.904602 132.97577Q31.196732 131.80777 29.55969 130.57132Q27.922651 129.33488 26.360388 128.033Q24.798122 126.73111 23.314398 125.36691Q21.830671 124.00272 20.429058 122.5795Q19.027443 121.15627 17.711321 119.67744Q16.395197 118.19862 15.167733 116.66776Q13.940269 115.1369 12.804424 113.55771Q11.668577 111.9785 10.627086 110.35476Q9.5855923 108.731 8.6409626 107.06663Q7.6963329 105.40225 6.850841 103.70125Q6.0053496 102.00025 5.2610335 100.26673Q4.5167174 98.533211 3.8753695 96.771347Q3.2340214 95.009476 2.6971869 93.223503Q2.1603522 91.437531 1.7293245 89.631767Q1.2982967 87.826004 0.97411394 86.004784Q0.64993119 84.183563 0.43337455 82.351288Q0.21681786 80.519012 0.10840893 78.680084Q0 76.841156 0 75Q0 73.158859 0.10840893 71.319931Q0.21681786 69.481003 0.43337455 67.64872Q0.64993119 65.816437 0.97411394 63.995213Q1.2982967 62.173988 1.7293245 60.368221Q2.1603522 58.56245 2.6971869 56.776482Q3.2340214 54.990509 3.8753695 53.228645Q4.5167174 51.466774 5.2610335 49.733253Q6.0053496 47.999733 6.850841 46.298737Q7.6963329 44.59774 8.6409626 42.933361Q9.5855932 41.268986 10.627087 39.645241Q11.668579 38.021492 12.804424 36.442287Q13.94027 34.863083 15.167734 33.33223Q16.395197 31.801371 17.711321 30.322548Q19.027445 28.843727 20.42906 27.420502Q21.830673 25.997276 23.314398 24.633076Q24.798122 23.268875 26.360388 21.96699Q27.922651 20.6651 29.55969 19.428661Q31.196732 18.192225 32.904602 17.024214Q34.612473 15.856203 36.387058 14.759434Q38.161644 13.662664 39.998672 12.639777Q41.835701 11.616891 43.730747 10.670352Q45.625793 9.723814 47.574287 8.8559036Q49.522781 7.9879932 51.520035 7.2008018Q53.517288 6.41361 55.558483 5.709034Q57.599678 5.004458 59.679909 4.3841944Q61.760132 3.763931 63.874374 3.2294745Q65.988617 2.6950178 68.131775 2.2476556Q70.27494 1.8002934 72.441864 1.4411037Q74.608795 1.0819139 76.794258 0.81176168Q78.979721 0.54160935 81.178459 0.36114547Q83.377197 0.18068154 85.583908 0.090340771Q87.790619 0 90 0Z"/>
		<path transform="translate(300 200)" d="M180 75Q180 73.158859 179.8916 71.319931Q179.78317 69.481003 179.56664 67.64872Q179.35007 65.816437 179.02589 63.995213Q178.70169 62.173988 178.27068 60.368221Q177.83965 58.56245 177.30281 56.776482Q176.76599 54.990509 176.12463 53.228645Q175.48328 51.466774 174.73895 49.733253Q173.99463 47.999733 173.14914 46.298737Q172.30365 44.59774 171.35901 42.933361Q170.41438 41.268986 169.37289 39.645241Q168.33141 38.021492 167.19556 36.442287Q166.05972 34.863083 164.83224 33.33223Q163.60478 31.801371 162.28867 30.322548Q160.97253 28.843727 159.57092 27.420502Q158.1693 25.997276 156.68558 24.633076Q155.20184 23.268875 153.63959 21.96699Q152.07733 20.6651 150.44028 19.428661Q148.80324 18.192225 147.09537 17.024214Q145.3875 15.856203 143.61292 14.759434Q141.83832 13.662664 140.0013 12.639777Q138.16428 11.616891 136.26923 10.670352Q134.37418 9.723814 132.42569 8.8559036Q130.4772 7.9879932 128.47995 7.2008018Q126.48269 6.41361 124.44149 5.709034Q122.4003 5.004458 120.32008 4.3841944Q118.23985 3.763931 116.12561 3.2294745Q114.01137 2.6950178 111.86819 2.2476556Q109.72504 1.8002934 107.55812 1.4411037Q105.39119 1.0819139 103.20573 0.81176168Q101.02027 0.54160935 98.821541 0.36114547Q96.622803 0.18068154 94.416084 0.090340771Q92.209373 0 90 0Q87.790619 0 85.583908 0.090340771Q83.377197 0.18068154 81.178459 0.36114547Q78.979721 0.54160935 76.79425 0.81176162Q74.608795 1.0819139 72.441864 1.4411037Q70.27494 1.8002934 68.131775 2.2476556Q65.988617 2.6950178 63.874374 3.2294745Q61.760132 3.763931 59.679905 4.3841944Q57.599678 5.004458 55.558483 5.709034Q53.517288 6.41361 51.520035 7.2008014Q49.522785 7.9879932 47.574291 8.8559036Q45.625793 9.723814 43.730747 10.670353Q41.835705 11.616891 39.998676 12.639777Q38.161648 13.662664 36.387062 14.759434Q34.612473 15.856205 32.904602 17.024216Q31.196732 18.192226 29.55969 19.428663Q27.922651 20.6651 26.360388 21.96699Q24.798122 23.268875 23.314398 24.633076Q21.830671 25.997276 20.429058 27.420502Q19.027443 28.843727 17.711321 30.322548Q16.395197 31.801371 15.167733 33.33223Q13.940269 34.863083 12.804424 36.442287Q11.668577 38.021492 10.627086 39.645241Q9.5855923 41.268986 8.6409626 42.933365Q7.6963329 44.59774 6.850841 46.298737Q6.0053496 47.999733 5.2610335 49.733253Q4.5167174 51.466774 3.8753695 53.228645Q3.2340214 54.990509 2.6971869 56.776482Q2.1603522 58.56245 1.7293245 60.368221Q1.2982967 62.173988 0.97411394 63.995209Q0.64993119 65.816429 0.43337455 67.648712Q0.21681786 69.480995 0.10840893 71.319923Q0 73.158859 0 75Q0 76.841156 0.10840893 78.680084Q0.21681786 80.519012 0.43337455 82.351288Q0.64993119 84.183563 0.97411394 86.004784Q1.2982967 87.826004 1.7293245 89.631767Q2.1603522 91.437531 2.6971869 93.223503Q3.2340214 95.009476 3.8753695 96.771347Q4.5167174 98.533211 5.2610335 100.26673Q6.0053496 102.00025 6.850841 103.70125Q7.6963329 105.40225 8.6409626 107.06663Q9.5855932 108.731 10.627087 110.35476Q11.668579 111.9785 12.804424 113.5577Q13.94027 115.1369 15.167734 116.66776Q16.395197 118.19862 17.711321 119.67744Q19.027445 121.15627 20.42906 122.5795Q21.830673 124.00272 23.314398 125.36691Q24.798122 126.73111 26.360388 128.033Q27.922651 129.33488 29.55969 130.57132Q31.196732 131.80777 32.904602 132.97578Q34.612473 134.1438 36.387058 135.24057Q38.161644 136.33734 39.998672 137.36021Q41.835701 138.3831 43.730747 139.32964Q45.625793 140.27618 47.574287 141.14409Q49.522781 142.01199 51.520035 142.79919Q53.517288 143.58636 55.558483 144.29095Q57.599678 144.99551 59.679909 145.61578Q61.760132 146.23605 63.874374 146.77052Q65.988617 147.30498 68.131775 147.75235Q70.27494 148.19971 72.441864 148.55888Q74.608795 148.91808 76.794258 149.18823Q78.979721 149.45839 81.178459 149.63885Q83.377197 149.81932 85.583908 149.90967Q87.790619 150 90 150Q92.209373 150 94.416092 149.90967Q96.622803 149.81932 98.821541 149.63885Q101.02027 149.45839 103.20573 149.18823Q105.39119 148.91808 107.55812 148.55888Q109.72504 148.19971 111.8682 147.75233Q114.01137 147.30498 116.12561 146.77052Q118.23985 146.23605 120.32007 145.61578Q122.4003 144.99551 124.44149 144.29095Q126.48269 143.58636 128.47995 142.79918Q130.4772 142.01199 132.42569 141.14409Q134.37419 140.27618 136.26924 139.32964Q138.16428 138.38309 140.00131 137.3602Q141.83833 136.33731 143.61292 135.24055Q145.38751 134.14378 147.0954 132.97577Q148.80325 131.80777 150.44029 130.57132Q152.07733 129.33488 153.6396 128.033Q155.20187 126.73111 156.68558 125.36691Q158.16931 124.00272 159.57092 122.5795Q160.97253 121.15627 162.28867 119.67744Q163.6048 118.19862 164.83224 116.66776Q166.05972 115.1369 167.19556 113.55771Q168.33142 111.9785 169.37291 110.35476Q170.4144 108.731 171.35902 107.06663Q172.30365 105.40225 173.14914 103.70125Q173.99463 102.00025 174.73895 100.26673Q175.48328 98.533211 176.12463 96.771347Q176.76598 95.009476 177.3028 93.223503Q177.83963 91.437531 178.27066 89.631767Q178.70169 87.826004 179.02588 86.004784Q179.35007 84.183563 179.56664 82.351288Q179.78317 80.519012 179.89159 78.680084Q180 76.841156 180 75ZM28.921127 25.039877Q54.168983 4 90 4Q125.83104 4 151.07889 25.039877Q163.58392 35.460739 170.06795 49.109329Q176 61.596046 176 75Q176 88.403961 170.06795 100.89068Q163.58394 114.53925 151.07889 124.96012Q125.83103 146 90 146Q54.168987 146 28.921127 124.96012Q16.416094 114.53926 9.9320669 100.89066Q4 88.403915 4 75Q4 61.596073 9.932066 49.109329Q16.416088 35.460743 28.921127 25.039877Z" fill-rule="evenodd"/>
	</g>
	<clipPath id="cl_8">
		<rect width="900" height="700"/>
	</clipPath>
	<g clip-path="url(#cl_8)">
		<path fill="#8000FF" transform="translate(550 200)" d="M-2.6226833e-06 -60L51.961525 -30L51.961525 30L-2.6226833e-06 60L-51.961525 30.000004L-51.961517 -30.000011L-2.6226833e-06 -60Z"/>
		<path fill="white" transform="translate(550 200)" d="M-2.7807619e-06 -56.5359L-48.961517 -28.267962L-48.961525 28.267954L-2.6422638e-06 56.5359L48.961525 28.26795L48.961525 -28.26795L-2.7807619e-06 -56.5359ZM51.961525 -30L51.961525 30L-2.6226833e-06 60L-51.961525 30.000004L-51.961517 -30.000011L-2.6226833e-06 -60L51.961525 -30Z" fill-rule="evenodd"/>
	</g>
	<clipPath id="cl_9">
		<rect width="900" height="700"/>
	</clipPath>
	<g clip-path="url(#cl_9)">
		<path fill="#FFD700" transform="translate(50 400)" d="M59.999996 0L74.106842 40.583591L117.06339 41.458981L82.825356 67.416405L95.267113 108.54102L60 84L24.732887 108.54102L37.174644 67.416412L2.9366074 41.458984L45.893158 40.583588L59.999996 0Z"/>
		<path fill="#8B4513" transform="translate(50 400)" d="M74.106842 40.583591L61.058685 3.045717L59.999996 0L58.941307 3.0457172L45.893158 40.583588L6.1604085 41.393288L2.9366074 41.458984L5.5061021 43.407036L37.174644 67.416412L25.666616 105.4547L24.732887 108.54102L27.379616 106.69926L60 84L92.620392 106.69926L95.267113 108.54102L94.333382 105.4547L82.825356 67.416405L114.4939 43.407032L117.06339 41.458981L113.83959 41.393284L74.106842 40.583591ZM111.2701 43.341335L72.67466 42.554821L59.999996 6.0914345L47.32534 42.554817L8.7299032 43.341339L39.491962 66.663467L28.313343 103.61295L60 81.563423L91.686661 103.61295L80.508034 66.66346L111.2701 43.341335Z" fill-rule="evenodd"/>
	</g>
	<clipPath id="cl_a">
		<rect width="900" height="700"/>
	</clipPath>
	<g clip-path="url(#cl_a)">
		<path fill="#FF1493" transform="translate(220 400)" d="M50 0L61 35L98 35L68 57L79 91L50 71L21 91L32 57L2 35L39 35L50 0Z"/>
		<path transform="translate(220 400)" d="M61 35L51.048225 3.3352587L50 0L48.951775 3.3352587L39 35L2 35L4.7272725 37L32 57L22.011765 87.872726L21 91L23.705793 89.133934L50 71L76.294212 89.133942L79 91L77.988235 87.872726L68 57L95.272728 37L98 35L61 35ZM91.890717 37L59.53212 37L50 6.6705184L40.46788 37L8.1092844 37L34.347507 56.241364L24.717558 86.00666L50 68.570496L75.282448 86.006668L65.652489 56.241364L91.890717 37Z" fill-rule="evenodd"/>
	</g>
	<clipPath id="cl_b">
		<rect width="900" height="700"/>
	</clipPath>
	<g clip-path="url(#cl_b)">
		<defs>
			<linearGradient id="gradient_2" gradientUnits="userSpaceOnUse" x1="0" y1="0" x2="200" y2="0">
				<stop offset="0" stop-color="red"/>
				<stop offset="0.5" stop-color="lime"/>
				<stop offset="1" stop-color="blue"/>
			</linearGradient>
		</defs>
		<path fill="url(#gradient_2)" transform="translate(400 400)" d="M0 -4L200 -4L200 4L0 4L0 -4Z"/>
	</g>
	<clipPath id="cl_c">
		<rect width="900" height="700"/>
	</clipPath>
	<g clip-path="url(#cl_c)">
		<path fill="aqua" fill-opacity="0.80000001" transform="translate(650 400)" d="M96.19397 69.134171L69.134171 96.19397L30.865824 96.19397L3.8060265 69.134171L3.8060265 30.865828L30.865843 3.806015L69.134178 3.8060265L96.193985 30.86585L96.19397 69.134171Z"/>
		<path transform="translate(650 400)" d="M93.19397 67.891525L67.891525 93.19397L32.108467 93.19397L6.8060265 67.891525L6.8060265 32.108467L32.108482 6.8060155L67.891533 6.806026L93.193985 32.108494L93.19397 67.891525ZM96.19397 69.134171L69.134171 96.19397L30.865824 96.19397L3.8060265 69.134171L3.8060265 30.865828L30.865843 3.806015L69.134178 3.8060265L96.193985 30.86585L96.19397 69.134171Z" fill-rule="evenodd"/>
	</g>
</svg>
