<svg width="70" height="26" viewBox="0 0 70 26" fill="none" xmlns="http://www.w3.org/2000/svg">
<path fill-rule="evenodd" clip-rule="evenodd" d="M16.5883 8.69287L16.541 17.3415L24.9061 25.5176V17.0107V16.8689L24.9049 16.8677C24.8286 12.3399 21.1343 8.69287 16.5883 8.69287Z" fill="black"/>
<path fill-rule="evenodd" clip-rule="evenodd" d="M15.6057 4.68046C11.4522 5.14531 8.22332 8.66872 8.22332 12.9463L8.22332 16.9162L8.3651 25.5648L0 17.3888V8.69284V8.64558L0.000130708 8.64571C0.0254971 4.07358 3.73974 0.375 8.31784 0.375C11.4567 0.375 14.1895 2.11366 15.6057 4.68046Z" fill="black"/>
<path d="M43.0156 17.0625C42.5938 17.5677 41.9974 17.9609 41.2266 18.2422C40.4557 18.5182 39.6016 18.6562 38.6641 18.6562C37.6797 18.6562 36.8151 18.4427 36.0703 18.0156C35.3307 17.5833 34.7578 16.9583 34.3516 16.1406C33.9505 15.3229 33.7448 14.362 33.7344 13.2578V12.4844C33.7344 11.349 33.9245 10.3672 34.3047 9.53906C34.6901 8.70573 35.2422 8.07031 35.9609 7.63281C36.6849 7.1901 37.5312 6.96875 38.5 6.96875C39.849 6.96875 40.9036 7.29167 41.6641 7.9375C42.4245 8.57812 42.875 9.51302 43.0156 10.7422H40.7344C40.6302 10.0911 40.3984 9.61458 40.0391 9.3125C39.6849 9.01042 39.1953 8.85938 38.5703 8.85938C37.7734 8.85938 37.1667 9.15885 36.75 9.75781C36.3333 10.3568 36.1224 11.2474 36.1172 12.4297V13.1562C36.1172 14.349 36.3438 15.25 36.7969 15.8594C37.25 16.4688 37.9141 16.7734 38.7891 16.7734C39.6693 16.7734 40.2969 16.5859 40.6719 16.2109V14.25H38.5391V12.5234H43.0156V17.0625ZM48.9634 12.1641C48.6561 12.1224 48.3853 12.1016 48.1509 12.1016C47.2968 12.1016 46.7369 12.3906 46.4712 12.9688V18.5H44.2134V10.0469H46.3462L46.4087 11.0547C46.8619 10.2786 47.4895 9.89062 48.2916 9.89062C48.5416 9.89062 48.7759 9.92448 48.9947 9.99219L48.9634 12.1641ZM51.88 18.5H49.6144V10.0469H51.88V18.5ZM49.4816 7.85938C49.4816 7.52083 49.5935 7.24219 49.8175 7.02344C50.0467 6.80469 50.3566 6.69531 50.7472 6.69531C51.1326 6.69531 51.4399 6.80469 51.6691 7.02344C51.8982 7.24219 52.0128 7.52083 52.0128 7.85938C52.0128 8.20312 51.8956 8.48438 51.6613 8.70312C51.4321 8.92188 51.1274 9.03125 50.7472 9.03125C50.367 9.03125 50.0597 8.92188 49.8253 8.70312C49.5961 8.48438 49.4816 8.20312 49.4816 7.85938ZM52.8356 14.2109C52.8356 12.8932 53.1299 11.8438 53.7184 11.0625C54.3122 10.2812 55.1221 9.89062 56.1481 9.89062C56.971 9.89062 57.6507 10.1979 58.1872 10.8125V6.5H60.4528V18.5H58.4137L58.3044 17.6016C57.7419 18.3047 57.0179 18.6562 56.1325 18.6562C55.1377 18.6562 54.3382 18.2656 53.7341 17.4844C53.1351 16.6979 52.8356 15.6068 52.8356 14.2109ZM55.0934 14.375C55.0934 15.1667 55.2315 15.7734 55.5075 16.1953C55.7835 16.6172 56.1846 16.8281 56.7106 16.8281C57.4085 16.8281 57.9007 16.5339 58.1872 15.9453V12.6094C57.9059 12.0208 57.419 11.7266 56.7262 11.7266C55.6377 11.7266 55.0934 12.6094 55.0934 14.375ZM66.5413 18.5C66.4371 18.2969 66.3616 18.0443 66.3147 17.7422C65.7678 18.3516 65.0569 18.6562 64.1819 18.6562C63.3538 18.6562 62.6663 18.4167 62.1194 17.9375C61.5777 17.4583 61.3069 16.8542 61.3069 16.125C61.3069 15.2292 61.6376 14.5417 62.2991 14.0625C62.9657 13.5833 63.9267 13.3411 65.1819 13.3359H66.2209V12.8516C66.2209 12.4609 66.1194 12.1484 65.9163 11.9141C65.7183 11.6797 65.4032 11.5625 64.9709 11.5625C64.5907 11.5625 64.2913 11.6536 64.0725 11.8359C63.859 12.0182 63.7522 12.2682 63.7522 12.5859H61.4944C61.4944 12.0964 61.6454 11.6432 61.9475 11.2266C62.2496 10.8099 62.6767 10.4844 63.2288 10.25C63.7808 10.0104 64.4006 9.89062 65.0881 9.89062C66.1298 9.89062 66.9553 10.1536 67.5647 10.6797C68.1793 11.2005 68.4866 11.9349 68.4866 12.8828V16.5469C68.4918 17.349 68.6038 17.9557 68.8225 18.3672V18.5H66.5413ZM64.6741 16.9297C65.0074 16.9297 65.3147 16.8568 65.5959 16.7109C65.8772 16.5599 66.0855 16.3594 66.2209 16.1094V14.6562H65.3772C64.247 14.6562 63.6454 15.0469 63.5725 15.8281L63.5647 15.9609C63.5647 16.2422 63.6636 16.474 63.8616 16.6562C64.0595 16.8385 64.3303 16.9297 64.6741 16.9297Z" fill="black"/>
</svg>
