<svg width="1263" height="400" viewBox="0 0 1263 400" fill="none" xmlns="http://www.w3.org/2000/svg">
<path d="M144.979 199.328C144.979 145.859 185.341 101.816 237.259 96.0057C219.556 63.9208 185.396 42.1875 146.16 42.1875C88.9343 42.1875 42.5062 88.4197 42.1891 145.571L42.1875 145.57V254.859L146.751 357.06L144.979 248.952V199.328Z" fill="black"/>
<path d="M248.952 254.269L249.543 146.16C306.368 146.16 352.547 191.748 353.501 248.346L353.516 248.361V356.469L248.952 254.269Z" fill="black"/>
<path d="M596.946 173.17C595.486 168.093 593.434 163.608 590.792 159.713C588.149 155.749 584.915 152.411 581.09 149.699C577.335 146.917 573.023 144.796 568.155 143.336C563.357 141.876 558.037 141.145 552.195 141.145C541.277 141.145 531.68 143.858 523.404 149.282C515.198 154.706 508.8 162.599 504.21 172.961C499.62 183.254 497.326 195.841 497.326 210.723C497.326 225.605 499.586 238.262 504.106 248.694C508.626 259.125 515.024 267.088 523.3 272.582C531.576 278.006 541.346 280.718 552.612 280.718C562.835 280.718 571.563 278.91 578.795 275.294C586.097 271.608 591.661 266.427 595.486 259.751C599.38 253.075 601.327 245.182 601.327 236.072L610.507 237.428H555.429V203.421H644.826V230.334C644.826 249.111 640.862 265.245 632.935 278.736C625.007 292.158 614.088 302.52 600.18 309.822C586.271 317.055 570.346 320.671 552.404 320.671C532.375 320.671 514.781 316.255 499.62 307.423C484.46 298.521 472.638 285.899 464.154 269.557C455.739 253.144 451.531 233.672 451.531 211.14C451.531 193.824 454.035 178.386 459.042 164.825C464.119 151.194 471.212 139.65 480.322 130.192C489.432 120.734 500.038 113.537 512.138 108.599C524.239 103.662 537.348 101.193 551.465 101.193C563.565 101.193 574.831 102.966 585.263 106.513C595.694 109.99 604.943 114.928 613.01 121.326C621.147 127.724 627.788 135.338 632.935 144.17C638.081 152.933 641.384 162.599 642.844 173.17H596.946Z" fill="black"/>
<path d="M677.92 317.75V157.523H721.002V185.479H722.671C725.592 175.534 730.495 168.024 737.38 162.947C744.264 157.801 752.192 155.228 761.163 155.228C763.389 155.228 765.788 155.367 768.361 155.645C770.934 155.923 773.194 156.306 775.141 156.793V196.223C773.055 195.598 770.169 195.041 766.483 194.554C762.798 194.068 759.425 193.824 756.365 193.824C749.828 193.824 743.986 195.25 738.84 198.101C733.763 200.883 729.73 204.777 726.74 209.784C723.819 214.791 722.358 220.564 722.358 227.101V317.75H677.92Z" fill="black"/>
<path d="M798.117 317.75V157.523H842.555V317.75H798.117ZM820.44 136.868C813.834 136.868 808.166 134.678 803.437 130.297C798.777 125.846 796.448 120.526 796.448 114.336C796.448 108.217 798.777 102.966 803.437 98.585C808.166 94.1342 813.834 91.9088 820.44 91.9088C827.047 91.9088 832.68 94.1342 837.339 98.585C842.068 102.966 844.432 108.217 844.432 114.336C844.432 120.526 842.068 125.846 837.339 130.297C832.68 134.678 827.047 136.868 820.44 136.868Z" fill="black"/>
<path d="M937.194 320.358C925.024 320.358 914.002 317.228 904.127 310.97C894.321 304.641 886.532 295.357 880.76 283.118C875.058 270.808 872.206 255.718 872.206 237.845C872.206 219.486 875.162 204.221 881.073 192.051C886.984 179.811 894.842 170.666 904.648 164.616C914.523 158.496 925.337 155.436 937.09 155.436C946.061 155.436 953.537 156.966 959.518 160.026C965.568 163.017 970.436 166.772 974.122 171.292C977.877 175.743 980.728 180.124 982.675 184.436H984.032V104.114H1028.37V317.75H984.553V292.089H982.675C980.589 296.539 977.634 300.955 973.809 305.337C970.053 309.648 965.151 313.23 959.1 316.081C953.12 318.932 945.818 320.358 937.194 320.358ZM951.277 284.995C958.44 284.995 964.49 283.048 969.427 279.154C974.435 275.19 978.259 269.661 980.902 262.568C983.614 255.474 984.97 247.164 984.97 237.636C984.97 228.109 983.649 219.833 981.006 212.809C978.364 205.786 974.539 200.361 969.532 196.536C964.525 192.712 958.44 190.799 951.277 190.799C943.975 190.799 937.82 192.781 932.813 196.745C927.806 200.709 924.016 206.203 921.443 213.227C918.87 220.251 917.583 228.387 917.583 237.636C917.583 246.955 918.87 255.196 921.443 262.359C924.085 269.452 927.875 275.016 932.813 279.049C937.82 283.013 943.975 284.995 951.277 284.995Z" fill="black"/>
<path d="M1110.59 320.775C1100.37 320.775 1091.26 319.002 1083.26 315.455C1075.26 311.839 1068.93 306.519 1064.28 299.495C1059.69 292.402 1057.39 283.57 1057.39 272.999C1057.39 264.098 1059.03 256.622 1062.29 250.571C1065.56 244.521 1070.01 239.653 1075.65 235.967C1081.28 232.282 1087.68 229.5 1094.84 227.622C1102.07 225.744 1109.65 224.423 1117.58 223.658C1126.9 222.685 1134.41 221.781 1140.11 220.946C1145.81 220.042 1149.95 218.721 1152.53 216.982C1155.1 215.243 1156.39 212.67 1156.39 209.263V208.637C1156.39 202.03 1154.3 196.919 1150.13 193.303C1146.02 189.686 1140.18 187.878 1132.6 187.878C1124.6 187.878 1118.24 189.652 1113.51 193.198C1108.78 196.675 1105.65 201.057 1104.12 206.342L1063.02 203.004C1065.11 193.268 1069.21 184.853 1075.33 177.76C1081.45 170.597 1089.35 165.103 1099.01 161.278C1108.75 157.384 1120.01 155.436 1132.81 155.436C1141.71 155.436 1150.23 156.48 1158.37 158.566C1166.57 160.652 1173.84 163.886 1180.17 168.267C1186.57 172.648 1191.61 178.281 1195.29 185.166C1198.98 191.981 1200.82 200.153 1200.82 209.68V317.75H1158.68V295.531H1157.43C1154.86 300.538 1151.41 304.954 1147.1 308.779C1142.79 312.534 1137.61 315.49 1131.56 317.646C1125.51 319.732 1118.52 320.775 1110.59 320.775ZM1123.32 290.107C1129.85 290.107 1135.63 288.82 1140.63 286.247C1145.64 283.604 1149.57 280.058 1152.42 275.607C1155.27 271.156 1156.7 266.114 1156.7 260.481V243.478C1155.31 244.382 1153.4 245.217 1150.96 245.982C1148.6 246.677 1145.92 247.338 1142.93 247.964C1139.94 248.52 1136.95 249.041 1133.96 249.528C1130.97 249.945 1128.26 250.328 1125.82 250.676C1120.61 251.441 1116.05 252.658 1112.16 254.327C1108.26 255.996 1105.24 258.256 1103.08 261.107C1100.92 263.889 1099.85 267.366 1099.85 271.539C1099.85 277.589 1102.04 282.213 1106.42 285.412C1110.87 288.542 1116.5 290.107 1123.32 290.107Z" fill="black"/>
</svg>
