<svg width="64" height="64" viewBox="0 0 64 64" fill="none" xmlns="http://www.w3.org/2000/svg">
<path d="M55.109 35.5933C52.8762 35.605 50.9357 36.1428 49.3108 36.9378C48.7147 35.757 48.1185 34.7048 48.0133 33.9332C47.8964 33.033 47.7561 32.4836 47.8964 31.408C48.0367 30.3325 48.6679 28.801 48.6562 28.6841C48.6445 28.5672 48.5159 28.0177 47.2301 28.006C45.9442 27.9943 44.8336 28.2515 44.705 28.5905C44.5765 28.9296 44.331 29.7012 44.1673 30.4961C43.9452 31.6652 41.5955 35.8388 40.2512 38.025C39.8187 37.1716 39.4446 36.4234 39.3628 35.8271C39.2459 34.927 39.1056 34.3775 39.2459 33.3019C39.3862 32.2264 40.0174 30.6949 40.0057 30.578C39.994 30.4611 39.8654 29.9116 38.5796 29.8999C37.2937 29.8882 36.1831 30.1454 36.0546 30.4845C35.926 30.8235 35.7857 31.6185 35.5168 32.3901C35.248 33.1616 32.1268 40.1293 31.3085 41.9297C30.8876 42.8533 30.5253 43.5898 30.2681 44.0925C30.2681 44.0925 30.2564 44.1276 30.2213 44.186C29.9992 44.6186 29.8706 44.8524 29.8706 44.8524C29.8706 44.8524 29.8706 44.8524 29.8706 44.8641C29.6953 45.1798 29.5082 45.472 29.4147 45.472C29.3446 45.472 29.216 44.6303 29.4381 43.4846C29.9057 41.0646 31.0162 37.3002 31.0045 37.1716C31.0045 37.1014 31.215 36.4468 30.2798 36.1077C29.368 35.7687 29.0406 36.3298 28.9588 36.3298C28.877 36.3298 28.8185 36.5286 28.8185 36.5286C28.8185 36.5286 29.8356 32.2965 26.878 32.2965C25.031 32.2965 22.4826 34.319 21.2201 36.1428C20.4252 36.5754 18.7302 37.4989 16.9183 38.4926C16.2286 38.8784 15.5155 39.2642 14.8492 39.6266C14.8024 39.5799 14.7557 39.5214 14.7089 39.4747C11.1318 35.6518 4.51535 32.9512 4.7959 27.819C4.90111 25.9484 5.54405 21.0383 17.5028 15.076C27.3456 10.2243 35.1778 11.5688 36.5338 14.5499C38.4744 18.8054 32.3372 26.7083 22.167 27.854C18.286 28.2866 16.252 26.7902 15.7376 26.229C15.1999 25.6445 15.118 25.6094 14.9193 25.7263C14.592 25.9017 14.8024 26.4278 14.9193 26.7317C15.2232 27.5267 16.4741 28.9296 18.5899 29.6193C20.4603 30.2273 25.0077 30.5663 30.5136 28.4386C36.6741 26.0536 41.4903 19.425 40.0759 13.8719C38.6614 8.2369 29.3095 6.37807 20.4603 9.52289C15.1999 11.3934 9.49522 14.3395 5.39208 18.1741C0.517418 22.7335 -0.254112 26.6966 0.0615142 28.3567C1.19543 34.2489 9.31987 38.0835 12.5697 40.9243C12.406 41.0178 12.254 41.0997 12.1254 41.1698C10.5005 41.9765 4.30493 45.2148 2.76187 48.6402C1.00839 52.5216 3.04243 55.304 4.38676 55.6781C8.56003 56.8355 12.8502 54.7545 15.1531 51.3174C17.456 47.8803 17.1755 43.4145 16.1117 41.3686C16.1 41.3452 16.0883 41.3218 16.0649 41.2984C16.4858 41.0529 16.9183 40.7957 17.3391 40.5502C18.1691 40.0592 18.9874 39.6033 19.6888 39.2292C19.2913 40.3164 18.9991 41.6141 18.8588 43.4846C18.6834 45.6825 19.5836 48.535 20.7642 49.6573C21.2903 50.1483 21.9098 50.16 22.3073 50.16C23.6867 50.16 24.3063 49.0143 24.996 47.6582C25.8376 45.9981 26.5975 44.0691 26.5975 44.0691C26.5975 44.0691 25.6506 49.2832 28.2224 49.2832C29.1575 49.2832 30.1044 48.0674 30.5253 47.4478C30.5253 47.4595 30.5253 47.4595 30.5253 47.4595C30.5253 47.4595 30.5486 47.4244 30.5954 47.3426C30.6889 47.1906 30.7474 47.0971 30.7474 47.0971C30.7474 47.0971 30.7474 47.0854 30.7474 47.0737C31.1214 46.419 31.9631 44.9343 33.2139 42.4675C34.8271 39.2876 36.3819 35.3127 36.3819 35.3127C36.3819 35.3127 36.5222 36.2831 37.0014 37.8964C37.282 38.8434 37.8665 39.8838 38.3341 40.8892C37.96 41.4153 37.7262 41.7076 37.7262 41.7076C37.7262 41.7076 37.7262 41.7076 37.7379 41.7193C37.434 42.1168 37.1066 42.5493 36.7443 42.9702C35.4701 44.49 33.9504 46.2319 33.74 46.7346C33.4945 47.3309 33.5529 47.7634 34.0205 48.1142C34.3595 48.3713 34.9674 48.4064 35.587 48.3713C36.7326 48.2895 37.5392 48.0089 37.9366 47.8336C38.5562 47.6114 39.281 47.2724 39.959 46.7697C41.2098 45.8461 41.9696 44.5251 41.8995 42.7832C41.8644 41.8245 41.5488 40.8659 41.163 39.9657C41.2799 39.802 41.3851 39.6383 41.502 39.4747C43.4776 36.587 45.009 33.4188 45.009 33.4188C45.009 33.4188 45.1493 34.3892 45.6285 36.0025C45.8623 36.8209 46.3416 37.7094 46.7625 38.5745C44.9038 40.0826 43.7582 41.8362 43.349 42.9819C42.6126 45.1096 43.1854 46.0683 44.2725 46.2904C44.7635 46.3956 45.4649 46.1618 45.9792 45.9397C46.6339 45.7292 47.4054 45.3668 48.1419 44.829C49.3927 43.9055 50.5967 42.6195 50.5266 40.8776C50.4915 40.0826 50.2811 39.2993 49.9889 38.5394C51.567 37.8847 53.601 37.5223 56.1962 37.8263C61.7605 38.4809 62.8594 41.9531 62.649 43.4145C62.4386 44.8758 61.2696 45.6708 60.8838 45.9163C60.498 46.1618 60.3694 46.2436 60.4045 46.419C60.4513 46.6762 60.6383 46.6645 60.9656 46.6177C61.4215 46.5359 63.8881 45.437 63.9933 42.7481C64.1686 39.311 60.8955 35.5583 55.109 35.5933ZM12.1839 50.0665C10.3369 52.0773 7.76512 52.8372 6.65459 52.1942C5.46222 51.5045 5.92982 48.535 8.19765 46.4073C9.57705 45.1096 11.3539 43.9055 12.5346 43.1689C12.8034 43.0053 13.2009 42.7715 13.6802 42.4792C13.762 42.4324 13.8088 42.409 13.8088 42.409C13.9023 42.3506 13.9958 42.2921 14.0893 42.2337C14.9193 45.2733 14.1244 47.9505 12.1839 50.0665ZM25.6272 40.9243C24.9843 42.4909 23.6399 46.5008 22.8216 46.2787C22.1203 46.0916 21.6877 43.052 22.6814 40.0475C23.184 38.5394 24.2478 36.739 24.8674 36.0376C25.8727 34.9153 26.9832 34.5412 27.2521 34.9971C27.5911 35.5933 26.0247 39.9423 25.6272 40.9243ZM36.7209 46.2319C36.452 46.3722 36.1948 46.4657 36.0779 46.3956C35.9961 46.3488 36.1948 46.1618 36.1948 46.1618C36.1948 46.1618 37.5859 44.6654 38.1354 43.9873C38.451 43.5898 38.8251 43.1222 39.2225 42.5961C39.2225 42.6429 39.2225 42.7013 39.2225 42.7481C39.2225 44.5368 37.4924 45.7409 36.7209 46.2319ZM45.2778 44.2796C45.0791 44.1393 45.1142 43.6717 45.7805 42.2103C46.0377 41.6375 46.6456 40.6788 47.686 39.7552C47.8029 40.1293 47.8847 40.4918 47.873 40.8308C47.8613 43.0871 46.2481 43.9288 45.2778 44.2796Z" fill="#CD6799"/>
</svg>
