<svg width="24" height="24" viewBox="0 0 24 24" fill="none" xmlns="http://www.w3.org/2000/svg">
<path fill-rule="evenodd" clip-rule="evenodd" d="M7 19C9.7924 19 12.2029 17.3649 13.3264 15H17V17C17 17.5523 17.4477 18 18 18H21C21.5523 18 22 17.5523 22 17V15H23C23.5523 15 24 14.5523 24 14V10C24 9.44772 23.5523 9 23 9H13.3264C12.2029 6.63505 9.7924 5 7 5C3.13401 5 0 8.13401 0 12C0 15.866 3.13401 19 7 19ZM7 18C9.61244 18 11.8349 16.3304 12.6586 14H18V17H21V14H23V10H12.6586C11.8349 7.66962 9.61244 6 7 6C3.68629 6 1 8.68629 1 12C1 15.3137 3.68629 18 7 18Z" fill="#858585"/>
<path fill-rule="evenodd" clip-rule="evenodd" d="M7 15C8.65685 15 10 13.6569 10 12C10 10.3431 8.65685 9 7 9C5.34315 9 4 10.3431 4 12C4 13.6569 5.34315 15 7 15ZM7 14C8.10457 14 9 13.1046 9 12C9 10.8954 8.10457 10 7 10C5.89543 10 5 10.8954 5 12C5 13.1046 5.89543 14 7 14Z" fill="#858585"/>
</svg>
