<svg width="64" height="64" viewBox="0 0 64 64" fill="none" xmlns="http://www.w3.org/2000/svg">
<path d="M38.1691 0.0218536L58 0L24.7292 33.2538L16.0582 41.8763L6.1925 31.9985L38.1691 0.0218536ZM37.9846 29.7136C38.242 29.3736 38.7155 29.5412 39.0748 29.4975L57.983 29.5023L40.7503 46.7181L30.8336 36.8621L37.9846 29.7136Z" fill="#44D1FD"/>
<path d="M20.9485 46.7351L30.8336 36.8621L40.7502 46.7181L40.7915 46.7618L30.836 56.625L20.9485 46.7351V46.7351Z" fill="#1FBCFD"/>
<path d="M30.8361 56.625L40.7916 46.7618L57.9903 63.9775C51.512 63.9921 45.036 63.9727 38.5601 63.9872C38.191 64.0698 37.9628 63.7323 37.7272 63.5235L30.8361 56.625V56.625Z" fill="#08589C"/>
</svg>
