<svg width="65" height="64" viewBox="0 0 65 64" fill="none" xmlns="http://www.w3.org/2000/svg">
<path fill-rule="evenodd" clip-rule="evenodd" d="M16.653 25.654C17.4129 21.3366 20.7287 13.3671 31.8851 13.0125C40.3813 12.7424 44.3386 16.9065 47.3437 20.0686C48.5656 21.3544 49.6301 22.4745 50.7783 23.0636C56.5464 26.0229 61.2093 23.5126 64.2833 19.3333C63.6386 22.5339 60.6912 29.2808 54.3359 31.215C46.3657 33.6407 40.2946 30.6488 37.2733 28.3827C36.6351 27.9041 35.8924 27.1549 35.0503 26.3054C32.6106 23.8445 29.337 20.5422 25.3571 20.5422C20.7633 20.5422 17.6432 24.0537 16.653 25.654ZM0.869141 44.6165C1.62901 40.299 4.94483 32.3296 16.1012 31.975C24.5974 31.7049 28.5547 35.8689 31.5598 39.0311C32.7817 40.3169 33.8462 41.437 34.9944 42.026C40.7625 44.9853 45.4254 42.4751 48.4994 38.2957C47.8547 41.4964 44.9073 48.2433 38.552 50.1775C30.5818 52.6032 24.5107 49.6112 21.4894 47.3452C20.8512 46.8666 20.1085 46.1174 19.2664 45.2679C16.8267 42.8069 13.5531 39.5047 9.57315 39.5047C4.97937 39.5047 1.85928 43.0161 0.869141 44.6165Z" fill="#07B6D5"/>
</svg>
