<svg width="64" height="64" viewBox="0 0 64 64" fill="none" xmlns="http://www.w3.org/2000/svg">
<path fill-rule="evenodd" clip-rule="evenodd" d="M59.5591 19.2859C59.5591 17.1423 58.4155 15.1615 56.5591 14.0897L35.2793 1.80383C33.4229 0.732032 31.1357 0.732032 29.2793 1.80383L7.99951 14.0897C6.14311 15.1615 4.99951 17.1423 4.99951 19.2859V43.8577C4.99951 46.0013 6.1431 47.982 7.99951 49.0538L29.2793 61.3397C31.1357 62.4115 33.4229 62.4115 35.2793 61.3397L56.5591 49.0538C58.4155 47.982 59.5591 46.0013 59.5591 43.8577V19.2859ZM43.1046 28.7859C43.1046 26.6423 41.961 24.6615 40.1046 23.5897L35.2793 20.8038C33.4229 19.732 31.1357 19.732 29.2793 20.8038L24.454 23.5897C22.5976 24.6615 21.454 26.6423 21.454 28.7859V34.3577C21.454 36.5013 22.5976 38.482 24.454 39.5538L29.2793 42.3397C31.1357 43.4115 33.4229 43.4115 35.2793 42.3397L40.1046 39.5538C41.961 38.482 43.1046 36.5013 43.1046 34.3577V28.7859Z" fill="black"/>
</svg>
