<svg width="64" height="64" viewBox="0 0 64 64" fill="none" xmlns="http://www.w3.org/2000/svg">
<path fill-rule="evenodd" clip-rule="evenodd" d="M37.3859 1.62118L56.6024 1.60001L24.3624 33.8235L15.96 42.1788L6.40002 32.6071L37.3859 1.62118ZM37.2071 30.393C37.3835 30.16 37.6646 30.173 37.9373 30.1856H37.9373C38.0502 30.1908 38.1616 30.1959 38.2636 30.1835L56.5859 30.1882L39.8873 46.8704L39.9271 46.9125L30.28 56.4701L20.6989 46.8866L30.2777 37.3195L30.2779 37.3198L37.2071 30.393ZM39.9272 46.9125L30.2801 56.4701L36.9578 63.1549C37.0023 63.1943 37.0466 63.2386 37.0916 63.2836C37.2775 63.4694 37.477 63.6687 37.7648 63.6043C40.9024 63.5972 44.04 63.5984 47.1779 63.5996C50.3159 63.6007 53.4542 63.6019 56.593 63.5949L39.9272 46.9125Z" fill="black"/>
</svg>
