<svg width="1728" height="1117" viewBox="0 0 1728 1117" fill="none" xmlns="http://www.w3.org/2000/svg">
<g clip-path="url(#clip0_661_2795)">
<circle cx="1642" cy="-0.000609398" r="350" transform="rotate(55.2371 1642 -0.000609398)" fill="url(#paint0_linear_661_2795)"/>
<path d="M137 608C406.6 650.4 351.667 240 290.5 29.5L137 -331L-471 435.5C-380.667 475.333 -132.6 565.6 137 608Z" fill="url(#paint1_linear_661_2795)"/>
<path d="M671 499.5C567 556.7 627.667 604.667 671 621.5C690.333 650.834 741.2 707.3 790 698.5C851 687.5 843.5 659 806 579.5C768.5 500 848.5 499.5 888.5 433.5C928.5 367.5 801 428 671 499.5Z" fill="url(#paint2_linear_661_2795)"/>
<path d="M609.275 533.81C564.86 423.741 510.014 478.267 488.143 519.289C456.717 534.994 394.598 578.779 397.527 628.279C401.188 690.155 430.379 686.1 513.777 658.329C597.175 630.557 588.149 710.048 648.92 757.619C709.69 805.19 664.795 671.396 609.275 533.81Z" fill="url(#paint3_linear_661_2795)"/>
<path d="M923.733 1024.14C548.933 1028.54 648.566 1090.98 745.233 1121.64C674.899 1109.98 493.633 1074.14 331.233 1024.14C168.833 974.144 357.233 1300.98 471.733 1470.64L1411.23 1676.64C1480.73 1507.81 1613.23 1153.44 1587.23 1086.64C1554.73 1003.14 1392.23 1018.64 923.733 1024.14Z" fill="url(#paint4_linear_661_2795)"/>
<path d="M670.186 238.16L468.902 207.526C283.927 179.374 126.325 58.3026 51.4473 -113.166L949.21 -21.825L709.906 224.79C699.605 235.405 684.809 240.386 670.186 238.16Z" fill="url(#paint5_linear_661_2795)" fill-opacity="0.5"/>
</g>
<defs>
<linearGradient id="paint0_linear_661_2795" x1="1642" y1="-350.001" x2="1642" y2="349.999" gradientUnits="userSpaceOnUse">
<stop stop-color="#780CBA" stop-opacity="0.24"/>
<stop offset="1" stop-color="#FFDF39" stop-opacity="0.35"/>
</linearGradient>
<linearGradient id="paint1_linear_661_2795" x1="-65.1553" y1="-331" x2="-65.1553" y2="611.048" gradientUnits="userSpaceOnUse">
<stop stop-color="#35FFB6" stop-opacity="0.24"/>
<stop offset="1" stop-color="#F9E1BC" stop-opacity="0.35"/>
</linearGradient>
<linearGradient id="paint2_linear_661_2795" x1="754.775" y1="405.135" x2="754.775" y2="699.42" gradientUnits="userSpaceOnUse">
<stop stop-color="#68FFC9" stop-opacity="0.24"/>
<stop offset="1" stop-color="#B99867" stop-opacity="0.35"/>
</linearGradient>
<linearGradient id="paint3_linear_661_2795" x1="692.999" y1="628.22" x2="400.805" y2="593.195" gradientUnits="userSpaceOnUse">
<stop stop-color="#68FFC9" stop-opacity="0.76"/>
<stop offset="1" stop-color="#B99867" stop-opacity="0.41"/>
</linearGradient>
<linearGradient id="paint4_linear_661_2795" x1="249.732" y1="1018.64" x2="1830.73" y2="1347.64" gradientUnits="userSpaceOnUse">
<stop stop-color="#68FFC9" stop-opacity="0.24"/>
<stop offset="1" stop-color="#0AB6FF" stop-opacity="0.28"/>
</linearGradient>
<linearGradient id="paint5_linear_661_2795" x1="36.8684" y1="30.1255" x2="934.631" y2="121.467" gradientUnits="userSpaceOnUse">
<stop stop-color="#FFFDD8"/>
<stop offset="1" stop-color="#FFFDD8" stop-opacity="0"/>
</linearGradient>
<clipPath id="clip0_661_2795">
<rect width="1728" height="1117" fill="white"/>
</clipPath>
</defs>
</svg>
