<svg width="64" height="64" viewBox="0 0 64 64" fill="none" xmlns="http://www.w3.org/2000/svg">
<path d="M18.8 38.4L23.9851 29.4545L31.6318 25.6318L44.4266 38.4266L46.5932 50.7774L44.4 64L31.6 51.2L23.9851 46.077L18.8 38.4Z" fill="#00E8FF"/>
<path d="M31.6 51.2V25.6L44.4 12.8V38.4L31.6 51.2ZM6 51.2L18.8 64L20.6403 51.8797L18.8 38.4L11.2916 43.1418L6 51.2Z" fill="#283198"/>
<path d="M18.8 38.4V12.8L31.6 0V25.6L18.8 38.4ZM44.4 64V38.4L57.2 25.6V51.2L44.4 64ZM6 51.2V25.6L18.8 38.4L6 51.2Z" fill="#324FFF"/>
<path d="M18.8 64V38.4L31.6 51.2L18.8 64Z" fill="#00FFFF"/>
</svg>
