<svg xmlns="http://www.w3.org/2000/svg" viewBox="0 0 240 120" fill="none"><defs><linearGradient id="ga" x1="0" y1="0" x2="1" y2="1"><stop offset="0" stop-color="#B197FF"/><stop offset="0.55" stop-color="#79CCEA"/><stop offset="1" stop-color="#6BE8D6"/></linearGradient></defs><ellipse cx="120" cy="60" rx="46" ry="28" stroke="#fafafa" stroke-width="1.5" opacity="0.4"/><circle cx="74" cy="60" r="2" fill="#fafafa" opacity="0.85"/><circle cx="166" cy="60" r="2" fill="#fafafa" opacity="0.85"/><circle cx="120" cy="32" r="2" fill="#fafafa" opacity="0.85"/><circle cx="120" cy="88" r="2" fill="#fafafa" opacity="0.85"/><path transform="translate(120 60)" d="M0 -18 Q3.2399999999999998 -3.2399999999999998 18 0 Q3.2399999999999998 3.2399999999999998 0 18 Q-3.2399999999999998 3.2399999999999998 -18 0 Q-3.2399999999999998 -3.2399999999999998 0 -18 Z" fill="url(#ga)"/><path transform="translate(178 40)" d="M0 -5 Q0.8999999999999999 -0.8999999999999999 5 0 Q0.8999999999999999 0.8999999999999999 0 5 Q-0.8999999999999999 0.8999999999999999 -5 0 Q-0.8999999999999999 -0.8999999999999999 0 -5 Z" fill="#fafafa" opacity="0.7"/><path transform="translate(62 44)" d="M0 -4 Q0.72 -0.72 4 0 Q0.72 0.72 0 4 Q-0.72 0.72 -4 0 Q-0.72 -0.72 0 -4 Z" fill="#fafafa" opacity="0.5"/></svg>
