<svg xmlns="http://www.w3.org/2000/svg" viewBox="0 0 240 120" fill="none"><defs><linearGradient id="ga" x1="0" y1="0" x2="1" y2="1"><stop offset="0" stop-color="#A06EFF"/><stop offset="0.55" stop-color="#6AB8FF"/><stop offset="1" stop-color="#5FE0CF"/></linearGradient></defs><circle cx="120" cy="60" r="30" stroke="#0a0a0a" stroke-width="2"/><circle cx="90" cy="60" r="2" fill="#0a0a0a" opacity="0.7"/><circle cx="150" cy="60" r="2" fill="#0a0a0a" opacity="0.7"/><circle cx="120" cy="30" r="2" fill="#0a0a0a" opacity="0.7"/><circle cx="120" cy="90" r="2" fill="#0a0a0a" opacity="0.7"/><path d="M106 60 L116 70 L136 49" stroke="url(#ga)" stroke-width="2.5" stroke-linecap="round" stroke-linejoin="round"/><path transform="translate(168 42)" d="M0 -8 Q1.44 -1.44 8 0 Q1.44 1.44 0 8 Q-1.44 1.44 -8 0 Q-1.44 -1.44 0 -8 Z" fill="#0a0a0a"/><path transform="translate(72 40)" d="M0 -6 Q1.08 -1.08 6 0 Q1.08 1.08 0 6 Q-1.08 1.08 -6 0 Q-1.08 -1.08 0 -6 Z" fill="#0a0a0a" opacity="0.7"/><path transform="translate(162 88)" d="M0 -5 Q0.8999999999999999 -0.8999999999999999 5 0 Q0.8999999999999999 0.8999999999999999 0 5 Q-0.8999999999999999 0.8999999999999999 -5 0 Q-0.8999999999999999 -0.8999999999999999 0 -5 Z" fill="#0a0a0a" opacity="0.5"/><path transform="translate(80 88)" d="M0 -4 Q0.72 -0.72 4 0 Q0.72 0.72 0 4 Q-0.72 0.72 -4 0 Q-0.72 -0.72 0 -4 Z" fill="#0a0a0a" opacity="0.4"/></svg>
