<svg xmlns="http://www.w3.org/2000/svg" viewBox="0 0 240 120" fill="none"><defs><linearGradient id="ga" x1="0" y1="0" x2="1" y2="1"><stop offset="0" stop-color="#A06EFF"/><stop offset="0.55" stop-color="#6AB8FF"/><stop offset="1" stop-color="#5FE0CF"/></linearGradient></defs><rect x="44" y="24" width="152" height="80" rx="8" stroke="#0a0a0a" stroke-width="2"/><line x1="44" y1="42" x2="196" y2="42" stroke="#0a0a0a" stroke-width="2"/><circle cx="56" cy="33" r="2.2" fill="#0a0a0a" opacity="0.4"/><circle cx="66" cy="33" r="2.2" fill="#0a0a0a" opacity="0.4"/><circle cx="76" cy="33" r="2.2" fill="#0a0a0a" opacity="0.4"/><line x1="58" y1="72" x2="186" y2="72" stroke="#0a0a0a" stroke-width="1" opacity="0.16"/><line x1="135" y1="50" x2="135" y2="98" stroke="#0a0a0a" stroke-width="1" opacity="0.16"/><rect x="58" y="56" width="11" height="11" fill="#0a0a0a"/><circle cx="92" cy="74" r="13" stroke="#0a0a0a" stroke-width="2" opacity="0.55"/><circle cx="92" cy="74" r="2" fill="#0a0a0a" opacity="0.6"/><rect x="122" y="58" width="26" height="26" rx="2" stroke="#0a0a0a" stroke-width="2" opacity="0.6"/><rect x="120" y="56" width="4" height="4" fill="#0a0a0a"/><rect x="146" y="56" width="4" height="4" fill="#0a0a0a"/><rect x="120" y="82" width="4" height="4" fill="#0a0a0a"/><rect x="146" y="82" width="4" height="4" fill="#0a0a0a"/><path transform="translate(170 56)" d="M0 -9 Q1.6199999999999999 -1.6199999999999999 9 0 Q1.6199999999999999 1.6199999999999999 0 9 Q-1.6199999999999999 1.6199999999999999 -9 0 Q-1.6199999999999999 -1.6199999999999999 0 -9 Z" fill="url(#ga)"/><path transform="translate(158 45)" d="M0 -3.5 Q0.63 -0.63 3.5 0 Q0.63 0.63 0 3.5 Q-0.63 0.63 -3.5 0 Q-0.63 -0.63 0 -3.5 Z" fill="url(#ga)" opacity="0.8"/></svg>
