<svg xmlns="http://www.w3.org/2000/svg" viewBox="0 0 240 120" fill="none"><defs><linearGradient id="ga" x1="0" y1="0" x2="1" y2="1"><stop offset="0" stop-color="#B197FF"/><stop offset="0.55" stop-color="#79CCEA"/><stop offset="1" stop-color="#6BE8D6"/></linearGradient></defs><clipPath id="gac"><rect x="0" y="0" width="240" height="58"/></clipPath><g clip-path="url(#gac)"><path d="M102 34 H134 L142 42 V60 H102 Z" fill="url(#ga)" fill-opacity="0.5"/><path d="M102 34 H134 L142 42 V60 H102 Z" stroke="#fafafa" stroke-width="2" stroke-linejoin="round" opacity="0.6"/><path d="M134 34 V42 H142" stroke="#fafafa" stroke-width="2" stroke-linejoin="round" opacity="0.6"/><line x1="110" y1="44" x2="136" y2="44" stroke="#fafafa" stroke-width="2" stroke-linecap="round" opacity="0.4"/><line x1="110" y1="51" x2="130" y2="51" stroke="#fafafa" stroke-width="2" stroke-linecap="round" opacity="0.4"/></g><path d="M56 50 H86 L94 58 H184 V92 H56 Z" fill="#fafafa" opacity="0.08"/><path d="M56 50 H86 L94 58 H184 V92 H56 Z" stroke="#fafafa" stroke-width="2" stroke-linejoin="round"/><circle cx="56" cy="50" r="2" fill="#fafafa" opacity="0.7"/><circle cx="184" cy="58" r="2" fill="#fafafa" opacity="0.7"/><circle cx="184" cy="92" r="2" fill="#fafafa" opacity="0.7"/><circle cx="56" cy="92" r="2" fill="#fafafa" opacity="0.7"/></svg>
