<svg width="64" height="64" viewBox="0 0 64 64" fill="none" xmlns="http://www.w3.org/2000/svg">
<mask id="mask0_8373_58373" style="mask-type:alpha" maskUnits="userSpaceOnUse" x="6" y="0" width="52" height="64">
<path d="M8.38071 58.8487L6.40232 6.13381C6.33699 4.39284 7.6719 2.9174 9.4107 2.80872L54.2484 0.00636199C56.0183 -0.104256 57.5428 1.24085 57.6534 3.01074C57.6576 3.07742 57.6596 3.14422 57.6596 3.21103V60.6533C57.6596 62.4266 56.2221 63.8642 54.4487 63.8642C54.4007 63.8642 54.3526 63.8631 54.3047 63.8609L11.4453 61.936C9.7761 61.861 8.44337 60.5184 8.38071 58.8487Z" fill="white"/>
</mask>
<g mask="url(#mask0_8373_58373)">
<path fill-rule="evenodd" clip-rule="evenodd" d="M44.5523 0.612368L44.2514 7.84993C44.2468 7.96118 44.2811 8.07058 44.3484 8.1593C44.5082 8.37006 44.8087 8.41131 45.0195 8.25143L47.8309 6.1188L50.2054 7.98939C50.2944 8.05949 50.4054 8.09578 50.5186 8.09183C50.7829 8.08259 50.9898 7.86079 50.9805 7.59642L50.7232 0.226691L54.2484 0.00636199C56.0183 -0.104256 57.5428 1.24085 57.6534 3.01074C57.6576 3.07742 57.6596 3.14422 57.6596 3.21103V60.6533C57.6596 62.4266 56.2221 63.8642 54.4487 63.8642C54.4007 63.8642 54.3526 63.8631 54.3047 63.8609L11.4453 61.936C9.7761 61.861 8.44337 60.5184 8.38071 58.8487L6.40232 6.13381C6.33699 4.39284 7.6719 2.9174 9.4107 2.80872L44.5523 0.612368ZM45.9208 23.8443C44.7912 24.7218 36.3765 25.3205 36.3765 24.0713C36.5543 19.3044 34.4202 19.0955 33.2346 19.0955C32.1082 19.0955 30.2112 19.436 30.2112 21.9896C30.2112 24.5919 32.9835 26.061 36.2374 27.7854C40.8598 30.235 46.4543 33.1997 46.4543 40.6598C46.4543 47.81 40.6447 51.7598 33.2346 51.7598C25.5873 51.7598 18.9044 48.6659 19.6592 37.9392C19.9556 36.6796 29.6777 36.979 29.6777 37.9392C29.5591 42.3656 30.5669 43.6674 33.116 43.6674C35.0723 43.6674 35.9615 42.5892 35.9615 40.7733C35.9615 38.0251 33.073 36.4033 29.7502 34.5378C25.2511 32.0117 19.9556 29.0386 19.9556 22.2166C19.9556 15.4068 24.6388 10.867 32.9974 10.867C41.3561 10.867 45.9208 15.3373 45.9208 23.8443Z" fill="black"/>
</g>
</svg>
