<svg width="64" height="64" viewBox="0 0 64 64" fill="none" xmlns="http://www.w3.org/2000/svg">
<path d="M60.432 0L55.2909 57.5933L32.1814 64L9.13565 57.6023L4 0H60.432Z" fill="#264DE4"/>
<path d="M50.8896 53.926L55.283 4.70984H32.2161V59.103L50.8896 53.926Z" fill="#2965F1"/>
<path d="M15.7733 26.0737L16.4065 33.1383H32.2159V26.0737H15.7733Z" fill="#EBEBEB"/>
<path d="M32.2161 11.7746H32.1917H14.5012L15.1434 18.8394H32.2161V11.7746Z" fill="#EBEBEB"/>
<path d="M32.2161 51.7718V44.4215L32.1851 44.4298L24.3171 42.3053L23.8141 36.6708H19.9909H16.7223L17.7121 47.7634L32.1835 51.7808L32.2161 51.7718Z" fill="#EBEBEB"/>
<path d="M40.891 33.1383L40.071 42.3007L32.1917 44.4274V51.7773L46.6747 47.7634L46.7809 46.5698L48.441 27.9708L48.6134 26.0737L49.8888 11.7746H32.1917V18.8394H42.1465L41.5037 26.0737H32.1917V33.1383H40.891Z" fill="white"/>
</svg>
