<svg width="64" height="64" viewBox="0 0 64 64" fill="none" xmlns="http://www.w3.org/2000/svg">
<path d="M31.0303 25.3422C31.5383 24.5936 32.094 24.4983 32.5455 24.4983C32.9966 24.4983 33.7478 24.5936 34.2559 25.3422C38.2592 30.8418 44.8679 41.7955 49.743 49.8763C52.9218 55.1459 55.3635 59.1929 55.8645 59.708C57.7447 61.6417 60.3242 60.4363 61.8227 58.2435C63.2982 56.0843 63.7073 54.5682 63.7073 52.9505C63.7073 51.8488 42.3327 12.0955 40.1801 8.78653C38.11 5.60418 37.4356 4.79999 33.8922 4.79999H31.2408C27.7084 4.79999 27.1978 5.60374 25.1277 8.78653C22.9751 12.096 1.59998 51.8488 1.59998 52.9509C1.59998 54.5682 2.00958 56.0843 3.48467 58.2431C4.98359 60.4367 7.56301 61.6417 9.44329 59.7085C9.94425 59.1929 12.386 55.1459 15.5652 49.8763C20.4394 41.7955 27.027 30.8418 31.0303 25.3422Z" fill="black"/>
</svg>
