{
	"asset":{
		"generator":"Khronos glTF Blender I/O v4.0.6",
		"version":"2.0"
	},
	"extensionsUsed":[
		"KHR_materials_emissive_strength"
	],
	"scene":0,
	"scenes":[
		{
			"name":"Scene",
			"nodes":[
				0
			]
		}
	],
	"nodes":[
		{
			"mesh":0,
			"name":"Cube",
			"rotation":[
				0.09387418627738953,
				-0.2550426721572876,
				-0.26396727561950684,
				0.9254524111747742
			],
			"translation":[
				0.15565866231918335,
				0.044933803379535675,
				0.6912739276885986
			]
		}
	],
	"materials":[
		{
			"doubleSided":true,
			"emissiveFactor":[
				1,
				1,
				1
			],
			"extensions":{
				"KHR_materials_emissive_strength":{
					"emissiveStrength":10
				}
			},
			"name":"Procedural Sci-Fi Alien Metal",
			"pbrMetallicRoughness":{}
		}
	],
	"meshes":[
		{
			"name":"Cube",
			"primitives":[
				{
					"attributes":{
						"POSITION":0,
						"NORMAL":1,
						"TEXCOORD_0":2
					},
					"indices":3,
					"material":0
				}
			]
		}
	],
	"accessors":[
		{
			"bufferView":0,
			"componentType":5126,
			"count":25350,
			"max":[
				0.6235603094100952,
				0.6235602498054504,
				0.6235602498054504
			],
			"min":[
				-0.6235603094100952,
				-0.6235602498054504,
				-0.6235602498054504
			],
			"type":"VEC3"
		},
		{
			"bufferView":1,
			"componentType":5126,
			"count":25350,
			"type":"VEC3"
		},
		{
			"bufferView":2,
			"componentType":5126,
			"count":25350,
			"type":"VEC2"
		},
		{
			"bufferView":3,
			"componentType":5123,
			"count":147456,
			"type":"SCALAR"
		}
	],
	"bufferViews":[
		{
			"buffer":0,
			"byteLength":304200,
			"byteOffset":0,
			"target":34962
		},
		{
			"buffer":0,
			"byteLength":304200,
			"byteOffset":304200,
			"target":34962
		},
		{
			"buffer":0,
			"byteLength":202800,
			"byteOffset":608400,
			"target":34962
		},
		{
			"buffer":0,
			"byteLength":294912,
			"byteOffset":811200,
			"target":34963
		}
	],
	"buffers":[
		{
			"byteLength":1106112,
			"uri":"data:application/octet-stream;base64,"
		}
	]
}
