<svg width="64" height="64" viewBox="0 0 64 64" fill="none" xmlns="http://www.w3.org/2000/svg">
<path fill-rule="evenodd" clip-rule="evenodd" d="M64 31.9801L57.0487 43.6855L47.3009 31.8203L57.0487 20.2747L64 31.9801Z" fill="#166DA5"/>
<path fill-rule="evenodd" clip-rule="evenodd" d="M56.2897 45.683L45.7029 33.0188L39.3508 43.6455L49.2185 58.0675L56.2897 45.683Z" fill="#8FDB69"/>
<path fill-rule="evenodd" clip-rule="evenodd" d="M56.1698 18.1973L45.7029 30.9014L39.3508 20.2747L49.2185 6.01251L56.1698 18.1973Z" fill="#166DA5"/>
<path opacity="0.95" fill-rule="evenodd" clip-rule="evenodd" d="M24.2498 18.1973H56.1699L49.1387 5.93262H31.281L24.2498 18.1973ZM45.703 30.9414H63.3609L57.0088 20.2348H39.3109" fill="url(#paint0_linear_7204_42220)"/>
<path opacity="0.95" fill-rule="evenodd" clip-rule="evenodd" d="M56.2896 45.7229H24.2097L31.2409 57.9077H49.2185L56.2896 45.7229ZM45.7029 32.9788H63.3608L57.0088 43.6855H39.3109" fill="url(#paint1_linear_7204_42220)"/>
<path fill-rule="evenodd" clip-rule="evenodd" d="M31.241 57.9077L16.2197 31.9401L31.4407 5.97256H14.9813L0 31.9401L14.9813 57.9077H31.241Z" fill="#010101"/>
<defs>
<linearGradient id="paint0_linear_7204_42220" x1="24.2498" y1="18.437" x2="63.3609" y2="18.437" gradientUnits="userSpaceOnUse">
<stop stop-color="#2A3B8F"/>
<stop offset="1" stop-color="#29ABE2"/>
</linearGradient>
<linearGradient id="paint1_linear_7204_42220" x1="63.3608" y1="45.4433" x2="24.2097" y2="45.4433" gradientUnits="userSpaceOnUse">
<stop stop-color="#B4D44E"/>
<stop offset="1" stop-color="#E7F716"/>
</linearGradient>
</defs>
</svg>
