<svg width="869" height="536" viewBox="0 0 869 536" fill="none" xmlns="http://www.w3.org/2000/svg">
<path d="M209.102 189.852C209.102 199.039 207.023 206.385 202.867 211.891C198.747 217.359 193.169 220.094 186.133 220.094C180.701 220.094 176.234 218.107 172.734 214.133V241.75H154.305V159.828H171.531L172.078 165.297C175.615 160.922 180.263 158.734 186.023 158.734C193.315 158.734 198.984 161.432 203.031 166.828C207.078 172.188 209.102 179.57 209.102 188.977V189.852ZM190.672 188.703C190.672 178.203 187.609 172.953 181.484 172.953C177.109 172.953 174.193 174.521 172.734 177.656V200.953C174.339 204.234 177.292 205.875 181.594 205.875C187.464 205.875 190.49 200.807 190.672 190.672V188.703ZM253.07 176.508L247 176.07C241.203 176.07 237.484 177.893 235.844 181.539V219H217.414V159.828H234.695L235.297 167.43C238.396 161.633 242.716 158.734 248.258 158.734C250.227 158.734 251.94 158.953 253.398 159.391L253.07 176.508ZM255.422 188.867C255.422 182.961 256.57 177.711 258.867 173.117C261.164 168.487 264.464 164.932 268.766 162.453C273.068 159.974 278.117 158.734 283.914 158.734C292.773 158.734 299.755 161.487 304.859 166.992C309.964 172.461 312.516 179.917 312.516 189.359V190.016C312.516 199.24 309.945 206.568 304.805 212C299.701 217.396 292.773 220.094 284.023 220.094C275.602 220.094 268.839 217.578 263.734 212.547C258.63 207.479 255.878 200.625 255.477 191.984L255.422 188.867ZM273.852 190.016C273.852 195.484 274.708 199.495 276.422 202.047C278.135 204.599 280.669 205.875 284.023 205.875C290.586 205.875 293.94 200.826 294.086 190.727V188.867C294.086 178.258 290.695 172.953 283.914 172.953C277.753 172.953 274.417 177.529 273.906 186.68L273.852 190.016ZM318.312 188.977C318.312 179.607 320.336 172.224 324.383 166.828C328.43 161.432 334.081 158.734 341.336 158.734C346.622 158.734 351.07 160.812 354.68 164.969V135H373.164V219H356.594L355.664 212.656C351.872 217.615 347.06 220.094 341.227 220.094C334.19 220.094 328.612 217.396 324.492 212C320.372 206.604 318.312 198.93 318.312 188.977ZM336.742 190.125C336.742 200.625 339.805 205.875 345.93 205.875C350.013 205.875 352.93 204.161 354.68 200.734V178.203C353.003 174.703 350.122 172.953 346.039 172.953C340.352 172.953 337.271 177.547 336.797 186.734L336.742 190.125ZM418.883 212.602C414.982 217.596 409.714 220.094 403.078 220.094C396.589 220.094 391.667 218.216 388.312 214.461C384.995 210.669 383.336 205.237 383.336 198.164V159.828H401.766V198.273C401.766 203.341 404.227 205.875 409.148 205.875C413.378 205.875 416.385 204.362 418.172 201.336V159.828H436.711V219H419.43L418.883 212.602ZM471.875 205.875C474.464 205.875 476.469 205.182 477.891 203.797C479.312 202.375 480.005 200.406 479.969 197.891H497.25C497.25 204.38 494.917 209.703 490.25 213.859C485.62 218.016 479.641 220.094 472.312 220.094C463.708 220.094 456.927 217.396 451.969 212C447.01 206.604 444.531 199.13 444.531 189.578V188.812C444.531 182.833 445.625 177.565 447.812 173.008C450.036 168.414 453.227 164.896 457.383 162.453C461.539 159.974 466.461 158.734 472.148 158.734C479.841 158.734 485.948 160.867 490.469 165.133C494.99 169.398 497.25 175.177 497.25 182.469H479.969C479.969 179.406 479.221 177.055 477.727 175.414C476.232 173.773 474.227 172.953 471.711 172.953C466.935 172.953 464.146 175.997 463.344 182.086C463.089 184.018 462.961 186.68 462.961 190.07C462.961 196.013 463.672 200.133 465.094 202.43C466.516 204.727 468.776 205.875 471.875 205.875ZM526.508 145.117V159.828H536.242V172.625H526.508V199.695C526.508 201.919 526.909 203.469 527.711 204.344C528.513 205.219 530.099 205.656 532.469 205.656C534.292 205.656 535.823 205.547 537.062 205.328V218.508C533.745 219.565 530.281 220.094 526.672 220.094C520.328 220.094 515.643 218.599 512.617 215.609C509.591 212.62 508.078 208.081 508.078 201.992V172.625H500.531V159.828H508.078V145.117H526.508ZM562.984 219H544.5V159.828H562.984V219ZM543.406 144.57C543.406 141.945 544.354 139.794 546.25 138.117C548.146 136.44 550.607 135.602 553.633 135.602C556.659 135.602 559.12 136.44 561.016 138.117C562.911 139.794 563.859 141.945 563.859 144.57C563.859 147.195 562.911 149.346 561.016 151.023C559.12 152.701 556.659 153.539 553.633 153.539C550.607 153.539 548.146 152.701 546.25 151.023C544.354 149.346 543.406 147.195 543.406 144.57ZM596.125 204.781H623.086V219H572.828V208.719L599.078 174.047H573.977V159.828H622.484V169.781L596.125 204.781ZM659.781 220.094C650.703 220.094 643.357 217.396 637.742 212C632.128 206.568 629.32 199.513 629.32 190.836V189.305C629.32 183.253 630.432 177.911 632.656 173.281C634.917 168.651 638.198 165.078 642.5 162.562C646.802 160.01 651.906 158.734 657.812 158.734C666.125 158.734 672.688 161.323 677.5 166.5C682.312 171.641 684.719 178.823 684.719 188.047V195.211H648.078C648.734 198.529 650.174 201.135 652.398 203.031C654.622 204.927 657.503 205.875 661.039 205.875C666.872 205.875 671.43 203.833 674.711 199.75L683.133 209.703C680.836 212.875 677.573 215.409 673.344 217.305C669.151 219.164 664.63 220.094 659.781 220.094ZM657.703 172.953C652.307 172.953 649.099 176.526 648.078 183.672H666.672V182.25C666.745 179.297 665.997 177.018 664.43 175.414C662.862 173.773 660.62 172.953 657.703 172.953Z" fill="#FF327C"/>
<path d="M717.562 186.625C717.562 177.729 718.747 169.453 721.117 161.797C723.487 154.141 726.75 147.651 730.906 142.328C735.099 137.005 739.747 133.286 744.852 131.172L748.352 140.25C743.247 144.005 739.292 149.875 736.484 157.859C733.714 165.807 732.31 175.141 732.273 185.859V188.266C732.273 199.24 733.659 208.755 736.43 216.812C739.237 224.87 743.211 230.776 748.352 234.531L744.852 243.609C739.82 241.568 735.172 237.831 730.906 232.398C726.677 227.003 723.414 220.549 721.117 213.039C718.82 205.529 717.635 197.544 717.562 189.086V186.625Z" fill="#292467"/>
<path d="M183.234 475.156C183.234 483.724 181.977 491.854 179.461 499.547C176.945 507.24 173.464 513.839 169.016 519.344C164.604 524.885 159.828 528.641 154.688 530.609L151.188 521.531C156.255 517.74 160.174 511.906 162.945 504.031C165.716 496.156 167.156 487.096 167.266 476.852V473.516C167.266 462.542 165.862 453.026 163.055 444.969C160.284 436.911 156.328 431.005 151.188 427.25L154.688 418.172C159.792 420.177 164.531 423.896 168.906 429.328C173.318 434.724 176.781 441.232 179.297 448.852C181.849 456.435 183.161 464.401 183.234 472.75V475.156ZM205.682 444.477C208.599 444.477 211.024 445.352 212.956 447.102C214.888 448.815 215.854 451.021 215.854 453.719C215.854 456.417 214.888 458.641 212.956 460.391C211.024 462.104 208.599 462.961 205.682 462.961C202.729 462.961 200.287 462.086 198.354 460.336C196.459 458.586 195.511 456.38 195.511 453.719C195.511 451.057 196.459 448.852 198.354 447.102C200.287 445.352 202.729 444.477 205.682 444.477ZM202.62 527.438L193.323 523.062L195.182 519.344C197.735 514.604 199.065 510.083 199.175 505.781V492.109H213.94L213.886 503.977C213.849 508.169 212.774 512.435 210.659 516.773C208.544 521.112 205.865 524.667 202.62 527.438Z" fill="#292467"/>
<path d="M6.01562 94V14.375H34.6172C44.862 14.375 52.6458 16.2526 57.9688 20.0078C63.3281 23.763 66.0078 29.2135 66.0078 36.3594C66.0078 40.4792 65.0599 43.9974 63.1641 46.9141C61.2682 49.8307 58.4792 51.9818 54.7969 53.3672C58.9531 54.4609 62.1432 56.5026 64.3672 59.4922C66.5911 62.4818 67.7031 66.1276 67.7031 70.4297C67.7031 78.2318 65.224 84.1016 60.2656 88.0391C55.3438 91.9401 48.0339 93.9271 38.3359 94H6.01562ZM25.2109 60.1484V79.2344H37.7891C41.2526 79.2344 43.9141 78.4505 45.7734 76.8828C47.6328 75.2786 48.5625 73.0365 48.5625 70.1562C48.5625 63.5208 45.263 60.1849 38.6641 60.1484H25.2109ZM25.2109 47.5703H35.2188C39.4115 47.5339 42.401 46.7682 44.1875 45.2734C45.974 43.7786 46.8672 41.5729 46.8672 38.6562C46.8672 35.3021 45.901 32.8958 43.9688 31.4375C42.0365 29.9427 38.9193 29.1953 34.6172 29.1953H25.2109V47.5703ZM113.258 51.5078L107.188 51.0703C101.391 51.0703 97.6719 52.8932 96.0312 56.5391V94H77.6016V34.8281H94.8828L95.4844 42.4297C98.5833 36.6328 102.904 33.7344 108.445 33.7344C110.414 33.7344 112.128 33.9531 113.586 34.3906L113.258 51.5078ZM139.344 94H120.859V34.8281H139.344V94ZM119.766 19.5703C119.766 16.9453 120.714 14.7943 122.609 13.1172C124.505 11.4401 126.966 10.6016 129.992 10.6016C133.018 10.6016 135.479 11.4401 137.375 13.1172C139.271 14.7943 140.219 16.9453 140.219 19.5703C140.219 22.1953 139.271 24.3464 137.375 26.0234C135.479 27.7005 133.018 28.5391 129.992 28.5391C126.966 28.5391 124.505 27.7005 122.609 26.0234C120.714 24.3464 119.766 22.1953 119.766 19.5703ZM148.422 63.9766C148.422 54.6068 150.445 47.224 154.492 41.8281C158.539 36.4323 164.19 33.7344 171.445 33.7344C176.732 33.7344 181.18 35.8125 184.789 39.9688V10H203.273V94H186.703L185.773 87.6562C181.982 92.6146 177.169 95.0938 171.336 95.0938C164.299 95.0938 158.721 92.3958 154.602 87C150.482 81.6042 148.422 73.9297 148.422 63.9766ZM166.852 65.125C166.852 75.625 169.914 80.875 176.039 80.875C180.122 80.875 183.039 79.1615 184.789 75.7344V53.2031C183.112 49.7031 180.232 47.9531 176.148 47.9531C170.461 47.9531 167.38 52.5469 166.906 61.7344L166.852 65.125ZM211.586 63.9766C211.586 57.9974 212.57 52.7109 214.539 48.1172C216.508 43.5234 219.333 39.987 223.016 37.5078C226.698 34.9922 230.982 33.7344 235.867 33.7344C242.029 33.7344 246.841 35.8125 250.305 39.9688L250.961 34.8281H267.695V91.7578C267.695 96.9714 266.474 101.492 264.031 105.32C261.625 109.185 258.125 112.138 253.531 114.18C248.938 116.258 243.615 117.297 237.562 117.297C233.224 117.297 229.013 116.477 224.93 114.836C220.883 113.195 217.784 111.062 215.633 108.438L223.344 97.6094C226.771 101.656 231.292 103.68 236.906 103.68C245.073 103.68 249.156 99.487 249.156 91.1016V89.2422C245.62 93.1432 241.154 95.0938 235.758 95.0938C228.539 95.0938 222.706 92.3411 218.258 86.8359C213.81 81.2943 211.586 73.8932 211.586 64.6328V63.9766ZM230.07 65.125C230.07 69.974 230.982 73.8203 232.805 76.6641C234.628 79.4714 237.18 80.875 240.461 80.875C244.435 80.875 247.333 79.5443 249.156 76.8828V52C247.37 49.3021 244.508 47.9531 240.57 47.9531C237.289 47.9531 234.719 49.4297 232.859 52.3828C231 55.2995 230.07 59.5469 230.07 65.125ZM306.797 95.0938C297.719 95.0938 290.372 92.3958 284.758 87C279.143 81.5677 276.336 74.513 276.336 65.8359V64.3047C276.336 58.2526 277.448 52.9115 279.672 48.2812C281.932 43.651 285.214 40.0781 289.516 37.5625C293.818 35.0104 298.922 33.7344 304.828 33.7344C313.141 33.7344 319.703 36.3229 324.516 41.5C329.328 46.6406 331.734 53.8229 331.734 63.0469V70.2109H295.094C295.75 73.5286 297.19 76.1354 299.414 78.0312C301.638 79.9271 304.518 80.875 308.055 80.875C313.888 80.875 318.445 78.8333 321.727 74.75L330.148 84.7031C327.852 87.875 324.589 90.4089 320.359 92.3047C316.167 94.1641 311.646 95.0938 306.797 95.0938ZM304.719 47.9531C299.323 47.9531 296.115 51.526 295.094 58.6719H313.688V57.25C313.76 54.2969 313.013 52.0182 311.445 50.4141C309.878 48.7734 307.635 47.9531 304.719 47.9531ZM336.875 63.9766C336.875 54.6068 338.898 47.224 342.945 41.8281C346.992 36.4323 352.643 33.7344 359.898 33.7344C365.185 33.7344 369.633 35.8125 373.242 39.9688V10H391.727V94H375.156L374.227 87.6562C370.435 92.6146 365.622 95.0938 359.789 95.0938C352.753 95.0938 347.174 92.3958 343.055 87C338.935 81.6042 336.875 73.9297 336.875 63.9766ZM355.305 65.125C355.305 75.625 358.367 80.875 364.492 80.875C368.576 80.875 371.492 79.1615 373.242 75.7344V53.2031C371.565 49.7031 368.685 47.9531 364.602 47.9531C358.914 47.9531 355.833 52.5469 355.359 61.7344L355.305 65.125Z" fill="white"/>
<path d="M432.57 76.1172C435.487 76.1172 437.911 76.9922 439.844 78.7422C441.776 80.4557 442.742 82.6615 442.742 85.3594C442.742 88.0573 441.776 90.2812 439.844 92.0312C437.911 93.7448 435.487 94.6016 432.57 94.6016C429.617 94.6016 427.174 93.7266 425.242 91.9766C423.346 90.2266 422.398 88.0208 422.398 85.3594C422.398 82.6979 423.346 80.4922 425.242 78.7422C427.174 76.9922 429.617 76.1172 432.57 76.1172Z" fill="#292467"/>
<line x1="4" y1="144" x2="4.00002" y2="536" stroke="#292467" stroke-width="8"/>
<path d="M285.82 318.188L295.664 284.828H315.406L291.289 353.898L290.25 356.414C286.823 364.07 280.771 367.898 272.094 367.898C269.688 367.898 267.154 367.534 264.492 366.805V353.625H266.898C269.487 353.625 271.456 353.242 272.805 352.477C274.19 351.747 275.211 350.417 275.867 348.484L277.344 344.547L256.781 284.828H276.469L285.82 318.188ZM317.047 313.867C317.047 307.961 318.195 302.711 320.492 298.117C322.789 293.487 326.089 289.932 330.391 287.453C334.693 284.974 339.742 283.734 345.539 283.734C354.398 283.734 361.38 286.487 366.484 291.992C371.589 297.461 374.141 304.917 374.141 314.359V315.016C374.141 324.24 371.57 331.568 366.43 337C361.326 342.396 354.398 345.094 345.648 345.094C337.227 345.094 330.464 342.578 325.359 337.547C320.255 332.479 317.503 325.625 317.102 316.984L317.047 313.867ZM335.477 315.016C335.477 320.484 336.333 324.495 338.047 327.047C339.76 329.599 342.294 330.875 345.648 330.875C352.211 330.875 355.565 325.826 355.711 315.727V313.867C355.711 303.258 352.32 297.953 345.539 297.953C339.378 297.953 336.042 302.529 335.531 311.68L335.477 315.016ZM417.508 337.602C413.607 342.596 408.339 345.094 401.703 345.094C395.214 345.094 390.292 343.216 386.938 339.461C383.62 335.669 381.961 330.237 381.961 323.164V284.828H400.391V323.273C400.391 328.341 402.852 330.875 407.773 330.875C412.003 330.875 415.01 329.362 416.797 326.336V284.828H435.336V344H418.055L417.508 337.602ZM481.273 301.508L475.203 301.07C469.406 301.07 465.688 302.893 464.047 306.539V344H445.617V284.828H462.898L463.5 292.43C466.599 286.633 470.919 283.734 476.461 283.734C478.43 283.734 480.143 283.953 481.602 284.391L481.273 301.508ZM488.766 344V264.375H514.414C521.451 264.375 527.776 265.979 533.391 269.188C539.005 272.359 543.38 276.862 546.516 282.695C549.688 288.492 551.292 295 551.328 302.219V305.883C551.328 313.174 549.779 319.719 546.68 325.516C543.617 331.276 539.279 335.797 533.664 339.078C528.086 342.323 521.852 343.964 514.961 344H488.766ZM507.961 279.195V329.234H514.633C520.138 329.234 524.367 327.284 527.32 323.383C530.273 319.445 531.75 313.612 531.75 305.883V302.438C531.75 294.745 530.273 288.948 527.32 285.047C524.367 281.146 520.065 279.195 514.414 279.195H507.961ZM588.953 345.094C579.875 345.094 572.529 342.396 566.914 337C561.299 331.568 558.492 324.513 558.492 315.836V314.305C558.492 308.253 559.604 302.911 561.828 298.281C564.089 293.651 567.37 290.078 571.672 287.562C575.974 285.01 581.078 283.734 586.984 283.734C595.297 283.734 601.859 286.323 606.672 291.5C611.484 296.641 613.891 303.823 613.891 313.047V320.211H577.25C577.906 323.529 579.346 326.135 581.57 328.031C583.794 329.927 586.674 330.875 590.211 330.875C596.044 330.875 600.602 328.833 603.883 324.75L612.305 334.703C610.008 337.875 606.745 340.409 602.516 342.305C598.323 344.164 593.802 345.094 588.953 345.094ZM586.875 297.953C581.479 297.953 578.271 301.526 577.25 308.672H595.844V307.25C595.917 304.297 595.169 302.018 593.602 300.414C592.034 298.773 589.792 297.953 586.875 297.953ZM652.336 327.375C652.336 325.807 651.516 324.549 649.875 323.602C648.234 322.654 645.117 321.669 640.523 320.648C635.93 319.628 632.138 318.297 629.148 316.656C626.159 314.979 623.88 312.956 622.312 310.586C620.745 308.216 619.961 305.5 619.961 302.438C619.961 297.005 622.203 292.539 626.688 289.039C631.172 285.503 637.042 283.734 644.297 283.734C652.099 283.734 658.37 285.503 663.109 289.039C667.849 292.576 670.219 297.224 670.219 302.984H651.734C651.734 298.245 649.237 295.875 644.242 295.875C642.31 295.875 640.688 296.422 639.375 297.516C638.062 298.573 637.406 299.904 637.406 301.508C637.406 303.148 638.208 304.479 639.812 305.5C641.417 306.521 643.969 307.359 647.469 308.016C651.005 308.672 654.104 309.456 656.766 310.367C665.661 313.43 670.109 318.917 670.109 326.828C670.109 332.224 667.703 336.617 662.891 340.008C658.115 343.398 651.917 345.094 644.297 345.094C639.229 345.094 634.708 344.182 630.734 342.359C626.76 340.536 623.661 338.057 621.438 334.922C619.214 331.786 618.102 328.487 618.102 325.023H635.328C635.401 327.758 636.312 329.763 638.062 331.039C639.812 332.279 642.055 332.898 644.789 332.898C647.305 332.898 649.182 332.388 650.422 331.367C651.698 330.346 652.336 329.016 652.336 327.375ZM698.219 344H679.734V284.828H698.219V344ZM678.641 269.57C678.641 266.945 679.589 264.794 681.484 263.117C683.38 261.44 685.841 260.602 688.867 260.602C691.893 260.602 694.354 261.44 696.25 263.117C698.146 264.794 699.094 266.945 699.094 269.57C699.094 272.195 698.146 274.346 696.25 276.023C694.354 277.701 691.893 278.539 688.867 278.539C685.841 278.539 683.38 277.701 681.484 276.023C679.589 274.346 678.641 272.195 678.641 269.57ZM707.461 313.977C707.461 307.997 708.445 302.711 710.414 298.117C712.383 293.523 715.208 289.987 718.891 287.508C722.573 284.992 726.857 283.734 731.742 283.734C737.904 283.734 742.716 285.812 746.18 289.969L746.836 284.828H763.57V341.758C763.57 346.971 762.349 351.492 759.906 355.32C757.5 359.185 754 362.138 749.406 364.18C744.812 366.258 739.49 367.297 733.438 367.297C729.099 367.297 724.888 366.477 720.805 364.836C716.758 363.195 713.659 361.062 711.508 358.438L719.219 347.609C722.646 351.656 727.167 353.68 732.781 353.68C740.948 353.68 745.031 349.487 745.031 341.102V339.242C741.495 343.143 737.029 345.094 731.633 345.094C724.414 345.094 718.581 342.341 714.133 336.836C709.685 331.294 707.461 323.893 707.461 314.633V313.977ZM725.945 315.125C725.945 319.974 726.857 323.82 728.68 326.664C730.503 329.471 733.055 330.875 736.336 330.875C740.31 330.875 743.208 329.544 745.031 326.883V302C743.245 299.302 740.383 297.953 736.445 297.953C733.164 297.953 730.594 299.43 728.734 302.383C726.875 305.299 725.945 309.547 725.945 315.125ZM790.969 284.828L791.57 291.773C795.654 286.414 801.286 283.734 808.469 283.734C814.63 283.734 819.224 285.576 822.25 289.258C825.312 292.94 826.898 298.482 827.008 305.883V344H808.523V306.648C808.523 303.659 807.922 301.471 806.719 300.086C805.516 298.664 803.328 297.953 800.156 297.953C796.547 297.953 793.867 299.375 792.117 302.219V344H773.688V284.828H790.969Z" fill="white"/>
<line x1="153" y1="258" x2="153" y2="396" stroke="#292467" stroke-width="8"/>
<rect x="860" y="250" width="9" height="132" fill="white"/>
</svg>
