<svg width="1680" height="598" viewBox="0 0 1680 598" fill="none" xmlns="http://www.w3.org/2000/svg">
<rect width="1680" height="598" fill="#0B0645"/>
<path d="M334.016 134V54.375H362.617C372.862 54.375 380.646 56.2526 385.969 60.0078C391.328 63.763 394.008 69.2135 394.008 76.3594C394.008 80.4792 393.06 83.9974 391.164 86.9141C389.268 89.8307 386.479 91.9818 382.797 93.3672C386.953 94.4609 390.143 96.5026 392.367 99.4922C394.591 102.482 395.703 106.128 395.703 110.43C395.703 118.232 393.224 124.102 388.266 128.039C383.344 131.94 376.034 133.927 366.336 134H334.016ZM353.211 100.148V119.234H365.789C369.253 119.234 371.914 118.451 373.773 116.883C375.633 115.279 376.562 113.036 376.562 110.156C376.562 103.521 373.263 100.185 366.664 100.148H353.211ZM353.211 87.5703H363.219C367.411 87.5339 370.401 86.7682 372.188 85.2734C373.974 83.7786 374.867 81.5729 374.867 78.6562C374.867 75.3021 373.901 72.8958 371.969 71.4375C370.036 69.9427 366.919 69.1953 362.617 69.1953H353.211V87.5703ZM441.258 91.5078L435.188 91.0703C429.391 91.0703 425.672 92.8932 424.031 96.5391V134H405.602V74.8281H422.883L423.484 82.4297C426.583 76.6328 430.904 73.7344 436.445 73.7344C438.414 73.7344 440.128 73.9531 441.586 74.3906L441.258 91.5078ZM467.344 134H448.859V74.8281H467.344V134ZM447.766 59.5703C447.766 56.9453 448.714 54.7943 450.609 53.1172C452.505 51.4401 454.966 50.6016 457.992 50.6016C461.018 50.6016 463.479 51.4401 465.375 53.1172C467.271 54.7943 468.219 56.9453 468.219 59.5703C468.219 62.1953 467.271 64.3464 465.375 66.0234C463.479 67.7005 461.018 68.5391 457.992 68.5391C454.966 68.5391 452.505 67.7005 450.609 66.0234C448.714 64.3464 447.766 62.1953 447.766 59.5703ZM476.422 103.977C476.422 94.6068 478.445 87.224 482.492 81.8281C486.539 76.4323 492.19 73.7344 499.445 73.7344C504.732 73.7344 509.18 75.8125 512.789 79.9688V50H531.273V134H514.703L513.773 127.656C509.982 132.615 505.169 135.094 499.336 135.094C492.299 135.094 486.721 132.396 482.602 127C478.482 121.604 476.422 113.93 476.422 103.977ZM494.852 105.125C494.852 115.625 497.914 120.875 504.039 120.875C508.122 120.875 511.039 119.161 512.789 115.734V93.2031C511.112 89.7031 508.232 87.9531 504.148 87.9531C498.461 87.9531 495.38 92.5469 494.906 101.734L494.852 105.125ZM539.586 103.977C539.586 97.9974 540.57 92.7109 542.539 88.1172C544.508 83.5234 547.333 79.987 551.016 77.5078C554.698 74.9922 558.982 73.7344 563.867 73.7344C570.029 73.7344 574.841 75.8125 578.305 79.9688L578.961 74.8281H595.695V131.758C595.695 136.971 594.474 141.492 592.031 145.32C589.625 149.185 586.125 152.138 581.531 154.18C576.938 156.258 571.615 157.297 565.562 157.297C561.224 157.297 557.013 156.477 552.93 154.836C548.883 153.195 545.784 151.062 543.633 148.438L551.344 137.609C554.771 141.656 559.292 143.68 564.906 143.68C573.073 143.68 577.156 139.487 577.156 131.102V129.242C573.62 133.143 569.154 135.094 563.758 135.094C556.539 135.094 550.706 132.341 546.258 126.836C541.81 121.294 539.586 113.893 539.586 104.633V103.977ZM558.07 105.125C558.07 109.974 558.982 113.82 560.805 116.664C562.628 119.471 565.18 120.875 568.461 120.875C572.435 120.875 575.333 119.544 577.156 116.883V92C575.37 89.3021 572.508 87.9531 568.57 87.9531C565.289 87.9531 562.719 89.4297 560.859 92.3828C559 95.2995 558.07 99.5469 558.07 105.125ZM634.797 135.094C625.719 135.094 618.372 132.396 612.758 127C607.143 121.568 604.336 114.513 604.336 105.836V104.305C604.336 98.2526 605.448 92.9115 607.672 88.2812C609.932 83.651 613.214 80.0781 617.516 77.5625C621.818 75.0104 626.922 73.7344 632.828 73.7344C641.141 73.7344 647.703 76.3229 652.516 81.5C657.328 86.6406 659.734 93.8229 659.734 103.047V110.211H623.094C623.75 113.529 625.19 116.135 627.414 118.031C629.638 119.927 632.518 120.875 636.055 120.875C641.888 120.875 646.445 118.833 649.727 114.75L658.148 124.703C655.852 127.875 652.589 130.409 648.359 132.305C644.167 134.164 639.646 135.094 634.797 135.094ZM632.719 87.9531C627.323 87.9531 624.115 91.526 623.094 98.6719H641.688V97.25C641.76 94.2969 641.013 92.0182 639.445 90.4141C637.878 88.7734 635.635 87.9531 632.719 87.9531ZM664.875 103.977C664.875 94.6068 666.898 87.224 670.945 81.8281C674.992 76.4323 680.643 73.7344 687.898 73.7344C693.185 73.7344 697.633 75.8125 701.242 79.9688V50H719.727V134H703.156L702.227 127.656C698.435 132.615 693.622 135.094 687.789 135.094C680.753 135.094 675.174 132.396 671.055 127C666.935 121.604 664.875 113.93 664.875 103.977ZM683.305 105.125C683.305 115.625 686.367 120.875 692.492 120.875C696.576 120.875 699.492 119.161 701.242 115.734V93.2031C699.565 89.7031 696.685 87.9531 692.602 87.9531C686.914 87.9531 683.833 92.5469 683.359 101.734L683.305 105.125Z" fill="white"/>
<path d="M760.57 116.117C763.487 116.117 765.911 116.992 767.844 118.742C769.776 120.456 770.742 122.661 770.742 125.359C770.742 128.057 769.776 130.281 767.844 132.031C765.911 133.745 763.487 134.602 760.57 134.602C757.617 134.602 755.174 133.727 753.242 131.977C751.346 130.227 750.398 128.021 750.398 125.359C750.398 122.698 751.346 120.492 753.242 118.742C755.174 116.992 757.617 116.117 760.57 116.117Z" fill="#292467"/>
<line x1="332" y1="164" x2="332" y2="558" stroke="#292467" stroke-width="8"/>
<path d="M537.102 232.852C537.102 242.039 535.023 249.385 530.867 254.891C526.747 260.359 521.169 263.094 514.133 263.094C508.701 263.094 504.234 261.107 500.734 257.133V284.75H482.305V202.828H499.531L500.078 208.297C503.615 203.922 508.263 201.734 514.023 201.734C521.315 201.734 526.984 204.432 531.031 209.828C535.078 215.188 537.102 222.57 537.102 231.977V232.852ZM518.672 231.703C518.672 221.203 515.609 215.953 509.484 215.953C505.109 215.953 502.193 217.521 500.734 220.656V243.953C502.339 247.234 505.292 248.875 509.594 248.875C515.464 248.875 518.49 243.807 518.672 233.672V231.703ZM581.07 219.508L575 219.07C569.203 219.07 565.484 220.893 563.844 224.539V262H545.414V202.828H562.695L563.297 210.43C566.396 204.633 570.716 201.734 576.258 201.734C578.227 201.734 579.94 201.953 581.398 202.391L581.07 219.508ZM583.422 231.867C583.422 225.961 584.57 220.711 586.867 216.117C589.164 211.487 592.464 207.932 596.766 205.453C601.068 202.974 606.117 201.734 611.914 201.734C620.773 201.734 627.755 204.487 632.859 209.992C637.964 215.461 640.516 222.917 640.516 232.359V233.016C640.516 242.24 637.945 249.568 632.805 255C627.701 260.396 620.773 263.094 612.023 263.094C603.602 263.094 596.839 260.578 591.734 255.547C586.63 250.479 583.878 243.625 583.477 234.984L583.422 231.867ZM601.852 233.016C601.852 238.484 602.708 242.495 604.422 245.047C606.135 247.599 608.669 248.875 612.023 248.875C618.586 248.875 621.94 243.826 622.086 233.727V231.867C622.086 221.258 618.695 215.953 611.914 215.953C605.753 215.953 602.417 220.529 601.906 229.68L601.852 233.016ZM646.312 231.977C646.312 222.607 648.336 215.224 652.383 209.828C656.43 204.432 662.081 201.734 669.336 201.734C674.622 201.734 679.07 203.812 682.68 207.969V178H701.164V262H684.594L683.664 255.656C679.872 260.615 675.06 263.094 669.227 263.094C662.19 263.094 656.612 260.396 652.492 255C648.372 249.604 646.312 241.93 646.312 231.977ZM664.742 233.125C664.742 243.625 667.805 248.875 673.93 248.875C678.013 248.875 680.93 247.161 682.68 243.734V221.203C681.003 217.703 678.122 215.953 674.039 215.953C668.352 215.953 665.271 220.547 664.797 229.734L664.742 233.125ZM746.883 255.602C742.982 260.596 737.714 263.094 731.078 263.094C724.589 263.094 719.667 261.216 716.312 257.461C712.995 253.669 711.336 248.237 711.336 241.164V202.828H729.766V241.273C729.766 246.341 732.227 248.875 737.148 248.875C741.378 248.875 744.385 247.362 746.172 244.336V202.828H764.711V262H747.43L746.883 255.602ZM799.875 248.875C802.464 248.875 804.469 248.182 805.891 246.797C807.312 245.375 808.005 243.406 807.969 240.891H825.25C825.25 247.38 822.917 252.703 818.25 256.859C813.62 261.016 807.641 263.094 800.312 263.094C791.708 263.094 784.927 260.396 779.969 255C775.01 249.604 772.531 242.13 772.531 232.578V231.812C772.531 225.833 773.625 220.565 775.812 216.008C778.036 211.414 781.227 207.896 785.383 205.453C789.539 202.974 794.461 201.734 800.148 201.734C807.841 201.734 813.948 203.867 818.469 208.133C822.99 212.398 825.25 218.177 825.25 225.469H807.969C807.969 222.406 807.221 220.055 805.727 218.414C804.232 216.773 802.227 215.953 799.711 215.953C794.935 215.953 792.146 218.997 791.344 225.086C791.089 227.018 790.961 229.68 790.961 233.07C790.961 239.013 791.672 243.133 793.094 245.43C794.516 247.727 796.776 248.875 799.875 248.875ZM854.508 188.117V202.828H864.242V215.625H854.508V242.695C854.508 244.919 854.909 246.469 855.711 247.344C856.513 248.219 858.099 248.656 860.469 248.656C862.292 248.656 863.823 248.547 865.062 248.328V261.508C861.745 262.565 858.281 263.094 854.672 263.094C848.328 263.094 843.643 261.599 840.617 258.609C837.591 255.62 836.078 251.081 836.078 244.992V215.625H828.531V202.828H836.078V188.117H854.508ZM890.984 262H872.5V202.828H890.984V262ZM871.406 187.57C871.406 184.945 872.354 182.794 874.25 181.117C876.146 179.44 878.607 178.602 881.633 178.602C884.659 178.602 887.12 179.44 889.016 181.117C890.911 182.794 891.859 184.945 891.859 187.57C891.859 190.195 890.911 192.346 889.016 194.023C887.12 195.701 884.659 196.539 881.633 196.539C878.607 196.539 876.146 195.701 874.25 194.023C872.354 192.346 871.406 190.195 871.406 187.57ZM924.125 247.781H951.086V262H900.828V251.719L927.078 217.047H901.977V202.828H950.484V212.781L924.125 247.781ZM987.781 263.094C978.703 263.094 971.357 260.396 965.742 255C960.128 249.568 957.32 242.513 957.32 233.836V232.305C957.32 226.253 958.432 220.911 960.656 216.281C962.917 211.651 966.198 208.078 970.5 205.562C974.802 203.01 979.906 201.734 985.812 201.734C994.125 201.734 1000.69 204.323 1005.5 209.5C1010.31 214.641 1012.72 221.823 1012.72 231.047V238.211H976.078C976.734 241.529 978.174 244.135 980.398 246.031C982.622 247.927 985.503 248.875 989.039 248.875C994.872 248.875 999.43 246.833 1002.71 242.75L1011.13 252.703C1008.84 255.875 1005.57 258.409 1001.34 260.305C997.151 262.164 992.63 263.094 987.781 263.094ZM985.703 215.953C980.307 215.953 977.099 219.526 976.078 226.672H994.672V225.25C994.745 222.297 993.997 220.018 992.43 218.414C990.862 216.773 988.62 215.953 985.703 215.953Z" fill="#FF327C"/>
<path d="M1045.56 229.625C1045.56 220.729 1046.75 212.453 1049.12 204.797C1051.49 197.141 1054.75 190.651 1058.91 185.328C1063.1 180.005 1067.75 176.286 1072.85 174.172L1076.35 183.25C1071.25 187.005 1067.29 192.875 1064.48 200.859C1061.71 208.807 1060.31 218.141 1060.27 228.859V231.266C1060.27 242.24 1061.66 251.755 1064.43 259.812C1067.24 267.87 1071.21 273.776 1076.35 277.531L1072.85 286.609C1067.82 284.568 1063.17 280.831 1058.91 275.398C1054.68 270.003 1051.41 263.549 1049.12 256.039C1046.82 248.529 1045.64 240.544 1045.56 232.086V229.625Z" fill="#292467"/>
<line x1="481" y1="292" x2="481" y2="430" stroke="#292467" stroke-width="8"/>
<path d="M613.82 360.188L623.664 326.828H643.406L619.289 395.898L618.25 398.414C614.823 406.07 608.771 409.898 600.094 409.898C597.688 409.898 595.154 409.534 592.492 408.805V395.625H594.898C597.487 395.625 599.456 395.242 600.805 394.477C602.19 393.747 603.211 392.417 603.867 390.484L605.344 386.547L584.781 326.828H604.469L613.82 360.188ZM645.047 355.867C645.047 349.961 646.195 344.711 648.492 340.117C650.789 335.487 654.089 331.932 658.391 329.453C662.693 326.974 667.742 325.734 673.539 325.734C682.398 325.734 689.38 328.487 694.484 333.992C699.589 339.461 702.141 346.917 702.141 356.359V357.016C702.141 366.24 699.57 373.568 694.43 379C689.326 384.396 682.398 387.094 673.648 387.094C665.227 387.094 658.464 384.578 653.359 379.547C648.255 374.479 645.503 367.625 645.102 358.984L645.047 355.867ZM663.477 357.016C663.477 362.484 664.333 366.495 666.047 369.047C667.76 371.599 670.294 372.875 673.648 372.875C680.211 372.875 683.565 367.826 683.711 357.727V355.867C683.711 345.258 680.32 339.953 673.539 339.953C667.378 339.953 664.042 344.529 663.531 353.68L663.477 357.016ZM745.508 379.602C741.607 384.596 736.339 387.094 729.703 387.094C723.214 387.094 718.292 385.216 714.938 381.461C711.62 377.669 709.961 372.237 709.961 365.164V326.828H728.391V365.273C728.391 370.341 730.852 372.875 735.773 372.875C740.003 372.875 743.01 371.362 744.797 368.336V326.828H763.336V386H746.055L745.508 379.602ZM809.273 343.508L803.203 343.07C797.406 343.07 793.688 344.893 792.047 348.539V386H773.617V326.828H790.898L791.5 334.43C794.599 328.633 798.919 325.734 804.461 325.734C806.43 325.734 808.143 325.953 809.602 326.391L809.273 343.508ZM816.766 386V306.375H842.414C849.451 306.375 855.776 307.979 861.391 311.188C867.005 314.359 871.38 318.862 874.516 324.695C877.688 330.492 879.292 337 879.328 344.219V347.883C879.328 355.174 877.779 361.719 874.68 367.516C871.617 373.276 867.279 377.797 861.664 381.078C856.086 384.323 849.852 385.964 842.961 386H816.766ZM835.961 321.195V371.234H842.633C848.138 371.234 852.367 369.284 855.32 365.383C858.273 361.445 859.75 355.612 859.75 347.883V344.438C859.75 336.745 858.273 330.948 855.32 327.047C852.367 323.146 848.065 321.195 842.414 321.195H835.961ZM916.953 387.094C907.875 387.094 900.529 384.396 894.914 379C889.299 373.568 886.492 366.513 886.492 357.836V356.305C886.492 350.253 887.604 344.911 889.828 340.281C892.089 335.651 895.37 332.078 899.672 329.562C903.974 327.01 909.078 325.734 914.984 325.734C923.297 325.734 929.859 328.323 934.672 333.5C939.484 338.641 941.891 345.823 941.891 355.047V362.211H905.25C905.906 365.529 907.346 368.135 909.57 370.031C911.794 371.927 914.674 372.875 918.211 372.875C924.044 372.875 928.602 370.833 931.883 366.75L940.305 376.703C938.008 379.875 934.745 382.409 930.516 384.305C926.323 386.164 921.802 387.094 916.953 387.094ZM914.875 339.953C909.479 339.953 906.271 343.526 905.25 350.672H923.844V349.25C923.917 346.297 923.169 344.018 921.602 342.414C920.034 340.773 917.792 339.953 914.875 339.953ZM980.336 369.375C980.336 367.807 979.516 366.549 977.875 365.602C976.234 364.654 973.117 363.669 968.523 362.648C963.93 361.628 960.138 360.297 957.148 358.656C954.159 356.979 951.88 354.956 950.312 352.586C948.745 350.216 947.961 347.5 947.961 344.438C947.961 339.005 950.203 334.539 954.688 331.039C959.172 327.503 965.042 325.734 972.297 325.734C980.099 325.734 986.37 327.503 991.109 331.039C995.849 334.576 998.219 339.224 998.219 344.984H979.734C979.734 340.245 977.237 337.875 972.242 337.875C970.31 337.875 968.688 338.422 967.375 339.516C966.062 340.573 965.406 341.904 965.406 343.508C965.406 345.148 966.208 346.479 967.812 347.5C969.417 348.521 971.969 349.359 975.469 350.016C979.005 350.672 982.104 351.456 984.766 352.367C993.661 355.43 998.109 360.917 998.109 368.828C998.109 374.224 995.703 378.617 990.891 382.008C986.115 385.398 979.917 387.094 972.297 387.094C967.229 387.094 962.708 386.182 958.734 384.359C954.76 382.536 951.661 380.057 949.438 376.922C947.214 373.786 946.102 370.487 946.102 367.023H963.328C963.401 369.758 964.312 371.763 966.062 373.039C967.812 374.279 970.055 374.898 972.789 374.898C975.305 374.898 977.182 374.388 978.422 373.367C979.698 372.346 980.336 371.016 980.336 369.375ZM1026.22 386H1007.73V326.828H1026.22V386ZM1006.64 311.57C1006.64 308.945 1007.59 306.794 1009.48 305.117C1011.38 303.44 1013.84 302.602 1016.87 302.602C1019.89 302.602 1022.35 303.44 1024.25 305.117C1026.15 306.794 1027.09 308.945 1027.09 311.57C1027.09 314.195 1026.15 316.346 1024.25 318.023C1022.35 319.701 1019.89 320.539 1016.87 320.539C1013.84 320.539 1011.38 319.701 1009.48 318.023C1007.59 316.346 1006.64 314.195 1006.64 311.57ZM1035.46 355.977C1035.46 349.997 1036.45 344.711 1038.41 340.117C1040.38 335.523 1043.21 331.987 1046.89 329.508C1050.57 326.992 1054.86 325.734 1059.74 325.734C1065.9 325.734 1070.72 327.812 1074.18 331.969L1074.84 326.828H1091.57V383.758C1091.57 388.971 1090.35 393.492 1087.91 397.32C1085.5 401.185 1082 404.138 1077.41 406.18C1072.81 408.258 1067.49 409.297 1061.44 409.297C1057.1 409.297 1052.89 408.477 1048.8 406.836C1044.76 405.195 1041.66 403.062 1039.51 400.438L1047.22 389.609C1050.65 393.656 1055.17 395.68 1060.78 395.68C1068.95 395.68 1073.03 391.487 1073.03 383.102V381.242C1069.49 385.143 1065.03 387.094 1059.63 387.094C1052.41 387.094 1046.58 384.341 1042.13 378.836C1037.68 373.294 1035.46 365.893 1035.46 356.633V355.977ZM1053.95 357.125C1053.95 361.974 1054.86 365.82 1056.68 368.664C1058.5 371.471 1061.05 372.875 1064.34 372.875C1068.31 372.875 1071.21 371.544 1073.03 368.883V344C1071.24 341.302 1068.38 339.953 1064.45 339.953C1061.16 339.953 1058.59 341.43 1056.73 344.383C1054.88 347.299 1053.95 351.547 1053.95 357.125ZM1118.97 326.828L1119.57 333.773C1123.65 328.414 1129.29 325.734 1136.47 325.734C1142.63 325.734 1147.22 327.576 1150.25 331.258C1153.31 334.94 1154.9 340.482 1155.01 347.883V386H1136.52V348.648C1136.52 345.659 1135.92 343.471 1134.72 342.086C1133.52 340.664 1131.33 339.953 1128.16 339.953C1124.55 339.953 1121.87 341.375 1120.12 344.219V386H1101.69V326.828H1118.97Z" fill="white"/>
<rect x="1188" y="292" width="9" height="132" fill="white"/>
<path d="M511.234 505.156C511.234 513.724 509.977 521.854 507.461 529.547C504.945 537.24 501.464 543.839 497.016 549.344C492.604 554.885 487.828 558.641 482.688 560.609L479.188 551.531C484.255 547.74 488.174 541.906 490.945 534.031C493.716 526.156 495.156 517.096 495.266 506.852V503.516C495.266 492.542 493.862 483.026 491.055 474.969C488.284 466.911 484.328 461.005 479.188 457.25L482.688 448.172C487.792 450.177 492.531 453.896 496.906 459.328C501.318 464.724 504.781 471.232 507.297 478.852C509.849 486.435 511.161 494.401 511.234 502.75V505.156ZM533.682 474.477C536.599 474.477 539.024 475.352 540.956 477.102C542.888 478.815 543.854 481.021 543.854 483.719C543.854 486.417 542.888 488.641 540.956 490.391C539.024 492.104 536.599 492.961 533.682 492.961C530.729 492.961 528.287 492.086 526.354 490.336C524.459 488.586 523.511 486.38 523.511 483.719C523.511 481.057 524.459 478.852 526.354 477.102C528.287 475.352 530.729 474.477 533.682 474.477ZM530.62 557.438L521.323 553.062L523.182 549.344C525.735 544.604 527.065 540.083 527.175 535.781V522.109H541.94L541.886 533.977C541.849 538.169 540.774 542.435 538.659 546.773C536.544 551.112 533.865 554.667 530.62 557.438Z" fill="#292467"/>
</svg>
