<svg width="954" height="448" viewBox="0 0 954 448" fill="none" xmlns="http://www.w3.org/2000/svg">
<path d="M31.2266 14.375L49 69.7734L66.7188 14.375H91.9844V94H72.7344V75.4062L74.5938 37.3438L55.3438 94H42.6562L23.3516 37.2891L25.2109 75.4062V94H6.01562V14.375H31.2266ZM137.839 94C137.183 92.7969 136.599 91.0286 136.089 88.6953C132.698 92.9609 127.959 95.0938 121.87 95.0938C116.292 95.0938 111.552 93.4167 107.651 90.0625C103.75 86.6719 101.8 82.4245 101.8 77.3203C101.8 70.9036 104.169 66.0547 108.909 62.7734C113.649 59.4922 120.539 57.8516 129.581 57.8516H135.268V54.7344C135.268 49.3021 132.917 46.5859 128.214 46.5859C123.839 46.5859 121.651 48.737 121.651 53.0391H103.222C103.222 47.3151 105.646 42.6667 110.495 39.0938C115.38 35.5208 121.597 33.7344 129.143 33.7344C136.69 33.7344 142.651 35.5755 147.026 39.2578C151.401 42.9401 153.643 47.9896 153.753 54.4062V80.6016C153.826 86.0339 154.664 90.1901 156.268 93.0703V94H137.839ZM126.3 81.9688C128.597 81.9688 130.492 81.4766 131.987 80.4922C133.518 79.5078 134.612 78.3958 135.268 77.1562V67.6953H129.909C123.492 67.6953 120.284 70.5755 120.284 76.3359C120.284 78.013 120.849 79.3802 121.979 80.4375C123.11 81.4583 124.55 81.9688 126.3 81.9688ZM182.053 34.8281L182.654 41.7734C186.737 36.4141 192.37 33.7344 199.553 33.7344C205.714 33.7344 210.308 35.5755 213.334 39.2578C216.396 42.9401 217.982 48.4818 218.092 55.8828V94H199.607V56.6484C199.607 53.6589 199.006 51.4714 197.803 50.0859C196.599 48.6641 194.412 47.9531 191.24 47.9531C187.631 47.9531 184.951 49.375 183.201 52.2188V94H164.771V34.8281H182.053ZM262.798 94C262.141 92.7969 261.558 91.0286 261.048 88.6953C257.657 92.9609 252.917 95.0938 246.829 95.0938C241.251 95.0938 236.511 93.4167 232.61 90.0625C228.709 86.6719 226.758 82.4245 226.758 77.3203C226.758 70.9036 229.128 66.0547 233.868 62.7734C238.607 59.4922 245.498 57.8516 254.54 57.8516H260.227V54.7344C260.227 49.3021 257.876 46.5859 253.173 46.5859C248.798 46.5859 246.61 48.737 246.61 53.0391H228.18C228.18 47.3151 230.605 42.6667 235.454 39.0938C240.339 35.5208 246.555 33.7344 254.102 33.7344C261.649 33.7344 267.61 35.5755 271.985 39.2578C276.36 42.9401 278.602 47.9896 278.712 54.4062V80.6016C278.784 86.0339 279.623 90.1901 281.227 93.0703V94H262.798ZM251.258 81.9688C253.555 81.9688 255.451 81.4766 256.946 80.4922C258.477 79.5078 259.571 78.3958 260.227 77.1562V67.6953H254.868C248.451 67.6953 245.243 70.5755 245.243 76.3359C245.243 78.013 245.808 79.3802 246.938 80.4375C248.068 81.4583 249.508 81.9688 251.258 81.9688ZM287.925 63.9766C287.925 57.9974 288.91 52.7109 290.878 48.1172C292.847 43.5234 295.673 39.987 299.355 37.5078C303.037 34.9922 307.321 33.7344 312.207 33.7344C318.368 33.7344 323.181 35.8125 326.644 39.9688L327.3 34.8281H344.035V91.7578C344.035 96.9714 342.813 101.492 340.371 105.32C337.964 109.185 334.464 112.138 329.871 114.18C325.277 116.258 319.954 117.297 313.902 117.297C309.563 117.297 305.352 116.477 301.269 114.836C297.222 113.195 294.123 111.062 291.972 108.438L299.683 97.6094C303.11 101.656 307.631 103.68 313.246 103.68C321.412 103.68 325.496 99.487 325.496 91.1016V89.2422C321.959 93.1432 317.493 95.0938 312.097 95.0938C304.878 95.0938 299.045 92.3411 294.597 86.8359C290.149 81.2943 287.925 73.8932 287.925 64.6328V63.9766ZM306.41 65.125C306.41 69.974 307.321 73.8203 309.144 76.6641C310.967 79.4714 313.519 80.875 316.8 80.875C320.774 80.875 323.673 79.5443 325.496 76.8828V52C323.709 49.3021 320.847 47.9531 316.91 47.9531C313.628 47.9531 311.058 49.4297 309.199 52.3828C307.339 55.2995 306.41 59.5469 306.41 65.125ZM384.256 95.0938C375.178 95.0938 367.832 92.3958 362.217 87C356.603 81.5677 353.795 74.513 353.795 65.8359V64.3047C353.795 58.2526 354.907 52.9115 357.131 48.2812C359.392 43.651 362.673 40.0781 366.975 37.5625C371.277 35.0104 376.381 33.7344 382.288 33.7344C390.6 33.7344 397.163 36.3229 401.975 41.5C406.788 46.6406 409.194 53.8229 409.194 63.0469V70.2109H372.553C373.209 73.5286 374.649 76.1354 376.873 78.0312C379.097 79.9271 381.978 80.875 385.514 80.875C391.347 80.875 395.905 78.8333 399.186 74.75L407.608 84.7031C405.311 87.875 402.048 90.4089 397.819 92.3047C393.626 94.1641 389.105 95.0938 384.256 95.0938ZM382.178 47.9531C376.782 47.9531 373.574 51.526 372.553 58.6719H391.147V57.25C391.22 54.2969 390.472 52.0182 388.905 50.4141C387.337 48.7734 385.095 47.9531 382.178 47.9531ZM470.442 68.1875L480.285 34.8281H500.027L475.91 103.898L474.871 106.414C471.444 114.07 465.392 117.898 456.715 117.898C454.309 117.898 451.775 117.534 449.113 116.805V103.625H451.52C454.108 103.625 456.077 103.242 457.426 102.477C458.811 101.747 459.832 100.417 460.488 98.4844L461.965 94.5469L441.402 34.8281H461.09L470.442 68.1875ZM502.788 63.8672C502.788 57.9609 503.937 52.7109 506.233 48.1172C508.53 43.487 511.83 39.9323 516.132 37.4531C520.434 34.974 525.483 33.7344 531.28 33.7344C540.14 33.7344 547.121 36.487 552.226 41.9922C557.33 47.4609 559.882 54.9167 559.882 64.3594V65.0156C559.882 74.2396 557.312 81.5677 552.171 87C547.067 92.3958 540.14 95.0938 531.39 95.0938C522.968 95.0938 516.205 92.5781 511.101 87.5469C505.996 82.4792 503.244 75.625 502.843 66.9844L502.788 63.8672ZM521.218 65.0156C521.218 70.4844 522.075 74.4948 523.788 77.0469C525.502 79.599 528.036 80.875 531.39 80.875C537.952 80.875 541.306 75.8255 541.452 65.7266V63.8672C541.452 53.2578 538.062 47.9531 531.28 47.9531C525.119 47.9531 521.783 52.5286 521.272 61.6797L521.218 65.0156ZM604.369 87.6016C600.468 92.5964 595.2 95.0938 588.564 95.0938C582.075 95.0938 577.153 93.2161 573.799 89.4609C570.481 85.6693 568.822 80.237 568.822 73.1641V34.8281H587.252V73.2734C587.252 78.3411 589.713 80.875 594.635 80.875C598.864 80.875 601.872 79.362 603.658 76.3359V34.8281H622.197V94H604.916L604.369 87.6016ZM669.255 51.5078L663.184 51.0703C657.388 51.0703 653.669 52.8932 652.028 56.5391V94H633.598V34.8281H650.88L651.481 42.4297C654.58 36.6328 658.901 33.7344 664.442 33.7344C666.411 33.7344 668.124 33.9531 669.583 34.3906L669.255 51.5078ZM30.1875 192.875C32.776 192.875 34.7812 192.182 36.2031 190.797C37.625 189.375 38.3177 187.406 38.2812 184.891H55.5625C55.5625 191.38 53.2292 196.703 48.5625 200.859C43.9323 205.016 37.9531 207.094 30.625 207.094C22.0208 207.094 15.2396 204.396 10.2812 199C5.32292 193.604 2.84375 186.13 2.84375 176.578V175.812C2.84375 169.833 3.9375 164.565 6.125 160.008C8.34896 155.414 11.5391 151.896 15.6953 149.453C19.8516 146.974 24.7734 145.734 30.4609 145.734C38.1536 145.734 44.2604 147.867 48.7812 152.133C53.3021 156.398 55.5625 162.177 55.5625 169.469H38.2812C38.2812 166.406 37.5339 164.055 36.0391 162.414C34.5443 160.773 32.5391 159.953 30.0234 159.953C25.2474 159.953 22.4583 162.997 21.6562 169.086C21.401 171.018 21.2734 173.68 21.2734 177.07C21.2734 183.013 21.9844 187.133 23.4062 189.43C24.8281 191.727 27.0885 192.875 30.1875 192.875ZM62.1512 175.867C62.1512 169.961 63.2997 164.711 65.5966 160.117C67.8934 155.487 71.1929 151.932 75.495 149.453C79.7971 146.974 84.8466 145.734 90.6434 145.734C99.5028 145.734 106.485 148.487 111.589 153.992C116.693 159.461 119.245 166.917 119.245 176.359V177.016C119.245 186.24 116.675 193.568 111.534 199C106.43 204.396 99.5028 207.094 90.7528 207.094C82.3309 207.094 75.5679 204.578 70.4637 199.547C65.3596 194.479 62.607 187.625 62.2059 178.984L62.1512 175.867ZM80.5809 177.016C80.5809 182.484 81.4377 186.495 83.1512 189.047C84.8648 191.599 87.3986 192.875 90.7528 192.875C97.3153 192.875 100.669 187.826 100.815 177.727V175.867C100.815 165.258 97.4247 159.953 90.6434 159.953C84.482 159.953 81.146 164.529 80.6356 173.68L80.5809 177.016ZM145.412 146.828L146.013 153.773C150.097 148.414 155.73 145.734 162.912 145.734C169.073 145.734 173.667 147.576 176.693 151.258C179.756 154.94 181.342 160.482 181.451 167.883V206H162.967V168.648C162.967 165.659 162.365 163.471 161.162 162.086C159.959 160.664 157.771 159.953 154.599 159.953C150.99 159.953 148.31 161.375 146.56 164.219V206H128.131V146.828H145.412ZM214.29 132.117V146.828H224.024V159.625H214.29V186.695C214.29 188.919 214.691 190.469 215.493 191.344C216.295 192.219 217.881 192.656 220.251 192.656C222.074 192.656 223.605 192.547 224.844 192.328V205.508C221.527 206.565 218.063 207.094 214.454 207.094C208.11 207.094 203.425 205.599 200.399 202.609C197.373 199.62 195.86 195.081 195.86 188.992V159.625H188.313V146.828H195.86V132.117H214.29ZM261.074 207.094C251.996 207.094 244.649 204.396 239.035 199C233.42 193.568 230.613 186.513 230.613 177.836V176.305C230.613 170.253 231.725 164.911 233.949 160.281C236.209 155.651 239.49 152.078 243.792 149.562C248.095 147.01 253.199 145.734 259.105 145.734C267.417 145.734 273.98 148.323 278.792 153.5C283.605 158.641 286.011 165.823 286.011 175.047V182.211H249.371C250.027 185.529 251.467 188.135 253.691 190.031C255.915 191.927 258.795 192.875 262.332 192.875C268.165 192.875 272.722 190.833 276.003 186.75L284.425 196.703C282.128 199.875 278.865 202.409 274.636 204.305C270.444 206.164 265.923 207.094 261.074 207.094ZM258.996 159.953C253.6 159.953 250.391 163.526 249.371 170.672H267.964V169.25C268.037 166.297 267.29 164.018 265.722 162.414C264.154 160.773 261.912 159.953 258.996 159.953ZM311.522 146.828L312.123 153.773C316.207 148.414 321.84 145.734 329.022 145.734C335.183 145.734 339.777 147.576 342.803 151.258C345.866 154.94 347.452 160.482 347.561 167.883V206H329.077V168.648C329.077 165.659 328.475 163.471 327.272 162.086C326.069 160.664 323.881 159.953 320.709 159.953C317.1 159.953 314.42 161.375 312.67 164.219V206H294.241V146.828H311.522ZM380.4 132.117V146.828H390.134V159.625H380.4V186.695C380.4 188.919 380.801 190.469 381.603 191.344C382.405 192.219 383.991 192.656 386.361 192.656C388.184 192.656 389.715 192.547 390.954 192.328V205.508C387.637 206.565 384.173 207.094 380.564 207.094C374.22 207.094 369.535 205.599 366.509 202.609C363.483 199.62 361.97 195.081 361.97 188.992V159.625H354.423V146.828H361.97V132.117H380.4ZM429.535 189.375C429.535 187.807 428.715 186.549 427.074 185.602C425.434 184.654 422.317 183.669 417.723 182.648C413.129 181.628 409.337 180.297 406.348 178.656C403.358 176.979 401.08 174.956 399.512 172.586C397.944 170.216 397.16 167.5 397.16 164.438C397.16 159.005 399.402 154.539 403.887 151.039C408.371 147.503 414.241 145.734 421.496 145.734C429.298 145.734 435.569 147.503 440.309 151.039C445.048 154.576 447.418 159.224 447.418 164.984H428.934C428.934 160.245 426.436 157.875 421.442 157.875C419.509 157.875 417.887 158.422 416.574 159.516C415.262 160.573 414.606 161.904 414.606 163.508C414.606 165.148 415.408 166.479 417.012 167.5C418.616 168.521 421.168 169.359 424.668 170.016C428.205 170.672 431.304 171.456 433.965 172.367C442.861 175.43 447.309 180.917 447.309 188.828C447.309 194.224 444.902 198.617 440.09 202.008C435.314 205.398 429.116 207.094 421.496 207.094C416.429 207.094 411.908 206.182 407.934 204.359C403.96 202.536 400.861 200.057 398.637 196.922C396.413 193.786 395.301 190.487 395.301 187.023H412.527C412.6 189.758 413.512 191.763 415.262 193.039C417.012 194.279 419.254 194.898 421.988 194.898C424.504 194.898 426.382 194.388 427.621 193.367C428.897 192.346 429.535 191.016 429.535 189.375ZM463.577 227.438L454.28 223.062L456.14 219.344C458.692 214.604 460.022 210.083 460.132 205.781V192.109H474.897L474.843 203.977C474.806 208.169 473.731 212.435 471.616 216.773C469.502 221.112 466.822 224.667 463.577 227.438ZM67.7031 288.305L76.8359 238.375H95.8672L78.9688 318H59.0625L48.3984 272.609L37.9531 318H18.1016L1.14844 238.375H20.2344L29.3672 288.305L40.3047 238.375H56.6016L67.7031 288.305ZM121.651 265.172C125.589 260.214 130.62 257.734 136.745 257.734C143.271 257.734 148.193 259.667 151.511 263.531C154.828 267.396 156.524 273.102 156.597 280.648V318H138.112V281.086C138.112 277.951 137.474 275.654 136.198 274.195C134.922 272.701 132.753 271.953 129.69 271.953C125.899 271.953 123.219 273.156 121.651 275.562V318H103.222V234H121.651V265.172ZM196.599 319.094C187.521 319.094 180.175 316.396 174.56 311C168.946 305.568 166.138 298.513 166.138 289.836V288.305C166.138 282.253 167.25 276.911 169.474 272.281C171.735 267.651 175.016 264.078 179.318 261.562C183.62 259.01 188.724 257.734 194.631 257.734C202.943 257.734 209.506 260.323 214.318 265.5C219.131 270.641 221.537 277.823 221.537 287.047V294.211H184.896C185.553 297.529 186.993 300.135 189.217 302.031C191.441 303.927 194.321 304.875 197.857 304.875C203.691 304.875 208.248 302.833 211.529 298.75L219.951 308.703C217.654 311.875 214.391 314.409 210.162 316.305C205.969 318.164 201.448 319.094 196.599 319.094ZM194.521 271.953C189.125 271.953 185.917 275.526 184.896 282.672H203.49V281.25C203.563 278.297 202.816 276.018 201.248 274.414C199.68 272.773 197.438 271.953 194.521 271.953ZM265.915 275.508L259.844 275.07C254.048 275.07 250.329 276.893 248.688 280.539V318H230.258V258.828H247.54L248.141 266.43C251.24 260.633 255.561 257.734 261.102 257.734C263.071 257.734 264.784 257.953 266.243 258.391L265.915 275.508ZM301.214 319.094C292.136 319.094 284.79 316.396 279.175 311C273.561 305.568 270.753 298.513 270.753 289.836V288.305C270.753 282.253 271.865 276.911 274.089 272.281C276.35 267.651 279.631 264.078 283.933 261.562C288.235 259.01 293.339 257.734 299.246 257.734C307.558 257.734 314.121 260.323 318.933 265.5C323.746 270.641 326.152 277.823 326.152 287.047V294.211H289.511C290.168 297.529 291.608 300.135 293.832 302.031C296.056 303.927 298.936 304.875 302.472 304.875C308.306 304.875 312.863 302.833 316.144 298.75L324.566 308.703C322.269 311.875 319.006 314.409 314.777 316.305C310.584 318.164 306.063 319.094 301.214 319.094ZM299.136 271.953C293.74 271.953 290.532 275.526 289.511 282.672H308.105V281.25C308.178 278.297 307.431 276.018 305.863 274.414C304.295 272.773 302.053 271.953 299.136 271.953ZM387.4 292.188L397.243 258.828H416.986L392.868 327.898L391.829 330.414C388.402 338.07 382.35 341.898 373.673 341.898C371.267 341.898 368.733 341.534 366.072 340.805V327.625H368.478C371.066 327.625 373.035 327.242 374.384 326.477C375.769 325.747 376.79 324.417 377.447 322.484L378.923 318.547L358.361 258.828H378.048L387.4 292.188ZM419.746 287.867C419.746 281.961 420.895 276.711 423.192 272.117C425.488 267.487 428.788 263.932 433.09 261.453C437.392 258.974 442.442 257.734 448.238 257.734C457.098 257.734 464.08 260.487 469.184 265.992C474.288 271.461 476.84 278.917 476.84 288.359V289.016C476.84 298.24 474.27 305.568 469.129 311C464.025 316.396 457.098 319.094 448.348 319.094C439.926 319.094 433.163 316.578 428.059 311.547C422.955 306.479 420.202 299.625 419.801 290.984L419.746 287.867ZM438.176 289.016C438.176 294.484 439.033 298.495 440.746 301.047C442.46 303.599 444.994 304.875 448.348 304.875C454.91 304.875 458.264 299.826 458.41 289.727V287.867C458.41 277.258 455.02 271.953 448.238 271.953C442.077 271.953 438.741 276.529 438.231 285.68L438.176 289.016ZM521.327 311.602C517.426 316.596 512.158 319.094 505.522 319.094C499.033 319.094 494.111 317.216 490.757 313.461C487.439 309.669 485.78 304.237 485.78 297.164V258.828H504.21V297.273C504.21 302.341 506.671 304.875 511.593 304.875C515.822 304.875 518.83 303.362 520.616 300.336V258.828H539.155V318H521.874L521.327 311.602ZM586.213 275.508L580.143 275.07C574.346 275.07 570.627 276.893 568.986 280.539V318H550.557V258.828H567.838L568.439 266.43C571.538 260.633 575.859 257.734 581.4 257.734C583.369 257.734 585.083 257.953 586.541 258.391L586.213 275.508ZM642.429 318H623.945V258.828H642.429V318ZM622.851 243.57C622.851 240.945 623.799 238.794 625.695 237.117C627.591 235.44 630.052 234.602 633.078 234.602C636.104 234.602 638.565 235.44 640.461 237.117C642.356 238.794 643.304 240.945 643.304 243.57C643.304 246.195 642.356 248.346 640.461 250.023C638.565 251.701 636.104 252.539 633.078 252.539C630.052 252.539 627.591 251.701 625.695 250.023C623.799 248.346 622.851 246.195 622.851 243.57ZM652.628 287.977C652.628 278.607 654.651 271.224 658.698 265.828C662.745 260.432 668.396 257.734 675.651 257.734C680.937 257.734 685.385 259.812 688.995 263.969V234H707.479V318H690.909L689.979 311.656C686.187 316.615 681.375 319.094 675.542 319.094C668.505 319.094 662.927 316.396 658.807 311C654.687 305.604 652.628 297.93 652.628 287.977ZM671.057 289.125C671.057 299.625 674.12 304.875 680.245 304.875C684.328 304.875 687.245 303.161 688.995 299.734V277.203C687.318 273.703 684.437 271.953 680.354 271.953C674.667 271.953 671.586 276.547 671.112 285.734L671.057 289.125ZM747.701 319.094C738.622 319.094 731.276 316.396 725.662 311C720.047 305.568 717.24 298.513 717.24 289.836V288.305C717.24 282.253 718.352 276.911 720.576 272.281C722.836 267.651 726.117 264.078 730.419 261.562C734.721 259.01 739.826 257.734 745.732 257.734C754.044 257.734 760.607 260.323 765.419 265.5C770.232 270.641 772.638 277.823 772.638 287.047V294.211H735.997C736.654 297.529 738.094 300.135 740.318 302.031C742.542 303.927 745.422 304.875 748.958 304.875C754.792 304.875 759.349 302.833 762.63 298.75L771.052 308.703C768.755 311.875 765.492 314.409 761.263 316.305C757.07 318.164 752.55 319.094 747.701 319.094ZM745.622 271.953C740.227 271.953 737.018 275.526 735.997 282.672H754.591V281.25C754.664 278.297 753.917 276.018 752.349 274.414C750.781 272.773 748.539 271.953 745.622 271.953ZM814.555 318C813.899 316.797 813.315 315.029 812.805 312.695C809.414 316.961 804.675 319.094 798.586 319.094C793.008 319.094 788.269 317.417 784.367 314.062C780.466 310.672 778.516 306.424 778.516 301.32C778.516 294.904 780.886 290.055 785.625 286.773C790.365 283.492 797.256 281.852 806.297 281.852H811.985V278.734C811.985 273.302 809.633 270.586 804.93 270.586C800.555 270.586 798.367 272.737 798.367 277.039H779.938C779.938 271.315 782.362 266.667 787.211 263.094C792.097 259.521 798.313 257.734 805.86 257.734C813.407 257.734 819.367 259.576 823.742 263.258C828.117 266.94 830.36 271.99 830.469 278.406V304.602C830.542 310.034 831.381 314.19 832.985 317.07V318H814.555ZM803.016 305.969C805.313 305.969 807.209 305.477 808.703 304.492C810.235 303.508 811.328 302.396 811.985 301.156V291.695H806.625C800.209 291.695 797 294.576 797 300.336C797 302.013 797.565 303.38 798.696 304.438C799.826 305.458 801.266 305.969 803.016 305.969ZM872.823 301.375C872.823 299.807 872.003 298.549 870.362 297.602C868.722 296.654 865.605 295.669 861.011 294.648C856.417 293.628 852.626 292.297 849.636 290.656C846.646 288.979 844.368 286.956 842.8 284.586C841.232 282.216 840.448 279.5 840.448 276.438C840.448 271.005 842.691 266.539 847.175 263.039C851.659 259.503 857.529 257.734 864.784 257.734C872.586 257.734 878.857 259.503 883.597 263.039C888.336 266.576 890.706 271.224 890.706 276.984H872.222C872.222 272.245 869.724 269.875 864.73 269.875C862.797 269.875 861.175 270.422 859.862 271.516C858.55 272.573 857.894 273.904 857.894 275.508C857.894 277.148 858.696 278.479 860.3 279.5C861.904 280.521 864.456 281.359 867.956 282.016C871.493 282.672 874.592 283.456 877.253 284.367C886.149 287.43 890.597 292.917 890.597 300.828C890.597 306.224 888.191 310.617 883.378 314.008C878.602 317.398 872.404 319.094 864.784 319.094C859.717 319.094 855.196 318.182 851.222 316.359C847.248 314.536 844.149 312.057 841.925 308.922C839.701 305.786 838.589 302.487 838.589 299.023H855.816C855.889 301.758 856.8 303.763 858.55 305.039C860.3 306.279 862.542 306.898 865.277 306.898C867.792 306.898 869.67 306.388 870.909 305.367C872.185 304.346 872.823 303.016 872.823 301.375ZM38.5 430C37.8438 428.797 37.2604 427.029 36.75 424.695C33.3594 428.961 28.6198 431.094 22.5312 431.094C16.9531 431.094 12.2135 429.417 8.3125 426.062C4.41146 422.672 2.46094 418.424 2.46094 413.32C2.46094 406.904 4.83073 402.055 9.57031 398.773C14.3099 395.492 21.2005 393.852 30.2422 393.852H35.9297V390.734C35.9297 385.302 33.5781 382.586 28.875 382.586C24.5 382.586 22.3125 384.737 22.3125 389.039H3.88281C3.88281 383.315 6.30729 378.667 11.1562 375.094C16.0417 371.521 22.2578 369.734 29.8047 369.734C37.3516 369.734 43.3125 371.576 47.6875 375.258C52.0625 378.94 54.3047 383.99 54.4141 390.406V416.602C54.487 422.034 55.3255 426.19 56.9297 429.07V430H38.5ZM26.9609 417.969C29.2578 417.969 31.1536 417.477 32.6484 416.492C34.1797 415.508 35.2734 414.396 35.9297 413.156V403.695H30.5703C24.1536 403.695 20.9453 406.576 20.9453 412.336C20.9453 414.013 21.5104 415.38 22.6406 416.438C23.7708 417.458 25.2109 417.969 26.9609 417.969ZM101.581 387.508L95.5106 387.07C89.7137 387.07 85.995 388.893 84.3544 392.539V430H65.9247V370.828H83.2059L83.8075 378.43C86.9065 372.633 91.2268 369.734 96.7684 369.734C98.7372 369.734 100.451 369.953 101.909 370.391L101.581 387.508ZM136.881 431.094C127.802 431.094 120.456 428.396 114.842 423C109.227 417.568 106.42 410.513 106.42 401.836V400.305C106.42 394.253 107.532 388.911 109.756 384.281C112.016 379.651 115.297 376.078 119.599 373.562C123.901 371.01 129.006 369.734 134.912 369.734C143.224 369.734 149.787 372.323 154.599 377.5C159.412 382.641 161.818 389.823 161.818 399.047V406.211H125.177C125.834 409.529 127.274 412.135 129.498 414.031C131.722 415.927 134.602 416.875 138.138 416.875C143.972 416.875 148.529 414.833 151.81 410.75L160.232 420.703C157.935 423.875 154.672 426.409 150.443 428.305C146.25 430.164 141.73 431.094 136.881 431.094ZM134.802 383.953C129.407 383.953 126.198 387.526 125.177 394.672H143.771V393.25C143.844 390.297 143.097 388.018 141.529 386.414C139.961 384.773 137.719 383.953 134.802 383.953Z" fill="white"/>
<path d="M905.229 179.13C908.078 174.054 914.693 172.559 919.448 175.916C923.911 179.066 924.943 185.256 921.742 189.684L891.729 231.203C889.561 234.202 885.41 234.95 882.332 232.896C879.341 230.9 878.391 226.939 880.151 223.803L905.229 179.13Z" fill="#FFB800"/>
<path d="M920.703 156.713C922.395 151.371 928.752 149.163 933.391 152.306C937.587 155.148 938.318 161.036 934.945 164.819L933.831 166.068C931.17 169.052 926.718 169.621 923.393 167.401C920.422 165.419 919.12 161.712 920.198 158.308L920.703 156.713Z" fill="#FFB800"/>
<path d="M923.935 219.777C929.127 216.555 935.942 219.483 937.178 225.467C937.989 229.394 936.04 233.373 932.439 235.138L897.185 252.417C893.855 254.049 889.831 252.725 888.12 249.435C886.472 246.267 887.543 242.363 890.578 240.48L923.935 219.777Z" fill="#FFB800"/>
<path d="M859.824 192.396C859.947 186.429 865.287 181.929 871.189 182.819C876.997 183.695 880.767 189.411 879.285 195.095L871.092 226.523C870.245 229.773 866.919 231.716 863.671 230.859C860.963 230.143 859.096 227.667 859.154 224.867L859.824 192.396Z" fill="#FFB800"/>
</svg>
