<svg width="1680" height="841" viewBox="0 0 1680 841" fill="none" xmlns="http://www.w3.org/2000/svg">
<g clip-path="url(#clip0)">
<path d="M408.365 348.145C456.863 304.487 565.045 274.831 609.788 505.478C654.53 736.124 749.203 582.387 790.946 476.688" stroke="#3A3390" stroke-width="0.8108"/>
<path d="M414.039 342.468C462.537 298.809 570.719 269.154 615.461 499.801C660.204 730.447 754.877 576.71 796.62 471.011" stroke="#3A3390" stroke-width="0.8108"/>
<path d="M1431.29 240.283C1347.65 196.625 1161.1 166.969 1083.95 397.616C1006.79 628.263 843.536 474.525 771.553 368.826" stroke="#3A3390" stroke-width="0.8108"/>
<path d="M1421.5 234.606C1337.87 190.948 1151.32 161.293 1074.16 391.939C997.007 622.586 833.751 468.849 761.767 363.149" stroke="#3A3390" stroke-width="0.8108"/>
<g filter="url(#filter0_d)">
<rect x="686.385" y="270.061" width="270.725" height="570.94" rx="1.6216" fill="url(#paint0_linear)"/>
</g>
<g filter="url(#filter1_d)">
<path fill-rule="evenodd" clip-rule="evenodd" d="M1288.67 1.36994C1273.46 0.613343 1260.52 12.327 1259.76 27.5331L1234.87 528.121C1234.12 543.327 1245.83 556.268 1261.04 557.024L1482.84 568.06C1498.04 568.817 1510.98 557.103 1511.74 541.897L1536.63 41.309C1537.39 26.1028 1525.67 13.1625 1510.47 12.4059L1288.67 1.36994ZM1288.02 14.3302C1279.97 13.9296 1273.12 20.1309 1272.72 28.1813L1247.83 528.763C1247.43 536.814 1253.63 543.665 1261.68 544.065L1483.49 555.104C1491.54 555.505 1498.39 549.303 1498.79 541.253L1523.68 40.671C1524.08 32.6207 1517.88 25.7698 1509.83 25.3692L1288.02 14.3302Z" fill="url(#paint1_radial)"/>
</g>
<g filter="url(#filter2_d)">
<rect width="252.893" height="528.767" rx="15.4052" transform="matrix(0.998764 0.0497063 -0.0496526 0.998767 1272.63 13.5649)" fill="url(#paint2_linear)"/>
</g>
<rect width="226.955" height="167.064" rx="29.1888" transform="matrix(0.998764 0.0497065 -0.0496524 0.998767 1284.62 33.6484)" fill="url(#paint3_linear)" fill-opacity="0.8"/>
<g opacity="0.8">
<rect width="136.173" height="46.2266" rx="19.4592" transform="matrix(0.998764 0.049706 -0.0496528 0.998767 1353.42 477.987)" fill="#020018"/>
</g>
<rect width="128.878" height="29.1957" rx="14.5979" transform="matrix(0.998764 0.0497063 -0.0496526 0.998767 1275.76 211.846)" fill="black" fill-opacity="0.8"/>
<rect width="201.828" height="9.73191" rx="4.86596" transform="matrix(0.998764 0.0497066 -0.0496523 0.998767 1273.75 252.346)" fill="black" fill-opacity="0.8"/>
<rect width="201.828" height="9.73191" rx="4.86596" transform="matrix(0.998764 0.0497046 -0.0496543 0.998766 1272.9 269.357)" fill="#0F0F0F" fill-opacity="0.8"/>
<rect width="201.828" height="9.73191" rx="4.86596" transform="matrix(0.998764 0.0497067 -0.0496522 0.998767 1272.05 286.366)" fill="#1A1A1A" fill-opacity="0.8"/>
<rect width="171.027" height="9.73191" rx="4.86595" transform="matrix(0.998764 0.0497069 -0.0496519 0.998767 1271.21 303.376)" fill="#292929" fill-opacity="0.8"/>
<g opacity="0.8">
<rect x="703.406" y="743.682" width="136.173" height="46.2266" rx="19.4592" fill="#020018"/>
</g>
<rect x="700.977" y="300.067" width="241.545" height="167.065" rx="29.1888" fill="black" fill-opacity="0.8"/>
<path d="M703.845 490.97L708.584 492.642V494.969L701.426 491.935V489.973L708.584 486.938V489.266L703.845 490.97ZM711.489 497.148H709.702L714.158 484.003H715.946L711.489 497.148ZM722.177 490.945L717.346 489.258V486.947L724.588 489.981V491.935L717.346 494.978V492.658L722.177 490.945Z" fill="#04002D"/>
<path d="M703.845 630.461L708.584 632.132V634.46L701.426 631.425V629.463L708.584 626.428V628.756L703.845 630.461ZM711.489 636.638H709.702L714.158 623.494H715.946L711.489 636.638ZM722.177 630.436L717.346 628.748V626.437L724.588 629.471V631.425L717.346 634.468V632.148L722.177 630.436Z" fill="#04002D"/>
<path d="M703.845 705.884L708.584 707.555V709.882L701.426 706.848V704.886L708.584 701.851V704.179L703.845 705.884ZM711.489 712.061H709.702L714.158 698.916H715.946L711.489 712.061ZM722.177 705.859L717.346 704.171V701.86L724.588 704.894V706.848L717.346 709.891V707.571L722.177 705.859Z" fill="#04002D"/>
<path d="M703.845 813.746L708.584 815.417V817.745L701.426 814.71V812.748L708.584 809.714V812.041L703.845 813.746ZM711.489 819.923H709.702L714.158 806.779H715.946L711.489 819.923ZM722.177 813.721L717.346 812.033V809.722L724.588 812.756V814.71L717.346 817.753V815.434L722.177 813.721Z" fill="#04002D"/>
<rect x="700.977" y="569.317" width="128.878" height="29.1958" rx="14.5979" fill="black" fill-opacity="0.8"/>
<rect x="700.977" y="679.613" width="201.828" height="9.73192" rx="4.86596" fill="black" fill-opacity="0.8"/>
<line y1="-0.4054" x2="489.838" y2="-0.4054" transform="matrix(0.0932218 0.995645 -0.995636 0.0933206 157.146 160.304)" stroke="#3A3391" stroke-width="0.8108"/>
<line y1="-0.4054" x2="489.838" y2="-0.4054" transform="matrix(0.0932209 0.995645 -0.995636 0.0933215 163.652 151.548)" stroke="#3A3391" stroke-width="0.8108"/>
<line y1="-0.4054" x2="506.869" y2="-0.4054" transform="matrix(0.093221 0.995645 -0.995636 0.0933214 430.775 126.512)" stroke="#3A3391" stroke-width="0.8108"/>
<line y1="-0.4054" x2="506.869" y2="-0.4054" transform="matrix(0.0932209 0.995645 -0.995636 0.0933215 437.208 116.948)" stroke="#3A3391" stroke-width="0.8108"/>
<line y1="-0.4054" x2="429.594" y2="-0.4054" transform="matrix(0.995636 -0.0933203 0.0932222 0.995645 90.6406 206.451)" stroke="#3A3391" stroke-width="0.8108"/>
<line y1="-0.4054" x2="429.594" y2="-0.4054" transform="matrix(0.995636 -0.0933203 0.0932222 0.995645 101.107 196.509)" stroke="#3A3391" stroke-width="0.8108"/>
<line y1="-0.4054" x2="424.731" y2="-0.4054" transform="matrix(0.995636 -0.0933204 0.0932221 0.995645 114.469 626.15)" stroke="#3A3391" stroke-width="0.8108"/>
<line y1="-0.4054" x2="424.731" y2="-0.4054" transform="matrix(0.995636 -0.0933204 0.0932221 0.995645 119.941 615.049)" stroke="#3A3391" stroke-width="0.8108"/>
<g filter="url(#filter3_d)">
<rect width="270.726" height="413.605" rx="1.6216" transform="matrix(0.995636 -0.0933214 0.0932211 0.995645 165.617 198.608)" fill="url(#paint4_linear)"/>
</g>
<rect width="241.546" height="167.064" rx="29.1888" transform="matrix(0.995636 -0.0933214 0.0932211 0.995645 181.957 216.626)" fill="black" fill-opacity="0.6"/>
<g opacity="0.8">
<rect width="136.174" height="46.2264" rx="19.4592" transform="matrix(0.995636 -0.0933225 0.09322 0.995646 309.343 533.761)" fill="#020018"/>
</g>
<rect width="128.879" height="29.1956" rx="14.5978" transform="matrix(0.995636 -0.0933227 0.0932199 0.995646 198.59 394.266)" fill="black" fill-opacity="0.6"/>
<rect width="201.829" height="9.73188" rx="4.86594" transform="matrix(0.995636 -0.0933231 0.0932194 0.995646 202.371 434.639)" fill="black" fill-opacity="0.8"/>
<rect width="201.829" height="9.73188" rx="4.86594" transform="matrix(0.995636 -0.0933207 0.0932218 0.995645 203.957 451.596)" fill="#0F0F0F" fill-opacity="0.8"/>
<rect width="201.829" height="9.73188" rx="4.86594" transform="matrix(0.995636 -0.0933206 0.093222 0.995645 205.545 468.553)" fill="#1A1A1A" fill-opacity="0.8"/>
<rect width="171.027" height="9.73188" rx="4.86594" transform="matrix(0.995636 -0.0933216 0.0932209 0.995645 207.133 485.51)" fill="#292929" fill-opacity="0.8"/>
</g>
<defs>
<filter id="filter0_d" x="673.412" y="260.331" width="296.67" height="596.885" filterUnits="userSpaceOnUse" color-interpolation-filters="sRGB">
<feFlood flood-opacity="0" result="BackgroundImageFix"/>
<feColorMatrix in="SourceAlpha" type="matrix" values="0 0 0 0 0 0 0 0 0 0 0 0 0 0 0 0 0 0 127 0"/>
<feOffset dy="3.2432"/>
<feGaussianBlur stdDeviation="6.4864"/>
<feColorMatrix type="matrix" values="0 0 0 0 0 0 0 0 0 0 0 0 0 0 0 0 0 0 0.25 0"/>
<feBlend mode="normal" in2="BackgroundImageFix" result="effect1_dropShadow"/>
<feBlend mode="normal" in="SourceGraphic" in2="effect1_dropShadow" result="shape"/>
</filter>
<filter id="filter1_d" x="1215.38" y="-14.8806" width="340.747" height="605.678" filterUnits="userSpaceOnUse" color-interpolation-filters="sRGB">
<feFlood flood-opacity="0" result="BackgroundImageFix"/>
<feColorMatrix in="SourceAlpha" type="matrix" values="0 0 0 0 0 0 0 0 0 0 0 0 0 0 0 0 0 0 127 0"/>
<feOffset dy="3.2432"/>
<feGaussianBlur stdDeviation="9.7296"/>
<feColorMatrix type="matrix" values="0 0 0 0 0.0583333 0 0 0 0 0.0583333 0 0 0 0 0.0583333 0 0 0 0.25 0"/>
<feBlend mode="normal" in2="BackgroundImageFix" result="effect1_dropShadow"/>
<feBlend mode="normal" in="SourceGraphic" in2="effect1_dropShadow" result="shape"/>
</filter>
<filter id="filter2_d" x="1211.45" y="-18.1205" width="348.694" height="610.543" filterUnits="userSpaceOnUse" color-interpolation-filters="sRGB">
<feFlood flood-opacity="0" result="BackgroundImageFix"/>
<feColorMatrix in="SourceAlpha" type="matrix" values="0 0 0 0 0 0 0 0 0 0 0 0 0 0 0 0 0 0 127 0"/>
<feMorphology radius="9.7296" operator="dilate" in="SourceAlpha" result="effect1_dropShadow"/>
<feOffset dy="3.2432"/>
<feGaussianBlur stdDeviation="12.9728"/>
<feColorMatrix type="matrix" values="0 0 0 0 0.12549 0 0 0 0 0.0862745 0 0 0 0 0.568627 0 0 0 0.25 0"/>
<feBlend mode="normal" in2="BackgroundImageFix" result="effect1_dropShadow"/>
<feBlend mode="normal" in="SourceGraphic" in2="effect1_dropShadow" result="shape"/>
</filter>
<filter id="filter3_d" x="152.789" y="163.758" width="333.759" height="462.726" filterUnits="userSpaceOnUse" color-interpolation-filters="sRGB">
<feFlood flood-opacity="0" result="BackgroundImageFix"/>
<feColorMatrix in="SourceAlpha" type="matrix" values="0 0 0 0 0 0 0 0 0 0 0 0 0 0 0 0 0 0 127 0"/>
<feOffset dy="3.2432"/>
<feGaussianBlur stdDeviation="6.4864"/>
<feColorMatrix type="matrix" values="0 0 0 0 0 0 0 0 0 0 0 0 0 0 0 0 0 0 0.25 0"/>
<feBlend mode="normal" in2="BackgroundImageFix" result="effect1_dropShadow"/>
<feBlend mode="normal" in="SourceGraphic" in2="effect1_dropShadow" result="shape"/>
</filter>
<linearGradient id="paint0_linear" x1="821.747" y1="270.061" x2="821.747" y2="841" gradientUnits="userSpaceOnUse">
<stop stop-color="#292095"/>
<stop offset="1" stop-color="#1D138F"/>
</linearGradient>
<radialGradient id="paint1_radial" cx="0" cy="0" r="1" gradientUnits="userSpaceOnUse" gradientTransform="translate(1385.75 284.715) rotate(92.8467) scale(278.17 138.605)">
<stop/>
<stop offset="0.0763261" stop-color="white"/>
<stop offset="0.546844" stop-color="#363636"/>
<stop offset="1" stop-color="#0E0E0E"/>
</radialGradient>
<linearGradient id="paint2_linear" x1="126.446" y1="0" x2="126.446" y2="528.767" gradientUnits="userSpaceOnUse">
<stop stop-color="#292095"/>
<stop offset="1" stop-color="#1D138F"/>
</linearGradient>
<linearGradient id="paint3_linear" x1="226.955" y1="167.064" x2="-9.01177" y2="13.882" gradientUnits="userSpaceOnUse">
<stop/>
<stop offset="1" stop-opacity="0.46"/>
</linearGradient>
<linearGradient id="paint4_linear" x1="135.363" y1="0" x2="135.363" y2="413.605" gradientUnits="userSpaceOnUse">
<stop stop-color="#292095"/>
<stop offset="1" stop-color="#1D138F"/>
</linearGradient>
<clipPath id="clip0">
<rect width="1680" height="841" fill="white"/>
</clipPath>
</defs>
</svg>
