<svg width="808" height="336" viewBox="0 0 808 336" fill="none" xmlns="http://www.w3.org/2000/svg">
<path d="M36.1641 48.9375L50.8203 14.375H71.5469L45.8984 65.3984V94H26.4297V65.3984L0.835938 14.375H21.4531L36.1641 48.9375ZM102.636 95.0938C93.5575 95.0938 86.2111 92.3958 80.5966 87C74.982 81.5677 72.1747 74.513 72.1747 65.8359V64.3047C72.1747 58.2526 73.2867 52.9115 75.5106 48.2812C77.771 43.651 81.0523 40.0781 85.3544 37.5625C89.6565 35.0104 94.7606 33.7344 100.667 33.7344C108.979 33.7344 115.542 36.3229 120.354 41.5C125.167 46.6406 127.573 53.8229 127.573 63.0469V70.2109H90.9325C91.5888 73.5286 93.0289 76.1354 95.2528 78.0312C97.4768 79.9271 100.357 80.875 103.893 80.875C109.727 80.875 114.284 78.8333 117.565 74.75L125.987 84.7031C123.69 87.875 120.427 90.4089 116.198 92.3047C112.005 94.1641 107.485 95.0938 102.636 95.0938ZM100.558 47.9531C95.1617 47.9531 91.9533 51.526 90.9325 58.6719H109.526V57.25C109.599 54.2969 108.852 52.0182 107.284 50.4141C105.716 48.7734 103.474 47.9531 100.558 47.9531ZM169.49 94C168.834 92.7969 168.25 91.0286 167.74 88.6953C164.349 92.9609 159.61 95.0938 153.521 95.0938C147.943 95.0938 143.204 93.4167 139.303 90.0625C135.401 86.6719 133.451 82.4245 133.451 77.3203C133.451 70.9036 135.821 66.0547 140.56 62.7734C145.3 59.4922 152.191 57.8516 161.232 57.8516H166.92V54.7344C166.92 49.3021 164.568 46.5859 159.865 46.5859C155.49 46.5859 153.303 48.737 153.303 53.0391H134.873C134.873 47.3151 137.297 42.6667 142.146 39.0938C147.032 35.5208 153.248 33.7344 160.795 33.7344C168.342 33.7344 174.303 35.5755 178.678 39.2578C183.053 42.9401 185.295 47.9896 185.404 54.4062V80.6016C185.477 86.0339 186.316 90.1901 187.92 93.0703V94H169.49ZM157.951 81.9688C160.248 81.9688 162.144 81.4766 163.638 80.4922C165.17 79.5078 166.263 78.3958 166.92 77.1562V67.6953H161.56C155.144 67.6953 151.935 70.5755 151.935 76.3359C151.935 78.013 152.5 79.3802 153.631 80.4375C154.761 81.4583 156.201 81.9688 157.951 81.9688ZM214.798 41.1719C218.735 36.2135 223.766 33.7344 229.891 33.7344C236.417 33.7344 241.339 35.6667 244.657 39.5312C247.975 43.3958 249.67 49.1016 249.743 56.6484V94H231.258V57.0859C231.258 53.9505 230.62 51.6536 229.344 50.1953C228.068 48.7005 225.899 47.9531 222.837 47.9531C219.045 47.9531 216.365 49.1562 214.798 51.5625V94H196.368V10H214.798V41.1719ZM272.519 76.1172C275.436 76.1172 277.86 76.9922 279.792 78.7422C281.725 80.4557 282.691 82.6615 282.691 85.3594C282.691 88.0573 281.725 90.2812 279.792 92.0312C277.86 93.7448 275.436 94.6016 272.519 94.6016C269.566 94.6016 267.123 93.7266 265.191 91.9766C263.295 90.2266 262.347 88.0208 262.347 85.3594C262.347 82.6979 263.295 80.4922 265.191 78.7422C267.123 76.9922 269.566 76.1172 272.519 76.1172ZM307.545 76.1172C310.462 76.1172 312.886 76.9922 314.819 78.7422C316.751 80.4557 317.717 82.6615 317.717 85.3594C317.717 88.0573 316.751 90.2812 314.819 92.0312C312.886 93.7448 310.462 94.6016 307.545 94.6016C304.592 94.6016 302.149 93.7266 300.217 91.9766C298.321 90.2266 297.373 88.0208 297.373 85.3594C297.373 82.6979 298.321 80.4922 300.217 78.7422C302.149 76.9922 304.592 76.1172 307.545 76.1172ZM69.5234 141.195H45.625V206H26.4297V141.195H2.96875V126.375H69.5234V141.195ZM95.9638 153.172C99.9013 148.214 104.933 145.734 111.058 145.734C117.584 145.734 122.505 147.667 125.823 151.531C129.141 155.396 130.836 161.102 130.909 168.648V206H112.425V169.086C112.425 165.951 111.787 163.654 110.511 162.195C109.235 160.701 107.065 159.953 104.003 159.953C100.211 159.953 97.5315 161.156 95.9638 163.562V206H77.5341V122H95.9638V153.172ZM175.615 206C174.959 204.797 174.375 203.029 173.865 200.695C170.474 204.961 165.735 207.094 159.646 207.094C154.068 207.094 149.329 205.417 145.428 202.062C141.526 198.672 139.576 194.424 139.576 189.32C139.576 182.904 141.946 178.055 146.685 174.773C151.425 171.492 158.316 169.852 167.357 169.852H173.045V166.734C173.045 161.302 170.693 158.586 165.99 158.586C161.615 158.586 159.428 160.737 159.428 165.039H140.998C140.998 159.315 143.422 154.667 148.271 151.094C153.157 147.521 159.373 145.734 166.92 145.734C174.467 145.734 180.428 147.576 184.803 151.258C189.178 154.94 191.42 159.99 191.529 166.406V192.602C191.602 198.034 192.441 202.19 194.045 205.07V206H175.615ZM164.076 193.969C166.373 193.969 168.269 193.477 169.763 192.492C171.295 191.508 172.388 190.396 173.045 189.156V179.695H167.685C161.269 179.695 158.06 182.576 158.06 188.336C158.06 190.013 158.625 191.38 159.756 192.438C160.886 193.458 162.326 193.969 164.076 193.969ZM224.368 132.117V146.828H234.102V159.625H224.368V186.695C224.368 188.919 224.769 190.469 225.571 191.344C226.373 192.219 227.959 192.656 230.329 192.656C232.152 192.656 233.683 192.547 234.923 192.328V205.508C231.605 206.565 228.141 207.094 224.532 207.094C218.188 207.094 213.503 205.599 210.477 202.609C207.451 199.62 205.938 195.081 205.938 188.992V159.625H198.391V146.828H205.938V132.117H224.368ZM250.371 151.312L242.277 146.938C245.303 141.688 246.852 136.547 246.925 131.516V122H260.378V130.914C260.378 134.305 259.394 137.932 257.425 141.797C255.493 145.625 253.141 148.797 250.371 151.312ZM290.483 189.375C290.483 187.807 289.663 186.549 288.022 185.602C286.381 184.654 283.264 183.669 278.67 182.648C274.077 181.628 270.285 180.297 267.295 178.656C264.306 176.979 262.027 174.956 260.459 172.586C258.892 170.216 258.108 167.5 258.108 164.438C258.108 159.005 260.35 154.539 264.834 151.039C269.319 147.503 275.189 145.734 282.444 145.734C290.246 145.734 296.517 147.503 301.256 151.039C305.996 154.576 308.366 159.224 308.366 164.984H289.881C289.881 160.245 287.384 157.875 282.389 157.875C280.457 157.875 278.834 158.422 277.522 159.516C276.209 160.573 275.553 161.904 275.553 163.508C275.553 165.148 276.355 166.479 277.959 167.5C279.564 168.521 282.116 169.359 285.616 170.016C289.152 170.672 292.251 171.456 294.913 172.367C303.808 175.43 308.256 180.917 308.256 188.828C308.256 194.224 305.85 198.617 301.038 202.008C296.261 205.398 290.064 207.094 282.444 207.094C277.376 207.094 272.855 206.182 268.881 204.359C264.907 202.536 261.808 200.057 259.584 196.922C257.36 193.786 256.248 190.487 256.248 187.023H273.475C273.548 189.758 274.459 191.763 276.209 193.039C277.959 194.279 280.202 194.898 282.936 194.898C285.452 194.898 287.329 194.388 288.569 193.367C289.845 192.346 290.483 191.016 290.483 189.375ZM380.387 206C379.731 204.797 379.147 203.029 378.637 200.695C375.246 204.961 370.507 207.094 364.418 207.094C358.84 207.094 354.1 205.417 350.199 202.062C346.298 198.672 344.348 194.424 344.348 189.32C344.348 182.904 346.718 178.055 351.457 174.773C356.197 171.492 363.087 169.852 372.129 169.852H377.817V166.734C377.817 161.302 375.465 158.586 370.762 158.586C366.387 158.586 364.199 160.737 364.199 165.039H345.77C345.77 159.315 348.194 154.667 353.043 151.094C357.929 147.521 364.145 145.734 371.692 145.734C379.238 145.734 385.199 147.576 389.574 151.258C393.949 154.94 396.192 159.99 396.301 166.406V192.602C396.374 198.034 397.212 202.19 398.817 205.07V206H380.387ZM368.848 193.969C371.145 193.969 373.041 193.477 374.535 192.492C376.067 191.508 377.16 190.396 377.817 189.156V179.695H372.457C366.041 179.695 362.832 182.576 362.832 188.336C362.832 190.013 363.397 191.38 364.527 192.438C365.658 193.458 367.098 193.969 368.848 193.969ZM68.7031 288.305L77.8359 238.375H96.8672L79.9688 318H60.0625L49.3984 272.609L38.9531 318H19.1016L2.14844 238.375H21.2344L30.3672 288.305L41.3047 238.375H57.6016L68.7031 288.305ZM131.511 319.094C122.433 319.094 115.086 316.396 109.472 311C103.857 305.568 101.05 298.513 101.05 289.836V288.305C101.05 282.253 102.162 276.911 104.386 272.281C106.646 267.651 109.927 264.078 114.229 261.562C118.531 259.01 123.636 257.734 129.542 257.734C137.854 257.734 144.417 260.323 149.229 265.5C154.042 270.641 156.448 277.823 156.448 287.047V294.211H119.808C120.464 297.529 121.904 300.135 124.128 302.031C126.352 303.927 129.232 304.875 132.768 304.875C138.602 304.875 143.159 302.833 146.44 298.75L154.862 308.703C152.565 311.875 149.302 314.409 145.073 316.305C140.88 318.164 136.36 319.094 131.511 319.094ZM129.433 271.953C124.037 271.953 120.828 275.526 119.808 282.672H138.401V281.25C138.474 278.297 137.727 276.018 136.159 274.414C134.591 272.773 132.349 271.953 129.433 271.953ZM217.805 295.961L212.61 301.156V318H194.18V233.945H212.61V278.57L214.469 276.109L228.36 258.828H250.454L229.727 283.164L251.821 318H230.712L217.805 295.961ZM273.339 258.828L273.941 265.773C278.024 260.414 283.657 257.734 290.839 257.734C297.001 257.734 301.595 259.576 304.621 263.258C307.683 266.94 309.269 272.482 309.378 279.883V318H290.894V280.648C290.894 277.659 290.292 275.471 289.089 274.086C287.886 272.664 285.699 271.953 282.527 271.953C278.917 271.953 276.238 273.375 274.488 276.219V318H256.058V258.828H273.339ZM318.428 287.867C318.428 281.961 319.577 276.711 321.873 272.117C324.17 267.487 327.47 263.932 331.772 261.453C336.074 258.974 341.123 257.734 346.92 257.734C355.78 257.734 362.761 260.487 367.866 265.992C372.97 271.461 375.522 278.917 375.522 288.359V289.016C375.522 298.24 372.952 305.568 367.811 311C362.707 316.396 355.78 319.094 347.03 319.094C338.608 319.094 331.845 316.578 326.741 311.547C321.636 306.479 318.884 299.625 318.483 290.984L318.428 287.867ZM336.858 289.016C336.858 294.484 337.715 298.495 339.428 301.047C341.142 303.599 343.676 304.875 347.03 304.875C353.592 304.875 356.946 299.826 357.092 289.727V287.867C357.092 277.258 353.702 271.953 346.92 271.953C340.759 271.953 337.423 276.529 336.913 285.68L336.858 289.016ZM435.868 293.719L441.829 258.828H459.493L445.548 318H429.962L420.173 282.891L410.329 318H394.743L380.798 258.828H398.462L404.314 294.539L413.72 258.828H426.572L435.868 293.719Z" fill="#FF9E45"/>
<rect x="426" y="99" width="360" height="133" rx="32" fill="#FF9E45"/>
<path d="M511.324 174.023C511.324 182.682 509.534 189.339 505.953 193.994C502.372 198.649 497.327 200.977 490.816 200.977C485.445 200.977 481.116 198.844 477.828 194.58L477.145 200H462.398V125H478.854V151.416C481.913 147.933 485.868 146.191 490.719 146.191C497.294 146.191 502.372 148.551 505.953 153.271C509.534 157.992 511.324 164.632 511.324 173.193V174.023ZM494.82 172.998C494.82 167.92 494.137 164.307 492.77 162.158C491.435 159.977 489.368 158.887 486.568 158.887C482.857 158.887 480.286 160.303 478.854 163.135V184.131C480.253 186.93 482.857 188.33 486.666 188.33C490.54 188.33 492.997 186.442 494.039 182.666C494.56 180.811 494.82 177.588 494.82 172.998ZM551.094 194.287C547.611 198.747 542.907 200.977 536.982 200.977C531.188 200.977 526.794 199.3 523.799 195.947C520.837 192.562 519.355 187.712 519.355 181.396V147.168H535.811V181.494C535.811 186.019 538.008 188.281 542.402 188.281C546.178 188.281 548.864 186.93 550.459 184.229V147.168H567.012V200H551.582L551.094 194.287ZM596.234 134.033V147.168H604.926V158.594H596.234V182.764C596.234 184.749 596.592 186.133 597.309 186.914C598.025 187.695 599.441 188.086 601.557 188.086C603.184 188.086 604.551 187.988 605.658 187.793V199.561C602.696 200.505 599.604 200.977 596.381 200.977C590.717 200.977 586.534 199.642 583.832 196.973C581.13 194.303 579.779 190.251 579.779 184.814V158.594H573.041V147.168H579.779V134.033H596.234ZM631.609 134.033V147.168H640.301V158.594H631.609V182.764C631.609 184.749 631.967 186.133 632.684 186.914C633.4 187.695 634.816 188.086 636.932 188.086C638.559 188.086 639.926 187.988 641.033 187.793V199.561C638.071 200.505 634.979 200.977 631.756 200.977C626.092 200.977 621.909 199.642 619.207 196.973C616.505 194.303 615.154 190.251 615.154 184.814V158.594H608.416V147.168H615.154V134.033H631.609ZM644.279 173.096C644.279 167.822 645.305 163.135 647.355 159.033C649.406 154.899 652.352 151.725 656.193 149.512C660.035 147.298 664.543 146.191 669.719 146.191C677.629 146.191 683.863 148.649 688.42 153.564C692.977 158.447 695.256 165.104 695.256 173.535V174.121C695.256 182.357 692.961 188.9 688.371 193.75C683.814 198.568 677.629 200.977 669.816 200.977C662.297 200.977 656.258 198.73 651.701 194.238C647.144 189.714 644.686 183.594 644.328 175.879L644.279 173.096ZM660.734 174.121C660.734 179.004 661.499 182.585 663.029 184.863C664.559 187.142 666.822 188.281 669.816 188.281C675.676 188.281 678.671 183.773 678.801 174.756V173.096C678.801 163.623 675.773 158.887 669.719 158.887C664.217 158.887 661.239 162.972 660.783 171.143L660.734 174.121ZM718.619 147.168L719.156 153.369C722.802 148.584 727.831 146.191 734.244 146.191C739.745 146.191 743.847 147.835 746.549 151.123C749.283 154.411 750.699 159.359 750.797 165.967V200H734.293V166.65C734.293 163.981 733.756 162.028 732.682 160.791C731.607 159.521 729.654 158.887 726.822 158.887C723.6 158.887 721.207 160.156 719.645 162.695V200H703.189V147.168H718.619Z" fill="white"/>
</svg>
