<svg width="1680" height="666" viewBox="0 0 1680 666" fill="none" xmlns="http://www.w3.org/2000/svg">
<rect width="1680" height="666" fill="#0B0645"/>
<path d="M1294.1 175H1651L1433.9 640H1077L1294.1 175Z" fill="#1B18A4"/>
<path d="M1294.1 158H1651L1433.9 623H1077L1294.1 158Z" fill="#030082"/>
<path d="M1279.79 603.5L1303.46 552.776H1438.21L1414.54 603.5H1279.79Z" stroke="#FFB800"/>
<path d="M1279.79 587.638L1303.46 536.914H1438.21L1414.54 587.638H1279.79Z" fill="#FFB800" stroke="#FFB800"/>
<line x1="1413.67" y1="603.311" x2="1413.67" y2="588.138" stroke="#FFB800"/>
<line x1="1438.5" y1="552.276" x2="1438.5" y2="537.104" stroke="#FFB800"/>
<line x1="1303.33" y1="552.276" x2="1303.33" y2="537.104" stroke="#FFB800"/>
<line x1="1278.5" y1="603.311" x2="1278.5" y2="588.138" stroke="#FFB800"/>
<path d="M1151.16 508.5L1266.68 265H1579.83L1464.31 508.5H1151.16Z" stroke="white" stroke-width="4"/>
<path d="M1298.79 199.5L1308.32 179.071H1363.5L1353.97 199.5H1298.79Z" stroke="#FFB800"/>
<path d="M1298.79 192.929L1308.32 172.5H1363.5L1353.97 192.929H1298.79Z" fill="#FFB800" stroke="#FFB800"/>
<line x1="1353.5" y1="199.714" x2="1353.5" y2="193.428" stroke="#FFB800"/>
<line x1="1363.79" y1="178.571" x2="1363.79" y2="172.286" stroke="#FFB800"/>
<line x1="1307.79" y1="178.571" x2="1307.79" y2="172.286" stroke="#FFB800"/>
<line x1="1297.5" y1="199.714" x2="1297.5" y2="193.428" stroke="#FFB800"/>
<path d="M1275.79 234.5L1285.32 214.071H1340.5L1330.97 234.5H1275.79Z" stroke="#FFB800"/>
<path d="M1275.79 227.929L1285.32 207.5H1340.5L1330.97 227.929H1275.79Z" fill="#FFB800" stroke="#FFB800"/>
<line x1="1330.5" y1="234.714" x2="1330.5" y2="228.428" stroke="#FFB800"/>
<line x1="1340.79" y1="213.571" x2="1340.79" y2="207.286" stroke="#FFB800"/>
<line x1="1284.79" y1="213.571" x2="1284.79" y2="207.286" stroke="#FFB800"/>
<line x1="1274.5" y1="234.714" x2="1274.5" y2="228.428" stroke="#FFB800"/>
<path d="M201 404.5C259.167 339 396.8 222.3 482 279.5C588.5 351 693.5 441.499 786 360.499C878.5 279.5 1019.5 202.999 1108 265.499C1221 345.302 1255 368 1301 368C1347 368 1426 307 1479.5 307" stroke="white" stroke-width="3"/>
<path d="M1414 258.5L1480.5 308L1428.5 401" stroke="white" stroke-width="3"/>
<path d="M80.6404 476L113.774 405H306.36L273.226 476H80.6404Z" stroke="#FFB800" stroke-width="4"/>
<path d="M147.14 587L180.274 516H372.86L339.726 587H147.14Z" stroke="white" stroke-width="4"/>
<path d="M582.14 359L615.274 288H807.86L774.726 359H582.14Z" stroke="white" stroke-width="4"/>
<path d="M481.14 324L514.274 253H706.86L673.726 324H481.14Z" stroke="#FFB800" stroke-width="4"/>
<path d="M481.14 301L514.274 230H706.86L673.726 301H481.14Z" stroke="#FFB800" stroke-width="4"/>
<line x1="673" y1="325" x2="673" y2="303" stroke="#FFB800" stroke-width="4"/>
<line x1="708" y1="251" x2="708" y2="229" stroke="#FFB800" stroke-width="4"/>
<line x1="515" y1="251" x2="515" y2="229" stroke="#FFB800" stroke-width="4"/>
<line x1="480" y1="325" x2="480" y2="303" stroke="#FFB800" stroke-width="4"/>
</svg>
