<svg width="1680" height="720" viewBox="0 0 1680 720" fill="none" xmlns="http://www.w3.org/2000/svg">
<rect width="1680" height="720" fill="white"/>
<rect width="1680" height="720" fill="#FFB800"/>
<path d="M722.746 345.63C721.044 342.352 718.68 339.893 715.653 338.254C712.627 336.551 709.128 335.7 705.156 335.7C700.806 335.7 696.928 336.678 693.524 338.632C690.119 340.586 687.439 343.361 685.485 346.954C683.594 350.548 682.648 354.709 682.648 359.438C682.648 364.166 683.594 368.359 685.485 372.016C687.439 375.61 690.119 378.384 693.524 380.338C696.928 382.293 700.806 383.27 705.156 383.27C711.019 383.27 715.779 381.631 719.436 378.352C723.093 375.074 725.331 370.629 726.151 365.018H701.468V356.412H737.689V364.828C736.995 369.935 735.167 374.632 732.203 378.92C729.303 383.207 725.489 386.643 720.76 389.228C716.095 391.75 710.893 393.011 705.156 393.011C698.977 393.011 693.334 391.592 688.228 388.755C683.121 385.855 679.054 381.851 676.028 376.744C673.065 371.638 671.583 365.869 671.583 359.438C671.583 353.007 673.065 347.238 676.028 342.131C679.054 337.024 683.121 333.052 688.228 330.215C693.397 327.315 699.04 325.865 705.156 325.865C712.154 325.865 718.364 327.599 723.787 331.066C729.272 334.471 733.244 339.326 735.703 345.63H722.746ZM796.459 340.334V392.443H785.678V386.296C783.976 388.44 781.737 390.142 778.963 391.403C776.252 392.601 773.352 393.2 770.263 393.2C766.165 393.2 762.476 392.349 759.198 390.646C755.982 388.944 753.429 386.422 751.537 383.081C749.709 379.739 748.795 375.704 748.795 370.976V340.334H759.481V369.368C759.481 374.033 760.648 377.627 762.981 380.149C765.313 382.608 768.497 383.837 772.532 383.837C776.567 383.837 779.751 382.608 782.084 380.149C784.48 377.627 785.678 374.033 785.678 369.368V340.334H796.459ZM817.115 333.431C815.16 333.431 813.521 332.769 812.197 331.445C810.873 330.121 810.211 328.481 810.211 326.527C810.211 324.572 810.873 322.933 812.197 321.609C813.521 320.285 815.16 319.623 817.115 319.623C819.006 319.623 820.614 320.285 821.938 321.609C823.262 322.933 823.924 324.572 823.924 326.527C823.924 328.481 823.262 330.121 821.938 331.445C820.614 332.769 819.006 333.431 817.115 333.431ZM822.411 340.334V392.443H811.63V340.334H822.411ZM833.918 366.152C833.918 360.919 834.989 356.285 837.133 352.25C839.34 348.215 842.303 345.094 846.023 342.888C849.806 340.618 853.998 339.483 858.601 339.483C862.005 339.483 865.347 340.24 868.625 341.753C871.967 343.203 874.615 345.157 876.569 347.616V322.46H887.445V392.443H876.569V384.594C874.804 387.116 872.345 389.196 869.193 390.836C866.104 392.475 862.541 393.295 858.506 393.295C853.967 393.295 849.806 392.16 846.023 389.89C842.303 387.557 839.34 384.342 837.133 380.244C834.989 376.082 833.918 371.385 833.918 366.152ZM876.569 366.342C876.569 362.748 875.813 359.627 874.3 356.979C872.85 354.331 870.927 352.313 868.531 350.926C866.135 349.539 863.55 348.846 860.776 348.846C858.002 348.846 855.417 349.539 853.021 350.926C850.625 352.25 848.671 354.236 847.158 356.884C845.708 359.469 844.982 362.559 844.982 366.152C844.982 369.746 845.708 372.899 847.158 375.61C848.671 378.321 850.625 380.401 853.021 381.851C855.48 383.238 858.065 383.932 860.776 383.932C863.55 383.932 866.135 383.238 868.531 381.851C870.927 380.464 872.85 378.447 874.3 375.799C875.813 373.088 876.569 369.935 876.569 366.342ZM950.31 365.112C950.31 367.067 950.184 368.832 949.932 370.408H910.117C910.433 374.569 911.977 377.911 914.751 380.433C917.525 382.955 920.93 384.216 924.965 384.216C930.765 384.216 934.864 381.788 937.259 376.934H948.892C947.316 381.725 944.447 385.666 940.286 388.755C936.188 391.781 931.081 393.295 924.965 393.295C919.984 393.295 915.508 392.191 911.536 389.984C907.627 387.715 904.538 384.562 902.268 380.527C900.061 376.429 898.958 371.701 898.958 366.342C898.958 360.982 900.03 356.285 902.173 352.25C904.38 348.152 907.438 345 911.347 342.793C915.319 340.586 919.858 339.483 924.965 339.483C929.883 339.483 934.265 340.555 938.111 342.699C941.956 344.842 944.951 347.869 947.095 351.777C949.239 355.623 950.31 360.068 950.31 365.112ZM939.056 361.708C938.993 357.736 937.575 354.552 934.801 352.156C932.026 349.76 928.59 348.562 924.492 348.562C920.772 348.562 917.588 349.76 914.94 352.156C912.292 354.489 910.716 357.672 910.212 361.708H939.056ZM980.78 393.295C976.682 393.295 972.994 392.569 969.715 391.119C966.5 389.606 963.946 387.589 962.055 385.067C960.164 382.482 959.155 379.613 959.029 376.461H970.188C970.377 378.667 971.418 380.527 973.309 382.04C975.264 383.491 977.691 384.216 980.591 384.216C983.617 384.216 985.95 383.648 987.589 382.513C989.292 381.315 990.143 379.802 990.143 377.974C990.143 376.019 989.197 374.569 987.306 373.624C985.477 372.678 982.546 371.638 978.51 370.503C974.602 369.431 971.418 368.391 968.959 367.382C966.5 366.373 964.356 364.828 962.528 362.748C960.762 360.667 959.88 357.925 959.88 354.52C959.88 351.746 960.699 349.224 962.339 346.954C963.978 344.622 966.311 342.793 969.337 341.469C972.426 340.145 975.957 339.483 979.929 339.483C985.856 339.483 990.616 340.996 994.209 344.023C997.866 346.986 999.821 351.052 1000.07 356.222H989.292C989.103 353.89 988.157 352.03 986.454 350.643C984.752 349.256 982.451 348.562 979.551 348.562C976.714 348.562 974.538 349.098 973.025 350.17C971.512 351.242 970.756 352.66 970.756 354.426C970.756 355.813 971.26 356.979 972.269 357.925C973.277 358.87 974.507 359.627 975.957 360.194C977.407 360.699 979.551 361.361 982.388 362.18C986.171 363.189 989.26 364.229 991.656 365.301C994.115 366.31 996.227 367.823 997.992 369.841C999.758 371.858 1000.67 374.538 1000.73 377.879C1000.73 380.843 999.915 383.491 998.276 385.823C996.637 388.156 994.304 389.984 991.278 391.308C988.314 392.633 984.815 393.295 980.78 393.295Z" fill="black"/>
<rect x="44.625" y="355.734" width="565.688" height="5.25068" fill="black"/>
<rect x="1069.69" y="355.734" width="565.688" height="5.25068" fill="black"/>
<path d="M1287.72 336.677L1287.82 338.074C1288.71 336.989 1289.91 336.446 1291.41 336.446C1293.02 336.446 1294.13 337.081 1294.73 338.351C1295.6 337.081 1296.86 336.446 1298.48 336.446C1299.83 336.446 1300.84 336.842 1301.5 337.635C1302.17 338.42 1302.5 339.605 1302.5 341.191V349.168H1299.15V341.202C1299.15 340.494 1299.01 339.979 1298.73 339.655C1298.46 339.324 1297.97 339.159 1297.27 339.159C1296.27 339.159 1295.57 339.636 1295.19 340.59L1295.2 349.168H1291.86V341.214C1291.86 340.49 1291.72 339.967 1291.44 339.644C1291.15 339.321 1290.67 339.159 1289.98 339.159C1289.04 339.159 1288.35 339.551 1287.93 340.336V349.168H1284.59V336.677H1287.72ZM1308.83 349.168H1305.48V336.677H1308.83V349.168ZM1305.28 333.444C1305.28 332.944 1305.45 332.532 1305.78 332.209C1306.12 331.886 1306.58 331.724 1307.15 331.724C1307.72 331.724 1308.18 331.886 1308.52 332.209C1308.86 332.532 1309.03 332.944 1309.03 333.444C1309.03 333.952 1308.85 334.368 1308.51 334.691C1308.17 335.015 1307.72 335.176 1307.15 335.176C1306.59 335.176 1306.14 335.015 1305.79 334.691C1305.45 334.368 1305.28 333.952 1305.28 333.444ZM1318.59 345.716C1318.59 345.308 1318.39 344.989 1317.98 344.758C1317.58 344.519 1316.93 344.308 1316.04 344.123C1313.07 343.5 1311.58 342.237 1311.58 340.336C1311.58 339.228 1312.04 338.305 1312.96 337.566C1313.88 336.819 1315.08 336.446 1316.57 336.446C1318.15 336.446 1319.42 336.819 1320.37 337.566C1321.32 338.312 1321.8 339.282 1321.8 340.475H1318.46C1318.46 339.998 1318.31 339.605 1318 339.298C1317.69 338.982 1317.21 338.824 1316.56 338.824C1316 338.824 1315.56 338.951 1315.25 339.205C1314.95 339.459 1314.79 339.782 1314.79 340.175C1314.79 340.544 1314.96 340.844 1315.31 341.075C1315.66 341.299 1316.26 341.495 1317.09 341.664C1317.92 341.826 1318.62 342.01 1319.19 342.218C1320.95 342.865 1321.83 343.985 1321.83 345.578C1321.83 346.717 1321.34 347.64 1320.37 348.348C1319.39 349.049 1318.13 349.399 1316.58 349.399C1315.53 349.399 1314.6 349.214 1313.79 348.845C1312.98 348.468 1312.34 347.956 1311.88 347.309C1311.42 346.655 1311.19 345.951 1311.19 345.197H1314.35C1314.38 345.789 1314.6 346.243 1315.01 346.559C1315.42 346.874 1315.96 347.032 1316.65 347.032C1317.29 347.032 1317.77 346.913 1318.09 346.674C1318.42 346.428 1318.59 346.109 1318.59 345.716ZM1330.99 345.716C1330.99 345.308 1330.79 344.989 1330.38 344.758C1329.98 344.519 1329.34 344.308 1328.44 344.123C1325.47 343.5 1323.99 342.237 1323.99 340.336C1323.99 339.228 1324.44 338.305 1325.36 337.566C1326.28 336.819 1327.49 336.446 1328.97 336.446C1330.56 336.446 1331.82 336.819 1332.77 337.566C1333.73 338.312 1334.2 339.282 1334.2 340.475H1330.87C1330.87 339.998 1330.71 339.605 1330.4 339.298C1330.1 338.982 1329.62 338.824 1328.96 338.824C1328.4 338.824 1327.97 338.951 1327.66 339.205C1327.35 339.459 1327.2 339.782 1327.2 340.175C1327.2 340.544 1327.37 340.844 1327.72 341.075C1328.07 341.299 1328.66 341.495 1329.49 341.664C1330.32 341.826 1331.02 342.01 1331.59 342.218C1333.36 342.865 1334.24 343.985 1334.24 345.578C1334.24 346.717 1333.75 347.64 1332.77 348.348C1331.79 349.049 1330.53 349.399 1328.98 349.399C1327.94 349.399 1327.01 349.214 1326.19 348.845C1325.38 348.468 1324.75 347.956 1324.29 347.309C1323.82 346.655 1323.59 345.951 1323.59 345.197H1326.76C1326.79 345.789 1327.01 346.243 1327.41 346.559C1327.82 346.874 1328.37 347.032 1329.05 347.032C1329.69 347.032 1330.17 346.913 1330.5 346.674C1330.83 346.428 1330.99 346.109 1330.99 345.716ZM1340.15 349.168H1336.81V336.677H1340.15V349.168ZM1336.61 333.444C1336.61 332.944 1336.78 332.532 1337.11 332.209C1337.44 331.886 1337.9 331.724 1338.48 331.724C1339.05 331.724 1339.5 331.886 1339.84 332.209C1340.18 332.532 1340.35 332.944 1340.35 333.444C1340.35 333.952 1340.18 334.368 1339.83 334.691C1339.49 335.015 1339.04 335.176 1338.48 335.176C1337.92 335.176 1337.46 335.015 1337.12 334.691C1336.78 334.368 1336.61 333.952 1336.61 333.444ZM1346.22 336.677L1346.32 338.12C1347.22 337.004 1348.41 336.446 1349.91 336.446C1351.24 336.446 1352.22 336.835 1352.87 337.612C1353.52 338.389 1353.85 339.551 1353.86 341.098V349.168H1350.53V341.179C1350.53 340.471 1350.37 339.959 1350.06 339.644C1349.76 339.321 1349.24 339.159 1348.53 339.159C1347.59 339.159 1346.89 339.559 1346.42 340.36V349.168H1343.08V336.677H1346.22ZM1356.15 342.83C1356.15 340.914 1356.61 339.371 1357.52 338.201C1358.43 337.031 1359.66 336.446 1361.21 336.446C1362.58 336.446 1363.65 336.916 1364.41 337.854L1364.55 336.677H1367.57V348.752C1367.57 349.845 1367.32 350.796 1366.82 351.604C1366.33 352.412 1365.63 353.028 1364.73 353.451C1363.83 353.874 1362.78 354.086 1361.57 354.086C1360.65 354.086 1359.76 353.901 1358.89 353.532C1358.02 353.17 1357.36 352.701 1356.92 352.123L1358.39 350.092C1359.22 351.023 1360.23 351.488 1361.42 351.488C1362.3 351.488 1362.99 351.25 1363.48 350.773C1363.98 350.303 1364.22 349.634 1364.22 348.764V348.094C1363.45 348.964 1362.44 349.399 1361.19 349.399C1359.69 349.399 1358.47 348.814 1357.54 347.644C1356.62 346.467 1356.15 344.908 1356.15 342.969V342.83ZM1359.49 343.073C1359.49 344.204 1359.72 345.093 1360.17 345.739C1360.63 346.378 1361.25 346.697 1362.04 346.697C1363.06 346.697 1363.78 346.317 1364.22 345.555V340.302C1363.78 339.54 1363.06 339.159 1362.06 339.159C1361.26 339.159 1360.63 339.486 1360.17 340.14C1359.72 340.794 1359.49 341.772 1359.49 343.073ZM1386.24 342.842H1388.14V345.531H1386.24V349.168H1382.9V345.531H1376.01L1375.86 343.43L1382.87 332.359H1386.24V342.842ZM1379.18 342.842H1382.9V336.908L1382.68 337.289L1379.18 342.842ZM1407.69 343.038C1407.69 344.962 1407.25 346.505 1406.37 347.667C1405.5 348.822 1404.32 349.399 1402.84 349.399C1401.58 349.399 1400.56 348.96 1399.78 348.083V353.97H1396.44V336.677H1399.54L1399.65 337.901C1400.46 336.931 1401.51 336.446 1402.82 336.446C1404.35 336.446 1405.55 337.016 1406.41 338.155C1407.26 339.294 1407.69 340.864 1407.69 342.865V343.038ZM1404.35 342.795C1404.35 341.633 1404.14 340.737 1403.73 340.106C1403.32 339.475 1402.72 339.159 1401.94 339.159C1400.89 339.159 1400.17 339.559 1399.78 340.36V345.474C1400.19 346.297 1400.91 346.709 1401.96 346.709C1403.55 346.709 1404.35 345.404 1404.35 342.795ZM1414.57 340.406L1416.67 336.677H1420.24L1416.69 342.795L1420.39 349.168H1416.81L1414.58 345.243L1412.37 349.168H1408.78L1412.48 342.795L1408.94 336.677H1412.52L1414.57 340.406Z" fill="black"/>
<path d="M287.622 349.168C287.468 348.868 287.357 348.495 287.287 348.048C286.479 348.949 285.429 349.399 284.136 349.399C282.912 349.399 281.896 349.045 281.088 348.337C280.288 347.629 279.887 346.736 279.887 345.658C279.887 344.335 280.376 343.319 281.354 342.611C282.339 341.903 283.759 341.545 285.613 341.537H287.149V340.821C287.149 340.244 286.999 339.782 286.699 339.436C286.406 339.09 285.941 338.917 285.302 338.917C284.74 338.917 284.297 339.051 283.974 339.321C283.659 339.59 283.501 339.959 283.501 340.429H280.164C280.164 339.705 280.388 339.036 280.834 338.42C281.28 337.804 281.912 337.323 282.727 336.977C283.543 336.623 284.459 336.446 285.475 336.446C287.014 336.446 288.234 336.835 289.134 337.612C290.043 338.382 290.497 339.467 290.497 340.868V346.282C290.504 347.467 290.67 348.364 290.993 348.972V349.168H287.622ZM284.863 346.848C285.356 346.848 285.81 346.74 286.225 346.524C286.641 346.301 286.949 346.005 287.149 345.635V343.488H285.902C284.232 343.488 283.343 344.065 283.235 345.22L283.224 345.416C283.224 345.832 283.37 346.174 283.662 346.443C283.955 346.713 284.355 346.848 284.863 346.848ZM296.817 349.168H293.469V331.436H296.817V349.168ZM303.334 349.168H299.986V336.677H303.334V349.168ZM299.79 333.444C299.79 332.944 299.955 332.532 300.286 332.209C300.625 331.886 301.082 331.724 301.66 331.724C302.229 331.724 302.683 331.886 303.022 332.209C303.361 332.532 303.53 332.944 303.53 333.444C303.53 333.952 303.357 334.368 303.01 334.691C302.672 335.015 302.222 335.176 301.66 335.176C301.098 335.176 300.644 335.015 300.297 334.691C299.959 334.368 299.79 333.952 299.79 333.444ZM305.844 342.83C305.844 340.914 306.298 339.371 307.207 338.201C308.122 337.031 309.354 336.446 310.901 336.446C312.271 336.446 313.337 336.916 314.099 337.854L314.237 336.677H317.262V348.752C317.262 349.845 317.012 350.796 316.511 351.604C316.019 352.412 315.322 353.028 314.422 353.451C313.521 353.874 312.467 354.086 311.259 354.086C310.343 354.086 309.45 353.901 308.58 353.532C307.711 353.17 307.053 352.701 306.606 352.123L308.084 350.092C308.915 351.023 309.923 351.488 311.109 351.488C311.994 351.488 312.682 351.25 313.175 350.773C313.668 350.303 313.914 349.634 313.914 348.764V348.094C313.144 348.964 312.132 349.399 310.878 349.399C309.377 349.399 308.161 348.814 307.23 347.644C306.306 346.467 305.844 344.908 305.844 342.969V342.83ZM309.181 343.073C309.181 344.204 309.408 345.093 309.862 345.739C310.316 346.378 310.939 346.697 311.732 346.697C312.748 346.697 313.475 346.317 313.914 345.555V340.302C313.467 339.54 312.748 339.159 311.755 339.159C310.955 339.159 310.324 339.486 309.862 340.14C309.408 340.794 309.181 341.772 309.181 343.073ZM323.143 336.677L323.247 338.12C324.14 337.004 325.337 336.446 326.838 336.446C328.161 336.446 329.146 336.835 329.793 337.612C330.439 338.389 330.77 339.551 330.786 341.098V349.168H327.449V341.179C327.449 340.471 327.296 339.959 326.988 339.644C326.68 339.321 326.168 339.159 325.452 339.159C324.513 339.159 323.809 339.559 323.34 340.36V349.168H320.003V336.677H323.143ZM343.207 349.168H339.859V331.436H343.207V349.168ZM351.952 349.399C350.12 349.399 348.627 348.837 347.473 347.713C346.326 346.59 345.752 345.093 345.752 343.223V342.899C345.752 341.645 345.995 340.525 346.48 339.54C346.965 338.547 347.65 337.785 348.535 337.254C349.427 336.715 350.443 336.446 351.582 336.446C353.291 336.446 354.634 336.985 355.611 338.062C356.596 339.14 357.089 340.667 357.089 342.645V344.008H349.135C349.243 344.823 349.566 345.478 350.105 345.97C350.651 346.463 351.34 346.709 352.171 346.709C353.456 346.709 354.461 346.243 355.184 345.312L356.824 347.148C356.323 347.856 355.646 348.41 354.792 348.81C353.937 349.203 352.991 349.399 351.952 349.399ZM351.571 339.147C350.909 339.147 350.37 339.371 349.955 339.817C349.547 340.263 349.285 340.902 349.17 341.733H353.81V341.468C353.795 340.729 353.595 340.159 353.21 339.759C352.825 339.351 352.279 339.147 351.571 339.147ZM360.142 349.168V339.124H358.284V336.677H360.142V335.615C360.142 334.214 360.542 333.129 361.343 332.359C362.151 331.582 363.279 331.193 364.725 331.193C365.187 331.193 365.753 331.27 366.422 331.424L366.388 334.01C366.111 333.941 365.772 333.906 365.372 333.906C364.117 333.906 363.49 334.495 363.49 335.673V336.677H365.972V339.124H363.49V349.168H360.142ZM371.935 333.606V336.677H374.07V339.124H371.935V345.358C371.935 345.82 372.023 346.151 372.2 346.351C372.377 346.551 372.716 346.651 373.216 346.651C373.586 346.651 373.913 346.624 374.197 346.57V349.099C373.543 349.299 372.87 349.399 372.177 349.399C369.837 349.399 368.645 348.217 368.598 345.855V339.124H366.774V336.677H368.598V333.606H371.935Z" fill="black"/>
</svg>
