<svg width="1680" height="1076" viewBox="0 0 1680 1076" fill="none" xmlns="http://www.w3.org/2000/svg">
<g filter="url(#filter0_d)">
<path fill-rule="evenodd" clip-rule="evenodd" d="M1082 26C1054.94 26 1033 47.9381 1033 75.0001V845.532C1033 872.594 1054.94 894.532 1082 894.532H1417C1444.06 894.532 1466 872.594 1466 845.532V75C1466 47.938 1444.06 26 1417 26L1082 26ZM1091.26 46.2573C1070.27 46.2573 1053.26 63.2705 1053.26 84.2573V836.275C1053.26 857.262 1070.27 874.275 1091.26 874.275H1407.74C1428.73 874.275 1445.74 857.262 1445.74 836.275V84.2573C1445.74 63.2705 1428.73 46.2573 1407.74 46.2573H1091.26Z" fill="url(#paint0_radial)"/>
</g>
<rect x="1054.52" y="46.2573" width="389.953" height="821.687" rx="35" fill="white"/>
<path d="M1110.9 183H1106.46L1095.05 164.842V183H1090.6V157.406H1095.05L1106.49 175.635V157.406H1110.9V183ZM1115.31 173.314C1115.31 171.451 1115.68 169.775 1116.41 168.287C1117.15 166.787 1118.19 165.639 1119.53 164.842C1120.86 164.033 1122.4 163.629 1124.13 163.629C1126.7 163.629 1128.78 164.455 1130.37 166.107C1131.98 167.76 1132.84 169.951 1132.97 172.682L1132.99 173.684C1132.99 175.559 1132.63 177.234 1131.9 178.711C1131.19 180.188 1130.15 181.33 1128.81 182.139C1127.47 182.947 1125.92 183.352 1124.17 183.352C1121.48 183.352 1119.33 182.461 1117.72 180.68C1116.11 178.887 1115.31 176.502 1115.31 173.525V173.314ZM1119.58 173.684C1119.58 175.641 1119.98 177.176 1120.79 178.289C1121.6 179.391 1122.73 179.941 1124.17 179.941C1125.61 179.941 1126.73 179.379 1127.52 178.254C1128.33 177.129 1128.74 175.482 1128.74 173.314C1128.74 171.393 1128.32 169.869 1127.49 168.744C1126.67 167.619 1125.55 167.057 1124.13 167.057C1122.74 167.057 1121.63 167.613 1120.81 168.727C1119.99 169.828 1119.58 171.48 1119.58 173.684ZM1142.32 159.357V163.98H1145.67V167.145H1142.32V177.762C1142.32 178.488 1142.46 179.016 1142.74 179.344C1143.03 179.66 1143.55 179.818 1144.28 179.818C1144.78 179.818 1145.27 179.76 1145.78 179.643V182.947C1144.81 183.217 1143.87 183.352 1142.97 183.352C1139.68 183.352 1138.04 181.541 1138.04 177.92V167.145H1134.92V163.98H1138.04V159.357H1142.32ZM1153.86 183H1149.58V163.98H1153.86V183ZM1149.32 159.041C1149.32 158.385 1149.53 157.84 1149.94 157.406C1150.36 156.973 1150.96 156.756 1151.73 156.756C1152.5 156.756 1153.1 156.973 1153.52 157.406C1153.94 157.84 1154.15 158.385 1154.15 159.041C1154.15 159.686 1153.94 160.225 1153.52 160.658C1153.1 161.08 1152.5 161.291 1151.73 161.291C1150.96 161.291 1150.36 161.08 1149.94 160.658C1149.53 160.225 1149.32 159.686 1149.32 159.041ZM1166.7 179.941C1167.76 179.941 1168.65 179.631 1169.35 179.01C1170.05 178.389 1170.43 177.621 1170.48 176.707H1174.5C1174.45 177.891 1174.08 178.998 1173.39 180.029C1172.7 181.049 1171.76 181.857 1170.58 182.455C1169.4 183.053 1168.12 183.352 1166.75 183.352C1164.09 183.352 1161.98 182.49 1160.42 180.768C1158.86 179.045 1158.08 176.666 1158.08 173.631V173.191C1158.08 170.297 1158.86 167.982 1160.4 166.248C1161.95 164.502 1164.06 163.629 1166.73 163.629C1168.99 163.629 1170.83 164.291 1172.25 165.615C1173.68 166.928 1174.43 168.656 1174.5 170.801H1170.48C1170.43 169.711 1170.05 168.814 1169.35 168.111C1168.66 167.408 1167.77 167.057 1166.7 167.057C1165.31 167.057 1164.25 167.561 1163.5 168.568C1162.75 169.564 1162.37 171.082 1162.35 173.121V173.807C1162.35 175.869 1162.72 177.41 1163.46 178.43C1164.21 179.438 1165.29 179.941 1166.7 179.941ZM1186.46 183.352C1183.76 183.352 1181.56 182.502 1179.87 180.803C1178.19 179.092 1177.36 176.818 1177.36 173.982V173.455C1177.36 171.557 1177.72 169.863 1178.45 168.375C1179.18 166.875 1180.22 165.709 1181.54 164.877C1182.86 164.045 1184.34 163.629 1185.97 163.629C1188.56 163.629 1190.56 164.455 1191.96 166.107C1193.38 167.76 1194.09 170.098 1194.09 173.121V174.844H1181.66C1181.79 176.414 1182.31 177.656 1183.23 178.57C1184.15 179.484 1185.31 179.941 1186.71 179.941C1188.67 179.941 1190.26 179.15 1191.49 177.568L1193.79 179.766C1193.03 180.902 1192.01 181.787 1190.73 182.42C1189.47 183.041 1188.04 183.352 1186.46 183.352ZM1185.95 167.057C1184.78 167.057 1183.83 167.467 1183.1 168.287C1182.39 169.107 1181.93 170.25 1181.73 171.715H1189.87V171.398C1189.78 169.969 1189.4 168.891 1188.73 168.164C1188.06 167.426 1187.14 167.057 1185.95 167.057ZM1212.46 159.357V163.98H1215.82V167.145H1212.46V177.762C1212.46 178.488 1212.6 179.016 1212.88 179.344C1213.17 179.66 1213.69 179.818 1214.43 179.818C1214.92 179.818 1215.42 179.76 1215.92 179.643V182.947C1214.95 183.217 1214.01 183.352 1213.11 183.352C1209.83 183.352 1208.19 181.541 1208.19 177.92V167.145H1205.06V163.98H1208.19V159.357H1212.46ZM1218.13 173.314C1218.13 171.451 1218.5 169.775 1219.24 168.287C1219.97 166.787 1221.01 165.639 1222.35 164.842C1223.68 164.033 1225.22 163.629 1226.95 163.629C1229.52 163.629 1231.6 164.455 1233.19 166.107C1234.8 167.76 1235.67 169.951 1235.79 172.682L1235.81 173.684C1235.81 175.559 1235.45 177.234 1234.72 178.711C1234.01 180.188 1232.98 181.33 1231.63 182.139C1230.29 182.947 1228.75 183.352 1226.99 183.352C1224.3 183.352 1222.15 182.461 1220.54 180.68C1218.93 178.887 1218.13 176.502 1218.13 173.525V173.314ZM1222.4 173.684C1222.4 175.641 1222.8 177.176 1223.61 178.289C1224.42 179.391 1225.55 179.941 1226.99 179.941C1228.43 179.941 1229.55 179.379 1230.34 178.254C1231.15 177.129 1231.56 175.482 1231.56 173.314C1231.56 171.393 1231.14 169.869 1230.31 168.744C1229.49 167.619 1228.37 167.057 1226.95 167.057C1225.56 167.057 1224.45 167.613 1223.63 168.727C1222.81 169.828 1222.4 171.48 1222.4 173.684ZM1106.88 222.684C1106.88 225.637 1106.22 227.986 1104.89 229.732C1103.58 231.479 1101.77 232.352 1099.46 232.352C1097.23 232.352 1095.5 231.549 1094.26 229.943L1094.05 232H1090.18V205H1094.45V214.809C1095.68 213.355 1097.34 212.629 1099.43 212.629C1101.75 212.629 1103.57 213.49 1104.89 215.213C1106.22 216.936 1106.88 219.344 1106.88 222.438V222.684ZM1102.61 222.314C1102.61 220.252 1102.24 218.705 1101.52 217.674C1100.79 216.643 1099.74 216.127 1098.35 216.127C1096.5 216.127 1095.2 216.936 1094.45 218.553V226.393C1095.21 228.045 1096.53 228.871 1098.39 228.871C1099.72 228.871 1100.76 228.373 1101.48 227.377C1102.21 226.381 1102.58 224.875 1102.61 222.859V222.314ZM1120.79 216.883C1120.23 216.789 1119.65 216.742 1119.05 216.742C1117.09 216.742 1115.78 217.492 1115.1 218.992V232H1110.82V212.98H1114.9L1115.01 215.107C1116.04 213.455 1117.47 212.629 1119.3 212.629C1119.91 212.629 1120.41 212.711 1120.81 212.875L1120.79 216.883ZM1128.39 232H1124.12V212.98H1128.39V232ZM1123.86 208.041C1123.86 207.385 1124.06 206.84 1124.47 206.406C1124.9 205.973 1125.49 205.756 1126.27 205.756C1127.04 205.756 1127.64 205.973 1128.06 206.406C1128.48 206.84 1128.69 207.385 1128.69 208.041C1128.69 208.686 1128.48 209.225 1128.06 209.658C1127.64 210.08 1127.04 210.291 1126.27 210.291C1125.49 210.291 1124.9 210.08 1124.47 209.658C1124.06 209.225 1123.86 208.686 1123.86 208.041ZM1132.62 222.35C1132.62 219.42 1133.3 217.07 1134.66 215.301C1136.02 213.52 1137.84 212.629 1140.13 212.629C1142.14 212.629 1143.77 213.332 1145.01 214.738V205H1149.29V232H1145.42L1145.21 230.031C1143.93 231.578 1142.22 232.352 1140.09 232.352C1137.87 232.352 1136.06 231.455 1134.68 229.662C1133.31 227.869 1132.62 225.432 1132.62 222.35ZM1136.89 222.719C1136.89 224.652 1137.26 226.164 1138 227.254C1138.75 228.332 1139.81 228.871 1141.18 228.871C1142.93 228.871 1144.21 228.092 1145.01 226.533V218.412C1144.23 216.889 1142.96 216.127 1141.22 216.127C1139.83 216.127 1138.77 216.678 1138.02 217.779C1137.27 218.869 1136.89 220.516 1136.89 222.719ZM1153.35 222.35C1153.35 219.396 1154.05 217.041 1155.43 215.283C1156.82 213.514 1158.67 212.629 1160.97 212.629C1163.13 212.629 1164.84 213.385 1166.08 214.896L1166.27 212.98H1170.12V231.42C1170.12 233.916 1169.34 235.885 1167.79 237.326C1166.24 238.768 1164.15 239.488 1161.51 239.488C1160.12 239.488 1158.75 239.195 1157.41 238.609C1156.09 238.035 1155.08 237.279 1154.39 236.342L1156.41 233.775C1157.73 235.334 1159.34 236.113 1161.26 236.113C1162.68 236.113 1163.8 235.727 1164.62 234.953C1165.44 234.191 1165.85 233.066 1165.85 231.578V230.295C1164.62 231.666 1162.98 232.352 1160.93 232.352C1158.7 232.352 1156.88 231.467 1155.46 229.697C1154.06 227.928 1153.35 225.479 1153.35 222.35ZM1157.61 222.719C1157.61 224.629 1157.99 226.135 1158.77 227.236C1159.55 228.326 1160.64 228.871 1162.02 228.871C1163.74 228.871 1165.02 228.133 1165.85 226.656V218.289C1165.04 216.848 1163.78 216.127 1162.06 216.127C1160.65 216.127 1159.55 216.684 1158.77 217.797C1157.99 218.91 1157.61 220.551 1157.61 222.719ZM1183.26 232.352C1180.56 232.352 1178.36 231.502 1176.67 229.803C1175 228.092 1174.16 225.818 1174.16 222.982V222.455C1174.16 220.557 1174.52 218.863 1175.25 217.375C1175.99 215.875 1177.02 214.709 1178.34 213.877C1179.67 213.045 1181.14 212.629 1182.77 212.629C1185.36 212.629 1187.36 213.455 1188.76 215.107C1190.18 216.76 1190.89 219.098 1190.89 222.121V223.844H1178.46C1178.59 225.414 1179.11 226.656 1180.03 227.57C1180.95 228.484 1182.11 228.941 1183.51 228.941C1185.47 228.941 1187.06 228.15 1188.29 226.568L1190.59 228.766C1189.83 229.902 1188.81 230.787 1187.53 231.42C1186.27 232.041 1184.84 232.352 1183.26 232.352ZM1182.75 216.057C1181.58 216.057 1180.63 216.467 1179.91 217.287C1179.19 218.107 1178.73 219.25 1178.53 220.715H1186.67V220.398C1186.58 218.969 1186.2 217.891 1185.53 217.164C1184.86 216.426 1183.94 216.057 1182.75 216.057ZM1193.78 222.35C1193.78 219.42 1194.46 217.07 1195.82 215.301C1197.18 213.52 1199 212.629 1201.29 212.629C1203.3 212.629 1204.93 213.332 1206.18 214.738V205H1210.45V232H1206.58L1206.37 230.031C1205.09 231.578 1203.39 232.352 1201.25 232.352C1199.03 232.352 1197.22 231.455 1195.84 229.662C1194.47 227.869 1193.78 225.432 1193.78 222.35ZM1198.05 222.719C1198.05 224.652 1198.42 226.164 1199.16 227.254C1199.91 228.332 1200.97 228.871 1202.34 228.871C1204.09 228.871 1205.37 228.092 1206.18 226.533V218.412C1205.39 216.889 1204.12 216.127 1202.38 216.127C1201 216.127 1199.93 216.678 1199.18 217.779C1198.43 218.869 1198.05 220.516 1198.05 222.719ZM1236.11 230.137C1234.86 231.613 1233.08 232.352 1230.77 232.352C1228.7 232.352 1227.14 231.748 1226.07 230.541C1225.02 229.334 1224.49 227.588 1224.49 225.303V212.98H1228.76V225.25C1228.76 227.664 1229.76 228.871 1231.77 228.871C1233.84 228.871 1235.24 228.127 1235.97 226.639V212.98H1240.24V232H1236.22L1236.11 230.137ZM1255.61 226.832C1255.61 226.07 1255.3 225.49 1254.66 225.092C1254.04 224.693 1253.01 224.342 1251.55 224.037C1250.1 223.732 1248.89 223.346 1247.91 222.877C1245.78 221.846 1244.71 220.352 1244.71 218.395C1244.71 216.754 1245.41 215.383 1246.79 214.281C1248.17 213.18 1249.93 212.629 1252.06 212.629C1254.34 212.629 1256.17 213.191 1257.56 214.316C1258.97 215.441 1259.67 216.9 1259.67 218.693H1255.4C1255.4 217.873 1255.1 217.193 1254.49 216.654C1253.88 216.104 1253.07 215.828 1252.06 215.828C1251.12 215.828 1250.36 216.045 1249.76 216.479C1249.17 216.912 1248.88 217.492 1248.88 218.219C1248.88 218.875 1249.16 219.385 1249.71 219.748C1250.26 220.111 1251.37 220.48 1253.05 220.855C1254.72 221.219 1256.03 221.658 1256.98 222.174C1257.95 222.678 1258.65 223.287 1259.11 224.002C1259.58 224.717 1259.81 225.584 1259.81 226.604C1259.81 228.314 1259.11 229.703 1257.69 230.77C1256.27 231.824 1254.41 232.352 1252.12 232.352C1250.56 232.352 1249.17 232.07 1247.95 231.508C1246.73 230.945 1245.78 230.172 1245.1 229.188C1244.42 228.203 1244.08 227.143 1244.08 226.006H1248.23C1248.29 227.014 1248.67 227.793 1249.37 228.344C1250.08 228.883 1251.01 229.152 1252.17 229.152C1253.29 229.152 1254.15 228.941 1254.73 228.52C1255.32 228.086 1255.61 227.523 1255.61 226.832ZM1272.29 232.352C1269.58 232.352 1267.38 231.502 1265.69 229.803C1264.02 228.092 1263.18 225.818 1263.18 222.982V222.455C1263.18 220.557 1263.54 218.863 1264.27 217.375C1265.01 215.875 1266.04 214.709 1267.36 213.877C1268.69 213.045 1270.16 212.629 1271.79 212.629C1274.38 212.629 1276.38 213.455 1277.79 215.107C1279.21 216.76 1279.91 219.098 1279.91 222.121V223.844H1267.49C1267.62 225.414 1268.14 226.656 1269.05 227.57C1269.98 228.484 1271.14 228.941 1272.53 228.941C1274.49 228.941 1276.08 228.15 1277.31 226.568L1279.62 228.766C1278.85 229.902 1277.83 230.787 1276.56 231.42C1275.29 232.041 1273.87 232.352 1272.29 232.352ZM1271.78 216.057C1270.6 216.057 1269.65 216.467 1268.93 217.287C1268.21 218.107 1267.76 219.25 1267.56 220.715H1275.7V220.398C1275.6 218.969 1275.22 217.891 1274.55 217.164C1273.89 216.426 1272.96 216.057 1271.78 216.057ZM1293.56 216.883C1293 216.789 1292.42 216.742 1291.82 216.742C1289.87 216.742 1288.55 217.492 1287.87 218.992V232H1283.6V212.98H1287.67L1287.78 215.107C1288.81 213.455 1290.24 212.629 1292.07 212.629C1292.68 212.629 1293.18 212.711 1293.58 212.875L1293.56 216.883ZM1307.28 226.832C1307.28 226.07 1306.97 225.49 1306.33 225.092C1305.71 224.693 1304.68 224.342 1303.22 224.037C1301.77 223.732 1300.56 223.346 1299.58 222.877C1297.45 221.846 1296.38 220.352 1296.38 218.395C1296.38 216.754 1297.08 215.383 1298.46 214.281C1299.84 213.18 1301.6 212.629 1303.73 212.629C1306.01 212.629 1307.84 213.191 1309.23 214.316C1310.64 215.441 1311.34 216.9 1311.34 218.693H1307.07C1307.07 217.873 1306.77 217.193 1306.16 216.654C1305.55 216.104 1304.74 215.828 1303.73 215.828C1302.79 215.828 1302.03 216.045 1301.43 216.479C1300.84 216.912 1300.55 217.492 1300.55 218.219C1300.55 218.875 1300.83 219.385 1301.38 219.748C1301.93 220.111 1303.04 220.48 1304.72 220.855C1306.39 221.219 1307.7 221.658 1308.65 222.174C1309.61 222.678 1310.32 223.287 1310.78 224.002C1311.25 224.717 1311.48 225.584 1311.48 226.604C1311.48 228.314 1310.78 229.703 1309.36 230.77C1307.94 231.824 1306.08 232.352 1303.78 232.352C1302.23 232.352 1300.84 232.07 1299.62 231.508C1298.4 230.945 1297.45 230.172 1296.77 229.188C1296.09 228.203 1295.75 227.143 1295.75 226.006H1299.9C1299.96 227.014 1300.34 227.793 1301.04 228.344C1301.75 228.883 1302.68 229.152 1303.84 229.152C1304.96 229.152 1305.82 228.941 1306.4 228.52C1306.99 228.086 1307.28 227.523 1307.28 226.832Z" fill="black"/>
<path d="M1092.6 283H1089.53V268.07H1092.6V283ZM1098.21 271.905L1098.3 273.187C1099.09 272.196 1100.16 271.7 1101.49 271.7C1102.66 271.7 1103.54 272.045 1104.11 272.736C1104.69 273.426 1104.98 274.458 1105 275.833V283H1102.03V275.904C1102.03 275.275 1101.9 274.821 1101.62 274.541C1101.35 274.253 1100.89 274.11 1100.26 274.11C1099.42 274.11 1098.8 274.465 1098.38 275.176V283H1095.42V271.905H1098.21ZM1111.01 269.178V271.905H1112.91V274.079H1111.01V279.616C1111.01 280.026 1111.09 280.32 1111.25 280.498C1111.4 280.676 1111.7 280.765 1112.15 280.765C1112.48 280.765 1112.77 280.741 1113.02 280.693V282.938C1112.44 283.116 1111.84 283.205 1111.22 283.205C1109.15 283.205 1108.09 282.156 1108.05 280.057V274.079H1106.43V271.905H1108.05V269.178H1111.01ZM1121 274.684C1120.6 274.629 1120.24 274.602 1119.94 274.602C1118.81 274.602 1118.08 274.981 1117.73 275.74V283H1114.77V271.905H1117.57L1117.65 273.228C1118.24 272.209 1119.07 271.7 1120.12 271.7C1120.45 271.7 1120.76 271.745 1121.04 271.833L1121 274.684ZM1121.82 277.35C1121.82 276.25 1122.03 275.269 1122.45 274.407C1122.88 273.546 1123.48 272.879 1124.28 272.408C1125.08 271.936 1126 271.7 1127.06 271.7C1128.55 271.7 1129.77 272.158 1130.72 273.074C1131.67 273.99 1132.2 275.234 1132.31 276.807L1132.33 277.565C1132.33 279.268 1131.85 280.635 1130.9 281.667C1129.95 282.692 1128.68 283.205 1127.08 283.205C1125.48 283.205 1124.2 282.692 1123.24 281.667C1122.29 280.642 1121.82 279.247 1121.82 277.483V277.35ZM1124.78 277.565C1124.78 278.618 1124.98 279.425 1125.37 279.985C1125.77 280.539 1126.34 280.816 1127.08 280.816C1127.79 280.816 1128.36 280.542 1128.76 279.996C1129.16 279.442 1129.36 278.56 1129.36 277.35C1129.36 276.318 1129.16 275.518 1128.76 274.951C1128.36 274.383 1127.79 274.1 1127.06 274.1C1126.33 274.1 1125.77 274.383 1125.37 274.951C1124.98 275.511 1124.78 276.383 1124.78 277.565ZM1133.9 277.371C1133.9 275.641 1134.29 274.264 1135.06 273.238C1135.84 272.213 1136.9 271.7 1138.25 271.7C1139.33 271.7 1140.22 272.104 1140.92 272.91V267.25H1143.9V283H1141.22L1141.08 281.821C1140.34 282.744 1139.39 283.205 1138.23 283.205C1136.92 283.205 1135.87 282.692 1135.08 281.667C1134.29 280.635 1133.9 279.203 1133.9 277.371ZM1136.86 277.586C1136.86 278.625 1137.05 279.421 1137.41 279.975C1137.77 280.529 1138.3 280.806 1138.99 280.806C1139.9 280.806 1140.55 280.419 1140.92 279.647V275.269C1140.56 274.496 1139.92 274.11 1139.01 274.11C1137.58 274.11 1136.86 275.269 1136.86 277.586ZM1153.05 281.872C1152.32 282.761 1151.31 283.205 1150.01 283.205C1148.82 283.205 1147.92 282.863 1147.29 282.18C1146.66 281.496 1146.35 280.495 1146.33 279.175V271.905H1149.3V279.073C1149.3 280.228 1149.82 280.806 1150.88 280.806C1151.88 280.806 1152.57 280.457 1152.95 279.76V271.905H1155.92V283H1153.13L1153.05 281.872ZM1162.98 280.816C1163.53 280.816 1163.97 280.666 1164.31 280.365C1164.66 280.064 1164.83 279.664 1164.85 279.165H1167.63C1167.62 279.917 1167.41 280.607 1167.01 281.236C1166.61 281.858 1166.05 282.344 1165.35 282.692C1164.65 283.034 1163.88 283.205 1163.03 283.205C1161.45 283.205 1160.19 282.703 1159.28 281.698C1158.36 280.686 1157.9 279.292 1157.9 277.514V277.319C1157.9 275.61 1158.36 274.247 1159.27 273.228C1160.18 272.209 1161.43 271.7 1163.01 271.7C1164.4 271.7 1165.51 272.097 1166.34 272.89C1167.18 273.676 1167.61 274.725 1167.63 276.038H1164.85C1164.83 275.463 1164.66 274.999 1164.31 274.643C1163.97 274.281 1163.52 274.1 1162.96 274.1C1162.27 274.1 1161.75 274.353 1161.39 274.858C1161.04 275.357 1160.87 276.171 1160.87 277.299V277.606C1160.87 278.748 1161.04 279.568 1161.39 280.067C1161.74 280.566 1162.27 280.816 1162.98 280.816ZM1172.65 283H1169.68V271.905H1172.65V283ZM1169.51 269.034C1169.51 268.59 1169.65 268.224 1169.95 267.937C1170.25 267.65 1170.66 267.506 1171.17 267.506C1171.67 267.506 1172.08 267.65 1172.38 267.937C1172.68 268.224 1172.83 268.59 1172.83 269.034C1172.83 269.485 1172.68 269.854 1172.37 270.142C1172.07 270.429 1171.67 270.572 1171.17 270.572C1170.67 270.572 1170.27 270.429 1169.96 270.142C1169.66 269.854 1169.51 269.485 1169.51 269.034ZM1178.04 271.905L1178.14 273.187C1178.93 272.196 1179.99 271.7 1181.32 271.7C1182.5 271.7 1183.37 272.045 1183.95 272.736C1184.52 273.426 1184.82 274.458 1184.83 275.833V283H1181.87V275.904C1181.87 275.275 1181.73 274.821 1181.46 274.541C1181.18 274.253 1180.73 274.11 1180.09 274.11C1179.26 274.11 1178.63 274.465 1178.22 275.176V283H1175.25V271.905H1178.04ZM1186.87 277.371C1186.87 275.668 1187.27 274.298 1188.08 273.259C1188.89 272.22 1189.98 271.7 1191.36 271.7C1192.57 271.7 1193.52 272.117 1194.2 272.951L1194.32 271.905H1197.01V282.631C1197.01 283.602 1196.79 284.446 1196.34 285.164C1195.9 285.881 1195.28 286.428 1194.48 286.804C1193.68 287.18 1192.75 287.368 1191.68 287.368C1190.86 287.368 1190.07 287.204 1189.3 286.876C1188.52 286.555 1187.94 286.138 1187.54 285.625L1188.86 283.82C1189.59 284.647 1190.49 285.061 1191.54 285.061C1192.33 285.061 1192.94 284.849 1193.38 284.425C1193.81 284.008 1194.03 283.414 1194.03 282.641V282.046C1193.35 282.819 1192.45 283.205 1191.34 283.205C1190 283.205 1188.92 282.686 1188.1 281.646C1187.28 280.601 1186.87 279.216 1186.87 277.494V277.371ZM1189.83 277.586C1189.83 278.591 1190.03 279.38 1190.43 279.955C1190.84 280.522 1191.39 280.806 1192.1 280.806C1193 280.806 1193.64 280.467 1194.03 279.791V275.125C1193.64 274.448 1193 274.11 1192.12 274.11C1191.41 274.11 1190.84 274.4 1190.43 274.981C1190.03 275.562 1189.83 276.431 1189.83 277.586ZM1204.48 277.371C1204.48 275.641 1204.87 274.264 1205.64 273.238C1206.42 272.213 1207.48 271.7 1208.83 271.7C1209.91 271.7 1210.8 272.104 1211.51 272.91V267.25H1214.48V283H1211.8L1211.66 281.821C1210.92 282.744 1209.97 283.205 1208.81 283.205C1207.5 283.205 1206.45 282.692 1205.66 281.667C1204.87 280.635 1204.48 279.203 1204.48 277.371ZM1207.45 277.586C1207.45 278.625 1207.63 279.421 1207.99 279.975C1208.35 280.529 1208.88 280.806 1209.57 280.806C1210.48 280.806 1211.13 280.419 1211.51 279.647V275.269C1211.14 274.496 1210.5 274.11 1209.59 274.11C1208.16 274.11 1207.45 275.269 1207.45 277.586ZM1221.13 278.806L1223.18 271.905H1226.36L1221.9 284.723L1221.65 285.307C1220.99 286.756 1219.9 287.481 1218.37 287.481C1217.94 287.481 1217.5 287.416 1217.06 287.286V285.041L1217.51 285.051C1218.07 285.051 1218.49 284.965 1218.76 284.794C1219.04 284.624 1219.26 284.34 1219.42 283.943L1219.77 283.031L1215.88 271.905H1219.07L1221.13 278.806ZM1230.46 271.905L1230.56 273.187C1231.35 272.196 1232.41 271.7 1233.75 271.7C1234.92 271.7 1235.8 272.045 1236.37 272.736C1236.95 273.426 1237.24 274.458 1237.25 275.833V283H1234.29V275.904C1234.29 275.275 1234.15 274.821 1233.88 274.541C1233.61 274.253 1233.15 274.11 1232.52 274.11C1231.68 274.11 1231.06 274.465 1230.64 275.176V283H1227.68V271.905H1230.46ZM1246.15 283C1246.01 282.733 1245.91 282.402 1245.85 282.005C1245.13 282.805 1244.2 283.205 1243.05 283.205C1241.96 283.205 1241.06 282.891 1240.34 282.262C1239.63 281.633 1239.28 280.84 1239.28 279.883C1239.28 278.707 1239.71 277.805 1240.58 277.176C1241.46 276.547 1242.72 276.229 1244.36 276.222H1245.73V275.586C1245.73 275.074 1245.59 274.664 1245.33 274.356C1245.07 274.048 1244.65 273.895 1244.09 273.895C1243.59 273.895 1243.19 274.014 1242.91 274.253C1242.63 274.493 1242.49 274.821 1242.49 275.238H1239.52C1239.52 274.595 1239.72 274 1240.12 273.454C1240.52 272.907 1241.08 272.479 1241.8 272.172C1242.52 271.857 1243.34 271.7 1244.24 271.7C1245.61 271.7 1246.69 272.045 1247.49 272.736C1248.3 273.419 1248.7 274.383 1248.7 275.627V280.437C1248.71 281.489 1248.86 282.286 1249.14 282.826V283H1246.15ZM1243.7 280.939C1244.13 280.939 1244.54 280.843 1244.91 280.652C1245.28 280.454 1245.55 280.19 1245.73 279.862V277.955H1244.62C1243.14 277.955 1242.35 278.468 1242.25 279.493L1242.24 279.667C1242.24 280.037 1242.37 280.341 1242.63 280.58C1242.89 280.819 1243.25 280.939 1243.7 280.939ZM1253.97 271.905L1254.06 273.146C1254.84 272.182 1255.91 271.7 1257.25 271.7C1258.68 271.7 1259.66 272.264 1260.19 273.392C1260.97 272.264 1262.08 271.7 1263.52 271.7C1264.73 271.7 1265.62 272.052 1266.21 272.756C1266.8 273.454 1267.09 274.506 1267.09 275.915V283H1264.12V275.925C1264.12 275.296 1263.99 274.838 1263.75 274.551C1263.5 274.257 1263.07 274.11 1262.45 274.11C1261.56 274.11 1260.94 274.534 1260.6 275.381L1260.61 283H1257.65V275.935C1257.65 275.292 1257.52 274.828 1257.27 274.541C1257.02 274.253 1256.58 274.11 1255.98 274.11C1255.14 274.11 1254.53 274.458 1254.15 275.156V283H1251.19V271.905H1253.97ZM1272.72 283H1269.74V271.905H1272.72V283ZM1269.57 269.034C1269.57 268.59 1269.71 268.224 1270.01 267.937C1270.31 267.65 1270.72 267.506 1271.23 267.506C1271.73 267.506 1272.14 267.65 1272.44 267.937C1272.74 268.224 1272.89 268.59 1272.89 269.034C1272.89 269.485 1272.74 269.854 1272.43 270.142C1272.13 270.429 1271.73 270.572 1271.23 270.572C1270.73 270.572 1270.33 270.429 1270.02 270.142C1269.72 269.854 1269.57 269.485 1269.57 269.034ZM1279.99 280.816C1280.54 280.816 1280.98 280.666 1281.32 280.365C1281.67 280.064 1281.84 279.664 1281.86 279.165H1284.64C1284.63 279.917 1284.42 280.607 1284.02 281.236C1283.62 281.858 1283.06 282.344 1282.36 282.692C1281.66 283.034 1280.89 283.205 1280.04 283.205C1278.46 283.205 1277.2 282.703 1276.29 281.698C1275.37 280.686 1274.91 279.292 1274.91 277.514V277.319C1274.91 275.61 1275.37 274.247 1276.28 273.228C1277.19 272.209 1278.44 271.7 1280.02 271.7C1281.41 271.7 1282.52 272.097 1283.35 272.89C1284.19 273.676 1284.62 274.725 1284.64 276.038H1281.86C1281.84 275.463 1281.67 274.999 1281.32 274.643C1280.98 274.281 1280.53 274.1 1279.97 274.1C1279.28 274.1 1278.76 274.353 1278.4 274.858C1278.05 275.357 1277.88 276.171 1277.88 277.299V277.606C1277.88 278.748 1278.05 279.568 1278.4 280.067C1278.75 280.566 1279.28 280.816 1279.99 280.816ZM1296.59 280.816C1297.14 280.816 1297.58 280.666 1297.92 280.365C1298.27 280.064 1298.44 279.664 1298.46 279.165H1301.24C1301.23 279.917 1301.02 280.607 1300.62 281.236C1300.22 281.858 1299.66 282.344 1298.96 282.692C1298.26 283.034 1297.49 283.205 1296.64 283.205C1295.06 283.205 1293.81 282.703 1292.89 281.698C1291.97 280.686 1291.52 279.292 1291.52 277.514V277.319C1291.52 275.61 1291.97 274.247 1292.88 273.228C1293.79 272.209 1295.04 271.7 1296.62 271.7C1298.01 271.7 1299.12 272.097 1299.95 272.89C1300.8 273.676 1301.22 274.725 1301.24 276.038H1298.46C1298.44 275.463 1298.27 274.999 1297.92 274.643C1297.58 274.281 1297.13 274.1 1296.57 274.1C1295.88 274.1 1295.36 274.353 1295 274.858C1294.65 275.357 1294.48 276.171 1294.48 277.299V277.606C1294.48 278.748 1294.65 279.568 1295 280.067C1295.35 280.566 1295.88 280.816 1296.59 280.816ZM1302.68 277.35C1302.68 276.25 1302.89 275.269 1303.31 274.407C1303.74 273.546 1304.34 272.879 1305.14 272.408C1305.94 271.936 1306.86 271.7 1307.92 271.7C1309.41 271.7 1310.63 272.158 1311.58 273.074C1312.53 273.99 1313.06 275.234 1313.17 276.807L1313.19 277.565C1313.19 279.268 1312.71 280.635 1311.76 281.667C1310.81 282.692 1309.54 283.205 1307.94 283.205C1306.34 283.205 1305.06 282.692 1304.1 281.667C1303.15 280.642 1302.68 279.247 1302.68 277.483V277.35ZM1305.64 277.565C1305.64 278.618 1305.84 279.425 1306.23 279.985C1306.63 280.539 1307.2 280.816 1307.94 280.816C1308.65 280.816 1309.22 280.542 1309.62 279.996C1310.02 279.442 1310.22 278.56 1310.22 277.35C1310.22 276.318 1310.02 275.518 1309.62 274.951C1309.22 274.383 1308.65 274.1 1307.92 274.1C1307.19 274.1 1306.63 274.383 1306.23 274.951C1305.84 275.511 1305.64 276.383 1305.64 277.565ZM1317.95 271.905L1318.04 273.187C1318.83 272.196 1319.9 271.7 1321.23 271.7C1322.41 271.7 1323.28 272.045 1323.86 272.736C1324.43 273.426 1324.72 274.458 1324.74 275.833V283H1321.77V275.904C1321.77 275.275 1321.64 274.821 1321.36 274.541C1321.09 274.253 1320.64 274.11 1320 274.11C1319.17 274.11 1318.54 274.465 1318.12 275.176V283H1315.16V271.905H1317.95ZM1330.75 269.178V271.905H1332.65V274.079H1330.75V279.616C1330.75 280.026 1330.83 280.32 1330.99 280.498C1331.14 280.676 1331.45 280.765 1331.89 280.765C1332.22 280.765 1332.51 280.741 1332.76 280.693V282.938C1332.18 283.116 1331.58 283.205 1330.97 283.205C1328.89 283.205 1327.83 282.156 1327.79 280.057V274.079H1326.17V271.905H1327.79V269.178H1330.75ZM1339.62 283.205C1337.99 283.205 1336.66 282.706 1335.64 281.708C1334.62 280.71 1334.11 279.38 1334.11 277.719V277.432C1334.11 276.318 1334.32 275.323 1334.76 274.448C1335.19 273.566 1335.79 272.89 1336.58 272.418C1337.37 271.939 1338.28 271.7 1339.29 271.7C1340.81 271.7 1342 272.179 1342.87 273.136C1343.74 274.093 1344.18 275.45 1344.18 277.207V278.417H1337.11C1337.21 279.141 1337.5 279.722 1337.98 280.16C1338.46 280.597 1339.07 280.816 1339.81 280.816C1340.95 280.816 1341.84 280.402 1342.49 279.575L1343.94 281.206C1343.5 281.834 1342.9 282.327 1342.14 282.682C1341.38 283.031 1340.54 283.205 1339.62 283.205ZM1339.28 274.1C1338.69 274.1 1338.21 274.298 1337.84 274.694C1337.48 275.091 1337.25 275.658 1337.14 276.396H1341.27V276.161C1341.25 275.504 1341.08 274.999 1340.73 274.643C1340.39 274.281 1339.91 274.1 1339.28 274.1ZM1348.81 271.905L1348.9 273.187C1349.69 272.196 1350.76 271.7 1352.09 271.7C1353.27 271.7 1354.14 272.045 1354.71 272.736C1355.29 273.426 1355.58 274.458 1355.6 275.833V283H1352.63V275.904C1352.63 275.275 1352.5 274.821 1352.22 274.541C1351.95 274.253 1351.49 274.11 1350.86 274.11C1350.02 274.11 1349.4 274.465 1348.98 275.176V283H1346.02V271.905H1348.81ZM1361.61 269.178V271.905H1363.51V274.079H1361.61V279.616C1361.61 280.026 1361.69 280.32 1361.85 280.498C1362 280.676 1362.3 280.765 1362.75 280.765C1363.08 280.765 1363.37 280.741 1363.62 280.693V282.938C1363.04 283.116 1362.44 283.205 1361.83 283.205C1359.75 283.205 1358.69 282.156 1358.65 280.057V274.079H1357.03V271.905H1358.65V269.178H1361.61ZM1091.92 296.905L1092.01 298.146C1092.8 297.182 1093.86 296.7 1095.2 296.7C1096.63 296.7 1097.61 297.264 1098.14 298.392C1098.92 297.264 1100.03 296.7 1101.47 296.7C1102.68 296.7 1103.57 297.052 1104.16 297.756C1104.75 298.454 1105.04 299.506 1105.04 300.915V308H1102.07V300.925C1102.07 300.296 1101.95 299.838 1101.7 299.551C1101.45 299.257 1101.02 299.11 1100.4 299.11C1099.51 299.11 1098.89 299.534 1098.55 300.381L1098.56 308H1095.6V300.935C1095.6 300.292 1095.47 299.828 1095.22 299.541C1094.97 299.253 1094.54 299.11 1093.93 299.11C1093.09 299.11 1092.48 299.458 1092.1 300.156V308H1089.14V296.905H1091.92ZM1113.97 308C1113.83 307.733 1113.73 307.402 1113.67 307.005C1112.95 307.805 1112.02 308.205 1110.87 308.205C1109.78 308.205 1108.88 307.891 1108.16 307.262C1107.45 306.633 1107.1 305.84 1107.1 304.883C1107.1 303.707 1107.53 302.805 1108.4 302.176C1109.27 301.547 1110.54 301.229 1112.18 301.222H1113.55V300.586C1113.55 300.074 1113.41 299.664 1113.15 299.356C1112.89 299.048 1112.47 298.895 1111.91 298.895C1111.41 298.895 1111.01 299.014 1110.73 299.253C1110.45 299.493 1110.31 299.821 1110.31 300.238H1107.34C1107.34 299.595 1107.54 299 1107.94 298.454C1108.33 297.907 1108.9 297.479 1109.62 297.172C1110.34 296.857 1111.16 296.7 1112.06 296.7C1113.43 296.7 1114.51 297.045 1115.31 297.736C1116.12 298.419 1116.52 299.383 1116.52 300.627V305.437C1116.53 306.489 1116.67 307.286 1116.96 307.826V308H1113.97ZM1111.52 305.939C1111.95 305.939 1112.36 305.843 1112.73 305.652C1113.1 305.454 1113.37 305.19 1113.55 304.862V302.955H1112.44C1110.96 302.955 1110.17 303.468 1110.07 304.493L1110.06 304.667C1110.06 305.037 1110.19 305.341 1110.45 305.58C1110.71 305.819 1111.07 305.939 1111.52 305.939ZM1121.73 296.905L1121.83 298.187C1122.62 297.196 1123.68 296.7 1125.02 296.7C1126.19 296.7 1127.07 297.045 1127.64 297.736C1128.22 298.426 1128.51 299.458 1128.52 300.833V308H1125.56V300.904C1125.56 300.275 1125.42 299.821 1125.15 299.541C1124.88 299.253 1124.42 299.11 1123.79 299.11C1122.95 299.11 1122.33 299.465 1121.91 300.176V308H1118.95V296.905H1121.73ZM1137.42 308C1137.28 307.733 1137.18 307.402 1137.12 307.005C1136.4 307.805 1135.47 308.205 1134.32 308.205C1133.23 308.205 1132.33 307.891 1131.61 307.262C1130.9 306.633 1130.55 305.84 1130.55 304.883C1130.55 303.707 1130.98 302.805 1131.85 302.176C1132.73 301.547 1133.99 301.229 1135.63 301.222H1137V300.586C1137 300.074 1136.86 299.664 1136.6 299.356C1136.34 299.048 1135.92 298.895 1135.36 298.895C1134.86 298.895 1134.46 299.014 1134.18 299.253C1133.9 299.493 1133.76 299.821 1133.76 300.238H1130.79C1130.79 299.595 1130.99 299 1131.39 298.454C1131.79 297.907 1132.35 297.479 1133.07 297.172C1133.8 296.857 1134.61 296.7 1135.51 296.7C1136.88 296.7 1137.96 297.045 1138.76 297.736C1139.57 298.419 1139.97 299.383 1139.97 300.627V305.437C1139.98 306.489 1140.13 307.286 1140.41 307.826V308H1137.42ZM1134.97 305.939C1135.4 305.939 1135.81 305.843 1136.18 305.652C1136.55 305.454 1136.82 305.19 1137 304.862V302.955H1135.89C1134.41 302.955 1133.62 303.468 1133.52 304.493L1133.51 304.667C1133.51 305.037 1133.64 305.341 1133.9 305.58C1134.16 305.819 1134.52 305.939 1134.97 305.939ZM1142.03 302.371C1142.03 300.668 1142.43 299.298 1143.24 298.259C1144.05 297.22 1145.14 296.7 1146.52 296.7C1147.74 296.7 1148.68 297.117 1149.36 297.951L1149.48 296.905H1152.17V307.631C1152.17 308.602 1151.95 309.446 1151.5 310.164C1151.06 310.881 1150.45 311.428 1149.65 311.804C1148.85 312.18 1147.91 312.368 1146.84 312.368C1146.02 312.368 1145.23 312.204 1144.46 311.876C1143.68 311.555 1143.1 311.138 1142.7 310.625L1144.02 308.82C1144.75 309.647 1145.65 310.061 1146.7 310.061C1147.49 310.061 1148.1 309.849 1148.54 309.425C1148.98 309.008 1149.19 308.414 1149.19 307.641V307.046C1148.51 307.819 1147.61 308.205 1146.5 308.205C1145.16 308.205 1144.08 307.686 1143.26 306.646C1142.44 305.601 1142.03 304.216 1142.03 302.494V302.371ZM1144.99 302.586C1144.99 303.591 1145.19 304.38 1145.6 304.955C1146 305.522 1146.55 305.806 1147.26 305.806C1148.16 305.806 1148.8 305.467 1149.19 304.791V300.125C1148.8 299.448 1148.16 299.11 1147.28 299.11C1146.57 299.11 1146.01 299.4 1145.6 299.981C1145.19 300.562 1144.99 301.431 1144.99 302.586ZM1159.77 308.205C1158.14 308.205 1156.82 307.706 1155.79 306.708C1154.77 305.71 1154.26 304.38 1154.26 302.719V302.432C1154.26 301.318 1154.48 300.323 1154.91 299.448C1155.34 298.566 1155.95 297.89 1156.74 297.418C1157.53 296.939 1158.43 296.7 1159.44 296.7C1160.96 296.7 1162.15 297.179 1163.02 298.136C1163.9 299.093 1164.33 300.45 1164.33 302.207V303.417H1157.27C1157.36 304.141 1157.65 304.722 1158.13 305.16C1158.62 305.597 1159.23 305.816 1159.97 305.816C1161.11 305.816 1162 305.402 1162.64 304.575L1164.1 306.206C1163.65 306.834 1163.05 307.327 1162.29 307.682C1161.53 308.031 1160.69 308.205 1159.77 308.205ZM1159.43 299.1C1158.84 299.1 1158.37 299.298 1158 299.694C1157.63 300.091 1157.4 300.658 1157.3 301.396H1161.42V301.161C1161.41 300.504 1161.23 299.999 1160.89 299.643C1160.55 299.281 1160.06 299.1 1159.43 299.1ZM1169.01 296.905L1169.11 298.146C1169.89 297.182 1170.96 296.7 1172.3 296.7C1173.72 296.7 1174.71 297.264 1175.24 298.392C1176.02 297.264 1177.13 296.7 1178.57 296.7C1179.77 296.7 1180.67 297.052 1181.26 297.756C1181.85 298.454 1182.14 299.506 1182.14 300.915V308H1179.17V300.925C1179.17 300.296 1179.04 299.838 1178.8 299.551C1178.55 299.257 1178.12 299.11 1177.49 299.11C1176.61 299.11 1175.99 299.534 1175.65 300.381L1175.66 308H1172.7V300.935C1172.7 300.292 1172.57 299.828 1172.32 299.541C1172.06 299.253 1171.63 299.11 1171.02 299.11C1170.18 299.11 1169.58 299.458 1169.2 300.156V308H1166.24V296.905H1169.01ZM1189.74 308.205C1188.12 308.205 1186.79 307.706 1185.76 306.708C1184.75 305.71 1184.24 304.38 1184.24 302.719V302.432C1184.24 301.318 1184.45 300.323 1184.88 299.448C1185.31 298.566 1185.92 297.89 1186.71 297.418C1187.5 296.939 1188.4 296.7 1189.41 296.7C1190.93 296.7 1192.13 297.179 1192.99 298.136C1193.87 299.093 1194.31 300.45 1194.31 302.207V303.417H1187.24C1187.34 304.141 1187.62 304.722 1188.1 305.16C1188.59 305.597 1189.2 305.816 1189.94 305.816C1191.08 305.816 1191.97 305.402 1192.61 304.575L1194.07 306.206C1193.63 306.834 1193.02 307.327 1192.27 307.682C1191.51 308.031 1190.67 308.205 1189.74 308.205ZM1189.4 299.1C1188.82 299.1 1188.34 299.298 1187.97 299.694C1187.61 300.091 1187.37 300.658 1187.27 301.396H1191.39V301.161C1191.38 300.504 1191.2 299.999 1190.86 299.643C1190.52 299.281 1190.03 299.1 1189.4 299.1ZM1198.94 296.905L1199.03 298.187C1199.82 297.196 1200.88 296.7 1202.22 296.7C1203.39 296.7 1204.27 297.045 1204.84 297.736C1205.42 298.426 1205.71 299.458 1205.72 300.833V308H1202.76V300.904C1202.76 300.275 1202.62 299.821 1202.35 299.541C1202.08 299.253 1201.62 299.11 1200.99 299.11C1200.15 299.11 1199.53 299.465 1199.11 300.176V308H1196.15V296.905H1198.94ZM1211.74 294.178V296.905H1213.63V299.079H1211.74V304.616C1211.74 305.026 1211.82 305.32 1211.97 305.498C1212.13 305.676 1212.43 305.765 1212.88 305.765C1213.2 305.765 1213.49 305.741 1213.75 305.693V307.938C1213.17 308.116 1212.57 308.205 1211.95 308.205C1209.87 308.205 1208.81 307.156 1208.77 305.057V299.079H1207.15V296.905H1208.77V294.178H1211.74Z" fill="black"/>
<rect x="214" y="49" width="448" height="782" rx="57" fill="white"/>
<path d="M315.904 183H311.457L300.049 164.842V183H295.602V157.406H300.049L311.492 175.635V157.406H315.904V183ZM320.307 173.314C320.307 171.451 320.676 169.775 321.415 168.287C322.153 166.787 323.19 165.639 324.526 164.842C325.862 164.033 327.397 163.629 329.131 163.629C331.698 163.629 333.778 164.455 335.372 166.107C336.977 167.76 337.844 169.951 337.973 172.682L337.991 173.684C337.991 175.559 337.628 177.234 336.901 178.711C336.186 180.188 335.155 181.33 333.807 182.139C332.471 182.947 330.924 183.352 329.167 183.352C326.483 183.352 324.333 182.461 322.715 180.68C321.11 178.887 320.307 176.502 320.307 173.525V173.314ZM324.579 173.684C324.579 175.641 324.983 177.176 325.792 178.289C326.6 179.391 327.725 179.941 329.167 179.941C330.608 179.941 331.727 179.379 332.524 178.254C333.333 177.129 333.737 175.482 333.737 173.314C333.737 171.393 333.321 169.869 332.489 168.744C331.669 167.619 330.549 167.057 329.131 167.057C327.737 167.057 326.63 167.613 325.809 168.727C324.989 169.828 324.579 171.48 324.579 173.684ZM347.316 159.357V163.98H350.673V167.145H347.316V177.762C347.316 178.488 347.456 179.016 347.738 179.344C348.031 179.66 348.546 179.818 349.284 179.818C349.777 179.818 350.275 179.76 350.779 179.643V182.947C349.806 183.217 348.868 183.352 347.966 183.352C344.685 183.352 343.044 181.541 343.044 177.92V167.145H339.915V163.98H343.044V159.357H347.316ZM358.855 183H354.584V163.98H358.855V183ZM354.32 159.041C354.32 158.385 354.525 157.84 354.935 157.406C355.357 156.973 355.955 156.756 356.728 156.756C357.502 156.756 358.1 156.973 358.521 157.406C358.943 157.84 359.154 158.385 359.154 159.041C359.154 159.686 358.943 160.225 358.521 160.658C358.1 161.08 357.502 161.291 356.728 161.291C355.955 161.291 355.357 161.08 354.935 160.658C354.525 160.225 354.32 159.686 354.32 159.041ZM371.696 179.941C372.762 179.941 373.647 179.631 374.35 179.01C375.053 178.389 375.428 177.621 375.475 176.707H379.501C379.454 177.891 379.085 178.998 378.393 180.029C377.702 181.049 376.764 181.857 375.581 182.455C374.397 183.053 373.12 183.352 371.749 183.352C369.088 183.352 366.979 182.49 365.42 180.768C363.862 179.045 363.083 176.666 363.083 173.631V173.191C363.083 170.297 363.856 167.982 365.403 166.248C366.95 164.502 369.059 163.629 371.731 163.629C373.993 163.629 375.833 164.291 377.251 165.615C378.68 166.928 379.43 168.656 379.501 170.801H375.475C375.428 169.711 375.053 168.814 374.35 168.111C373.659 167.408 372.774 167.057 371.696 167.057C370.313 167.057 369.247 167.561 368.497 168.568C367.747 169.564 367.366 171.082 367.354 173.121V173.807C367.354 175.869 367.723 177.41 368.461 178.43C369.211 179.438 370.29 179.941 371.696 179.941ZM391.462 183.352C388.755 183.352 386.558 182.502 384.87 180.803C383.195 179.092 382.357 176.818 382.357 173.982V173.455C382.357 171.557 382.72 169.863 383.446 168.375C384.185 166.875 385.216 165.709 386.54 164.877C387.864 164.045 389.341 163.629 390.97 163.629C393.56 163.629 395.558 164.455 396.964 166.107C398.382 167.76 399.091 170.098 399.091 173.121V174.844H386.663C386.792 176.414 387.314 177.656 388.228 178.57C389.154 179.484 390.314 179.941 391.708 179.941C393.665 179.941 395.259 179.15 396.489 177.568L398.792 179.766C398.03 180.902 397.011 181.787 395.734 182.42C394.468 183.041 393.044 183.352 391.462 183.352ZM390.952 167.057C389.78 167.057 388.831 167.467 388.105 168.287C387.39 169.107 386.933 170.25 386.734 171.715H394.872V171.398C394.779 169.969 394.398 168.891 393.73 168.164C393.062 167.426 392.136 167.057 390.952 167.057ZM417.459 159.357V163.98H420.817V167.145H417.459V177.762C417.459 178.488 417.6 179.016 417.881 179.344C418.174 179.66 418.69 179.818 419.428 179.818C419.92 179.818 420.418 179.76 420.922 179.643V182.947C419.95 183.217 419.012 183.352 418.11 183.352C414.829 183.352 413.188 181.541 413.188 177.92V167.145H410.059V163.98H413.188V159.357H417.459ZM423.128 173.314C423.128 171.451 423.497 169.775 424.235 168.287C424.974 166.787 426.011 165.639 427.347 164.842C428.683 164.033 430.218 163.629 431.952 163.629C434.519 163.629 436.599 164.455 438.193 166.107C439.798 167.76 440.665 169.951 440.794 172.682L440.812 173.684C440.812 175.559 440.448 177.234 439.722 178.711C439.007 180.188 437.976 181.33 436.628 182.139C435.292 182.947 433.745 183.352 431.987 183.352C429.304 183.352 427.153 182.461 425.536 180.68C423.931 178.887 423.128 176.502 423.128 173.525V173.314ZM427.4 173.684C427.4 175.641 427.804 177.176 428.612 178.289C429.421 179.391 430.546 179.941 431.987 179.941C433.429 179.941 434.548 179.379 435.345 178.254C436.153 177.129 436.558 175.482 436.558 173.314C436.558 171.393 436.142 169.869 435.31 168.744C434.489 167.619 433.37 167.057 431.952 167.057C430.558 167.057 429.45 167.613 428.63 168.727C427.81 169.828 427.4 171.48 427.4 173.684ZM311.879 222.684C311.879 225.637 311.217 227.986 309.893 229.732C308.58 231.479 306.77 232.352 304.461 232.352C302.234 232.352 300.5 231.549 299.258 229.943L299.047 232H295.18V205H299.451V214.809C300.682 213.355 302.34 212.629 304.426 212.629C306.746 212.629 308.568 213.49 309.893 215.213C311.217 216.936 311.879 219.344 311.879 222.438V222.684ZM307.607 222.314C307.607 220.252 307.244 218.705 306.518 217.674C305.791 216.643 304.736 216.127 303.354 216.127C301.502 216.127 300.201 216.936 299.451 218.553V226.393C300.213 228.045 301.525 228.871 303.389 228.871C304.725 228.871 305.756 228.373 306.482 227.377C307.209 226.381 307.584 224.875 307.607 222.859V222.314ZM325.792 216.883C325.229 216.789 324.649 216.742 324.051 216.742C322.094 216.742 320.776 217.492 320.096 218.992V232H315.825V212.98H319.903L320.008 215.107C321.04 213.455 322.469 212.629 324.298 212.629C324.907 212.629 325.411 212.711 325.809 212.875L325.792 216.883ZM333.394 232H329.122V212.98H333.394V232ZM328.859 208.041C328.859 207.385 329.064 206.84 329.474 206.406C329.896 205.973 330.493 205.756 331.267 205.756C332.04 205.756 332.638 205.973 333.06 206.406C333.482 206.84 333.693 207.385 333.693 208.041C333.693 208.686 333.482 209.225 333.06 209.658C332.638 210.08 332.04 210.291 331.267 210.291C330.493 210.291 329.896 210.08 329.474 209.658C329.064 209.225 328.859 208.686 328.859 208.041ZM337.621 222.35C337.621 219.42 338.301 217.07 339.66 215.301C341.019 213.52 342.842 212.629 345.127 212.629C347.143 212.629 348.771 213.332 350.014 214.738V205H354.285V232H350.418L350.207 230.031C348.93 231.578 347.225 232.352 345.092 232.352C342.865 232.352 341.06 231.455 339.678 229.662C338.307 227.869 337.621 225.432 337.621 222.35ZM341.893 222.719C341.893 224.652 342.262 226.164 343 227.254C343.75 228.332 344.81 228.871 346.182 228.871C347.928 228.871 349.205 228.092 350.014 226.533V218.412C349.228 216.889 347.963 216.127 346.217 216.127C344.834 216.127 343.768 216.678 343.018 217.779C342.268 218.869 341.893 220.516 341.893 222.719ZM358.354 222.35C358.354 219.396 359.045 217.041 360.428 215.283C361.823 213.514 363.669 212.629 365.965 212.629C368.133 212.629 369.838 213.385 371.081 214.896L371.274 212.98H375.124V231.42C375.124 233.916 374.344 235.885 372.786 237.326C371.239 238.768 369.147 239.488 366.51 239.488C365.116 239.488 363.751 239.195 362.415 238.609C361.09 238.035 360.083 237.279 359.391 236.342L361.413 233.775C362.725 235.334 364.342 236.113 366.264 236.113C367.682 236.113 368.801 235.727 369.622 234.953C370.442 234.191 370.852 233.066 370.852 231.578V230.295C369.622 231.666 367.981 232.352 365.93 232.352C363.704 232.352 361.881 231.467 360.463 229.697C359.057 227.928 358.354 225.479 358.354 222.35ZM362.608 222.719C362.608 224.629 362.995 226.135 363.768 227.236C364.553 228.326 365.637 228.871 367.02 228.871C368.743 228.871 370.02 228.133 370.852 226.656V218.289C370.044 216.848 368.778 216.127 367.055 216.127C365.649 216.127 364.553 216.684 363.768 217.797C362.995 218.91 362.608 220.551 362.608 222.719ZM388.263 232.352C385.556 232.352 383.359 231.502 381.671 229.803C379.995 228.092 379.157 225.818 379.157 222.982V222.455C379.157 220.557 379.521 218.863 380.247 217.375C380.986 215.875 382.017 214.709 383.341 213.877C384.665 213.045 386.142 212.629 387.771 212.629C390.361 212.629 392.359 213.455 393.765 215.107C395.183 216.76 395.892 219.098 395.892 222.121V223.844H383.464C383.593 225.414 384.114 226.656 385.029 227.57C385.954 228.484 387.114 228.941 388.509 228.941C390.466 228.941 392.06 228.15 393.29 226.568L395.593 228.766C394.831 229.902 393.812 230.787 392.534 231.42C391.269 232.041 389.845 232.352 388.263 232.352ZM387.753 216.057C386.581 216.057 385.632 216.467 384.905 217.287C384.191 218.107 383.734 219.25 383.534 220.715H391.673V220.398C391.579 218.969 391.198 217.891 390.53 217.164C389.863 216.426 388.937 216.057 387.753 216.057ZM398.783 222.35C398.783 219.42 399.463 217.07 400.822 215.301C402.181 213.52 404.004 212.629 406.289 212.629C408.305 212.629 409.933 213.332 411.176 214.738V205H415.447V232H411.58L411.369 230.031C410.092 231.578 408.387 232.352 406.254 232.352C404.027 232.352 402.223 231.455 400.84 229.662C399.469 227.869 398.783 225.432 398.783 222.35ZM403.055 222.719C403.055 224.652 403.424 226.164 404.162 227.254C404.912 228.332 405.973 228.871 407.344 228.871C409.09 228.871 410.367 228.092 411.176 226.533V218.412C410.39 216.889 409.125 216.127 407.379 216.127C405.996 216.127 404.93 216.678 404.18 217.779C403.43 218.869 403.055 220.516 403.055 222.719ZM441.11 230.137C439.857 231.613 438.075 232.352 435.767 232.352C433.704 232.352 432.14 231.748 431.073 230.541C430.019 229.334 429.491 227.588 429.491 225.303V212.98H433.763V225.25C433.763 227.664 434.765 228.871 436.769 228.871C438.843 228.871 440.243 228.127 440.97 226.639V212.98H445.241V232H441.216L441.11 230.137ZM460.613 226.832C460.613 226.07 460.297 225.49 459.664 225.092C459.043 224.693 458.006 224.342 456.553 224.037C455.099 223.732 453.886 223.346 452.914 222.877C450.781 221.846 449.715 220.352 449.715 218.395C449.715 216.754 450.406 215.383 451.789 214.281C453.172 213.18 454.929 212.629 457.062 212.629C459.336 212.629 461.17 213.191 462.564 214.316C463.97 215.441 464.674 216.9 464.674 218.693H460.402C460.402 217.873 460.097 217.193 459.488 216.654C458.879 216.104 458.07 215.828 457.062 215.828C456.125 215.828 455.357 216.045 454.76 216.479C454.174 216.912 453.881 217.492 453.881 218.219C453.881 218.875 454.156 219.385 454.707 219.748C455.258 220.111 456.371 220.48 458.047 220.855C459.722 221.219 461.035 221.658 461.984 222.174C462.945 222.678 463.654 223.287 464.111 224.002C464.58 224.717 464.814 225.584 464.814 226.604C464.814 228.314 464.105 229.703 462.687 230.77C461.269 231.824 459.412 232.352 457.115 232.352C455.556 232.352 454.168 232.07 452.949 231.508C451.73 230.945 450.781 230.172 450.101 229.188C449.422 228.203 449.082 227.143 449.082 226.006H453.23C453.289 227.014 453.67 227.793 454.373 228.344C455.076 228.883 456.008 229.152 457.168 229.152C458.293 229.152 459.148 228.941 459.734 228.52C460.32 228.086 460.613 227.523 460.613 226.832ZM477.286 232.352C474.579 232.352 472.381 231.502 470.694 229.803C469.018 228.092 468.18 225.818 468.18 222.982V222.455C468.18 220.557 468.543 218.863 469.27 217.375C470.008 215.875 471.039 214.709 472.364 213.877C473.688 213.045 475.164 212.629 476.793 212.629C479.383 212.629 481.381 213.455 482.788 215.107C484.205 216.76 484.914 219.098 484.914 222.121V223.844H472.487C472.616 225.414 473.137 226.656 474.051 227.57C474.977 228.484 476.137 228.941 477.532 228.941C479.489 228.941 481.082 228.15 482.313 226.568L484.616 228.766C483.854 229.902 482.834 230.787 481.557 231.42C480.291 232.041 478.868 232.352 477.286 232.352ZM476.776 216.057C475.604 216.057 474.655 216.467 473.928 217.287C473.213 218.107 472.756 219.25 472.557 220.715H480.696V220.398C480.602 218.969 480.221 217.891 479.553 217.164C478.885 216.426 477.959 216.057 476.776 216.057ZM498.564 216.883C498.001 216.789 497.421 216.742 496.823 216.742C494.866 216.742 493.548 217.492 492.868 218.992V232H488.597V212.98H492.675L492.78 215.107C493.812 213.455 495.241 212.629 497.069 212.629C497.679 212.629 498.183 212.711 498.581 212.875L498.564 216.883ZM512.283 226.832C512.283 226.07 511.966 225.49 511.334 225.092C510.713 224.693 509.675 224.342 508.222 224.037C506.769 223.732 505.556 223.346 504.584 222.877C502.451 221.846 501.384 220.352 501.384 218.395C501.384 216.754 502.076 215.383 503.459 214.281C504.841 213.18 506.599 212.629 508.732 212.629C511.006 212.629 512.84 213.191 514.234 214.316C515.64 215.441 516.343 216.9 516.343 218.693H512.072C512.072 217.873 511.767 217.193 511.158 216.654C510.549 216.104 509.74 215.828 508.732 215.828C507.795 215.828 507.027 216.045 506.429 216.479C505.843 216.912 505.55 217.492 505.55 218.219C505.55 218.875 505.826 219.385 506.377 219.748C506.927 220.111 508.041 220.48 509.716 220.855C511.392 221.219 512.705 221.658 513.654 222.174C514.615 222.678 515.324 223.287 515.781 224.002C516.25 224.717 516.484 225.584 516.484 226.604C516.484 228.314 515.775 229.703 514.357 230.77C512.939 231.824 511.082 232.352 508.785 232.352C507.226 232.352 505.838 232.07 504.619 231.508C503.4 230.945 502.451 230.172 501.771 229.188C501.091 228.203 500.752 227.143 500.752 226.006H504.9C504.959 227.014 505.34 227.793 506.043 228.344C506.746 228.883 507.677 229.152 508.838 229.152C509.963 229.152 510.818 228.941 511.404 228.52C511.99 228.086 512.283 227.523 512.283 226.832Z" fill="black"/>
<path d="M297.604 294H294.528V279.07H297.604V294ZM303.208 282.905L303.3 284.187C304.093 283.196 305.156 282.7 306.489 282.7C307.665 282.7 308.54 283.045 309.114 283.736C309.688 284.426 309.982 285.458 309.996 286.833V294H307.032V286.904C307.032 286.275 306.896 285.821 306.622 285.541C306.349 285.253 305.894 285.11 305.258 285.11C304.424 285.11 303.799 285.465 303.382 286.176V294H300.418V282.905H303.208ZM316.009 280.178V282.905H317.906V285.079H316.009V290.616C316.009 291.026 316.088 291.32 316.245 291.498C316.402 291.676 316.703 291.765 317.148 291.765C317.476 291.765 317.766 291.741 318.019 291.693V293.938C317.438 294.116 316.84 294.205 316.225 294.205C314.147 294.205 313.087 293.156 313.046 291.057V285.079H311.426V282.905H313.046V280.178H316.009ZM326.002 285.684C325.598 285.629 325.243 285.602 324.935 285.602C323.814 285.602 323.079 285.981 322.731 286.74V294H319.767V282.905H322.567L322.649 284.228C323.243 283.209 324.067 282.7 325.12 282.7C325.448 282.7 325.755 282.745 326.043 282.833L326.002 285.684ZM326.817 288.35C326.817 287.25 327.028 286.269 327.452 285.407C327.876 284.546 328.485 283.879 329.278 283.408C330.077 282.936 331.004 282.7 332.056 282.7C333.553 282.7 334.774 283.158 335.717 284.074C336.667 284.99 337.197 286.234 337.306 287.807L337.327 288.565C337.327 290.268 336.852 291.635 335.902 292.667C334.951 293.692 333.676 294.205 332.077 294.205C330.477 294.205 329.199 293.692 328.242 292.667C327.292 291.642 326.817 290.247 326.817 288.483V288.35ZM329.78 288.565C329.78 289.618 329.978 290.425 330.375 290.985C330.771 291.539 331.339 291.816 332.077 291.816C332.795 291.816 333.355 291.542 333.758 290.996C334.162 290.442 334.363 289.56 334.363 288.35C334.363 287.318 334.162 286.518 333.758 285.951C333.355 285.383 332.788 285.1 332.056 285.1C331.332 285.1 330.771 285.383 330.375 285.951C329.978 286.511 329.78 287.383 329.78 288.565ZM338.901 288.371C338.901 286.641 339.287 285.264 340.059 284.238C340.839 283.213 341.902 282.7 343.248 282.7C344.328 282.7 345.22 283.104 345.925 283.91V278.25H348.898V294H346.222L346.078 292.821C345.34 293.744 344.39 294.205 343.228 294.205C341.922 294.205 340.873 293.692 340.08 292.667C339.294 291.635 338.901 290.203 338.901 288.371ZM341.864 288.586C341.864 289.625 342.045 290.421 342.407 290.975C342.77 291.529 343.296 291.806 343.987 291.806C344.903 291.806 345.549 291.419 345.925 290.647V286.269C345.555 285.496 344.916 285.11 344.007 285.11C342.578 285.11 341.864 286.269 341.864 288.586ZM358.05 292.872C357.318 293.761 356.306 294.205 355.014 294.205C353.825 294.205 352.916 293.863 352.287 293.18C351.665 292.496 351.347 291.495 351.333 290.175V282.905H354.297V290.073C354.297 291.228 354.823 291.806 355.876 291.806C356.881 291.806 357.571 291.457 357.947 290.76V282.905H360.921V294H358.132L358.05 292.872ZM367.98 291.816C368.527 291.816 368.971 291.666 369.313 291.365C369.655 291.064 369.833 290.664 369.846 290.165H372.625C372.618 290.917 372.413 291.607 372.01 292.236C371.607 292.858 371.053 293.344 370.349 293.692C369.652 294.034 368.879 294.205 368.032 294.205C366.446 294.205 365.195 293.703 364.279 292.698C363.363 291.686 362.905 290.292 362.905 288.514V288.319C362.905 286.61 363.359 285.247 364.268 284.228C365.178 283.209 366.425 282.7 368.011 282.7C369.399 282.7 370.51 283.097 371.344 283.89C372.184 284.676 372.612 285.725 372.625 287.038H369.846C369.833 286.463 369.655 285.999 369.313 285.643C368.971 285.281 368.52 285.1 367.96 285.1C367.269 285.1 366.746 285.353 366.391 285.858C366.042 286.357 365.868 287.171 365.868 288.299V288.606C365.868 289.748 366.042 290.568 366.391 291.067C366.74 291.566 367.269 291.816 367.98 291.816ZM377.655 294H374.681V282.905H377.655V294ZM374.507 280.034C374.507 279.59 374.654 279.224 374.948 278.937C375.248 278.65 375.655 278.506 376.168 278.506C376.674 278.506 377.077 278.65 377.378 278.937C377.679 279.224 377.829 279.59 377.829 280.034C377.829 280.485 377.675 280.854 377.368 281.142C377.067 281.429 376.667 281.572 376.168 281.572C375.669 281.572 375.265 281.429 374.958 281.142C374.657 280.854 374.507 280.485 374.507 280.034ZM383.043 282.905L383.135 284.187C383.928 283.196 384.991 282.7 386.324 282.7C387.5 282.7 388.375 283.045 388.949 283.736C389.523 284.426 389.817 285.458 389.831 286.833V294H386.868V286.904C386.868 286.275 386.731 285.821 386.457 285.541C386.184 285.253 385.729 285.11 385.094 285.11C384.26 285.11 383.634 285.465 383.217 286.176V294H380.254V282.905H383.043ZM391.866 288.371C391.866 286.668 392.269 285.298 393.076 284.259C393.89 283.22 394.983 282.7 396.357 282.7C397.574 282.7 398.521 283.117 399.198 283.951L399.321 282.905H402.007V293.631C402.007 294.602 401.785 295.446 401.341 296.164C400.903 296.881 400.285 297.428 399.485 297.804C398.685 298.18 397.748 298.368 396.675 298.368C395.862 298.368 395.069 298.204 394.296 297.876C393.524 297.555 392.939 297.138 392.543 296.625L393.855 294.82C394.594 295.647 395.489 296.061 396.542 296.061C397.328 296.061 397.94 295.849 398.377 295.425C398.815 295.008 399.034 294.414 399.034 293.641V293.046C398.35 293.819 397.451 294.205 396.337 294.205C395.004 294.205 393.924 293.686 393.097 292.646C392.276 291.601 391.866 290.216 391.866 288.494V288.371ZM394.829 288.586C394.829 289.591 395.031 290.38 395.434 290.955C395.838 291.522 396.392 291.806 397.096 291.806C397.998 291.806 398.644 291.467 399.034 290.791V286.125C398.637 285.448 397.998 285.11 397.116 285.11C396.405 285.11 395.845 285.4 395.434 285.981C395.031 286.562 394.829 287.431 394.829 288.586ZM409.482 288.371C409.482 286.641 409.868 285.264 410.641 284.238C411.42 283.213 412.483 282.7 413.83 282.7C414.91 282.7 415.802 283.104 416.506 283.91V278.25H419.479V294H416.803L416.66 292.821C415.921 293.744 414.971 294.205 413.809 294.205C412.503 294.205 411.454 293.692 410.661 292.667C409.875 291.635 409.482 290.203 409.482 288.371ZM412.445 288.586C412.445 289.625 412.626 290.421 412.989 290.975C413.351 291.529 413.877 291.806 414.568 291.806C415.484 291.806 416.13 291.419 416.506 290.647V286.269C416.137 285.496 415.498 285.11 414.588 285.11C413.16 285.11 412.445 286.269 412.445 288.586ZM426.129 289.806L428.18 282.905H431.358L426.898 295.723L426.652 296.307C425.989 297.756 424.895 298.481 423.371 298.481C422.94 298.481 422.502 298.416 422.058 298.286V296.041L422.509 296.051C423.07 296.051 423.487 295.965 423.76 295.794C424.041 295.624 424.259 295.34 424.417 294.943L424.765 294.031L420.879 282.905H424.068L426.129 289.806ZM435.465 282.905L435.557 284.187C436.35 283.196 437.413 282.7 438.746 282.7C439.922 282.7 440.797 283.045 441.371 283.736C441.945 284.426 442.239 285.458 442.253 286.833V294H439.29V286.904C439.29 286.275 439.153 285.821 438.879 285.541C438.606 285.253 438.151 285.11 437.516 285.11C436.682 285.11 436.056 285.465 435.639 286.176V294H432.676V282.905H435.465ZM451.148 294C451.011 293.733 450.912 293.402 450.851 293.005C450.133 293.805 449.2 294.205 448.051 294.205C446.964 294.205 446.062 293.891 445.344 293.262C444.633 292.633 444.278 291.84 444.278 290.883C444.278 289.707 444.712 288.805 445.58 288.176C446.455 287.547 447.716 287.229 449.364 287.222H450.728V286.586C450.728 286.074 450.594 285.664 450.328 285.356C450.068 285.048 449.654 284.895 449.087 284.895C448.588 284.895 448.195 285.014 447.908 285.253C447.628 285.493 447.487 285.821 447.487 286.238H444.524C444.524 285.595 444.722 285 445.119 284.454C445.515 283.907 446.076 283.479 446.8 283.172C447.525 282.857 448.338 282.7 449.241 282.7C450.608 282.7 451.691 283.045 452.491 283.736C453.298 284.419 453.701 285.383 453.701 286.627V291.437C453.708 292.489 453.855 293.286 454.142 293.826V294H451.148ZM448.697 291.939C449.135 291.939 449.538 291.843 449.907 291.652C450.276 291.454 450.55 291.19 450.728 290.862V288.955H449.62C448.137 288.955 447.347 289.468 447.252 290.493L447.241 290.667C447.241 291.037 447.371 291.341 447.631 291.58C447.891 291.819 448.246 291.939 448.697 291.939ZM458.966 282.905L459.059 284.146C459.845 283.182 460.908 282.7 462.248 282.7C463.676 282.7 464.657 283.264 465.191 284.392C465.97 283.264 467.081 282.7 468.523 282.7C469.726 282.7 470.622 283.052 471.21 283.756C471.798 284.454 472.091 285.506 472.091 286.915V294H469.118V286.925C469.118 286.296 468.995 285.838 468.749 285.551C468.503 285.257 468.068 285.11 467.446 285.11C466.558 285.11 465.943 285.534 465.601 286.381L465.611 294H462.648V286.935C462.648 286.292 462.521 285.828 462.268 285.541C462.015 285.253 461.585 285.11 460.976 285.11C460.135 285.11 459.527 285.458 459.151 286.156V294H456.188V282.905H458.966ZM477.716 294H474.742V282.905H477.716V294ZM474.568 280.034C474.568 279.59 474.715 279.224 475.008 278.937C475.309 278.65 475.716 278.506 476.229 278.506C476.735 278.506 477.138 278.65 477.439 278.937C477.739 279.224 477.89 279.59 477.89 280.034C477.89 280.485 477.736 280.854 477.428 281.142C477.128 281.429 476.728 281.572 476.229 281.572C475.73 281.572 475.326 281.429 475.019 281.142C474.718 280.854 474.568 280.485 474.568 280.034ZM484.99 291.816C485.537 291.816 485.982 291.666 486.323 291.365C486.665 291.064 486.843 290.664 486.857 290.165H489.635C489.629 290.917 489.424 291.607 489.02 292.236C488.617 292.858 488.063 293.344 487.359 293.692C486.662 294.034 485.889 294.205 485.042 294.205C483.456 294.205 482.205 293.703 481.289 292.698C480.373 291.686 479.915 290.292 479.915 288.514V288.319C479.915 286.61 480.369 285.247 481.279 284.228C482.188 283.209 483.435 282.7 485.021 282.7C486.409 282.7 487.52 283.097 488.354 283.89C489.195 284.676 489.622 285.725 489.635 287.038H486.857C486.843 286.463 486.665 285.999 486.323 285.643C485.982 285.281 485.53 285.1 484.97 285.1C484.28 285.1 483.757 285.353 483.401 285.858C483.052 286.357 482.878 287.171 482.878 288.299V288.606C482.878 289.748 483.052 290.568 483.401 291.067C483.75 291.566 484.28 291.816 484.99 291.816ZM501.591 291.816C502.138 291.816 502.582 291.666 502.924 291.365C503.266 291.064 503.444 290.664 503.457 290.165H506.236C506.229 290.917 506.024 291.607 505.621 292.236C505.218 292.858 504.664 293.344 503.96 293.692C503.262 294.034 502.49 294.205 501.642 294.205C500.056 294.205 498.805 293.703 497.889 292.698C496.973 291.686 496.515 290.292 496.515 288.514V288.319C496.515 286.61 496.97 285.247 497.879 284.228C498.788 283.209 500.036 282.7 501.622 282.7C503.01 282.7 504.12 283.097 504.954 283.89C505.795 284.676 506.222 285.725 506.236 287.038H503.457C503.444 286.463 503.266 285.999 502.924 285.643C502.582 285.281 502.131 285.1 501.571 285.1C500.88 285.1 500.357 285.353 500.002 285.858C499.653 286.357 499.479 287.171 499.479 288.299V288.606C499.479 289.748 499.653 290.568 500.002 291.067C500.35 291.566 500.88 291.816 501.591 291.816ZM507.677 288.35C507.677 287.25 507.889 286.269 508.312 285.407C508.736 284.546 509.345 283.879 510.138 283.408C510.937 282.936 511.864 282.7 512.916 282.7C514.413 282.7 515.634 283.158 516.577 284.074C517.527 284.99 518.057 286.234 518.166 287.807L518.187 288.565C518.187 290.268 517.712 291.635 516.762 292.667C515.811 293.692 514.536 294.205 512.937 294.205C511.337 294.205 510.059 293.692 509.102 292.667C508.152 291.642 507.677 290.247 507.677 288.483V288.35ZM510.64 288.565C510.64 289.618 510.838 290.425 511.235 290.985C511.631 291.539 512.199 291.816 512.937 291.816C513.655 291.816 514.215 291.542 514.618 290.996C515.022 290.442 515.223 289.56 515.223 288.35C515.223 287.318 515.022 286.518 514.618 285.951C514.215 285.383 513.648 285.1 512.916 285.1C512.192 285.1 511.631 285.383 511.235 285.951C510.838 286.511 510.64 287.383 510.64 288.565ZM522.95 282.905L523.042 284.187C523.835 283.196 524.898 282.7 526.231 282.7C527.407 282.7 528.282 283.045 528.856 283.736C529.43 284.426 529.724 285.458 529.738 286.833V294H526.774V286.904C526.774 286.275 526.638 285.821 526.364 285.541C526.091 285.253 525.636 285.11 525 285.11C524.166 285.11 523.541 285.465 523.124 286.176V294H520.161V282.905H522.95ZM535.751 280.178V282.905H537.648V285.079H535.751V290.616C535.751 291.026 535.83 291.32 535.987 291.498C536.144 291.676 536.445 291.765 536.89 291.765C537.218 291.765 537.508 291.741 537.761 291.693V293.938C537.18 294.116 536.582 294.205 535.967 294.205C533.889 294.205 532.829 293.156 532.788 291.057V285.079H531.168V282.905H532.788V280.178H535.751ZM544.616 294.205C542.989 294.205 541.663 293.706 540.637 292.708C539.619 291.71 539.109 290.38 539.109 288.719V288.432C539.109 287.318 539.325 286.323 539.755 285.448C540.186 284.566 540.794 283.89 541.581 283.418C542.373 282.939 543.276 282.7 544.288 282.7C545.805 282.7 546.998 283.179 547.866 284.136C548.741 285.093 549.179 286.45 549.179 288.207V289.417H542.114C542.209 290.141 542.497 290.722 542.975 291.16C543.46 291.597 544.072 291.816 544.811 291.816C545.952 291.816 546.844 291.402 547.487 290.575L548.943 292.206C548.498 292.834 547.897 293.327 547.138 293.682C546.379 294.031 545.539 294.205 544.616 294.205ZM544.277 285.1C543.689 285.1 543.211 285.298 542.842 285.694C542.479 286.091 542.247 286.658 542.144 287.396H546.267V287.161C546.253 286.504 546.075 285.999 545.733 285.643C545.392 285.281 544.906 285.1 544.277 285.1ZM553.808 282.905L553.9 284.187C554.693 283.196 555.756 282.7 557.089 282.7C558.265 282.7 559.14 283.045 559.714 283.736C560.289 284.426 560.583 285.458 560.596 286.833V294H557.633V286.904C557.633 286.275 557.496 285.821 557.223 285.541C556.949 285.253 556.495 285.11 555.859 285.11C555.025 285.11 554.399 285.465 553.982 286.176V294H551.019V282.905H553.808ZM566.61 280.178V282.905H568.507V285.079H566.61V290.616C566.61 291.026 566.689 291.32 566.846 291.498C567.003 291.676 567.304 291.765 567.748 291.765C568.076 291.765 568.367 291.741 568.62 291.693V293.938C568.039 294.116 567.44 294.205 566.825 294.205C564.747 294.205 563.688 293.156 563.647 291.057V285.079H562.026V282.905H563.647V280.178H566.61ZM296.917 307.905L297.009 309.146C297.795 308.182 298.858 307.7 300.198 307.7C301.627 307.7 302.608 308.264 303.141 309.392C303.92 308.264 305.031 307.7 306.474 307.7C307.677 307.7 308.572 308.052 309.16 308.756C309.748 309.454 310.042 310.506 310.042 311.915V319H307.068V311.925C307.068 311.296 306.945 310.838 306.699 310.551C306.453 310.257 306.019 310.11 305.397 310.11C304.508 310.11 303.893 310.534 303.551 311.381L303.562 319H300.598V311.935C300.598 311.292 300.472 310.828 300.219 310.541C299.966 310.253 299.535 310.11 298.927 310.11C298.086 310.11 297.478 310.458 297.102 311.156V319H294.138V307.905H296.917ZM318.968 319C318.831 318.733 318.732 318.402 318.67 318.005C317.953 318.805 317.02 319.205 315.871 319.205C314.784 319.205 313.882 318.891 313.164 318.262C312.453 317.633 312.098 316.84 312.098 315.883C312.098 314.707 312.532 313.805 313.4 313.176C314.275 312.547 315.536 312.229 317.184 312.222H318.547V311.586C318.547 311.074 318.414 310.664 318.147 310.356C317.888 310.048 317.474 309.895 316.907 309.895C316.408 309.895 316.015 310.014 315.728 310.253C315.447 310.493 315.307 310.821 315.307 311.238H312.344C312.344 310.595 312.542 310 312.939 309.454C313.335 308.907 313.896 308.479 314.62 308.172C315.345 307.857 316.158 307.7 317.061 307.7C318.428 307.7 319.511 308.045 320.311 308.736C321.118 309.419 321.521 310.383 321.521 311.627V316.437C321.528 317.489 321.675 318.286 321.962 318.826V319H318.968ZM316.517 316.939C316.955 316.939 317.358 316.843 317.727 316.652C318.096 316.454 318.37 316.19 318.547 315.862V313.955H317.44C315.957 313.955 315.167 314.468 315.071 315.493L315.061 315.667C315.061 316.037 315.191 316.341 315.451 316.58C315.71 316.819 316.066 316.939 316.517 316.939ZM326.735 307.905L326.827 309.187C327.62 308.196 328.683 307.7 330.016 307.7C331.192 307.7 332.067 308.045 332.641 308.736C333.215 309.426 333.509 310.458 333.523 311.833V319H330.56V311.904C330.56 311.275 330.423 310.821 330.149 310.541C329.876 310.253 329.421 310.11 328.786 310.11C327.952 310.11 327.326 310.465 326.909 311.176V319H323.946V307.905H326.735ZM342.418 319C342.281 318.733 342.182 318.402 342.121 318.005C341.403 318.805 340.47 319.205 339.321 319.205C338.234 319.205 337.332 318.891 336.614 318.262C335.903 317.633 335.548 316.84 335.548 315.883C335.548 314.707 335.982 313.805 336.85 313.176C337.725 312.547 338.986 312.229 340.634 312.222H341.998V311.586C341.998 311.074 341.864 310.664 341.598 310.356C341.338 310.048 340.924 309.895 340.357 309.895C339.858 309.895 339.465 310.014 339.178 310.253C338.898 310.493 338.757 310.821 338.757 311.238H335.794C335.794 310.595 335.992 310 336.389 309.454C336.785 308.907 337.346 308.479 338.07 308.172C338.795 307.857 339.609 307.7 340.511 307.7C341.878 307.7 342.962 308.045 343.761 308.736C344.568 309.419 344.971 310.383 344.971 311.627V316.437C344.978 317.489 345.125 318.286 345.412 318.826V319H342.418ZM339.967 316.939C340.405 316.939 340.808 316.843 341.177 316.652C341.547 316.454 341.82 316.19 341.998 315.862V313.955H340.89C339.407 313.955 338.617 314.468 338.522 315.493L338.511 315.667C338.511 316.037 338.641 316.341 338.901 316.58C339.161 316.819 339.516 316.939 339.967 316.939ZM347.027 313.371C347.027 311.668 347.43 310.298 348.237 309.259C349.05 308.22 350.144 307.7 351.518 307.7C352.735 307.7 353.682 308.117 354.359 308.951L354.482 307.905H357.168V318.631C357.168 319.602 356.946 320.446 356.502 321.164C356.064 321.881 355.445 322.428 354.646 322.804C353.846 323.18 352.909 323.368 351.836 323.368C351.023 323.368 350.23 323.204 349.457 322.876C348.685 322.555 348.1 322.138 347.704 321.625L349.016 319.82C349.755 320.647 350.65 321.061 351.703 321.061C352.489 321.061 353.101 320.849 353.538 320.425C353.976 320.008 354.194 319.414 354.194 318.641V318.046C353.511 318.819 352.612 319.205 351.498 319.205C350.165 319.205 349.085 318.686 348.257 317.646C347.437 316.601 347.027 315.216 347.027 313.494V313.371ZM349.99 313.586C349.99 314.591 350.192 315.38 350.595 315.955C350.999 316.522 351.552 316.806 352.257 316.806C353.159 316.806 353.805 316.467 354.194 315.791V311.125C353.798 310.448 353.159 310.11 352.277 310.11C351.566 310.11 351.006 310.4 350.595 310.981C350.192 311.562 349.99 312.431 349.99 313.586ZM364.771 319.205C363.144 319.205 361.818 318.706 360.793 317.708C359.774 316.71 359.265 315.38 359.265 313.719V313.432C359.265 312.318 359.48 311.323 359.911 310.448C360.342 309.566 360.95 308.89 361.736 308.418C362.529 307.939 363.431 307.7 364.443 307.7C365.961 307.7 367.154 308.179 368.022 309.136C368.897 310.093 369.334 311.45 369.334 313.207V314.417H362.269C362.365 315.141 362.652 315.722 363.131 316.16C363.616 316.597 364.228 316.816 364.966 316.816C366.108 316.816 367 316.402 367.642 315.575L369.098 317.206C368.654 317.834 368.052 318.327 367.294 318.682C366.535 319.031 365.694 319.205 364.771 319.205ZM364.433 310.1C363.845 310.1 363.366 310.298 362.997 310.694C362.635 311.091 362.403 311.658 362.3 312.396H366.422V312.161C366.408 311.504 366.231 310.999 365.889 310.643C365.547 310.281 365.062 310.1 364.433 310.1ZM374.015 307.905L374.107 309.146C374.893 308.182 375.956 307.7 377.296 307.7C378.725 307.7 379.706 308.264 380.239 309.392C381.018 308.264 382.129 307.7 383.572 307.7C384.775 307.7 385.67 308.052 386.258 308.756C386.846 309.454 387.14 310.506 387.14 311.915V319H384.166V311.925C384.166 311.296 384.043 310.838 383.797 310.551C383.551 310.257 383.117 310.11 382.495 310.11C381.606 310.11 380.991 310.534 380.649 311.381L380.659 319H377.696V311.935C377.696 311.292 377.57 310.828 377.317 310.541C377.064 310.253 376.633 310.11 376.025 310.11C375.184 310.11 374.575 310.458 374.199 311.156V319H371.236V307.905H374.015ZM394.743 319.205C393.116 319.205 391.79 318.706 390.764 317.708C389.746 316.71 389.237 315.38 389.237 313.719V313.432C389.237 312.318 389.452 311.323 389.883 310.448C390.313 309.566 390.922 308.89 391.708 308.418C392.501 307.939 393.403 307.7 394.415 307.7C395.932 307.7 397.125 308.179 397.993 309.136C398.868 310.093 399.306 311.45 399.306 313.207V314.417H392.241C392.337 315.141 392.624 315.722 393.102 316.16C393.588 316.597 394.199 316.816 394.938 316.816C396.079 316.816 396.971 316.402 397.614 315.575L399.07 317.206C398.626 317.834 398.024 318.327 397.265 318.682C396.507 319.031 395.666 319.205 394.743 319.205ZM394.405 310.1C393.817 310.1 393.338 310.298 392.969 310.694C392.607 311.091 392.374 311.658 392.272 312.396H396.394V312.161C396.38 311.504 396.202 310.999 395.861 310.643C395.519 310.281 395.033 310.1 394.405 310.1ZM403.935 307.905L404.028 309.187C404.821 308.196 405.884 307.7 407.217 307.7C408.392 307.7 409.267 308.045 409.842 308.736C410.416 309.426 410.71 310.458 410.723 311.833V319H407.76V311.904C407.76 311.275 407.623 310.821 407.35 310.541C407.076 310.253 406.622 310.11 405.986 310.11C405.152 310.11 404.527 310.465 404.11 311.176V319H401.146V307.905H403.935ZM416.737 305.178V307.905H418.634V310.079H416.737V315.616C416.737 316.026 416.816 316.32 416.973 316.498C417.13 316.676 417.431 316.765 417.875 316.765C418.203 316.765 418.494 316.741 418.747 316.693V318.938C418.166 319.116 417.568 319.205 416.952 319.205C414.874 319.205 413.815 318.156 413.774 316.057V310.079H412.154V307.905H413.774V305.178H416.737Z" fill="black"/>
<rect x="702" y="401" width="300" height="78" rx="32" fill="#0038FF"/>
<path d="M808.161 451.137C806.907 452.613 805.125 453.352 802.817 453.352C800.754 453.352 799.19 452.748 798.123 451.541C797.069 450.334 796.541 448.588 796.541 446.303V433.98H800.813V446.25C800.813 448.664 801.815 449.871 803.819 449.871C805.893 449.871 807.293 449.127 808.02 447.639V433.98H812.291V453H808.266L808.161 451.137ZM833.657 443.684C833.657 446.625 832.989 448.975 831.653 450.732C830.317 452.479 828.524 453.352 826.274 453.352C824.189 453.352 822.519 452.666 821.265 451.295V460.312H816.993V433.98H820.931L821.106 435.914C822.36 434.391 824.065 433.629 826.222 433.629C828.542 433.629 830.358 434.496 831.671 436.23C832.995 437.953 833.657 440.35 833.657 443.42V443.684ZM829.403 443.314C829.403 441.416 829.022 439.91 828.261 438.797C827.511 437.684 826.433 437.127 825.026 437.127C823.28 437.127 822.026 437.848 821.265 439.289V447.727C822.038 449.203 823.304 449.941 825.062 449.941C826.421 449.941 827.481 449.396 828.243 448.307C829.017 447.205 829.403 445.541 829.403 443.314ZM836.847 443.35C836.847 440.42 837.527 438.07 838.886 436.301C840.246 434.52 842.068 433.629 844.353 433.629C846.369 433.629 847.998 434.332 849.24 435.738V426H853.511V453H849.644L849.433 451.031C848.156 452.578 846.451 453.352 844.318 453.352C842.091 453.352 840.287 452.455 838.904 450.662C837.533 448.869 836.847 446.432 836.847 443.35ZM841.119 443.719C841.119 445.652 841.488 447.164 842.226 448.254C842.976 449.332 844.037 449.871 845.408 449.871C847.154 449.871 848.431 449.092 849.24 447.533V439.412C848.455 437.889 847.189 437.127 845.443 437.127C844.06 437.127 842.994 437.678 842.244 438.779C841.494 439.869 841.119 441.516 841.119 443.719ZM869.692 453C869.504 452.637 869.34 452.045 869.2 451.225C867.84 452.643 866.176 453.352 864.207 453.352C862.297 453.352 860.739 452.807 859.532 451.717C858.325 450.627 857.721 449.279 857.721 447.674C857.721 445.646 858.471 444.094 859.971 443.016C861.483 441.926 863.639 441.381 866.44 441.381H869.059V440.133C869.059 439.148 868.784 438.363 868.233 437.777C867.682 437.18 866.844 436.881 865.719 436.881C864.746 436.881 863.95 437.127 863.328 437.619C862.707 438.1 862.397 438.715 862.397 439.465H858.125C858.125 438.422 858.471 437.449 859.162 436.547C859.854 435.633 860.791 434.918 861.975 434.402C863.17 433.887 864.5 433.629 865.965 433.629C868.192 433.629 869.967 434.191 871.291 435.316C872.616 436.43 873.295 438 873.33 440.027V448.605C873.33 450.316 873.571 451.682 874.051 452.701V453H869.692ZM864.998 449.924C865.842 449.924 866.633 449.719 867.371 449.309C868.121 448.898 868.684 448.348 869.059 447.656V444.07H866.756C865.174 444.07 863.985 444.346 863.188 444.896C862.391 445.447 861.992 446.227 861.992 447.234C861.992 448.055 862.262 448.711 862.801 449.203C863.352 449.684 864.084 449.924 864.998 449.924ZM883.517 429.357V433.98H886.874V437.145H883.517V447.762C883.517 448.488 883.657 449.016 883.938 449.344C884.231 449.66 884.747 449.818 885.485 449.818C885.978 449.818 886.476 449.76 886.979 449.643V452.947C886.007 453.217 885.069 453.352 884.167 453.352C880.886 453.352 879.245 451.541 879.245 447.92V437.145H876.116V433.98H879.245V429.357H883.517ZM898.888 453.352C896.181 453.352 893.984 452.502 892.296 450.803C890.621 449.092 889.783 446.818 889.783 443.982V443.455C889.783 441.557 890.146 439.863 890.873 438.375C891.611 436.875 892.642 435.709 893.966 434.877C895.291 434.045 896.767 433.629 898.396 433.629C900.986 433.629 902.984 434.455 904.39 436.107C905.808 437.76 906.517 440.098 906.517 443.121V444.844H894.089C894.218 446.414 894.74 447.656 895.654 448.57C896.58 449.484 897.74 449.941 899.134 449.941C901.091 449.941 902.685 449.15 903.916 447.568L906.218 449.766C905.457 450.902 904.437 451.787 903.16 452.42C901.894 453.041 900.47 453.352 898.888 453.352ZM898.379 437.057C897.207 437.057 896.257 437.467 895.531 438.287C894.816 439.107 894.359 440.25 894.16 441.715H902.298V441.398C902.205 439.969 901.824 438.891 901.156 438.164C900.488 437.426 899.562 437.057 898.379 437.057Z" fill="white"/>
<rect y="644" width="1680" height="187" fill="url(#paint1_linear)"/>
<rect y="830" width="1680" height="246" fill="#0B0645"/>
<defs>
<filter id="filter0_d" x="1002.61" y="0.67836" width="493.772" height="929.304" filterUnits="userSpaceOnUse" color-interpolation-filters="sRGB">
<feFlood flood-opacity="0" result="BackgroundImageFix"/>
<feColorMatrix in="SourceAlpha" type="matrix" values="0 0 0 0 0 0 0 0 0 0 0 0 0 0 0 0 0 0 127 0"/>
<feOffset dy="5.06433"/>
<feGaussianBlur stdDeviation="15.193"/>
<feColorMatrix type="matrix" values="0 0 0 0 0.0583333 0 0 0 0 0.0583333 0 0 0 0 0.0583333 0 0 0 0.25 0"/>
<feBlend mode="normal" in2="BackgroundImageFix" result="effect1_dropShadow"/>
<feBlend mode="normal" in="SourceGraphic" in2="effect1_dropShadow" result="shape"/>
</filter>
<radialGradient id="paint0_radial" cx="0" cy="0" r="1" gradientUnits="userSpaceOnUse" gradientTransform="translate(1249.5 460.266) rotate(90) scale(434.266 216.5)">
<stop/>
<stop offset="0.0763261" stop-color="white"/>
<stop offset="0.546844" stop-color="#363636"/>
<stop offset="1" stop-color="#0E0E0E"/>
</radialGradient>
<linearGradient id="paint1_linear" x1="840" y1="644" x2="840" y2="831" gradientUnits="userSpaceOnUse">
<stop stop-color="#0B0645" stop-opacity="0"/>
<stop offset="0.166667" stop-color="#0B0645" stop-opacity="0.13"/>
<stop offset="0.880208" stop-color="#0B0645"/>
<stop offset="1" stop-color="#0B0645"/>
</linearGradient>
</defs>
</svg>
