<svg width="1095" height="1416" viewBox="0 0 1095 1416" fill="none" xmlns="http://www.w3.org/2000/svg">
<rect y="237.23" width="496.327" height="928.539" rx="20" fill="white"/>
<path d="M81.4766 385.796H74.2062L60.0531 362.631V385.796H52.7827V350.589H60.0531L74.2305 373.803V350.589H81.4766V385.796Z" fill="black"/>
<path d="M86.7714 372.473C86.7714 369.877 87.2723 367.564 88.274 365.533C89.2757 363.502 90.7136 361.93 92.5878 360.818C94.4781 359.705 96.6673 359.149 99.1554 359.149C102.694 359.149 105.578 360.229 107.807 362.389C110.053 364.55 111.305 367.483 111.564 371.191L111.612 372.981C111.612 376.995 110.489 380.219 108.243 382.653C105.998 385.071 102.984 386.28 99.2038 386.28C95.4232 386.28 92.402 385.071 90.1401 382.653C87.8943 380.235 86.7714 376.946 86.7714 372.787V372.473ZM93.7753 372.981C93.7753 375.463 94.2438 377.365 95.1809 378.687C96.118 379.993 97.4589 380.646 99.2038 380.646C100.9 380.646 102.225 380.001 103.178 378.711C104.132 377.406 104.608 375.326 104.608 372.473C104.608 370.039 104.132 368.152 103.178 366.814C102.225 365.476 100.884 364.807 99.1554 364.807C97.4428 364.807 96.118 365.476 95.1809 366.814C94.2438 368.136 93.7753 370.192 93.7753 372.981Z" fill="black"/>
<path d="M124.807 353.201V359.633H129.291V364.759H124.807V377.817C124.807 378.784 124.993 379.477 125.365 379.896C125.736 380.315 126.447 380.525 127.497 380.525C128.273 380.525 128.96 380.469 129.557 380.356V385.651C128.184 386.07 126.77 386.28 125.316 386.28C120.405 386.28 117.9 383.805 117.804 378.856V364.759H113.974V359.633H117.804V353.201H124.807Z" fill="black"/>
<path d="M141.08 385.796H134.052V359.633H141.08V385.796ZM133.64 352.862C133.64 351.814 133.988 350.952 134.683 350.275C135.393 349.598 136.355 349.259 137.566 349.259C138.762 349.259 139.715 349.598 140.426 350.275C141.137 350.952 141.492 351.814 141.492 352.862C141.492 353.926 141.129 354.797 140.402 355.474C139.691 356.151 138.746 356.489 137.566 356.489C136.387 356.489 135.434 356.151 134.707 355.474C133.996 354.797 133.64 353.926 133.64 352.862Z" fill="black"/>
<path d="M158.275 380.646C159.567 380.646 160.617 380.291 161.425 379.582C162.233 378.873 162.653 377.93 162.685 376.753H169.253C169.237 378.526 168.752 380.154 167.799 381.637C166.846 383.104 165.537 384.249 163.873 385.071C162.225 385.877 160.399 386.28 158.396 386.28C154.647 386.28 151.691 385.095 149.526 382.725C147.361 380.34 146.278 377.051 146.278 372.86V372.4C146.278 368.37 147.353 365.154 149.502 362.752C151.65 360.35 154.599 359.149 158.347 359.149C161.627 359.149 164.252 360.084 166.224 361.954C168.211 363.808 169.221 366.282 169.253 369.378H162.685C162.653 368.024 162.233 366.927 161.425 366.089C160.617 365.235 159.551 364.807 158.226 364.807C156.594 364.807 155.358 365.404 154.518 366.597C153.694 367.774 153.282 369.692 153.282 372.352V373.077C153.282 375.769 153.694 377.704 154.518 378.881C155.342 380.057 156.594 380.646 158.275 380.646Z" fill="black"/>
<path d="M185.817 386.28C181.972 386.28 178.837 385.103 176.414 382.75C174.006 380.396 172.803 377.261 172.803 373.343V372.666C172.803 370.039 173.312 367.693 174.33 365.63C175.347 363.55 176.785 361.954 178.643 360.842C180.517 359.713 182.65 359.149 185.041 359.149C188.628 359.149 191.447 360.278 193.499 362.534C195.567 364.791 196.601 367.991 196.601 372.134V374.988H179.904C180.13 376.696 180.808 378.067 181.939 379.098C183.086 380.13 184.532 380.646 186.277 380.646C188.975 380.646 191.084 379.671 192.603 377.72L196.044 381.565C194.994 383.048 193.572 384.208 191.779 385.047C189.985 385.869 187.998 386.28 185.817 386.28ZM185.017 364.807C183.628 364.807 182.497 365.275 181.624 366.21C180.768 367.145 180.219 368.483 179.976 370.224H189.719V369.668C189.686 368.12 189.266 366.927 188.458 366.089C187.651 365.235 186.503 364.807 185.017 364.807Z" fill="black"/>
<path d="M222.338 353.201V359.633H226.821V364.759H222.338V377.817C222.338 378.784 222.523 379.477 222.895 379.896C223.267 380.315 223.977 380.525 225.028 380.525C225.803 380.525 226.49 380.469 227.088 380.356V385.651C225.714 386.07 224.301 386.28 222.846 386.28C217.935 386.28 215.431 383.805 215.334 378.856V364.759H211.505V359.633H215.334V353.201H222.338Z" fill="black"/>
<path d="M229.401 372.473C229.401 369.877 229.902 367.564 230.904 365.533C231.906 363.502 233.344 361.93 235.218 360.818C237.108 359.705 239.297 359.149 241.785 359.149C245.324 359.149 248.208 360.229 250.437 362.389C252.683 364.55 253.935 367.483 254.194 371.191L254.242 372.981C254.242 376.995 253.119 380.219 250.873 382.653C248.628 385.071 245.615 386.28 241.834 386.28C238.053 386.28 235.032 385.071 232.77 382.653C230.524 380.235 229.401 376.946 229.401 372.787V372.473ZM236.405 372.981C236.405 375.463 236.874 377.365 237.811 378.687C238.748 379.993 240.089 380.646 241.834 380.646C243.53 380.646 244.855 380.001 245.808 378.711C246.762 377.406 247.238 375.326 247.238 372.473C247.238 370.039 246.762 368.152 245.808 366.814C244.855 365.476 243.514 364.807 241.785 364.807C240.073 364.807 238.748 365.476 237.811 366.814C236.874 368.136 236.405 370.192 236.405 372.981Z" fill="black"/>
<path d="M75.9511 441.049C75.9511 445.241 75.0544 448.513 73.2611 450.867C71.4677 453.204 68.9634 454.373 65.7483 454.373C62.9048 454.373 60.6348 453.285 58.9383 451.108L58.6233 453.889H52.3223V416.748H59.3261V430.071C60.9417 428.185 63.0663 427.242 65.6998 427.242C68.8988 427.242 71.4031 428.419 73.2126 430.772C75.0383 433.11 75.9511 436.407 75.9511 440.662V441.049ZM68.9473 440.541C68.9473 437.898 68.5272 435.971 67.6871 434.762C66.8469 433.537 65.5948 432.925 63.9307 432.925C61.7011 432.925 60.1662 433.835 59.3261 435.657V445.982C60.1824 447.82 61.7334 448.739 63.9792 448.739C66.2411 448.739 67.7275 447.626 68.4384 445.402C68.7776 444.338 68.9473 442.718 68.9473 440.541Z" fill="black"/>
<path d="M95.5202 434.279C94.5669 434.15 93.7268 434.085 92.9998 434.085C90.3501 434.085 88.6133 434.98 87.7893 436.769V453.889H80.7855V427.726H87.4015L87.5954 430.845C89.001 428.443 90.9479 427.242 93.436 427.242C94.2115 427.242 94.9385 427.347 95.6171 427.556L95.5202 434.279Z" fill="black"/>
<path d="M106.801 453.889H99.7729V427.726H106.801V453.889ZM99.3609 420.955C99.3609 419.907 99.7083 419.045 100.403 418.368C101.114 417.691 102.075 417.352 103.287 417.352C104.482 417.352 105.436 417.691 106.147 418.368C106.857 419.045 107.213 419.907 107.213 420.955C107.213 422.019 106.849 422.89 106.122 423.567C105.411 424.244 104.466 424.582 103.287 424.582C102.107 424.582 101.154 424.244 100.427 423.567C99.7163 422.89 99.3609 422.019 99.3609 420.955Z" fill="black"/>
<path d="M111.999 440.614C111.999 436.536 112.912 433.287 114.737 430.869C116.579 428.451 119.091 427.242 122.274 427.242C124.827 427.242 126.935 428.193 128.6 430.095V416.748H135.628V453.889H129.302L128.963 451.108C127.218 453.285 124.972 454.373 122.226 454.373C119.14 454.373 116.66 453.164 114.786 450.746C112.928 448.312 111.999 444.934 111.999 440.614ZM119.003 441.122C119.003 443.572 119.431 445.45 120.287 446.756C121.143 448.062 122.387 448.715 124.019 448.715C126.184 448.715 127.711 447.804 128.6 445.982V435.657C127.727 433.835 126.217 432.925 124.068 432.925C120.691 432.925 119.003 435.657 119.003 441.122Z" fill="black"/>
<path d="M140.535 440.614C140.535 436.6 141.488 433.368 143.394 430.918C145.317 428.467 147.902 427.242 151.15 427.242C154.025 427.242 156.263 428.225 157.863 430.192L158.153 427.726H164.503V453.019C164.503 455.308 163.978 457.299 162.928 458.991C161.894 460.684 160.431 461.974 158.541 462.86C156.651 463.747 154.437 464.19 151.901 464.19C149.978 464.19 148.104 463.803 146.278 463.03C144.453 462.272 143.071 461.289 142.134 460.079L145.236 455.824C146.981 457.774 149.098 458.75 151.586 458.75C153.444 458.75 154.89 458.25 155.924 457.25C156.958 456.267 157.475 454.865 157.475 453.043V451.64C155.859 453.462 153.735 454.373 151.101 454.373C147.951 454.373 145.398 453.148 143.443 450.697C141.504 448.231 140.535 444.967 140.535 440.904V440.614ZM147.539 441.122C147.539 443.492 148.015 445.353 148.968 446.708C149.922 448.046 151.23 448.715 152.894 448.715C155.027 448.715 156.554 447.917 157.475 446.321V435.318C156.538 433.722 155.027 432.925 152.943 432.925C151.263 432.925 149.938 433.61 148.968 434.98C148.015 436.35 147.539 438.397 147.539 441.122Z" fill="black"/>
<path d="M182.472 454.373C178.627 454.373 175.493 453.196 173.069 450.842C170.662 448.489 169.458 445.353 169.458 441.436V440.759C169.458 438.131 169.967 435.786 170.985 433.722C172.003 431.643 173.441 430.047 175.299 428.935C177.173 427.806 179.306 427.242 181.697 427.242C185.284 427.242 188.103 428.37 190.155 430.627C192.223 432.884 193.257 436.084 193.257 440.227V443.08H176.559C176.785 444.789 177.464 446.159 178.595 447.191C179.742 448.223 181.188 448.739 182.933 448.739C185.631 448.739 187.739 447.763 189.258 445.813L192.699 449.658C191.649 451.141 190.228 452.301 188.434 453.14C186.641 453.962 184.654 454.373 182.472 454.373ZM181.673 432.9C180.283 432.9 179.152 433.368 178.28 434.303C177.424 435.238 176.874 436.576 176.632 438.317H186.374V437.761C186.342 436.213 185.922 435.02 185.114 434.182C184.306 433.328 183.159 432.9 181.673 432.9Z" fill="black"/>
<path d="M196.661 440.614C196.661 436.536 197.574 433.287 199.4 430.869C201.242 428.451 203.754 427.242 206.937 427.242C209.49 427.242 211.598 428.193 213.262 430.095V416.748H220.29V453.889H213.965L213.626 451.108C211.881 453.285 209.635 454.373 206.888 454.373C203.803 454.373 201.322 453.164 199.448 450.746C197.59 448.312 196.661 444.934 196.661 440.614ZM203.665 441.122C203.665 443.572 204.093 445.45 204.95 446.756C205.806 448.062 207.05 448.715 208.682 448.715C210.847 448.715 212.374 447.804 213.262 445.982V435.657C212.39 433.835 210.879 432.925 208.73 432.925C205.354 432.925 203.665 435.657 203.665 441.122Z" fill="black"/>
<path d="M254.775 451.229C253.046 453.325 250.655 454.373 247.602 454.373C244.791 454.373 242.642 453.567 241.155 451.955C239.685 450.343 238.934 447.981 238.901 444.87V427.726H245.905V444.628C245.905 447.352 247.149 448.715 249.637 448.715C252.012 448.715 253.644 447.892 254.533 446.248V427.726H261.561V453.889H254.969L254.775 451.229Z" fill="black"/>
<path d="M281.542 446.659C281.542 445.805 281.114 445.136 280.258 444.652C279.417 444.152 278.06 443.709 276.186 443.322C269.95 442.016 266.832 439.373 266.832 435.391C266.832 433.07 267.793 431.135 269.715 429.588C271.654 428.024 274.183 427.242 277.301 427.242C280.629 427.242 283.287 428.024 285.274 429.588C287.278 431.151 288.279 433.182 288.279 435.681H281.275C281.275 434.682 280.952 433.86 280.306 433.215C279.66 432.554 278.65 432.223 277.277 432.223C276.097 432.223 275.184 432.489 274.538 433.021C273.892 433.553 273.569 434.23 273.569 435.052C273.569 435.826 273.932 436.455 274.659 436.939C275.403 437.406 276.647 437.817 278.391 438.172C280.136 438.51 281.607 438.897 282.802 439.332C286.502 440.687 288.352 443.032 288.352 446.369C288.352 448.755 287.326 450.689 285.274 452.172C283.222 453.639 280.573 454.373 277.325 454.373C275.128 454.373 273.173 453.986 271.46 453.212C269.764 452.422 268.431 451.35 267.462 449.996C266.492 448.626 266.008 447.151 266.008 445.571H272.648C272.712 446.812 273.173 447.763 274.029 448.424C274.886 449.085 276.033 449.416 277.471 449.416C278.812 449.416 279.821 449.166 280.5 448.666C281.195 448.15 281.542 447.481 281.542 446.659Z" fill="black"/>
<path d="M305.449 454.373C301.604 454.373 298.469 453.196 296.046 450.842C293.639 448.489 292.435 445.353 292.435 441.436V440.759C292.435 438.131 292.944 435.786 293.962 433.722C294.98 431.643 296.418 430.047 298.276 428.935C300.15 427.806 302.282 427.242 304.674 427.242C308.26 427.242 311.08 428.37 313.131 430.627C315.199 432.884 316.234 436.084 316.234 440.227V443.08H299.536C299.762 444.789 300.441 446.159 301.572 447.191C302.719 448.223 304.165 448.739 305.91 448.739C308.608 448.739 310.716 447.763 312.235 445.813L315.676 449.658C314.626 451.141 313.204 452.301 311.411 453.14C309.617 453.962 307.63 454.373 305.449 454.373ZM304.649 432.9C303.26 432.9 302.129 433.368 301.256 434.303C300.4 435.238 299.851 436.576 299.608 438.317H309.351V437.761C309.319 436.213 308.898 435.02 308.091 434.182C307.283 433.328 306.136 432.9 304.649 432.9Z" fill="black"/>
<path d="M335.463 434.279C334.51 434.15 333.67 434.085 332.943 434.085C330.293 434.085 328.556 434.98 327.732 436.769V453.889H320.729V427.726H327.345L327.539 430.845C328.944 428.443 330.891 427.242 333.379 427.242C334.155 427.242 334.882 427.347 335.56 427.556L335.463 434.279Z" fill="black"/>
<path d="M353.554 446.659C353.554 445.805 353.126 445.136 352.27 444.652C351.429 444.152 350.072 443.709 348.198 443.322C341.962 442.016 338.844 439.373 338.844 435.391C338.844 433.07 339.805 431.135 341.727 429.588C343.666 428.024 346.195 427.242 349.313 427.242C352.641 427.242 355.299 428.024 357.286 429.588C359.29 431.151 360.291 433.182 360.291 435.681H353.287C353.287 434.682 352.964 433.86 352.318 433.215C351.672 432.554 350.662 432.223 349.289 432.223C348.109 432.223 347.196 432.489 346.55 433.021C345.904 433.553 345.581 434.23 345.581 435.052C345.581 435.826 345.944 436.455 346.671 436.939C347.415 437.406 348.659 437.817 350.404 438.172C352.148 438.51 353.619 438.897 354.814 439.332C358.514 440.687 360.364 443.032 360.364 446.369C360.364 448.755 359.338 450.689 357.286 452.172C355.234 453.639 352.585 454.373 349.337 454.373C347.14 454.373 345.185 453.986 343.472 453.212C341.776 452.422 340.443 451.35 339.474 449.996C338.504 448.626 338.02 447.151 338.02 445.571H344.66C344.724 446.812 345.185 447.763 346.041 448.424C346.898 449.085 348.045 449.416 349.483 449.416C350.824 449.416 351.833 449.166 352.512 448.666C353.207 448.15 353.554 447.481 353.554 446.659Z" fill="black"/>
<path d="M56.4485 556.029H52.9587V529.624H56.4485V556.029Z" fill="black"/>
<path d="M65.8724 536.406L65.9815 538.873C67.484 536.987 69.447 536.044 71.8705 536.044C76.0268 536.044 78.1231 538.383 78.1594 543.062V556.029H74.7969V543.044C74.7847 541.629 74.4576 540.584 73.8153 539.907C73.1852 539.229 72.1977 538.891 70.8527 538.891C69.7621 538.891 68.8048 539.181 67.9808 539.761C67.1569 540.342 66.5146 541.103 66.0542 542.047V556.029H62.6916V536.406H65.8724Z" fill="black"/>
<path d="M88.165 531.655V536.406H91.8365V539H88.165V551.169C88.165 551.955 88.3285 552.547 88.6557 552.946C88.9829 553.333 89.5403 553.526 90.3279 553.526C90.7157 553.526 91.2488 553.454 91.9274 553.309V556.029C91.0428 556.271 90.1825 556.392 89.3464 556.392C87.8439 556.392 86.7109 555.938 85.9475 555.032C85.1841 554.125 84.8024 552.837 84.8024 551.169V539H81.2217V536.406H84.8024V531.655H88.165Z" fill="black"/>
<path d="M105.659 539.417C105.15 539.332 104.599 539.29 104.005 539.29C101.8 539.29 100.303 540.227 99.5155 542.101V556.029H96.153V536.406H99.4247L99.4792 538.673C100.582 536.92 102.145 536.044 104.169 536.044C104.823 536.044 105.32 536.128 105.659 536.298V539.417Z" fill="black"/>
<path d="M107.885 546.036C107.885 544.114 108.261 542.385 109.012 540.85C109.776 539.314 110.83 538.129 112.175 537.295C113.532 536.461 115.077 536.044 116.81 536.044C119.488 536.044 121.651 536.969 123.299 538.818C124.959 540.668 125.789 543.129 125.789 546.2V546.435C125.789 548.346 125.419 550.062 124.68 551.586C123.953 553.097 122.905 554.276 121.535 555.122C120.178 555.969 118.615 556.392 116.846 556.392C114.18 556.392 112.017 555.467 110.357 553.617C108.709 551.767 107.885 549.319 107.885 546.272V546.036ZM111.266 546.435C111.266 548.612 111.769 550.359 112.775 551.677C113.792 552.994 115.15 553.653 116.846 553.653C118.555 553.653 119.912 552.988 120.917 551.658C121.923 550.316 122.426 548.442 122.426 546.036C122.426 543.884 121.911 542.143 120.881 540.813C119.863 539.471 118.506 538.8 116.81 538.8C115.15 538.8 113.811 539.459 112.793 540.777C111.775 542.095 111.266 543.981 111.266 546.435Z" fill="black"/>
<path d="M129.56 546.054C129.56 543.044 130.275 540.626 131.705 538.8C133.134 536.963 135.007 536.044 137.321 536.044C139.623 536.044 141.447 536.83 142.792 538.401V528.173H146.155V556.029H143.065L142.901 553.925C141.556 555.57 139.684 556.392 137.285 556.392C135.007 556.392 133.147 555.461 131.705 553.599C130.275 551.737 129.56 549.307 129.56 546.308V546.054ZM132.922 546.435C132.922 548.66 133.383 550.401 134.304 551.658C135.225 552.916 136.497 553.544 138.121 553.544C140.253 553.544 141.81 552.589 142.792 550.679V541.666C141.786 539.816 140.241 538.891 138.157 538.891C136.509 538.891 135.225 539.526 134.304 540.795C133.383 542.065 132.922 543.945 132.922 546.435Z" fill="black"/>
<path d="M163.903 554.089C162.594 555.624 160.674 556.392 158.141 556.392C156.045 556.392 154.445 555.787 153.343 554.578C152.252 553.357 151.701 551.556 151.689 549.174V536.406H155.051V549.083C155.051 552.057 156.263 553.544 158.687 553.544C161.255 553.544 162.964 552.589 163.812 550.679V536.406H167.175V556.029H163.976L163.903 554.089Z" fill="black"/>
<path d="M180.561 553.653C181.761 553.653 182.809 553.291 183.705 552.565C184.602 551.84 185.099 550.933 185.196 549.845H188.377C188.316 550.969 187.928 552.039 187.213 553.055C186.499 554.07 185.541 554.88 184.342 555.485C183.154 556.089 181.894 556.392 180.561 556.392C177.883 556.392 175.75 555.503 174.163 553.726C172.588 551.936 171.8 549.494 171.8 546.399V545.837C171.8 543.927 172.152 542.228 172.854 540.741C173.557 539.254 174.563 538.099 175.872 537.277C177.192 536.455 178.749 536.044 180.543 536.044C182.748 536.044 184.578 536.703 186.032 538.02C187.498 539.338 188.28 541.049 188.377 543.153H185.196C185.099 541.883 184.614 540.844 183.742 540.033C182.882 539.211 181.815 538.8 180.543 538.8C178.834 538.8 177.507 539.417 176.562 540.65C175.629 541.871 175.163 543.642 175.163 545.964V546.599C175.163 548.859 175.629 550.6 176.562 551.822C177.495 553.043 178.828 553.653 180.561 553.653Z" fill="black"/>
<path d="M196.183 556.029H192.82V536.406H196.183V556.029ZM192.548 531.201C192.548 530.657 192.711 530.198 193.039 529.823C193.378 529.448 193.875 529.261 194.529 529.261C195.183 529.261 195.68 529.448 196.019 529.823C196.359 530.198 196.528 530.657 196.528 531.201C196.528 531.746 196.359 532.199 196.019 532.562C195.68 532.924 195.183 533.106 194.529 533.106C193.875 533.106 193.378 532.924 193.039 532.562C192.711 532.199 192.548 531.746 192.548 531.201Z" fill="black"/>
<path d="M205.134 536.406L205.243 538.873C206.746 536.987 208.709 536.044 211.132 536.044C215.289 536.044 217.385 538.383 217.421 543.062V556.029H214.059V543.044C214.047 541.629 213.719 540.584 213.077 539.907C212.447 539.229 211.46 538.891 210.115 538.891C209.024 538.891 208.067 539.181 207.243 539.761C206.419 540.342 205.777 541.103 205.316 542.047V556.029H201.954V536.406H205.134Z" fill="black"/>
<path d="M222.065 546.054C222.065 542.996 222.774 540.565 224.192 538.764C225.609 536.95 227.487 536.044 229.826 536.044C232.225 536.044 234.097 536.89 235.443 538.583L235.606 536.406H238.678V555.558C238.678 558.096 237.921 560.097 236.406 561.56C234.903 563.023 232.88 563.755 230.335 563.755C228.917 563.755 227.53 563.453 226.173 562.848C224.816 562.243 223.78 561.415 223.065 560.363L224.81 558.35C226.251 560.128 228.015 561.016 230.099 561.016C231.735 561.016 233.007 560.557 233.916 559.638C234.837 558.719 235.297 557.425 235.297 555.757V554.07C233.952 555.618 232.116 556.392 229.79 556.392C227.487 556.392 225.621 555.467 224.192 553.617C222.774 551.767 222.065 549.246 222.065 546.054ZM225.446 546.435C225.446 548.648 225.9 550.389 226.809 551.658C227.718 552.916 228.99 553.544 230.626 553.544C232.746 553.544 234.303 552.583 235.297 550.661V541.702C234.267 539.828 232.722 538.891 230.662 538.891C229.026 538.891 227.748 539.526 226.827 540.795C225.906 542.065 225.446 543.945 225.446 546.435Z" fill="black"/>
<path d="M252.927 546.054C252.927 543.044 253.642 540.626 255.072 538.8C256.502 536.963 258.374 536.044 260.688 536.044C262.991 536.044 264.814 536.83 266.159 538.401V528.173H269.522V556.029H266.432L266.268 553.925C264.923 555.57 263.051 556.392 260.652 556.392C258.374 556.392 256.514 555.461 255.072 553.599C253.642 551.737 252.927 549.307 252.927 546.308V546.054ZM256.29 546.435C256.29 548.66 256.75 550.401 257.671 551.658C258.592 552.916 259.864 553.544 261.488 553.544C263.621 553.544 265.178 552.589 266.159 550.679V541.666C265.154 539.816 263.609 538.891 261.524 538.891C259.876 538.891 258.592 539.526 257.671 540.795C256.75 542.065 256.29 543.945 256.29 546.435Z" fill="black"/>
<path d="M281.563 551.114L286.143 536.406H289.742L281.836 559.058C280.612 562.322 278.667 563.954 276.001 563.954L275.365 563.9L274.111 563.664V560.944L275.02 561.016C276.159 561.016 277.043 560.787 277.673 560.327C278.316 559.868 278.843 559.027 279.255 557.806L280 555.811L272.984 536.406H276.656L281.563 551.114Z" fill="black"/>
<path d="M296.313 536.406L296.422 538.873C297.924 536.987 299.887 536.044 302.311 536.044C306.467 536.044 308.563 538.383 308.6 543.062V556.029H305.237V543.044C305.225 541.629 304.898 540.584 304.256 539.907C303.625 539.229 302.638 538.891 301.293 538.891C300.202 538.891 299.245 539.181 298.421 539.761C297.597 540.342 296.955 541.103 296.494 542.047V556.029H293.132V536.406H296.313Z" fill="black"/>
<path d="M326.185 556.029C325.991 555.642 325.833 554.953 325.712 553.962C324.149 555.582 322.283 556.392 320.114 556.392C318.175 556.392 316.582 555.848 315.333 554.76C314.098 553.659 313.48 552.269 313.48 550.588C313.48 548.545 314.255 546.961 315.806 545.837C317.369 544.7 319.562 544.132 322.386 544.132H325.657V542.591C325.657 541.418 325.306 540.487 324.603 539.798C323.9 539.096 322.864 538.746 321.495 538.746C320.296 538.746 319.29 539.048 318.478 539.653C317.666 540.257 317.26 540.989 317.26 541.847H313.879C313.879 540.868 314.225 539.925 314.915 539.018C315.618 538.099 316.563 537.374 317.751 536.842C318.951 536.31 320.265 536.044 321.695 536.044C323.961 536.044 325.736 536.612 327.021 537.748C328.305 538.873 328.972 540.426 329.02 542.409V551.441C329.02 553.242 329.25 554.675 329.711 555.739V556.029H326.185ZM320.605 553.472C321.659 553.472 322.658 553.2 323.604 552.656C324.549 552.112 325.233 551.404 325.657 550.534V546.508H323.022C318.902 546.508 316.842 547.711 316.842 550.117C316.842 551.169 317.193 551.991 317.896 552.583C318.599 553.176 319.502 553.472 320.605 553.472Z" fill="black"/>
<path d="M337.826 536.406L337.917 538.583C339.359 536.89 341.304 536.044 343.751 536.044C346.502 536.044 348.374 537.096 349.368 539.199C350.022 538.256 350.87 537.495 351.912 536.914C352.967 536.334 354.209 536.044 355.638 536.044C359.952 536.044 362.145 538.323 362.218 542.881V556.029H358.856V543.08C358.856 541.678 358.534 540.632 357.892 539.943C357.25 539.242 356.172 538.891 354.657 538.891C353.409 538.891 352.373 539.266 351.549 540.015C350.725 540.753 350.246 541.75 350.113 543.008V556.029H346.732V543.171C346.732 540.318 345.333 538.891 342.534 538.891C340.328 538.891 338.82 539.828 338.008 541.702V556.029H334.645V536.406H337.826Z" fill="black"/>
<path d="M371.333 556.029H367.971V536.406H371.333V556.029ZM367.698 531.201C367.698 530.657 367.861 530.198 368.189 529.823C368.528 529.448 369.025 529.261 369.679 529.261C370.333 529.261 370.83 529.448 371.17 529.823C371.509 530.198 371.678 530.657 371.678 531.201C371.678 531.746 371.509 532.199 371.17 532.562C370.83 532.924 370.333 533.106 369.679 533.106C369.025 533.106 368.528 532.924 368.189 532.562C367.861 532.199 367.698 531.746 367.698 531.201Z" fill="black"/>
<path d="M384.992 553.653C386.192 553.653 387.24 553.291 388.137 552.565C389.033 551.84 389.53 550.933 389.627 549.845H392.808C392.747 550.969 392.359 552.039 391.644 553.055C390.93 554.07 389.972 554.88 388.773 555.485C387.585 556.089 386.325 556.392 384.992 556.392C382.314 556.392 380.181 555.503 378.594 553.726C377.019 551.936 376.231 549.494 376.231 546.399V545.837C376.231 543.927 376.583 542.228 377.285 540.741C377.988 539.254 378.994 538.099 380.303 537.277C381.623 536.455 383.181 536.044 384.974 536.044C387.179 536.044 389.009 536.703 390.463 538.02C391.929 539.338 392.711 541.049 392.808 543.153H389.627C389.53 541.883 389.045 540.844 388.173 540.033C387.313 539.211 386.246 538.8 384.974 538.8C383.265 538.8 381.938 539.417 380.993 540.65C380.06 541.871 379.594 543.642 379.594 545.964V546.599C379.594 548.859 380.06 550.6 380.993 551.822C381.926 553.043 383.259 553.653 384.992 553.653Z" fill="black"/>
<path d="M60.0655 596.985C61.2652 596.985 62.3133 596.622 63.21 595.897C64.1067 595.172 64.6035 594.265 64.7004 593.177H67.8812C67.8206 594.301 67.4329 595.371 66.718 596.387C66.003 597.402 65.0458 598.212 63.8462 598.817C62.6587 599.421 61.3984 599.724 60.0655 599.724C57.3876 599.724 55.2549 598.835 53.6676 597.058C52.0923 595.268 51.3047 592.826 51.3047 589.731V589.169C51.3047 587.258 51.6561 585.56 52.3589 584.073C53.0617 582.585 54.0674 581.431 55.3761 580.609C56.6969 579.787 58.254 579.376 60.0474 579.376C62.2527 579.376 64.0824 580.034 65.5365 581.352C67.0027 582.67 67.7843 584.381 67.8812 586.485H64.7004C64.6035 585.215 64.1188 584.175 63.2463 583.365C62.386 582.543 61.3197 582.132 60.0474 582.132C58.3388 582.132 57.012 582.749 56.0668 583.982C55.1338 585.203 54.6673 586.974 54.6673 589.296V589.93C54.6673 592.191 55.1338 593.932 56.0668 595.153C56.9998 596.375 58.3328 596.985 60.0655 596.985Z" fill="black"/>
<path d="M71.1435 589.368C71.1435 587.446 71.5191 585.717 72.2704 584.181C73.0338 582.646 74.088 581.461 75.433 580.627C76.7902 579.793 78.3351 579.376 80.0679 579.376C82.7458 579.376 84.9088 580.3 86.5568 582.15C88.2168 584 89.0469 586.46 89.0469 589.531V589.767C89.0469 591.677 88.6773 593.394 87.9381 594.918C87.2111 596.429 86.1629 597.608 84.7937 598.454C83.4365 599.3 81.8734 599.724 80.1043 599.724C77.4384 599.724 75.2755 598.799 73.6154 596.949C71.9674 595.099 71.1435 592.651 71.1435 589.604V589.368ZM74.5242 589.767C74.5242 591.943 75.0271 593.69 76.0328 595.008C77.0507 596.326 78.4078 596.985 80.1043 596.985C81.8128 596.985 83.1699 596.32 84.1757 594.99C85.1814 593.648 85.6843 591.774 85.6843 589.368C85.6843 587.216 85.1693 585.475 84.1393 584.145C83.1215 582.803 81.7643 582.132 80.0679 582.132C78.4078 582.132 77.0689 582.791 76.051 584.109C75.0331 585.427 74.5242 587.313 74.5242 589.767Z" fill="black"/>
<path d="M96.8168 579.738L96.9258 582.205C98.4284 580.319 100.391 579.376 102.815 579.376C106.971 579.376 109.067 581.715 109.104 586.394V599.361H105.741V586.376C105.729 584.961 105.402 583.915 104.76 583.238C104.13 582.561 103.142 582.223 101.797 582.223C100.706 582.223 99.7492 582.513 98.9252 583.093C98.1012 583.674 97.459 584.435 96.9985 585.378V599.361H93.636V579.738H96.8168Z" fill="black"/>
<path d="M119.109 574.987V579.738H122.781V582.332H119.109V594.501C119.109 595.286 119.273 595.879 119.6 596.278C119.927 596.665 120.485 596.858 121.272 596.858C121.66 596.858 122.193 596.786 122.872 596.641V599.361C121.987 599.603 121.127 599.724 120.291 599.724C118.788 599.724 117.655 599.27 116.892 598.363C116.128 597.457 115.747 596.169 115.747 594.501V582.332H112.166V579.738H115.747V574.987H119.109Z" fill="black"/>
<path d="M135.258 599.724C132.593 599.724 130.424 598.853 128.751 597.112C127.079 595.359 126.243 593.019 126.243 590.094V589.477C126.243 587.53 126.613 585.795 127.352 584.272C128.103 582.737 129.145 581.54 130.478 580.681C131.823 579.811 133.277 579.376 134.84 579.376C137.397 579.376 139.384 580.216 140.802 581.896C142.22 583.577 142.929 585.983 142.929 589.114V590.511H129.606C129.654 592.445 130.218 594.011 131.296 595.208C132.387 596.393 133.768 596.985 135.44 596.985C136.628 596.985 137.633 596.743 138.457 596.26C139.281 595.776 140.002 595.135 140.62 594.337L142.674 595.933C141.026 598.46 138.554 599.724 135.258 599.724ZM134.84 582.132C133.483 582.132 132.344 582.628 131.423 583.619C130.502 584.599 129.933 585.977 129.715 587.754H139.566V587.5C139.469 585.795 139.009 584.478 138.185 583.547C137.361 582.604 136.246 582.132 134.84 582.132Z" fill="black"/>
<path d="M150.39 579.738L150.499 582.205C152.001 580.319 153.964 579.376 156.388 579.376C160.544 579.376 162.64 581.715 162.677 586.394V599.361H159.314V586.376C159.302 584.961 158.975 583.915 158.332 583.238C157.702 582.561 156.715 582.223 155.37 582.223C154.279 582.223 153.322 582.513 152.498 583.093C151.674 583.674 151.032 584.435 150.571 585.378V599.361H147.209V579.738H150.39Z" fill="black"/>
<path d="M172.682 574.987V579.738H176.354V582.332H172.682V594.501C172.682 595.286 172.846 595.879 173.173 596.278C173.5 596.665 174.057 596.858 174.845 596.858C175.233 596.858 175.766 596.786 176.445 596.641V599.361C175.56 599.603 174.7 599.724 173.864 599.724C172.361 599.724 171.228 599.27 170.465 598.363C169.701 597.457 169.32 596.169 169.32 594.501V582.332H165.739V579.738H169.32V574.987H172.682Z" fill="black"/>
<path d="M193.438 579.738L193.529 581.914C194.971 580.222 196.916 579.376 199.364 579.376C202.114 579.376 203.987 580.427 204.98 582.531C205.635 581.588 206.483 580.826 207.525 580.246C208.579 579.666 209.821 579.376 211.251 579.376C215.565 579.376 217.758 581.655 217.831 586.213V599.361H214.468V586.412C214.468 585.01 214.147 583.964 213.505 583.275C212.863 582.573 211.784 582.223 210.269 582.223C209.021 582.223 207.985 582.598 207.161 583.347C206.337 584.085 205.859 585.082 205.725 586.34V599.361H202.345V586.503C202.345 583.649 200.945 582.223 198.146 582.223C195.941 582.223 194.432 583.16 193.62 585.034V599.361H190.258V579.738H193.438Z" fill="black"/>
<path d="M235.434 599.361C235.24 598.974 235.082 598.285 234.961 597.293C233.398 598.914 231.532 599.724 229.363 599.724C227.424 599.724 225.831 599.18 224.583 598.091C223.347 596.991 222.729 595.601 222.729 593.92C222.729 591.877 223.504 590.293 225.055 589.169C226.618 588.032 228.812 587.464 231.635 587.464H234.907V585.922C234.907 584.75 234.555 583.819 233.852 583.13C233.15 582.428 232.114 582.078 230.744 582.078C229.545 582.078 228.539 582.38 227.727 582.984C226.915 583.589 226.509 584.32 226.509 585.179H223.129C223.129 584.2 223.474 583.257 224.165 582.35C224.867 581.431 225.813 580.705 227 580.173C228.2 579.641 229.514 579.376 230.944 579.376C233.21 579.376 234.985 579.944 236.27 581.08C237.554 582.205 238.221 583.758 238.269 585.741V594.773C238.269 596.574 238.499 598.007 238.96 599.071V599.361H235.434ZM229.854 596.804C230.908 596.804 231.908 596.532 232.853 595.988C233.798 595.444 234.483 594.736 234.907 593.866V589.84H232.271C228.151 589.84 226.091 591.043 226.091 593.449C226.091 594.501 226.443 595.323 227.146 595.915C227.848 596.508 228.751 596.804 229.854 596.804Z" fill="black"/>
<path d="M247.093 579.738L247.202 582.205C248.705 580.319 250.668 579.376 253.091 579.376C257.248 579.376 259.344 581.715 259.38 586.394V599.361H256.018V586.376C256.006 584.961 255.678 583.915 255.036 583.238C254.406 582.561 253.419 582.223 252.074 582.223C250.983 582.223 250.026 582.513 249.202 583.093C248.378 583.674 247.736 584.435 247.275 585.378V599.361H243.913V579.738H247.093Z" fill="black"/>
<path d="M276.965 599.361C276.771 598.974 276.614 598.285 276.493 597.293C274.93 598.914 273.064 599.724 270.895 599.724C268.956 599.724 267.362 599.18 266.114 598.091C264.878 596.991 264.26 595.601 264.26 593.92C264.26 591.877 265.036 590.293 266.587 589.169C268.15 588.032 270.343 587.464 273.167 587.464H276.438V585.922C276.438 584.75 276.087 583.819 275.384 583.13C274.681 582.428 273.645 582.078 272.276 582.078C271.076 582.078 270.071 582.38 269.259 582.984C268.447 583.589 268.041 584.32 268.041 585.179H264.66C264.66 584.2 265.005 583.257 265.696 582.35C266.399 581.431 267.344 580.705 268.532 580.173C269.731 579.641 271.046 579.376 272.476 579.376C274.742 579.376 276.517 579.944 277.801 581.08C279.086 582.205 279.752 583.758 279.801 585.741V594.773C279.801 596.574 280.031 598.007 280.491 599.071V599.361H276.965ZM271.385 596.804C272.439 596.804 273.439 596.532 274.384 595.988C275.329 595.444 276.014 594.736 276.438 593.866V589.84H273.803C269.683 589.84 267.623 591.043 267.623 593.449C267.623 594.501 267.974 595.323 268.677 595.915C269.38 596.508 270.283 596.804 271.385 596.804Z" fill="black"/>
<path d="M284.644 589.386C284.644 586.327 285.353 583.897 286.771 582.096C288.189 580.282 290.067 579.376 292.405 579.376C294.805 579.376 296.677 580.222 298.022 581.914L298.185 579.738H301.257V598.889C301.257 601.428 300.5 603.429 298.985 604.892C297.483 606.355 295.459 607.087 292.914 607.087C291.497 607.087 290.109 606.784 288.752 606.18C287.395 605.575 286.359 604.747 285.644 603.695L287.389 601.682C288.831 603.459 290.594 604.348 292.678 604.348C294.314 604.348 295.586 603.889 296.495 602.97C297.416 602.051 297.876 600.757 297.876 599.089V597.402C296.531 598.95 294.696 599.724 292.369 599.724C290.067 599.724 288.201 598.799 286.771 596.949C285.353 595.099 284.644 592.578 284.644 589.386ZM288.025 589.767C288.025 591.98 288.479 593.721 289.388 594.99C290.297 596.248 291.569 596.876 293.205 596.876C295.326 596.876 296.883 595.915 297.876 593.993V585.034C296.846 583.16 295.302 582.223 293.242 582.223C291.606 582.223 290.327 582.858 289.406 584.127C288.486 585.397 288.025 587.277 288.025 589.767Z" fill="black"/>
<path d="M314.88 599.724C312.214 599.724 310.045 598.853 308.373 597.112C306.701 595.359 305.864 593.019 305.864 590.094V589.477C305.864 587.53 306.234 585.795 306.973 584.272C307.724 582.737 308.767 581.54 310.099 580.681C311.444 579.811 312.899 579.376 314.462 579.376C317.018 579.376 319.006 580.216 320.423 581.896C321.841 583.577 322.55 585.983 322.55 589.114V590.511H309.227C309.275 592.445 309.839 594.011 310.917 595.208C312.008 596.393 313.389 596.985 315.062 596.985C316.249 596.985 317.255 596.743 318.079 596.26C318.903 595.776 319.624 595.135 320.242 594.337L322.296 595.933C320.648 598.46 318.176 599.724 314.88 599.724ZM314.462 582.132C313.105 582.132 311.966 582.628 311.045 583.619C310.124 584.599 309.554 585.977 309.336 587.754H319.188V587.5C319.091 585.795 318.63 584.478 317.806 583.547C316.982 582.604 315.867 582.132 314.462 582.132Z" fill="black"/>
<path d="M329.993 579.738L330.084 581.914C331.526 580.222 333.47 579.376 335.918 579.376C338.669 579.376 340.541 580.427 341.535 582.531C342.189 581.588 343.037 580.826 344.079 580.246C345.133 579.666 346.375 579.376 347.805 579.376C352.119 579.376 354.312 581.655 354.385 586.213V599.361H351.022V586.412C351.022 585.01 350.701 583.964 350.059 583.275C349.417 582.573 348.338 582.223 346.824 582.223C345.576 582.223 344.54 582.598 343.716 583.347C342.892 584.085 342.413 585.082 342.28 586.34V599.361H338.899V586.503C338.899 583.649 337.5 582.223 334.7 582.223C332.495 582.223 330.986 583.16 330.175 585.034V599.361H326.812V579.738H329.993Z" fill="black"/>
<path d="M368.008 599.724C365.342 599.724 363.173 598.853 361.501 597.112C359.828 595.359 358.992 593.019 358.992 590.094V589.477C358.992 587.53 359.362 585.795 360.101 584.272C360.852 582.737 361.894 581.54 363.227 580.681C364.572 579.811 366.026 579.376 367.59 579.376C370.146 579.376 372.134 580.216 373.551 581.896C374.969 583.577 375.678 585.983 375.678 589.114V590.511H362.355C362.403 592.445 362.967 594.011 364.045 595.208C365.136 596.393 366.517 596.985 368.189 596.985C369.377 596.985 370.383 596.743 371.207 596.26C372.031 595.776 372.752 595.135 373.37 594.337L375.423 595.933C373.775 598.46 371.304 599.724 368.008 599.724ZM367.59 582.132C366.232 582.132 365.093 582.628 364.172 583.619C363.252 584.599 362.682 585.977 362.464 587.754H372.315V587.5C372.218 585.795 371.758 584.478 370.934 583.547C370.11 582.604 368.995 582.132 367.59 582.132Z" fill="black"/>
<path d="M383.139 579.738L383.248 582.205C384.75 580.319 386.713 579.376 389.137 579.376C393.293 579.376 395.389 581.715 395.426 586.394V599.361H392.063V586.376C392.051 584.961 391.724 583.915 391.082 583.238C390.452 582.561 389.464 582.223 388.119 582.223C387.028 582.223 386.071 582.513 385.247 583.093C384.423 583.674 383.781 584.435 383.321 585.378V599.361H379.958V579.738H383.139Z" fill="black"/>
<path d="M405.431 574.987V579.738H409.103V582.332H405.431V594.501C405.431 595.286 405.595 595.879 405.922 596.278C406.249 596.665 406.807 596.858 407.594 596.858C407.982 596.858 408.515 596.786 409.194 596.641V599.361C408.309 599.603 407.449 599.724 406.613 599.724C405.11 599.724 403.977 599.27 403.214 598.363C402.45 597.457 402.069 596.169 402.069 594.501V582.332H398.488V579.738H402.069V574.987H405.431Z" fill="black"/>
<g filter="url(#filter0_d)">
<path d="M567.674 257.23C567.674 246.185 576.628 237.23 587.674 237.23H1044C1055.05 237.23 1064 246.185 1064 257.23V1145.77C1064 1156.82 1055.05 1165.77 1044 1165.77H587.674C576.628 1165.77 567.674 1156.82 567.674 1145.77V257.23Z" fill="#FFB800"/>
</g>
<rect x="592.346" y="258.887" width="446.694" height="879.017" rx="16" fill="#08061E"/>
<path d="M667.763 382.701H660.492L646.339 359.536V382.701H639.069V347.494H646.339L660.517 370.707V347.494H667.763V382.701Z" fill="white"/>
<path d="M673.058 369.378C673.058 366.782 673.558 364.469 674.56 362.438C675.562 360.407 677 358.835 678.874 357.722C680.764 356.61 682.953 356.054 685.442 356.054C688.98 356.054 691.864 357.134 694.093 359.294C696.339 361.454 697.591 364.388 697.85 368.096L697.898 369.885C697.898 373.899 696.775 377.123 694.53 379.558C692.284 381.976 689.271 383.185 685.49 383.185C681.709 383.185 678.688 381.976 676.426 379.558C674.18 377.14 673.058 373.851 673.058 369.692V369.378ZM680.061 369.885C680.061 372.368 680.53 374.27 681.467 375.592C682.404 376.898 683.745 377.551 685.49 377.551C687.186 377.551 688.511 376.906 689.464 375.616C690.418 374.31 690.894 372.231 690.894 369.378C690.894 366.943 690.418 365.057 689.464 363.719C688.511 362.381 687.17 361.712 685.442 361.712C683.729 361.712 682.404 362.381 681.467 363.719C680.53 365.041 680.061 367.096 680.061 369.885Z" fill="white"/>
<path d="M711.093 350.106V356.538H715.577V361.664H711.093V374.721C711.093 375.689 711.279 376.382 711.651 376.801C712.022 377.22 712.733 377.43 713.784 377.43C714.559 377.43 715.246 377.373 715.843 377.26V382.556C714.47 382.975 713.056 383.185 711.602 383.185C706.691 383.185 704.187 380.71 704.09 375.761V361.664H700.261V356.538H704.09V350.106H711.093Z" fill="white"/>
<path d="M727.367 382.701H720.339V356.538H727.367V382.701ZM719.927 349.767C719.927 348.719 720.274 347.857 720.969 347.18C721.68 346.503 722.641 346.164 723.853 346.164C725.048 346.164 726.001 346.503 726.712 347.18C727.423 347.857 727.779 348.719 727.779 349.767C727.779 350.831 727.415 351.701 726.688 352.379C725.977 353.056 725.032 353.394 723.853 353.394C722.673 353.394 721.72 353.056 720.993 352.379C720.282 351.701 719.927 350.831 719.927 349.767Z" fill="white"/>
<path d="M744.561 377.551C745.853 377.551 746.903 377.196 747.711 376.487C748.519 375.777 748.939 374.834 748.971 373.658H755.539C755.523 375.431 755.038 377.059 754.085 378.542C753.132 380.009 751.823 381.154 750.159 381.976C748.511 382.782 746.685 383.185 744.682 383.185C740.934 383.185 737.977 382 735.812 379.63C733.647 377.244 732.564 373.956 732.564 369.764V369.305C732.564 365.275 733.639 362.059 735.788 359.657C737.936 357.255 740.885 356.054 744.633 356.054C747.913 356.054 750.539 356.989 752.51 358.859C754.497 360.713 755.507 363.187 755.539 366.282H748.971C748.939 364.928 748.519 363.832 747.711 362.994C746.903 362.139 745.837 361.712 744.512 361.712C742.88 361.712 741.644 362.309 740.804 363.502C739.98 364.678 739.568 366.597 739.568 369.257V369.982C739.568 372.674 739.98 374.609 740.804 375.785C741.628 376.962 742.88 377.551 744.561 377.551Z" fill="white"/>
<path d="M772.103 383.185C768.258 383.185 765.123 382.008 762.7 379.654C760.293 377.301 759.089 374.165 759.089 370.248V369.571C759.089 366.943 759.598 364.598 760.616 362.534C761.634 360.455 763.071 358.859 764.929 357.747C766.804 356.618 768.936 356.054 771.327 356.054C774.914 356.054 777.733 357.182 779.785 359.439C781.853 361.696 782.887 364.896 782.887 369.039V371.892H766.19C766.416 373.601 767.094 374.971 768.225 376.003C769.372 377.035 770.818 377.551 772.563 377.551C775.262 377.551 777.37 376.575 778.889 374.625L782.33 378.469C781.28 379.953 779.858 381.113 778.065 381.952C776.271 382.774 774.284 383.185 772.103 383.185ZM771.303 361.712C769.914 361.712 768.783 362.18 767.91 363.115C767.054 364.05 766.505 365.388 766.262 367.129H776.005V366.573C775.972 365.025 775.552 363.832 774.745 362.994C773.937 362.139 772.79 361.712 771.303 361.712Z" fill="white"/>
<path d="M808.624 350.106V356.538H813.107V361.664H808.624V374.721C808.624 375.689 808.809 376.382 809.181 376.801C809.553 377.22 810.264 377.43 811.314 377.43C812.089 377.43 812.776 377.373 813.374 377.26V382.556C812 382.975 810.587 383.185 809.133 383.185C804.221 383.185 801.717 380.71 801.62 375.761V361.664H797.791V356.538H801.62V350.106H808.624Z" fill="white"/>
<path d="M815.688 369.378C815.688 366.782 816.188 364.469 817.19 362.438C818.192 360.407 819.63 358.835 821.504 357.722C823.394 356.61 825.583 356.054 828.072 356.054C831.61 356.054 834.494 357.134 836.723 359.294C838.969 361.454 840.221 364.388 840.48 368.096L840.528 369.885C840.528 373.899 839.405 377.123 837.16 379.558C834.914 381.976 831.901 383.185 828.12 383.185C824.339 383.185 821.318 381.976 819.056 379.558C816.81 377.14 815.688 373.851 815.688 369.692V369.378ZM822.691 369.885C822.691 372.368 823.16 374.27 824.097 375.592C825.034 376.898 826.375 377.551 828.12 377.551C829.816 377.551 831.141 376.906 832.095 375.616C833.048 374.31 833.524 372.231 833.524 369.378C833.524 366.943 833.048 365.057 832.095 363.719C831.141 362.381 829.8 361.712 828.072 361.712C826.359 361.712 825.034 362.381 824.097 363.719C823.16 365.041 822.691 367.096 822.691 369.885Z" fill="white"/>
<path d="M662.237 437.954C662.237 442.145 661.341 445.418 659.547 447.771C657.754 450.109 655.25 451.278 652.034 451.278C649.191 451.278 646.921 450.189 645.224 448.013L644.909 450.794H638.608V413.652H645.612V426.976C647.228 425.09 649.352 424.147 651.986 424.147C655.185 424.147 657.689 425.324 659.499 427.677C661.324 430.015 662.237 433.311 662.237 437.567V437.954ZM655.233 437.446C655.233 434.802 654.813 432.876 653.973 431.667C653.133 430.442 651.881 429.829 650.217 429.829C647.987 429.829 646.452 430.74 645.612 432.562V442.887C646.469 444.725 648.02 445.644 650.265 445.644C652.527 445.644 654.014 444.531 654.724 442.307C655.064 441.243 655.233 439.623 655.233 437.446Z" fill="white"/>
<path d="M681.806 431.183C680.853 431.054 680.013 430.99 679.286 430.99C676.636 430.99 674.899 431.885 674.075 433.674V450.794H667.072V424.63H673.688L673.882 427.75C675.287 425.348 677.234 424.147 679.722 424.147C680.498 424.147 681.225 424.252 681.903 424.461L681.806 431.183Z" fill="white"/>
<path d="M693.087 450.794H686.059V424.63H693.087V450.794ZM685.647 417.86C685.647 416.812 685.994 415.95 686.689 415.273C687.4 414.595 688.361 414.257 689.573 414.257C690.769 414.257 691.722 414.595 692.433 415.273C693.144 415.95 693.499 416.812 693.499 417.86C693.499 418.924 693.136 419.794 692.409 420.471C691.698 421.148 690.752 421.487 689.573 421.487C688.394 421.487 687.44 421.148 686.713 420.471C686.002 419.794 685.647 418.924 685.647 417.86Z" fill="white"/>
<path d="M698.285 437.519C698.285 433.44 699.198 430.192 701.023 427.774C702.865 425.356 705.378 424.147 708.56 424.147C711.113 424.147 713.222 425.098 714.886 427V413.652H721.914V450.794H715.589L715.249 448.013C713.504 450.189 711.259 451.278 708.512 451.278C705.426 451.278 702.946 450.069 701.072 447.651C699.214 445.216 698.285 441.839 698.285 437.519ZM705.289 438.027C705.289 440.477 705.717 442.355 706.573 443.661C707.43 444.966 708.674 445.619 710.305 445.619C712.47 445.619 713.997 444.709 714.886 442.887V432.562C714.013 430.74 712.503 429.829 710.354 429.829C706.977 429.829 705.289 432.562 705.289 438.027Z" fill="white"/>
<path d="M726.821 437.519C726.821 433.505 727.774 430.273 729.681 427.822C731.603 425.372 734.188 424.147 737.436 424.147C740.312 424.147 742.549 425.13 744.149 427.097L744.439 424.63H750.789V449.923C750.789 452.213 750.264 454.203 749.214 455.896C748.18 457.589 746.718 458.878 744.827 459.765C742.937 460.652 740.723 461.095 738.187 461.095C736.264 461.095 734.39 460.708 732.564 459.934C730.739 459.177 729.357 458.193 728.42 456.984L731.522 452.728C733.267 454.679 735.384 455.654 737.872 455.654C739.73 455.654 741.176 455.155 742.21 454.155C743.244 453.172 743.761 451.769 743.761 449.948V448.545C742.145 450.367 740.021 451.278 737.387 451.278C734.237 451.278 731.684 450.052 729.729 447.602C727.79 445.136 726.821 441.871 726.821 437.809V437.519ZM733.825 438.027C733.825 440.396 734.301 442.258 735.255 443.612C736.208 444.95 737.516 445.619 739.181 445.619C741.313 445.619 742.84 444.821 743.761 443.225V432.223C742.824 430.627 741.313 429.829 739.229 429.829C737.549 429.829 736.224 430.514 735.255 431.885C734.301 433.255 733.825 435.302 733.825 438.027Z" fill="white"/>
<path d="M768.759 451.278C764.913 451.278 761.779 450.101 759.355 447.747C756.948 445.394 755.744 442.258 755.744 438.341V437.664C755.744 435.036 756.253 432.691 757.271 430.627C758.289 428.548 759.727 426.952 761.585 425.84C763.459 424.711 765.592 424.147 767.983 424.147C771.57 424.147 774.389 425.275 776.441 427.532C778.509 429.789 779.543 432.989 779.543 437.132V439.985H762.845C763.071 441.694 763.75 443.064 764.881 444.096C766.028 445.128 767.474 445.644 769.219 445.644C771.917 445.644 774.026 444.668 775.544 442.718L778.986 446.562C777.935 448.045 776.514 449.206 774.72 450.044C772.927 450.867 770.94 451.278 768.759 451.278ZM767.959 429.805C766.569 429.805 765.438 430.273 764.566 431.208C763.71 432.143 763.16 433.481 762.918 435.222H772.66V434.665C772.628 433.118 772.208 431.925 771.4 431.087C770.592 430.232 769.445 429.805 767.959 429.805Z" fill="white"/>
<path d="M782.947 437.519C782.947 433.44 783.86 430.192 785.686 427.774C787.528 425.356 790.04 424.147 793.223 424.147C795.776 424.147 797.884 425.098 799.548 427V413.652H806.576V450.794H800.251L799.912 448.013C798.167 450.189 795.921 451.278 793.175 451.278C790.089 451.278 787.609 450.069 785.734 447.651C783.876 445.216 782.947 441.839 782.947 437.519ZM789.951 438.027C789.951 440.477 790.379 442.355 791.236 443.661C792.092 444.966 793.336 445.619 794.968 445.619C797.133 445.619 798.66 444.709 799.548 442.887V432.562C798.676 430.74 797.165 429.829 795.016 429.829C791.64 429.829 789.951 432.562 789.951 438.027Z" fill="white"/>
<path d="M841.061 448.134C839.333 450.23 836.941 451.278 833.888 451.278C831.077 451.278 828.928 450.472 827.441 448.86C825.971 447.247 825.22 444.886 825.188 441.775V424.63H832.191V441.533C832.191 444.257 833.436 445.619 835.924 445.619C838.299 445.619 839.93 444.797 840.819 443.153V424.63H847.847V450.794H841.255L841.061 448.134Z" fill="white"/>
<path d="M867.828 443.564C867.828 442.71 867.4 442.041 866.544 441.557C865.704 441.057 864.346 440.614 862.472 440.227C856.236 438.921 853.118 436.278 853.118 432.296C853.118 429.974 854.079 428.04 856.002 426.492C857.94 424.929 860.469 424.147 863.587 424.147C866.915 424.147 869.573 424.929 871.56 426.492C873.564 428.056 874.565 430.087 874.565 432.586H867.562C867.562 431.586 867.238 430.764 866.592 430.119C865.946 429.459 864.936 429.128 863.563 429.128C862.383 429.128 861.471 429.394 860.824 429.926C860.178 430.458 859.855 431.135 859.855 431.957C859.855 432.731 860.218 433.36 860.945 433.843C861.689 434.311 862.933 434.722 864.678 435.077C866.423 435.415 867.893 435.802 869.088 436.237C872.788 437.591 874.638 439.937 874.638 443.274C874.638 445.66 873.612 447.594 871.56 449.077C869.508 450.544 866.859 451.278 863.611 451.278C861.414 451.278 859.459 450.891 857.746 450.117C856.05 449.327 854.717 448.255 853.748 446.901C852.778 445.531 852.294 444.056 852.294 442.476H858.934C858.999 443.717 859.459 444.668 860.315 445.329C861.172 445.99 862.319 446.321 863.757 446.321C865.098 446.321 866.107 446.071 866.786 445.571C867.481 445.055 867.828 444.386 867.828 443.564Z" fill="white"/>
<path d="M891.735 451.278C887.89 451.278 884.756 450.101 882.332 447.747C879.925 445.394 878.721 442.258 878.721 438.341V437.664C878.721 435.036 879.23 432.691 880.248 430.627C881.266 428.548 882.704 426.952 884.562 425.84C886.436 424.711 888.569 424.147 890.96 424.147C894.546 424.147 897.366 425.275 899.418 427.532C901.486 429.789 902.52 432.989 902.52 437.132V439.985H885.822C886.048 441.694 886.727 443.064 887.858 444.096C889.005 445.128 890.451 445.644 892.196 445.644C894.894 445.644 897.002 444.668 898.521 442.718L901.962 446.562C900.912 448.045 899.49 449.206 897.697 450.044C895.904 450.867 893.916 451.278 891.735 451.278ZM890.935 429.805C889.546 429.805 888.415 430.273 887.543 431.208C886.686 432.143 886.137 433.481 885.895 435.222H895.637V434.665C895.605 433.118 895.185 431.925 894.377 431.087C893.569 430.232 892.422 429.805 890.935 429.805Z" fill="white"/>
<path d="M921.749 431.183C920.796 431.054 919.956 430.99 919.229 430.99C916.579 430.99 914.843 431.885 914.019 433.674V450.794H907.015V424.63H913.631L913.825 427.75C915.23 425.348 917.177 424.147 919.665 424.147C920.441 424.147 921.168 424.252 921.846 424.461L921.749 431.183Z" fill="white"/>
<path d="M939.84 443.564C939.84 442.71 939.412 442.041 938.556 441.557C937.716 441.057 936.358 440.614 934.484 440.227C928.248 438.921 925.13 436.278 925.13 432.296C925.13 429.974 926.091 428.04 928.014 426.492C929.952 424.929 932.481 424.147 935.599 424.147C938.927 424.147 941.585 424.929 943.572 426.492C945.576 428.056 946.577 430.087 946.577 432.586H939.574C939.574 431.586 939.25 430.764 938.604 430.119C937.958 429.459 936.948 429.128 935.575 429.128C934.395 429.128 933.483 429.394 932.836 429.926C932.19 430.458 931.867 431.135 931.867 431.957C931.867 432.731 932.23 433.36 932.957 433.843C933.701 434.311 934.945 434.722 936.69 435.077C938.435 435.415 939.905 435.802 941.1 436.237C944.8 437.591 946.65 439.937 946.65 443.274C946.65 445.66 945.624 447.594 943.572 449.077C941.52 450.544 938.871 451.278 935.623 451.278C933.426 451.278 931.471 450.891 929.758 450.117C928.062 449.327 926.729 448.255 925.76 446.901C924.79 445.531 924.306 444.056 924.306 442.476H930.946C931.011 443.717 931.471 444.668 932.327 445.329C933.184 445.99 934.331 446.321 935.769 446.321C937.11 446.321 938.119 446.071 938.798 445.571C939.493 445.055 939.84 444.386 939.84 443.564Z" fill="white"/>
<path d="M642.735 552.933H639.245V526.528H642.735V552.933Z" fill="white"/>
<path d="M652.159 533.311L652.268 535.777C653.77 533.891 655.733 532.948 658.157 532.948C662.313 532.948 664.409 535.287 664.446 539.966V552.933H661.083V539.948C661.071 538.534 660.744 537.488 660.101 536.811C659.471 536.134 658.484 535.795 657.139 535.795C656.048 535.795 655.091 536.085 654.267 536.666C653.443 537.246 652.801 538.008 652.34 538.951V552.933H648.978V533.311H652.159Z" fill="white"/>
<path d="M674.451 528.559V533.311H678.123V535.904H674.451V548.073C674.451 548.859 674.615 549.451 674.942 549.85C675.269 550.237 675.826 550.431 676.614 550.431C677.002 550.431 677.535 550.358 678.214 550.213V552.933C677.329 553.175 676.469 553.296 675.633 553.296C674.13 553.296 672.997 552.843 672.234 551.936C671.47 551.029 671.089 549.741 671.089 548.073V535.904H667.508V533.311H671.089V528.559H674.451Z" fill="white"/>
<path d="M691.945 536.321C691.436 536.237 690.885 536.194 690.291 536.194C688.086 536.194 686.589 537.131 685.802 539.005V552.933H682.439V533.311H685.711L685.765 535.578C686.868 533.825 688.431 532.948 690.455 532.948C691.109 532.948 691.606 533.033 691.945 533.202V536.321Z" fill="white"/>
<path d="M694.171 542.941C694.171 541.018 694.547 539.289 695.298 537.754C696.062 536.218 697.116 535.034 698.461 534.199C699.818 533.365 701.363 532.948 703.096 532.948C705.774 532.948 707.937 533.873 709.585 535.723C711.245 537.573 712.075 540.033 712.075 543.104V543.34C712.075 545.25 711.705 546.967 710.966 548.49C710.239 550.001 709.191 551.18 707.822 552.027C706.464 552.873 704.901 553.296 703.132 553.296C700.466 553.296 698.303 552.371 696.643 550.521C694.995 548.671 694.171 546.223 694.171 543.176V542.941ZM697.552 543.34C697.552 545.516 698.055 547.263 699.061 548.581C700.079 549.899 701.436 550.558 703.132 550.558C704.841 550.558 706.198 549.893 707.204 548.563C708.209 547.221 708.712 545.347 708.712 542.941C708.712 540.789 708.197 539.048 707.167 537.718C706.149 536.376 704.792 535.705 703.096 535.705C701.436 535.705 700.097 536.363 699.079 537.681C698.061 538.999 697.552 540.885 697.552 543.34Z" fill="white"/>
<path d="M715.846 542.959C715.846 539.948 716.561 537.53 717.991 535.705C719.421 533.867 721.293 532.948 723.607 532.948C725.909 532.948 727.733 533.734 729.078 535.306V525.077H732.441V552.933H729.351L729.187 550.83C727.842 552.474 725.97 553.296 723.571 553.296C721.293 553.296 719.433 552.365 717.991 550.503C716.561 548.641 715.846 546.211 715.846 543.213V542.959ZM719.209 543.34C719.209 545.564 719.669 547.305 720.59 548.563C721.511 549.82 722.783 550.449 724.407 550.449C726.54 550.449 728.097 549.494 729.078 547.583V538.57C728.072 536.72 726.527 535.795 724.443 535.795C722.795 535.795 721.511 536.43 720.59 537.699C719.669 538.969 719.209 540.849 719.209 543.34Z" fill="white"/>
<path d="M750.189 550.993C748.881 552.528 746.96 553.296 744.427 553.296C742.331 553.296 740.732 552.692 739.629 551.482C738.538 550.261 737.987 548.46 737.975 546.078V533.311H741.337V545.987C741.337 548.962 742.549 550.449 744.973 550.449C747.542 550.449 749.25 549.494 750.098 547.583V533.311H753.461V552.933H750.262L750.189 550.993Z" fill="white"/>
<path d="M766.847 550.558C768.047 550.558 769.095 550.195 769.992 549.469C770.888 548.744 771.385 547.837 771.482 546.749H774.663C774.602 547.874 774.215 548.944 773.5 549.959C772.785 550.975 771.827 551.785 770.628 552.389C769.44 552.994 768.18 553.296 766.847 553.296C764.169 553.296 762.037 552.407 760.449 550.63C758.874 548.841 758.086 546.398 758.086 543.303V542.741C758.086 540.831 758.438 539.132 759.141 537.645C759.843 536.158 760.849 535.003 762.158 534.181C763.479 533.359 765.036 532.948 766.829 532.948C769.034 532.948 770.864 533.607 772.318 534.925C773.784 536.243 774.566 537.953 774.663 540.057H771.482C771.385 538.788 770.9 537.748 770.028 536.938C769.168 536.116 768.101 535.705 766.829 535.705C765.12 535.705 763.794 536.321 762.848 537.554C761.915 538.776 761.449 540.547 761.449 542.868V543.503C761.449 545.764 761.915 547.505 762.848 548.726C763.781 549.947 765.114 550.558 766.847 550.558Z" fill="white"/>
<path d="M782.469 552.933H779.107V533.311H782.469V552.933ZM778.834 528.106C778.834 527.562 778.997 527.102 779.325 526.727C779.664 526.353 780.161 526.165 780.815 526.165C781.469 526.165 781.966 526.353 782.306 526.727C782.645 527.102 782.814 527.562 782.814 528.106C782.814 528.65 782.645 529.103 782.306 529.466C781.966 529.829 781.469 530.01 780.815 530.01C780.161 530.01 779.664 529.829 779.325 529.466C778.997 529.103 778.834 528.65 778.834 528.106Z" fill="white"/>
<path d="M791.42 533.311L791.53 535.777C793.032 533.891 794.995 532.948 797.419 532.948C801.575 532.948 803.671 535.287 803.707 539.966V552.933H800.345V539.948C800.333 538.534 800.006 537.488 799.363 536.811C798.733 536.134 797.746 535.795 796.401 535.795C795.31 535.795 794.353 536.085 793.529 536.666C792.705 537.246 792.063 538.008 791.602 538.951V552.933H788.24V533.311H791.42Z" fill="white"/>
<path d="M808.351 542.959C808.351 539.9 809.06 537.47 810.478 535.668C811.895 533.855 813.774 532.948 816.112 532.948C818.511 532.948 820.384 533.794 821.729 535.487L821.892 533.311H824.964V552.462C824.964 555.001 824.207 557.002 822.692 558.465C821.189 559.928 819.166 560.659 816.621 560.659C815.203 560.659 813.816 560.357 812.459 559.752C811.102 559.148 810.066 558.32 809.351 557.268L811.096 555.255C812.538 557.032 814.301 557.921 816.385 557.921C818.021 557.921 819.293 557.461 820.202 556.542C821.123 555.623 821.583 554.33 821.583 552.661V550.975C820.238 552.522 818.402 553.296 816.076 553.296C813.774 553.296 811.908 552.371 810.478 550.521C809.06 548.671 808.351 546.151 808.351 542.959ZM811.732 543.34C811.732 545.552 812.186 547.293 813.095 548.563C814.004 549.82 815.276 550.449 816.912 550.449C819.033 550.449 820.59 549.488 821.583 547.565V538.606C820.553 536.732 819.008 535.795 816.948 535.795C815.312 535.795 814.034 536.43 813.113 537.699C812.192 538.969 811.732 540.849 811.732 543.34Z" fill="white"/>
<path d="M839.213 542.959C839.213 539.948 839.928 537.53 841.358 535.705C842.788 533.867 844.66 532.948 846.974 532.948C849.277 532.948 851.1 533.734 852.445 535.306V525.077H855.808V552.933H852.718L852.554 550.83C851.209 552.474 849.337 553.296 846.938 553.296C844.66 553.296 842.8 552.365 841.358 550.503C839.928 548.641 839.213 546.211 839.213 543.213V542.959ZM842.576 543.34C842.576 545.564 843.036 547.305 843.957 548.563C844.878 549.82 846.15 550.449 847.774 550.449C849.907 550.449 851.464 549.494 852.445 547.583V538.57C851.44 536.72 849.895 535.795 847.811 535.795C846.163 535.795 844.878 536.43 843.957 537.699C843.036 538.969 842.576 540.849 842.576 543.34Z" fill="white"/>
<path d="M867.849 548.019L872.43 533.311H876.028L868.122 555.962C866.898 559.226 864.953 560.859 862.287 560.859L861.651 560.804L860.397 560.568V557.848L861.306 557.921C862.445 557.921 863.329 557.691 863.96 557.231C864.602 556.772 865.129 555.932 865.541 554.711L866.286 552.716L859.27 533.311H862.942L867.849 548.019Z" fill="white"/>
<path d="M882.599 533.311L882.708 535.777C884.21 533.891 886.173 532.948 888.597 532.948C892.753 532.948 894.849 535.287 894.886 539.966V552.933H891.523V539.948C891.511 538.534 891.184 537.488 890.542 536.811C889.912 536.134 888.924 535.795 887.579 535.795C886.488 535.795 885.531 536.085 884.707 536.666C883.883 537.246 883.241 538.008 882.78 538.951V552.933H879.418V533.311H882.599Z" fill="white"/>
<path d="M912.471 552.933C912.277 552.546 912.119 551.857 911.998 550.866C910.435 552.486 908.569 553.296 906.4 553.296C904.461 553.296 902.868 552.752 901.62 551.664C900.384 550.564 899.766 549.173 899.766 547.493C899.766 545.449 900.541 543.866 902.092 542.741C903.655 541.605 905.849 541.036 908.672 541.036H911.944V539.495C911.944 538.322 911.592 537.391 910.889 536.702C910.187 536.001 909.151 535.65 907.781 535.65C906.582 535.65 905.576 535.952 904.764 536.557C903.952 537.161 903.546 537.893 903.546 538.751H900.166C900.166 537.772 900.511 536.829 901.202 535.922C901.904 535.003 902.85 534.278 904.037 533.746C905.237 533.214 906.551 532.948 907.981 532.948C910.247 532.948 912.022 533.516 913.307 534.653C914.591 535.777 915.258 537.331 915.306 539.314V548.345C915.306 550.146 915.536 551.579 915.997 552.643V552.933H912.471ZM906.891 550.376C907.945 550.376 908.945 550.104 909.89 549.56C910.835 549.016 911.519 548.309 911.944 547.438V543.412H909.308C905.188 543.412 903.128 544.615 903.128 547.021C903.128 548.073 903.48 548.895 904.182 549.488C904.885 550.08 905.788 550.376 906.891 550.376Z" fill="white"/>
<path d="M924.112 533.311L924.203 535.487C925.645 533.794 927.59 532.948 930.037 532.948C932.788 532.948 934.66 534 935.654 536.104C936.308 535.161 937.156 534.399 938.198 533.818C939.253 533.238 940.495 532.948 941.925 532.948C946.238 532.948 948.432 535.227 948.504 539.785V552.933H945.142V539.985C945.142 538.582 944.821 537.536 944.178 536.847C943.536 536.146 942.458 535.795 940.943 535.795C939.695 535.795 938.659 536.17 937.835 536.92C937.011 537.657 936.532 538.655 936.399 539.912V552.933H933.018V540.075C933.018 537.222 931.619 535.795 928.82 535.795C926.614 535.795 925.106 536.732 924.294 538.606V552.933H920.931V533.311H924.112Z" fill="white"/>
<path d="M957.619 552.933H954.257V533.311H957.619V552.933ZM953.984 528.106C953.984 527.562 954.148 527.102 954.475 526.727C954.814 526.353 955.311 526.165 955.965 526.165C956.62 526.165 957.116 526.353 957.456 526.727C957.795 527.102 957.965 527.562 957.965 528.106C957.965 528.65 957.795 529.103 957.456 529.466C957.116 529.829 956.62 530.01 955.965 530.01C955.311 530.01 954.814 529.829 954.475 529.466C954.148 529.103 953.984 528.65 953.984 528.106Z" fill="white"/>
<path d="M971.278 550.558C972.478 550.558 973.526 550.195 974.423 549.469C975.319 548.744 975.816 547.837 975.913 546.749H979.094C979.033 547.874 978.646 548.944 977.931 549.959C977.216 550.975 976.258 551.785 975.059 552.389C973.871 552.994 972.611 553.296 971.278 553.296C968.6 553.296 966.468 552.407 964.88 550.63C963.305 548.841 962.517 546.398 962.517 543.303V542.741C962.517 540.831 962.869 539.132 963.572 537.645C964.274 536.158 965.28 535.003 966.589 534.181C967.91 533.359 969.467 532.948 971.26 532.948C973.465 532.948 975.295 533.607 976.749 534.925C978.215 536.243 978.997 537.953 979.094 540.057H975.913C975.816 538.788 975.331 537.748 974.459 536.938C973.599 536.116 972.532 535.705 971.26 535.705C969.551 535.705 968.225 536.321 967.279 537.554C966.346 538.776 965.88 540.547 965.88 542.868V543.503C965.88 545.764 966.346 547.505 967.279 548.726C968.212 549.947 969.545 550.558 971.278 550.558Z" fill="white"/>
<path d="M646.352 593.889C647.551 593.889 648.599 593.527 649.496 592.801C650.393 592.076 650.89 591.169 650.987 590.081H654.167C654.107 591.205 653.719 592.275 653.004 593.291C652.289 594.307 651.332 595.117 650.132 595.721C648.945 596.326 647.685 596.628 646.352 596.628C643.674 596.628 641.541 595.739 639.954 593.962C638.378 592.173 637.591 589.73 637.591 586.635V586.073C637.591 584.163 637.942 582.464 638.645 580.977C639.348 579.49 640.354 578.335 641.662 577.513C642.983 576.691 644.54 576.28 646.333 576.28C648.539 576.28 650.369 576.939 651.823 578.257C653.289 579.574 654.07 581.285 654.167 583.389H650.987C650.89 582.119 650.405 581.08 649.532 580.27C648.672 579.447 647.606 579.036 646.333 579.036C644.625 579.036 643.298 579.653 642.353 580.886C641.42 582.107 640.953 583.879 640.953 586.2V586.835C640.953 589.096 641.42 590.837 642.353 592.058C643.286 593.279 644.619 593.889 646.352 593.889Z" fill="white"/>
<path d="M657.43 586.272C657.43 584.35 657.805 582.621 658.557 581.086C659.32 579.55 660.374 578.365 661.719 577.531C663.076 576.697 664.621 576.28 666.354 576.28C669.032 576.28 671.195 577.205 672.843 579.055C674.503 580.904 675.333 583.365 675.333 586.436V586.671C675.333 588.582 674.963 590.299 674.224 591.822C673.497 593.333 672.449 594.512 671.08 595.358C669.723 596.205 668.16 596.628 666.39 596.628C663.725 596.628 661.562 595.703 659.902 593.853C658.254 592.003 657.43 589.555 657.43 586.508V586.272ZM660.81 586.671C660.81 588.848 661.313 590.595 662.319 591.913C663.337 593.23 664.694 593.889 666.39 593.889C668.099 593.889 669.456 593.224 670.462 591.894C671.468 590.552 671.97 588.678 671.97 586.272C671.97 584.12 671.455 582.379 670.425 581.049C669.408 579.707 668.05 579.036 666.354 579.036C664.694 579.036 663.355 579.695 662.337 581.013C661.319 582.331 660.81 584.217 660.81 586.671Z" fill="white"/>
<path d="M683.103 576.643L683.212 579.109C684.715 577.223 686.678 576.28 689.101 576.28C693.257 576.28 695.354 578.619 695.39 583.298V596.265H692.027V583.28C692.015 581.866 691.688 580.82 691.046 580.143C690.416 579.466 689.428 579.127 688.083 579.127C686.993 579.127 686.035 579.417 685.211 579.998C684.387 580.578 683.745 581.34 683.285 582.283V596.265H679.922V576.643H683.103Z" fill="white"/>
<path d="M705.395 571.891V576.643H709.067V579.236H705.395V591.405C705.395 592.191 705.559 592.783 705.886 593.182C706.213 593.569 706.771 593.762 707.558 593.762C707.946 593.762 708.479 593.69 709.158 593.545V596.265C708.273 596.507 707.413 596.628 706.577 596.628C705.074 596.628 703.941 596.174 703.178 595.268C702.415 594.361 702.033 593.073 702.033 591.405V579.236H698.452V576.643H702.033V571.891H705.395Z" fill="white"/>
<path d="M721.544 596.628C718.879 596.628 716.71 595.757 715.037 594.016C713.365 592.263 712.529 589.924 712.529 586.998V586.381C712.529 584.435 712.899 582.7 713.638 581.176C714.389 579.641 715.431 578.444 716.764 577.586C718.109 576.715 719.563 576.28 721.126 576.28C723.683 576.28 725.67 577.12 727.088 578.801C728.506 580.481 729.215 582.887 729.215 586.019V587.415H715.892C715.94 589.349 716.504 590.915 717.582 592.112C718.673 593.297 720.054 593.889 721.726 593.889C722.914 593.889 723.919 593.648 724.743 593.164C725.567 592.68 726.288 592.04 726.906 591.242L728.96 592.838C727.312 595.364 724.84 596.628 721.544 596.628ZM721.126 579.036C719.769 579.036 718.63 579.532 717.709 580.524C716.788 581.503 716.219 582.881 716.001 584.658H725.852V584.405C725.755 582.7 725.295 581.382 724.471 580.451C723.647 579.508 722.532 579.036 721.126 579.036Z" fill="white"/>
<path d="M736.676 576.643L736.785 579.109C738.287 577.223 740.25 576.28 742.674 576.28C746.83 576.28 748.926 578.619 748.963 583.298V596.265H745.6V583.28C745.588 581.866 745.261 580.82 744.619 580.143C743.988 579.466 743.001 579.127 741.656 579.127C740.565 579.127 739.608 579.417 738.784 579.998C737.96 580.578 737.318 581.34 736.857 582.283V596.265H733.495V576.643H736.676Z" fill="white"/>
<path d="M758.968 571.891V576.643H762.64V579.236H758.968V591.405C758.968 592.191 759.132 592.783 759.459 593.182C759.786 593.569 760.344 593.762 761.131 593.762C761.519 593.762 762.052 593.69 762.731 593.545V596.265C761.846 596.507 760.986 596.628 760.15 596.628C758.647 596.628 757.514 596.174 756.751 595.268C755.987 594.361 755.606 593.073 755.606 591.405V579.236H752.025V576.643H755.606V571.891H758.968Z" fill="white"/>
<path d="M779.725 576.643L779.815 578.819C781.257 577.126 783.202 576.28 785.65 576.28C788.401 576.28 790.273 577.332 791.266 579.435C791.921 578.492 792.769 577.731 793.811 577.15C794.865 576.57 796.107 576.28 797.537 576.28C801.851 576.28 804.044 578.559 804.117 583.117V596.265H800.754V583.316C800.754 581.914 800.433 580.868 799.791 580.179C799.149 579.478 798.07 579.127 796.556 579.127C795.307 579.127 794.271 579.502 793.447 580.251C792.623 580.989 792.145 581.986 792.012 583.244V596.265H788.631V583.407C788.631 580.554 787.231 579.127 784.432 579.127C782.227 579.127 780.718 580.064 779.906 581.938V596.265H776.544V576.643H779.725Z" fill="white"/>
<path d="M821.72 596.265C821.526 595.878 821.368 595.189 821.247 594.198C819.684 595.818 817.818 596.628 815.649 596.628C813.71 596.628 812.117 596.084 810.869 594.996C809.633 593.895 809.015 592.505 809.015 590.825C809.015 588.781 809.79 587.197 811.341 586.073C812.905 584.936 815.098 584.368 817.921 584.368H821.193V582.827C821.193 581.654 820.841 580.723 820.139 580.034C819.436 579.333 818.4 578.982 817.03 578.982C815.831 578.982 814.825 579.284 814.013 579.889C813.201 580.493 812.795 581.225 812.795 582.083H809.415C809.415 581.104 809.76 580.161 810.451 579.254C811.154 578.335 812.099 577.61 813.286 577.078C814.486 576.546 815.801 576.28 817.23 576.28C819.496 576.28 821.272 576.848 822.556 577.985C823.84 579.109 824.507 580.663 824.555 582.645V591.677C824.555 593.478 824.786 594.911 825.246 595.975V596.265H821.72ZM816.14 593.708C817.194 593.708 818.194 593.436 819.139 592.892C820.084 592.348 820.769 591.641 821.193 590.77V586.744H818.557C814.437 586.744 812.377 587.947 812.377 590.353C812.377 591.405 812.729 592.227 813.432 592.819C814.134 593.412 815.037 593.708 816.14 593.708Z" fill="white"/>
<path d="M833.379 576.643L833.489 579.109C834.991 577.223 836.954 576.28 839.378 576.28C843.534 576.28 845.63 578.619 845.666 583.298V596.265H842.304V583.28C842.292 581.866 841.965 580.82 841.322 580.143C840.692 579.466 839.705 579.127 838.36 579.127C837.269 579.127 836.312 579.417 835.488 579.998C834.664 580.578 834.022 581.34 833.561 582.283V596.265H830.199V576.643H833.379Z" fill="white"/>
<path d="M863.251 596.265C863.058 595.878 862.9 595.189 862.779 594.198C861.216 595.818 859.35 596.628 857.181 596.628C855.242 596.628 853.648 596.084 852.4 594.996C851.164 593.895 850.546 592.505 850.546 590.825C850.546 588.781 851.322 587.197 852.873 586.073C854.436 584.936 856.629 584.368 859.453 584.368H862.724V582.827C862.724 581.654 862.373 580.723 861.67 580.034C860.967 579.333 859.931 578.982 858.562 578.982C857.362 578.982 856.357 579.284 855.545 579.889C854.733 580.493 854.327 581.225 854.327 582.083H850.946C850.946 581.104 851.292 580.161 851.982 579.254C852.685 578.335 853.63 577.61 854.818 577.078C856.017 576.546 857.332 576.28 858.762 576.28C861.028 576.28 862.803 576.848 864.088 577.985C865.372 579.109 866.038 580.663 866.087 582.645V591.677C866.087 593.478 866.317 594.911 866.778 595.975V596.265H863.251ZM857.671 593.708C858.726 593.708 859.725 593.436 860.67 592.892C861.616 592.348 862.3 591.641 862.724 590.77V586.744H860.089C855.969 586.744 853.909 587.947 853.909 590.353C853.909 591.405 854.26 592.227 854.963 592.819C855.666 593.412 856.569 593.708 857.671 593.708Z" fill="white"/>
<path d="M870.93 586.291C870.93 583.232 871.639 580.802 873.057 579C874.475 577.187 876.353 576.28 878.692 576.28C881.091 576.28 882.963 577.126 884.308 578.819L884.472 576.643H887.543V595.794C887.543 598.333 886.786 600.334 885.271 601.796C883.769 603.259 881.745 603.991 879.201 603.991C877.783 603.991 876.395 603.689 875.038 603.084C873.681 602.48 872.645 601.651 871.93 600.6L873.675 598.587C875.117 600.364 876.88 601.252 878.964 601.252C880.6 601.252 881.872 600.793 882.781 599.874C883.702 598.955 884.163 597.662 884.163 595.993V594.307C882.818 595.854 880.982 596.628 878.655 596.628C876.353 596.628 874.487 595.703 873.057 593.853C871.639 592.003 870.93 589.482 870.93 586.291ZM874.311 586.671C874.311 588.884 874.766 590.625 875.674 591.894C876.583 593.152 877.856 593.781 879.491 593.781C881.612 593.781 883.169 592.819 884.163 590.897V581.938C883.133 580.064 881.588 579.127 879.528 579.127C877.892 579.127 876.613 579.762 875.693 581.031C874.772 582.301 874.311 584.181 874.311 586.671Z" fill="white"/>
<path d="M901.166 596.628C898.5 596.628 896.331 595.757 894.659 594.016C892.987 592.263 892.151 589.924 892.151 586.998V586.381C892.151 584.435 892.52 582.7 893.259 581.176C894.011 579.641 895.053 578.444 896.386 577.586C897.731 576.715 899.185 576.28 900.748 576.28C903.305 576.28 905.292 577.12 906.71 578.801C908.127 580.481 908.836 582.887 908.836 586.019V587.415H895.513C895.562 589.349 896.125 590.915 897.204 592.112C898.294 593.297 899.675 593.889 901.348 593.889C902.535 593.889 903.541 593.648 904.365 593.164C905.189 592.68 905.91 592.04 906.528 591.242L908.582 592.838C906.934 595.364 904.462 596.628 901.166 596.628ZM900.748 579.036C899.391 579.036 898.252 579.532 897.331 580.524C896.41 581.503 895.84 582.881 895.622 584.658H905.474V584.405C905.377 582.7 904.916 581.382 904.092 580.451C903.268 579.508 902.153 579.036 900.748 579.036Z" fill="white"/>
<path d="M916.279 576.643L916.37 578.819C917.812 577.126 919.757 576.28 922.204 576.28C924.955 576.28 926.827 577.332 927.821 579.435C928.475 578.492 929.323 577.731 930.365 577.15C931.42 576.57 932.662 576.28 934.091 576.28C938.405 576.28 940.598 578.559 940.671 583.117V596.265H937.309V583.316C937.309 581.914 936.987 580.868 936.345 580.179C935.703 579.478 934.625 579.127 933.11 579.127C931.862 579.127 930.826 579.502 930.002 580.251C929.178 580.989 928.699 581.986 928.566 583.244V596.265H925.185V583.407C925.185 580.554 923.786 579.127 920.987 579.127C918.781 579.127 917.273 580.064 916.461 581.938V596.265H913.098V576.643H916.279Z" fill="white"/>
<path d="M954.294 596.628C951.628 596.628 949.459 595.757 947.787 594.016C946.115 592.263 945.278 589.924 945.278 586.998V586.381C945.278 584.435 945.648 582.7 946.387 581.176C947.138 579.641 948.181 578.444 949.513 577.586C950.858 576.715 952.313 576.28 953.876 576.28C956.432 576.28 958.42 577.12 959.837 578.801C961.255 580.481 961.964 582.887 961.964 586.019V587.415H948.641C948.689 589.349 949.253 590.915 950.331 592.112C951.422 593.297 952.803 593.889 954.476 593.889C955.663 593.889 956.669 593.648 957.493 593.164C958.317 592.68 959.038 592.04 959.656 591.242L961.71 592.838C960.062 595.364 957.59 596.628 954.294 596.628ZM953.876 579.036C952.519 579.036 951.38 579.532 950.459 580.524C949.538 581.503 948.968 582.881 948.75 584.658H958.601V584.405C958.505 582.7 958.044 581.382 957.22 580.451C956.396 579.508 955.281 579.036 953.876 579.036Z" fill="white"/>
<path d="M969.425 576.643L969.534 579.109C971.037 577.223 973 576.28 975.423 576.28C979.579 576.28 981.676 578.619 981.712 583.298V596.265H978.349V583.28C978.337 581.866 978.01 580.82 977.368 580.143C976.738 579.466 975.75 579.127 974.405 579.127C973.315 579.127 972.357 579.417 971.533 579.998C970.709 580.578 970.067 581.34 969.607 582.283V596.265H966.244V576.643H969.425Z" fill="white"/>
<path d="M991.717 571.891V576.643H995.389V579.236H991.717V591.405C991.717 592.191 991.881 592.783 992.208 593.182C992.535 593.569 993.093 593.762 993.88 593.762C994.268 593.762 994.801 593.69 995.48 593.545V596.265C994.595 596.507 993.735 596.628 992.899 596.628C991.396 596.628 990.263 596.174 989.5 595.268C988.737 594.361 988.355 593.073 988.355 591.405V579.236H984.774V576.643H988.355V571.891H991.717Z" fill="white"/>
<rect x="347.429" y="639.597" width="368.389" height="117.893" rx="32" fill="#0038FF"/>
<path d="M475.97 682.929V703.516C475.97 706.788 474.917 709.383 472.81 711.302C470.718 713.206 467.926 714.158 464.434 714.158C460.9 714.158 458.094 713.22 456.016 711.344C453.938 709.454 452.898 706.837 452.898 703.494V682.929H458.242V703.537C458.242 705.596 458.765 707.169 459.811 708.255C460.858 709.341 462.398 709.884 464.434 709.884C468.562 709.884 470.626 707.712 470.626 703.367V682.929H475.97Z" fill="white"/>
<path d="M487.082 702.288V713.735H481.717V682.929H493.528C496.977 682.929 499.713 683.824 501.734 685.616C503.77 687.407 504.788 689.777 504.788 692.725C504.788 695.743 503.791 698.092 501.798 699.771C499.819 701.449 497.041 702.288 493.464 702.288H487.082ZM487.082 697.993H493.528C495.436 697.993 496.893 697.549 497.896 696.66C498.9 695.758 499.402 694.46 499.402 692.767C499.402 691.103 498.893 689.777 497.875 688.79C496.857 687.788 495.458 687.273 493.676 687.245H487.082V697.993Z" fill="white"/>
<path d="M509.496 713.735V682.929H518.614C521.342 682.929 523.76 683.535 525.866 684.748C527.987 685.961 529.627 687.682 530.786 689.911C531.945 692.14 532.525 694.693 532.525 697.57V699.115C532.525 702.034 531.938 704.602 530.765 706.816C529.605 709.031 527.944 710.738 525.781 711.937C523.633 713.135 521.166 713.735 518.381 713.735H509.496ZM514.861 687.245V709.461H518.359C521.173 709.461 523.329 708.586 524.827 706.837C526.34 705.074 527.11 702.549 527.138 699.263V697.549C527.138 694.206 526.41 691.653 524.954 689.89C523.498 688.127 521.385 687.245 518.614 687.245H514.861Z" fill="white"/>
<path d="M554.684 706.562H542.724L540.222 713.735H534.645L546.308 682.929H551.122L562.806 713.735H557.208L554.684 706.562ZM544.23 702.246H553.179L548.704 689.467L544.23 702.246Z" fill="white"/>
<path d="M586.089 687.245H576.462V713.735H571.14V687.245H561.597V682.929H586.089V687.245Z" fill="white"/>
<path d="M608.207 699.982H595.526V709.461H610.348V713.735H590.161V682.929H610.2V687.245H595.526V695.751H608.207V699.982Z" fill="white"/>
<mask id="path-10-inside-1" fill="white">
<path fill-rule="evenodd" clip-rule="evenodd" d="M647.003 703.261C646.336 702.877 645.503 703.357 645.503 704.126L645.503 832.102C645.503 832.976 646.547 833.43 647.187 832.835L686.552 796.203L707.73 832.803C710.067 836.842 715.24 838.228 719.284 835.899L724.485 832.903C728.529 830.573 729.912 825.41 727.575 821.371L706.396 784.77L757.876 769.071C758.712 768.815 758.84 767.686 758.082 767.25L647.003 703.261Z"/>
</mask>
<path fill-rule="evenodd" clip-rule="evenodd" d="M647.003 703.261C646.336 702.877 645.503 703.357 645.503 704.126L645.503 832.102C645.503 832.976 646.547 833.43 647.187 832.835L686.552 796.203L707.73 832.803C710.067 836.842 715.24 838.228 719.284 835.899L724.485 832.903C728.529 830.573 729.912 825.41 727.575 821.371L706.396 784.77L757.876 769.071C758.712 768.815 758.84 767.686 758.082 767.25L647.003 703.261Z" fill="white"/>
<path d="M645.503 704.126L647.505 704.128L647.505 704.128L645.503 704.126ZM647.003 703.261L648.003 701.531L648.003 701.531L647.003 703.261ZM645.503 832.102L643.501 832.1L643.501 832.1L645.503 832.102ZM647.187 832.835L648.552 834.297L648.552 834.297L647.187 832.835ZM686.552 796.203L688.285 795.204L687.026 793.029L685.186 794.74L686.552 796.203ZM707.73 832.803L705.997 833.801L707.73 832.803ZM706.396 784.77L705.81 782.859L703.404 783.593L704.663 785.769L706.396 784.77ZM757.876 769.071L758.462 770.982L757.876 769.071ZM758.082 767.25L757.083 768.98L757.083 768.98L758.082 767.25ZM647.505 704.128C647.505 704.896 646.672 705.376 646.004 704.992L648.003 701.531C646.001 700.378 643.501 701.818 643.501 704.124L647.505 704.128ZM647.505 832.104L647.505 704.128L643.501 704.124L643.501 832.1L647.505 832.104ZM645.821 831.372C646.461 830.777 647.505 831.231 647.505 832.104L643.501 832.1C643.501 834.721 646.633 836.083 648.552 834.297L645.821 831.372ZM685.186 794.74L645.821 831.372L648.552 834.297L687.917 797.665L685.186 794.74ZM709.463 831.805L688.285 795.204L684.819 797.201L705.997 833.801L709.463 831.805ZM718.282 834.168C715.196 835.946 711.247 834.888 709.463 831.805L705.997 833.801C708.888 838.797 715.285 840.511 720.286 837.63L718.282 834.168ZM723.483 831.172L718.282 834.168L720.286 837.63L725.487 834.634L723.483 831.172ZM725.842 822.369C727.626 825.453 726.57 829.394 723.483 831.172L725.487 834.634C730.488 831.753 732.198 825.368 729.308 820.373L725.842 822.369ZM704.663 785.769L725.842 822.369L729.308 820.373L708.129 783.772L704.663 785.769ZM757.289 767.159L705.81 782.859L706.983 786.682L758.462 770.982L757.289 767.159ZM757.083 768.98C756.325 768.543 756.453 767.415 757.289 767.159L758.462 770.982C760.972 770.216 761.356 766.829 759.081 765.519L757.083 768.98ZM646.004 704.992L757.083 768.98L759.081 765.519L648.003 701.531L646.004 704.992Z" fill="black" mask="url(#path-10-inside-1)"/>
<path opacity="0.6" d="M798.913 209.41C799.694 210.191 800.961 210.191 801.742 209.41L814.47 196.682C815.251 195.901 815.251 194.634 814.47 193.853C813.688 193.072 812.422 193.072 811.641 193.853L800.327 205.167L789.014 193.853C788.233 193.072 786.966 193.072 786.185 193.853C785.404 194.634 785.404 195.901 786.185 196.682L798.913 209.41ZM234.653 308.418V306.428H230.653V308.418H234.653ZM234.653 302.449V298.47H230.653V302.449H234.653ZM234.653 294.491V290.512H230.653V294.491H234.653ZM234.653 286.532V282.553H230.653V286.532H234.653ZM234.653 278.574V274.595H230.653V278.574H234.653ZM234.653 270.616V266.637H230.653V270.616H234.653ZM234.653 262.657V258.678H230.653V262.657H234.653ZM234.653 254.699V250.72H230.653V254.699H234.653ZM234.653 246.741V242.761H230.653V246.741H234.653ZM234.653 238.782V234.803H230.653V238.782H234.653ZM234.653 230.824V226.845H230.653V230.824H234.653ZM234.653 222.866V218.886H230.653V222.866H234.653ZM234.653 214.907V210.928H230.653V214.907H234.653ZM234.653 206.949V202.97H230.653V206.949H234.653ZM234.653 198.99V195.011H230.653V198.99H234.653ZM234.653 191.032V187.053H230.653V191.032H234.653ZM234.653 183.074V179.094H230.653V183.074H234.653ZM234.653 175.115V171.136H230.653V175.115H234.653ZM234.653 167.157V163.178H230.653V167.157H234.653ZM234.653 159.199V155.219H230.653V159.199H234.653ZM234.653 151.24V147.261H230.653V151.24H234.653ZM234.653 143.282V139.303H230.653V143.282H234.653ZM234.653 135.323V131.344H230.653V135.323H234.653ZM234.653 127.365V123.386H230.653V127.365H234.653ZM234.653 119.407V115.427H230.653V119.407H234.653ZM234.653 111.448V107.469H230.653V111.448H234.653ZM234.653 103.49V99.5107H230.653V103.49H234.653ZM234.653 95.5316V91.5524H230.653V95.5316H234.653ZM234.653 87.5732V83.594H230.653V87.5732H234.653ZM234.653 79.6148V75.6356H230.653V79.6148H234.653ZM234.653 71.6564V67.6772H230.653V71.6564H234.653ZM234.653 63.6981V59.7189H230.653V63.6981H234.653ZM234.653 55.7397V51.7605H230.653V55.7397H234.653ZM234.653 47.7813V43.8021H230.653V47.7813H234.653ZM234.653 39.8229V35.8438H230.653V39.8229H234.653ZM234.653 31.8646V27.8854H230.653V31.8646H234.653ZM234.653 23.9062V19.927H230.653V23.9062H234.653ZM234.653 15.9478V11.9686H230.653V15.9478H234.653ZM234.653 7.98944V6H230.653V7.98944H234.653ZM234.653 6C234.653 5.72513 234.708 5.468 234.804 5.23496L231.109 3.70274C230.815 4.41296 230.653 5.19014 230.653 6H234.653ZM235.888 4.15097C236.121 4.05434 236.378 4 236.653 4V0C235.843 0 235.066 0.161554 234.356 0.456071L235.888 4.15097ZM236.653 4H238.652V0H236.653V4ZM242.65 4H246.648V0H242.65V4ZM250.645 4H254.643V0H250.645V4ZM258.641 4H262.638V0H258.641V4ZM266.636 4H270.634V0H266.636V4ZM274.631 4H278.629V0H274.631V4ZM282.627 4H286.624V0H282.627V4ZM290.622 4H294.62V0H290.622V4ZM298.617 4H302.615V0H298.617V4ZM306.613 4H310.61V0H306.613V4ZM314.608 4H318.606V0H314.608V4ZM322.603 4H326.601V0H322.603V4ZM330.599 4H334.596V0H330.599V4ZM338.594 4H342.592V0H338.594V4ZM346.589 4H350.587V0H346.589V4ZM354.585 4H358.582V0H354.585V4ZM362.58 4H366.578V0H362.58V4ZM370.575 4H374.573V0H370.575V4ZM378.571 4H382.568V0H378.571V4ZM386.566 4H390.564V0H386.566V4ZM394.561 4H398.559V0H394.561V4ZM402.557 4H406.554V0H402.557V4ZM410.552 4H414.55V0H410.552V4ZM418.547 4H422.545V0H418.547V4ZM426.543 4H430.54V0H426.543V4ZM434.538 4H438.536V0H434.538V4ZM442.533 4H446.531V0H442.533V4ZM450.529 4H454.526V0H450.529V4ZM458.524 4H462.522V0H458.524V4ZM466.519 4H470.517V0H466.519V4ZM474.515 4H478.512V0H474.515V4ZM482.51 4H486.508V0H482.51V4ZM490.505 4H494.503V0H490.505V4ZM498.501 4H502.498V0H498.501V4ZM506.496 4H510.494V0H506.496V4ZM514.491 4H518.489V0H514.491V4ZM522.487 4H526.484V0H522.487V4ZM530.482 4H534.48V0H530.482V4ZM538.477 4H542.475V0H538.477V4ZM546.473 4H550.471V0H546.473V4ZM554.468 4H558.466V0H554.468V4ZM562.464 4H566.461V0H562.464V4ZM570.459 4H574.457V0H570.459V4ZM578.454 4H582.452V0H578.454V4ZM586.45 4H590.447V0H586.45V4ZM594.445 4H598.443V0H594.445V4ZM602.44 4H606.438V0H602.44V4ZM610.436 4H614.433V0H610.436V4ZM618.431 4H622.429V0H618.431V4ZM626.426 4H630.424V0H626.426V4ZM634.422 4H638.42V0H634.422V4ZM642.417 4H646.415V0H642.417V4ZM650.413 4H654.41V0H650.413V4ZM658.408 4H662.406V0H658.408V4ZM666.403 4H670.401V0H666.403V4ZM674.399 4H678.396V0H674.399V4ZM682.394 4H686.392V0H682.394V4ZM690.389 4H694.387V0H690.389V4ZM698.385 4H702.382V0H698.385V4ZM706.38 4H710.378V0H706.38V4ZM714.375 4H718.373V0H714.375V4ZM722.371 4H726.368V0H722.371V4ZM730.366 4H734.364V0H730.366V4ZM738.362 4H742.359V0H738.362V4ZM746.357 4H750.355V0H746.357V4ZM754.352 4H758.35V0H754.352V4ZM762.348 4H766.345V0H762.348V4ZM770.343 4H774.341V0H770.343V4ZM778.338 4H782.336V0H778.338V4ZM786.334 4H790.331V0H786.334V4ZM794.329 4H796.327V0H794.329V4ZM796.327 4C796.602 4 796.859 4.05434 797.092 4.15097L798.625 0.456071C797.914 0.161553 797.137 0 796.327 0V4ZM798.176 5.23495C798.273 5.468 798.327 5.72513 798.327 6H802.327C802.327 5.19014 802.166 4.41297 801.871 3.70275L798.176 5.23495ZM798.327 6V8.01995H802.327V6H798.327ZM798.327 12.0599V16.0998H802.327V12.0599H798.327ZM798.327 20.1397V24.1796H802.327V20.1397H798.327ZM798.327 28.2195V32.2594H802.327V28.2195H798.327ZM798.327 36.2993V40.3392H802.327V36.2993H798.327ZM798.327 44.3791V48.419H802.327V44.3791H798.327ZM798.327 52.4589V56.4988H802.327V52.4589H798.327ZM798.327 60.5387V64.5786H802.327V60.5387H798.327ZM798.327 68.6185V72.6584H802.327V68.6185H798.327ZM798.327 76.6983V80.7383H802.327V76.6983H798.327ZM798.327 84.7782V88.8181H802.327V84.7782H798.327ZM798.327 92.858V96.8979H802.327V92.858H798.327ZM798.327 100.938V104.978H802.327V100.938H798.327ZM798.327 109.018V113.058H802.327V109.018H798.327ZM798.327 117.097V121.137H802.327V117.097H798.327ZM798.327 125.177V129.217H802.327V125.177H798.327ZM798.327 133.257V137.297H802.327V133.257H798.327ZM798.327 141.337V145.377H802.327V141.337H798.327ZM798.327 149.417V153.457H802.327V149.417H798.327ZM798.327 157.497V161.536H802.327V157.497H798.327ZM798.327 165.576V169.616H802.327V165.576H798.327ZM798.327 173.656V177.696H802.327V173.656H798.327ZM798.327 181.736V185.776H802.327V181.736H798.327ZM798.327 189.816V193.856H802.327V189.816H798.327ZM798.327 197.896V201.935H802.327V197.896H798.327ZM798.327 205.975V207.995H802.327V205.975H798.327Z" fill="white"/>
<path opacity="0.6" d="M798.913 1205.97C799.694 1205.19 800.961 1205.19 801.742 1205.97L814.47 1218.7C815.251 1219.48 815.251 1220.75 814.47 1221.53C813.688 1222.31 812.422 1222.31 811.641 1221.53L800.327 1210.21L789.014 1221.53C788.233 1222.31 786.966 1222.31 786.185 1221.53C785.404 1220.75 785.404 1219.48 786.185 1218.7L798.913 1205.97ZM234.653 1106.96V1108.95H230.653V1106.96H234.653ZM234.653 1112.93V1116.91H230.653V1112.93H234.653ZM234.653 1120.89V1124.87H230.653V1120.89H234.653ZM234.653 1128.85V1132.83H230.653V1128.85H234.653ZM234.653 1136.81V1140.78H230.653V1136.81H234.653ZM234.653 1144.76V1148.74H230.653V1144.76H234.653ZM234.653 1152.72V1156.7H230.653V1152.72H234.653ZM234.653 1160.68V1164.66H230.653V1160.68H234.653ZM234.653 1168.64V1172.62H230.653V1168.64H234.653ZM234.653 1176.6V1180.58H230.653V1176.6H234.653ZM234.653 1184.56V1188.54H230.653V1184.56H234.653ZM234.653 1192.51V1196.49H230.653V1192.51H234.653ZM234.653 1200.47V1204.45H230.653V1200.47H234.653ZM234.653 1208.43V1212.41H230.653V1208.43H234.653ZM234.653 1216.39V1220.37H230.653V1216.39H234.653ZM234.653 1224.35V1228.33H230.653V1224.35H234.653ZM234.653 1232.31V1236.29H230.653V1232.31H234.653ZM234.653 1240.26V1244.24H230.653V1240.26H234.653ZM234.653 1248.22V1252.2H230.653V1248.22H234.653ZM234.653 1256.18V1260.16H230.653V1256.18H234.653ZM234.653 1264.14V1268.12H230.653V1264.14H234.653ZM234.653 1272.1V1276.08H230.653V1272.1H234.653ZM234.653 1280.06V1284.04H230.653V1280.06H234.653ZM234.653 1288.01V1291.99H230.653V1288.01H234.653ZM234.653 1295.97V1299.95H230.653V1295.97H234.653ZM234.653 1303.93V1307.91H230.653V1303.93H234.653ZM234.653 1311.89V1315.87H230.653V1311.89H234.653ZM234.653 1319.85V1323.83H230.653V1319.85H234.653ZM234.653 1327.81V1331.79H230.653V1327.81H234.653ZM234.653 1335.77V1339.74H230.653V1335.77H234.653ZM234.653 1343.72V1347.7H230.653V1343.72H234.653ZM234.653 1351.68V1355.66H230.653V1351.68H234.653ZM234.653 1359.64V1363.62H230.653V1359.64H234.653ZM234.653 1367.6V1371.58H230.653V1367.6H234.653ZM234.653 1375.56V1379.54H230.653V1375.56H234.653ZM234.653 1383.52V1387.49H230.653V1383.52H234.653ZM234.653 1391.47V1395.45H230.653V1391.47H234.653ZM234.653 1399.43V1403.41H230.653V1399.43H234.653ZM234.653 1407.39V1409.38H230.653V1407.39H234.653ZM234.653 1409.38C234.653 1409.65 234.708 1409.91 234.804 1410.14L231.109 1411.68C230.815 1410.97 230.653 1410.19 230.653 1409.38H234.653ZM235.888 1411.23C236.121 1411.33 236.378 1411.38 236.653 1411.38V1415.38C235.843 1415.38 235.066 1415.22 234.356 1414.92L235.888 1411.23ZM236.653 1411.38H238.652V1415.38H236.653V1411.38ZM242.65 1411.38H246.648V1415.38H242.65V1411.38ZM250.645 1411.38H254.643V1415.38H250.645V1411.38ZM258.641 1411.38H262.638V1415.38H258.641V1411.38ZM266.636 1411.38H270.634V1415.38H266.636V1411.38ZM274.631 1411.38H278.629V1415.38H274.631V1411.38ZM282.627 1411.38H286.624V1415.38H282.627V1411.38ZM290.622 1411.38H294.62V1415.38H290.622V1411.38ZM298.617 1411.38H302.615V1415.38H298.617V1411.38ZM306.613 1411.38H310.61V1415.38H306.613V1411.38ZM314.608 1411.38H318.606V1415.38H314.608V1411.38ZM322.603 1411.38H326.601V1415.38H322.603V1411.38ZM330.599 1411.38H334.596V1415.38H330.599V1411.38ZM338.594 1411.38H342.592V1415.38H338.594V1411.38ZM346.589 1411.38H350.587V1415.38H346.589V1411.38ZM354.585 1411.38H358.582V1415.38H354.585V1411.38ZM362.58 1411.38H366.578V1415.38H362.58V1411.38ZM370.575 1411.38H374.573V1415.38H370.575V1411.38ZM378.571 1411.38H382.568V1415.38H378.571V1411.38ZM386.566 1411.38H390.564V1415.38H386.566V1411.38ZM394.561 1411.38H398.559V1415.38H394.561V1411.38ZM402.557 1411.38H406.554V1415.38H402.557V1411.38ZM410.552 1411.38H414.55V1415.38H410.552V1411.38ZM418.547 1411.38H422.545V1415.38H418.547V1411.38ZM426.543 1411.38H430.54V1415.38H426.543V1411.38ZM434.538 1411.38H438.536V1415.38H434.538V1411.38ZM442.533 1411.38H446.531V1415.38H442.533V1411.38ZM450.529 1411.38H454.526V1415.38H450.529V1411.38ZM458.524 1411.38H462.522V1415.38H458.524V1411.38ZM466.519 1411.38H470.517V1415.38H466.519V1411.38ZM474.515 1411.38H478.512V1415.38H474.515V1411.38ZM482.51 1411.38H486.508V1415.38H482.51V1411.38ZM490.505 1411.38H494.503V1415.38H490.505V1411.38ZM498.501 1411.38H502.498V1415.38H498.501V1411.38ZM506.496 1411.38H510.494V1415.38H506.496V1411.38ZM514.491 1411.38H518.489V1415.38H514.491V1411.38ZM522.487 1411.38H526.484V1415.38H522.487V1411.38ZM530.482 1411.38H534.48V1415.38H530.482V1411.38ZM538.477 1411.38H542.475V1415.38H538.477V1411.38ZM546.473 1411.38H550.471V1415.38H546.473V1411.38ZM554.468 1411.38H558.466V1415.38H554.468V1411.38ZM562.464 1411.38H566.461V1415.38H562.464V1411.38ZM570.459 1411.38H574.457V1415.38H570.459V1411.38ZM578.454 1411.38H582.452V1415.38H578.454V1411.38ZM586.45 1411.38H590.447V1415.38H586.45V1411.38ZM594.445 1411.38H598.443V1415.38H594.445V1411.38ZM602.44 1411.38H606.438V1415.38H602.44V1411.38ZM610.436 1411.38H614.433V1415.38H610.436V1411.38ZM618.431 1411.38H622.429V1415.38H618.431V1411.38ZM626.426 1411.38H630.424V1415.38H626.426V1411.38ZM634.422 1411.38H638.42V1415.38H634.422V1411.38ZM642.417 1411.38H646.415V1415.38H642.417V1411.38ZM650.413 1411.38H654.41V1415.38H650.413V1411.38ZM658.408 1411.38H662.406V1415.38H658.408V1411.38ZM666.403 1411.38H670.401V1415.38H666.403V1411.38ZM674.399 1411.38H678.396V1415.38H674.399V1411.38ZM682.394 1411.38H686.392V1415.38H682.394V1411.38ZM690.389 1411.38H694.387V1415.38H690.389V1411.38ZM698.385 1411.38H702.382V1415.38H698.385V1411.38ZM706.38 1411.38H710.378V1415.38H706.38V1411.38ZM714.375 1411.38H718.373V1415.38H714.375V1411.38ZM722.371 1411.38H726.368V1415.38H722.371V1411.38ZM730.366 1411.38H734.364V1415.38H730.366V1411.38ZM738.362 1411.38H742.359V1415.38H738.362V1411.38ZM746.357 1411.38H750.355V1415.38H746.357V1411.38ZM754.352 1411.38H758.35V1415.38H754.352V1411.38ZM762.348 1411.38H766.345V1415.38H762.348V1411.38ZM770.343 1411.38H774.341V1415.38H770.343V1411.38ZM778.338 1411.38H782.336V1415.38H778.338V1411.38ZM786.334 1411.38H790.331V1415.38H786.334V1411.38ZM794.329 1411.38H796.327V1415.38H794.329V1411.38ZM796.327 1411.38C796.602 1411.38 796.859 1411.33 797.092 1411.23L798.625 1414.92C797.914 1415.22 797.137 1415.38 796.327 1415.38V1411.38ZM798.176 1410.14C798.273 1409.91 798.327 1409.65 798.327 1409.38H802.327C802.327 1410.19 802.166 1410.97 801.871 1411.68L798.176 1410.14ZM798.327 1409.38V1407.36H802.327V1409.38H798.327ZM798.327 1403.32V1399.28H802.327V1403.32H798.327ZM798.327 1395.24V1391.2H802.327V1395.24H798.327ZM798.327 1387.16V1383.12H802.327V1387.16H798.327ZM798.327 1379.08V1375.04H802.327V1379.08H798.327ZM798.327 1371V1366.96H802.327V1371H798.327ZM798.327 1362.92V1358.88H802.327V1362.92H798.327ZM798.327 1354.84V1350.8H802.327V1354.84H798.327ZM798.327 1346.76V1342.72H802.327V1346.76H798.327ZM798.327 1338.68V1334.64H802.327V1338.68H798.327ZM798.327 1330.6V1326.56H802.327V1330.6H798.327ZM798.327 1322.52V1318.48H802.327V1322.52H798.327ZM798.327 1314.44V1310.4H802.327V1314.44H798.327ZM798.327 1306.36V1302.32H802.327V1306.36H798.327ZM798.327 1298.28V1294.24H802.327V1298.28H798.327ZM798.327 1290.2V1286.16H802.327V1290.2H798.327ZM798.327 1282.12V1278.08H802.327V1282.12H798.327ZM798.327 1274.04V1270H802.327V1274.04H798.327ZM798.327 1265.96V1261.92H802.327V1265.96H798.327ZM798.327 1257.88V1253.84H802.327V1257.88H798.327ZM798.327 1249.8V1245.76H802.327V1249.8H798.327ZM798.327 1241.72V1237.68H802.327V1241.72H798.327ZM798.327 1233.64V1229.6H802.327V1233.64H798.327ZM798.327 1225.56V1221.52H802.327V1225.56H798.327ZM798.327 1217.48V1213.44H802.327V1217.48H798.327ZM798.327 1209.4V1207.38H802.327V1209.4H798.327Z" fill="white"/>
<defs>
<filter id="filter0_d" x="537.288" y="211.909" width="557.099" height="989.311" filterUnits="userSpaceOnUse" color-interpolation-filters="sRGB">
<feFlood flood-opacity="0" result="BackgroundImageFix"/>
<feColorMatrix in="SourceAlpha" type="matrix" values="0 0 0 0 0 0 0 0 0 0 0 0 0 0 0 0 0 0 127 0"/>
<feOffset dy="5.06433"/>
<feGaussianBlur stdDeviation="15.193"/>
<feColorMatrix type="matrix" values="0 0 0 0 0.0583333 0 0 0 0 0.0583333 0 0 0 0 0.0583333 0 0 0 0.25 0"/>
<feBlend mode="normal" in2="BackgroundImageFix" result="effect1_dropShadow"/>
<feBlend mode="normal" in="SourceGraphic" in2="effect1_dropShadow" result="shape"/>
</filter>
</defs>
</svg>
