<svg width="36" height="36" viewBox="0 0 36 36" fill="none" xmlns="http://www.w3.org/2000/svg">
<path d="M0 7.71429C0 3.4538 3.4538 0 7.71429 0H28.2857C32.5462 0 36 3.4538 36 7.71429V28.2857C36 32.5462 32.5462 36 28.2857 36H7.71429C3.4538 36 0 32.5462 0 28.2857V7.71429Z" fill="black"/>
<path fill-rule="evenodd" clip-rule="evenodd" d="M30.8558 21.7742C30.7789 17.2163 27.0602 13.5452 22.484 13.5452L22.4841 13.5453L22.4365 22.2512L30.8571 30.4815V21.7755L30.8558 21.7742Z" fill="white"/>
<path fill-rule="evenodd" clip-rule="evenodd" d="M21.4949 9.50617C17.3138 9.97407 14.0634 13.5209 14.0634 17.8268V21.8229L14.0636 21.823L14.2063 30.529L5.78571 22.2987V13.5796C5.78567 13.5681 5.78564 13.5566 5.78564 13.5451C5.78564 13.5336 5.78567 13.5221 5.78571 13.5106V13.4976L5.78578 13.4976C5.81134 8.8952 9.5502 5.17212 14.1586 5.17212C17.3184 5.17212 20.0693 6.92233 21.4949 9.50617Z" fill="white"/>
</svg>
