<svg width="64" height="64" viewBox="0 0 64 64" fill="none" xmlns="http://www.w3.org/2000/svg">
<path d="M30.4303 24.5422C30.9383 23.7937 31.494 23.6983 31.9455 23.6983C32.3966 23.6983 33.1479 23.7937 33.6559 24.5422C37.6592 30.0418 44.268 40.9955 49.143 49.0763C52.3218 54.3459 54.7635 58.3929 55.2645 58.908C57.1448 60.8417 59.7242 59.6363 61.2227 57.4435C62.6982 55.2843 63.1074 53.7682 63.1074 52.1505C63.1074 51.0488 41.7327 11.2956 39.5801 7.98654C37.51 4.80419 36.8356 4 33.2922 4H30.6408C27.1085 4 26.5978 4.80375 24.5277 7.98654C22.3751 11.296 1 51.0488 1 52.1509C1 53.7682 1.4096 55.2843 2.88469 57.4431C4.38361 59.6367 6.96303 60.8417 8.84331 58.9085C9.34428 58.3929 11.786 54.3459 14.9652 49.0763C19.8394 40.9955 26.427 30.0418 30.4303 24.5422Z" fill="black"/>
</svg>
