<svg width="64" height="64" viewBox="0 0 64 64" fill="none" xmlns="http://www.w3.org/2000/svg">
<g clip-path="url(#clip0_8373_58371)">
<path fill-rule="evenodd" clip-rule="evenodd" d="M63.9666 15.7953C63.9844 16.4397 63.9915 17.083 63.9953 17.7267C64 18.4607 63.9998 19.1949 63.9997 19.9288L63.9997 20.0198V43.9797L63.9997 44.1484C63.9998 44.857 63.9998 45.5647 63.9952 46.2734C63.9913 46.9172 63.9842 47.5604 63.9665 48.2037C63.929 49.6062 63.8462 51.021 63.597 52.4072C63.3442 53.8151 62.931 55.1257 62.2796 56.4047C61.6404 57.6614 60.8045 58.8107 59.8075 59.8074C58.8107 60.8048 57.661 61.6405 56.4041 62.2805C55.1259 62.931 53.8162 63.3437 52.4091 63.5965C51.0216 63.846 49.6071 63.9291 48.2043 63.9666C47.5602 63.9837 46.9168 63.9914 46.2729 63.995C45.5914 63.9999 44.9094 63.9999 44.2279 63.9998L43.98 63.9998H20.02L19.7718 63.9998C19.0899 63.9999 18.4086 63.9999 17.7272 63.995C17.0832 63.9914 16.439 63.9837 15.7959 63.9666C14.3934 63.9291 12.9778 63.8461 11.5912 63.5965C10.1838 63.3437 8.87421 62.9311 7.59585 62.2805C6.33882 61.6404 5.18881 60.8048 4.19235 59.8074C3.19513 58.8108 2.35934 57.6614 1.72 56.4047C1.0687 55.1257 0.655978 53.815 0.402957 52.4072C0.153923 51.021 0.0712706 49.6062 0.0335545 48.2037C0.0158818 47.5604 0.00844637 46.9171 0.00424372 46.2734C-0.00013486 45.5977 -5.72056e-05 44.9229 2.05301e-05 44.2474C3.07986e-05 44.1582 4.10687e-05 44.0689 4.10687e-05 43.9797V30.453V20.0198C4.10687e-05 19.9394 3.39051e-05 19.8589 2.67413e-05 19.7785C-3.4154e-05 19.0946 -9.50689e-05 18.4105 0.00424372 17.7266C0.00844637 17.0829 0.0158818 16.4396 0.0335545 15.7952C0.0712706 14.3934 0.15403 12.979 0.402957 11.5922C0.655978 10.1839 1.0687 8.87438 1.72 7.59505C2.35934 6.33867 3.19513 5.18898 4.19235 4.19198C4.44149 3.94273 4.70022 3.70361 4.96779 3.47505C5.77049 2.78948 6.65305 2.19949 7.59574 1.71975C7.91535 1.55714 8.23691 1.40929 8.56138 1.27523C9.53488 0.87275 10.5355 0.593005 11.5908 0.403347C12.6309 0.215952 13.6873 0.122739 14.7421 0.0718761C15.0937 0.0549577 15.4451 0.0426731 15.7958 0.0331902C16.4389 0.015733 17.0831 0.0084053 17.7271 0.00441817C18.4912 0 19.2551 0 20.0198 0H27.0384H43.98C44.744 0 45.5088 0 46.273 0.00431041C46.9169 0.00829754 47.5604 0.0156252 48.2044 0.0330824C49.6073 0.071014 51.0217 0.153343 52.4092 0.403239C53.8163 0.656044 55.126 1.0692 56.4042 1.71975C57.6612 2.35941 58.8108 3.19509 59.8076 4.19209C60.8046 5.18909 61.6404 6.33878 62.2798 7.59516C62.9311 8.87449 63.3443 10.184 63.5971 11.5923C63.8463 12.9791 63.9291 14.3935 63.9666 15.7953ZM50.7078 39.5005C50.7094 39.5023 50.7108 39.5037 50.7123 39.5056C56.2112 46.2717 54.7155 53.5244 54.0116 52.1558C51.1375 46.5637 45.7829 47.9913 43.072 49.3984C42.8471 49.5324 42.6172 49.6592 42.3855 49.7838C42.3699 49.7934 42.3523 49.8034 42.3353 49.8133C42.323 49.8205 42.311 49.8275 42.3002 49.8343L42.3046 49.8279C36.6623 52.8261 29.0867 53.0481 21.4686 49.7742C15.0804 47.0286 9.83175 42.3255 6.42383 36.8745C8.15672 38.1538 10.0287 39.2798 12.02 40.213C20.0709 43.9836 28.1569 43.7113 33.8794 40.2093C25.7348 33.9457 18.9365 25.7888 13.7236 19.1778C12.7209 17.9922 11.8087 16.7606 11.0418 15.4816C17.2841 21.1949 27.1446 28.3693 30.6828 30.355C23.1729 22.4207 16.5556 12.6497 16.8659 12.9626C28.6936 24.8803 39.6063 31.6182 39.6063 31.6182C40.0173 31.8448 40.3234 32.026 40.5663 32.1856C40.7901 31.6112 40.9926 31.0203 41.161 30.4045C43.0496 23.5012 40.9239 15.6073 36.1164 9.09009C47.0869 15.678 53.5699 28.1901 50.9136 38.7731C50.8621 38.9784 50.8029 39.1785 50.7438 39.3786C50.7318 39.4192 50.7197 39.4598 50.7078 39.5005Z" fill="black"/>
</g>
<defs>
<clipPath id="clip0_8373_58371">
<rect width="64" height="64" fill="white"/>
</clipPath>
</defs>
</svg>
