<svg width="145" height="56" viewBox="0 0 145 56" fill="none" xmlns="http://www.w3.org/2000/svg">
<path fill-rule="evenodd" clip-rule="evenodd" d="M34.9744 21.0702L34.9004 34.6129L47.9991 47.4155V33.8728L47.9971 33.871C47.8776 26.7809 42.0929 21.0702 34.9744 21.0702L34.9744 21.0702L34.9744 21.0702C34.9744 21.0702 34.9744 21.0702 34.9744 21.0702L34.9744 21.0702Z" fill="white"/>
<path fill-rule="evenodd" clip-rule="evenodd" d="M33.4365 14.7873C26.9327 15.5152 21.8767 21.0324 21.8767 27.7305V33.9469L22.0987 47.4896L9 34.6869V21.0702V20.9962L9.0002 20.9964C9.03993 13.837 14.856 8.04553 22.0247 8.04553C26.9398 8.04553 31.219 10.7681 33.4365 14.7873Z" fill="white"/>
<path d="M71.333 36V21.0703H76.5625C78.374 21.0703 79.748 21.4189 80.6846 22.1162C81.6211 22.8066 82.0894 23.8218 82.0894 25.1616C82.0894 25.8931 81.9014 26.5391 81.5254 27.0996C81.1494 27.6533 80.6265 28.0601 79.9565 28.3198C80.7222 28.5112 81.3237 28.8975 81.7612 29.4785C82.2056 30.0596 82.4277 30.7705 82.4277 31.6113C82.4277 33.0469 81.9697 34.1338 81.0537 34.8721C80.1377 35.6104 78.832 35.9863 77.1367 36H71.333ZM74.4092 29.499V33.5288H77.0444C77.769 33.5288 78.333 33.3579 78.7363 33.0161C79.1465 32.6675 79.3516 32.189 79.3516 31.5806C79.3516 30.2134 78.644 29.5195 77.229 29.499H74.4092ZM74.4092 27.3252H76.6855C78.2373 27.2979 79.0132 26.6792 79.0132 25.4692C79.0132 24.7925 78.8149 24.3071 78.4185 24.0132C78.0288 23.7124 77.4102 23.562 76.5625 23.562H74.4092V27.3252ZM90.9947 27.6841C90.5913 27.6294 90.2359 27.6021 89.9283 27.6021C88.8072 27.6021 88.0723 27.9814 87.7237 28.7402V36H84.7603V24.9053H87.5596L87.6416 26.228C88.2364 25.2095 89.0601 24.7002 90.1128 24.7002C90.441 24.7002 90.7486 24.7446 91.0357 24.8335L90.9947 27.6841ZM95.7677 36H92.794V24.9053H95.7677V36ZM92.6197 22.0342C92.6197 21.5898 92.7667 21.2241 93.0606 20.937C93.3614 20.6499 93.7681 20.5063 94.2808 20.5063C94.7867 20.5063 95.19 20.6499 95.4908 20.937C95.7916 21.2241 95.942 21.5898 95.942 22.0342C95.942 22.4854 95.7882 22.8545 95.4805 23.1416C95.1798 23.4287 94.7799 23.5723 94.2808 23.5723C93.7818 23.5723 93.3785 23.4287 93.0709 23.1416C92.7701 22.8545 92.6197 22.4854 92.6197 22.0342ZM97.9669 30.3706C97.9669 28.6411 98.3531 27.2637 99.1256 26.2383C99.9049 25.2129 100.968 24.7002 102.315 24.7002C103.395 24.7002 104.287 25.1035 104.991 25.9102V20.25H107.964V36H105.288L105.145 34.8208C104.406 35.7437 103.456 36.2051 102.294 36.2051C100.988 36.2051 99.9391 35.6924 99.1461 34.667C98.36 33.6348 97.9669 32.2026 97.9669 30.3706ZM100.93 30.5859C100.93 31.625 101.111 32.4214 101.474 32.9751C101.836 33.5288 102.362 33.8057 103.053 33.8057C103.969 33.8057 104.615 33.4194 104.991 32.647V28.2686C104.622 27.4961 103.983 27.1099 103.073 27.1099C101.645 27.1099 100.93 28.2686 100.93 30.5859ZM110.041 30.3706C110.041 28.6685 110.444 27.2979 111.251 26.2588C112.064 25.2197 113.158 24.7002 114.532 24.7002C115.749 24.7002 116.695 25.1172 117.372 25.9512L117.495 24.9053H120.182V35.6309C120.182 36.6016 119.96 37.4458 119.515 38.1636C119.078 38.8813 118.459 39.4282 117.659 39.8042C116.86 40.1802 115.923 40.3682 114.85 40.3682C114.036 40.3682 113.243 40.2041 112.471 39.876C111.698 39.5547 111.114 39.1377 110.717 38.625L112.03 36.8203C112.768 37.6475 113.664 38.061 114.716 38.061C115.503 38.061 116.114 37.8491 116.552 37.4253C116.989 37.0083 117.208 36.4136 117.208 35.6411V35.0464C116.525 35.8188 115.626 36.2051 114.511 36.2051C113.178 36.2051 112.098 35.6855 111.271 34.6465C110.451 33.6006 110.041 32.2163 110.041 30.4937V30.3706ZM113.004 30.5859C113.004 31.5908 113.206 32.3804 113.609 32.9546C114.012 33.522 114.566 33.8057 115.27 33.8057C116.173 33.8057 116.819 33.4673 117.208 32.7905V28.125C116.812 27.4482 116.173 27.1099 115.291 27.1099C114.58 27.1099 114.019 27.4004 113.609 27.9814C113.206 28.5625 113.004 29.4307 113.004 30.5859ZM127.785 36.2051C126.158 36.2051 124.832 35.7061 123.806 34.708C122.788 33.71 122.279 32.3804 122.279 30.7192V30.4321C122.279 29.3179 122.494 28.3232 122.925 27.4482C123.355 26.5664 123.964 25.8896 124.75 25.418C125.543 24.9395 126.445 24.7002 127.457 24.7002C128.974 24.7002 130.167 25.1787 131.035 26.1357C131.91 27.0928 132.348 28.4497 132.348 30.2065V31.4165H125.283C125.379 32.1411 125.666 32.7222 126.144 33.1597C126.63 33.5972 127.241 33.8159 127.98 33.8159C129.121 33.8159 130.013 33.4023 130.656 32.5752L132.112 34.2056C131.668 34.8345 131.066 35.3267 130.307 35.6821C129.549 36.0308 128.708 36.2051 127.785 36.2051ZM127.446 27.0996C126.859 27.0996 126.38 27.2979 126.011 27.6943C125.649 28.0908 125.416 28.6582 125.314 29.3965H129.436V29.1606C129.422 28.5044 129.244 27.9985 128.903 27.6431C128.561 27.2808 128.075 27.0996 127.446 27.0996ZM133.788 30.3706C133.788 28.6411 134.175 27.2637 134.947 26.2383C135.726 25.2129 136.789 24.7002 138.136 24.7002C139.216 24.7002 140.108 25.1035 140.812 25.9102V20.25H143.786V36H141.11L140.966 34.8208C140.228 35.7437 139.278 36.2051 138.115 36.2051C136.81 36.2051 135.76 35.6924 134.968 34.667C134.181 33.6348 133.788 32.2026 133.788 30.3706ZM136.752 30.5859C136.752 31.625 136.933 32.4214 137.295 32.9751C137.657 33.5288 138.184 33.8057 138.874 33.8057C139.79 33.8057 140.436 33.4194 140.812 32.647V28.2686C140.443 27.4961 139.804 27.1099 138.895 27.1099C137.466 27.1099 136.752 28.2686 136.752 30.5859Z" fill="white"/>
</svg>
