<svg width="145" height="56" viewBox="0 0 145 52" fill="none" xmlns="http://www.w3.org/2000/svg">
<path d="M19.3613 29.2645V45.2205L5.68178 36.9329V23.0119" stroke="white" stroke-width="4.16599" stroke-linecap="round" stroke-linejoin="round"/>
<path d="M50.3086 29.2645V45.2205L36.629 36.9329V23.0119" stroke="white" stroke-width="4.16599" stroke-linecap="round" stroke-linejoin="round"/>
<path d="M50.3175 29.5054V28.1698C50.3175 19.6239 43.3897 12.6961 34.8438 12.6961V12.6961C26.2979 12.6961 19.3701 19.6239 19.3701 28.1698V29.5054" stroke="white" stroke-width="4.16599"/>
<path d="M36.629 23.554V22.2184C36.629 13.6725 29.7012 6.74469 21.1553 6.74469V6.74469C12.6094 6.74469 5.68164 13.6725 5.68164 22.2184V23.554" stroke="white" stroke-width="4.16599"/>
<path d="M71.333 34V19.0703H76.5625C78.374 19.0703 79.748 19.4189 80.6846 20.1162C81.6211 20.8066 82.0894 21.8218 82.0894 23.1616C82.0894 23.8931 81.9014 24.5391 81.5254 25.0996C81.1494 25.6533 80.6265 26.0601 79.9565 26.3198C80.7222 26.5112 81.3237 26.8975 81.7612 27.4785C82.2056 28.0596 82.4277 28.7705 82.4277 29.6113C82.4277 31.0469 81.9697 32.1338 81.0537 32.8721C80.1377 33.6104 78.832 33.9863 77.1367 34H71.333ZM74.4092 27.499V31.5288H77.0444C77.769 31.5288 78.333 31.3579 78.7363 31.0161C79.1465 30.6675 79.3516 30.189 79.3516 29.5806C79.3516 28.2134 78.644 27.5195 77.229 27.499H74.4092ZM74.4092 25.3252H76.6855C78.2373 25.2979 79.0132 24.6792 79.0132 23.4692C79.0132 22.7925 78.8149 22.3071 78.4185 22.0132C78.0288 21.7124 77.4102 21.562 76.5625 21.562H74.4092V25.3252ZM90.9947 25.6841C90.5913 25.6294 90.2359 25.6021 89.9283 25.6021C88.8072 25.6021 88.0723 25.9814 87.7237 26.7402V34H84.7603V22.9053H87.5596L87.6416 24.228C88.2364 23.2095 89.0601 22.7002 90.1128 22.7002C90.441 22.7002 90.7486 22.7446 91.0357 22.8335L90.9947 25.6841ZM95.7677 34H92.794V22.9053H95.7677V34ZM92.6197 20.0342C92.6197 19.5898 92.7667 19.2241 93.0606 18.937C93.3614 18.6499 93.7681 18.5063 94.2808 18.5063C94.7867 18.5063 95.19 18.6499 95.4908 18.937C95.7916 19.2241 95.942 19.5898 95.942 20.0342C95.942 20.4854 95.7882 20.8545 95.4805 21.1416C95.1798 21.4287 94.7799 21.5723 94.2808 21.5723C93.7818 21.5723 93.3785 21.4287 93.0709 21.1416C92.7701 20.8545 92.6197 20.4854 92.6197 20.0342ZM97.9669 28.3706C97.9669 26.6411 98.3531 25.2637 99.1256 24.2383C99.9049 23.2129 100.968 22.7002 102.315 22.7002C103.395 22.7002 104.287 23.1035 104.991 23.9102V18.25H107.964V34H105.288L105.145 32.8208C104.406 33.7437 103.456 34.2051 102.294 34.2051C100.988 34.2051 99.9391 33.6924 99.1461 32.667C98.36 31.6348 97.9669 30.2026 97.9669 28.3706ZM100.93 28.5859C100.93 29.625 101.111 30.4214 101.474 30.9751C101.836 31.5288 102.362 31.8057 103.053 31.8057C103.969 31.8057 104.615 31.4194 104.991 30.647V26.2686C104.622 25.4961 103.983 25.1099 103.073 25.1099C101.645 25.1099 100.93 26.2686 100.93 28.5859ZM110.041 28.3706C110.041 26.6685 110.444 25.2979 111.251 24.2588C112.064 23.2197 113.158 22.7002 114.532 22.7002C115.749 22.7002 116.695 23.1172 117.372 23.9512L117.495 22.9053H120.182V33.6309C120.182 34.6016 119.96 35.4458 119.515 36.1636C119.078 36.8813 118.459 37.4282 117.659 37.8042C116.86 38.1802 115.923 38.3682 114.85 38.3682C114.036 38.3682 113.243 38.2041 112.471 37.876C111.698 37.5547 111.114 37.1377 110.717 36.625L112.03 34.8203C112.768 35.6475 113.664 36.061 114.716 36.061C115.503 36.061 116.114 35.8491 116.552 35.4253C116.989 35.0083 117.208 34.4136 117.208 33.6411V33.0464C116.525 33.8188 115.626 34.2051 114.511 34.2051C113.178 34.2051 112.098 33.6855 111.271 32.6465C110.451 31.6006 110.041 30.2163 110.041 28.4937V28.3706ZM113.004 28.5859C113.004 29.5908 113.206 30.3804 113.609 30.9546C114.012 31.522 114.566 31.8057 115.27 31.8057C116.173 31.8057 116.819 31.4673 117.208 30.7905V26.125C116.812 25.4482 116.173 25.1099 115.291 25.1099C114.58 25.1099 114.019 25.4004 113.609 25.9814C113.206 26.5625 113.004 27.4307 113.004 28.5859ZM127.785 34.2051C126.158 34.2051 124.832 33.7061 123.806 32.708C122.788 31.71 122.279 30.3804 122.279 28.7192V28.4321C122.279 27.3179 122.494 26.3232 122.925 25.4482C123.355 24.5664 123.964 23.8896 124.75 23.418C125.543 22.9395 126.445 22.7002 127.457 22.7002C128.974 22.7002 130.167 23.1787 131.035 24.1357C131.91 25.0928 132.348 26.4497 132.348 28.2065V29.4165H125.283C125.379 30.1411 125.666 30.7222 126.144 31.1597C126.63 31.5972 127.241 31.8159 127.98 31.8159C129.121 31.8159 130.013 31.4023 130.656 30.5752L132.112 32.2056C131.668 32.8345 131.066 33.3267 130.307 33.6821C129.549 34.0308 128.708 34.2051 127.785 34.2051ZM127.446 25.0996C126.859 25.0996 126.38 25.2979 126.011 25.6943C125.649 26.0908 125.416 26.6582 125.314 27.3965H129.436V27.1606C129.422 26.5044 129.244 25.9985 128.903 25.6431C128.561 25.2808 128.075 25.0996 127.446 25.0996ZM133.788 28.3706C133.788 26.6411 134.175 25.2637 134.947 24.2383C135.726 23.2129 136.789 22.7002 138.136 22.7002C139.216 22.7002 140.108 23.1035 140.812 23.9102V18.25H143.786V34H141.11L140.966 32.8208C140.228 33.7437 139.278 34.2051 138.115 34.2051C136.81 34.2051 135.76 33.6924 134.968 32.667C134.181 31.6348 133.788 30.2026 133.788 28.3706ZM136.752 28.5859C136.752 29.625 136.933 30.4214 137.295 30.9751C137.657 31.5288 138.184 31.8057 138.874 31.8057C139.79 31.8057 140.436 31.4194 140.812 30.647V26.2686C140.443 25.4961 139.804 25.1099 138.895 25.1099C137.466 25.1099 136.752 26.2686 136.752 28.5859Z" fill="white"/>
</svg>
