<svg width="64" height="64" viewBox="0 0 64 64" fill="none" xmlns="http://www.w3.org/2000/svg">
<g clip-path="url(#clip0_8373_58420)">
<path fill-rule="evenodd" clip-rule="evenodd" d="M31.2581 5.97254H14.9813L0 31.9401L14.9813 57.9077H31.2409H49.1092L49.2185 58.0675L54.8769 48.1574L56.2896 45.7229H56.2669L56.2897 45.6829L54.6198 43.6854H57.0088L57.0255 43.6572L57.0487 43.6854L64 31.9801L57.0487 20.2747L57.0392 20.2859L57.0088 20.2347H54.4912L56.1698 18.1973L56.1575 18.1756L49.2185 6.01249L49.1999 6.03938L49.1387 5.93259H31.281L31.2581 5.97254ZM24.2752 18.1973L16.2197 31.9401L31.223 57.8766L24.2097 45.7229H40.7722L39.3782 43.6854H39.3109L45.7029 32.9788H48.2527L47.3009 31.8203L48.043 30.9413H45.703L39.3109 20.2347H39.3785L40.7881 18.1973H24.2752Z" fill="black"/>
</g>
<defs>
<clipPath id="clip0_8373_58420">
<rect width="64" height="64" fill="white"/>
</clipPath>
</defs>
</svg>
