<svg xmlns="http://www.w3.org/2000/svg" viewBox="0 0 1920 1080" width="1920" height="1080">
<title>Cover</title>
<rect width="1920" height="1080" fill="#161513"/>
<rect x="96" y="96" width="856" height="580" rx="22" fill="#EFEBE2"/><text x="140" y="266" font-family="'Inter','Helvetica Neue',Arial,sans-serif" font-size="16" font-weight="700" fill="rgba(26,24,21,0.56)" letter-spacing="3">PRODUCT SHOWCASE</text><text x="136" y="426" font-family="'Inter Tight','Inter','Helvetica Neue',Arial,sans-serif" font-size="168" font-weight="800" fill="#1A1815" letter-spacing="-5">Nova</text><text x="140" y="504" font-family="'Inter','Helvetica Neue',Arial,sans-serif" font-size="29" font-weight="500" fill="rgba(26,24,21,0.56)">A modern surface for</text><text x="140" y="541" font-family="'Inter','Helvetica Neue',Arial,sans-serif" font-size="29" font-weight="500" fill="rgba(26,24,21,0.56)">modern teams.</text><rect x="978" y="96" width="856" height="580" rx="22" fill="#2B2A26"/><rect x="1036" y="154" width="740" height="464" rx="12" fill="#37352F"/><rect x="1036" y="154" width="740" height="55.68" rx="12" fill="#242320"/><rect x="1036" y="197.68" width="740" height="12" fill="#242320"/><circle cx="1051" cy="181.84" r="3.4" fill="rgba(239,235,226,0.3)"/><circle cx="1064" cy="181.84" r="3.4" fill="rgba(239,235,226,0.3)"/><circle cx="1077" cy="181.84" r="3.4" fill="rgba(239,235,226,0.3)"/><rect x="1036" y="209.68" width="162.8" height="408.32" fill="#242320"/><rect x="1048" y="223.68" width="138.8" height="6" rx="3" fill="#AFC17C"/><rect x="1048" y="241.68" width="97.16" height="6" rx="3" fill="rgba(239,235,226,0.16)"/><rect x="1048" y="259.68" width="97.16" height="6" rx="3" fill="rgba(239,235,226,0.16)"/><rect x="1048" y="277.68" width="97.16" height="6" rx="3" fill="rgba(239,235,226,0.16)"/><rect x="1048" y="295.68" width="97.16" height="6" rx="3" fill="rgba(239,235,226,0.16)"/><rect x="1048" y="313.68" width="97.16" height="6" rx="3" fill="rgba(239,235,226,0.16)"/><rect x="1212.8" y="223.68" width="173.0666666666667" height="97.9968" rx="8" fill="rgba(239,235,226,0.07)"/><rect x="1224.8" y="235.68" width="54.92000000000001" height="9" rx="4.5" fill="rgba(239,235,226,0.30)"/><rect x="1395.8666666666666" y="223.68" width="173.0666666666667" height="97.9968" rx="8" fill="rgba(239,235,226,0.07)"/><rect x="1407.8666666666666" y="235.68" width="54.92000000000001" height="9" rx="4.5" fill="#AFC17C"/><rect x="1578.9333333333334" y="223.68" width="173.0666666666667" height="97.9968" rx="8" fill="rgba(239,235,226,0.07)"/><rect x="1590.9333333333334" y="235.68" width="54.92000000000001" height="9" rx="4.5" fill="rgba(239,235,226,0.30)"/><rect x="1227.2165" y="545.97696" width="39.817" height="60.02303999999999" rx="3" fill="rgba(239,235,226,0.16)"/><rect x="1295.8665" y="503.10336" width="39.817" height="102.89663999999999" rx="3" fill="rgba(239,235,226,0.16)"/><rect x="1364.5165" y="533.972352" width="39.817" height="72.02764799999999" rx="3" fill="rgba(239,235,226,0.16)"/><rect x="1433.1665" y="482.52403200000003" width="39.817" height="123.47596799999998" rx="3" fill="rgba(239,235,226,0.16)"/><rect x="1501.8165000000001" y="520.2528" width="39.817" height="85.74719999999999" rx="3" fill="rgba(239,235,226,0.16)"/><rect x="1570.4665" y="460.22976000000006" width="39.817" height="145.77023999999997" rx="3" fill="rgba(239,235,226,0.16)"/><rect x="1639.1165" y="499.673472" width="39.817" height="106.326528" rx="3" fill="rgba(239,235,226,0.16)"/><rect x="1707.7665" y="434.5056" width="39.817" height="171.49439999999998" rx="3" fill="#AFC17C"/><rect x="96" y="702" width="415" height="277" rx="22" fill="#DE7A5C"/><text x="140" y="850.5" font-family="'Inter Tight','Inter','Helvetica Neue',Arial,sans-serif" font-size="74" font-weight="800" fill="#EFEBE2" letter-spacing="-2">12k+</text><text x="142" y="894.5" font-family="'Inter','Helvetica Neue',Arial,sans-serif" font-size="19" font-weight="600" fill="rgba(239,235,226,0.74)">teams onboard</text><rect x="537" y="702" width="415" height="277" rx="22" fill="#201F1C"/><text x="581" y="811.3" font-family="'Inter Tight','Inter','Helvetica Neue',Arial,sans-serif" font-size="40" font-weight="800" fill="#EFEBE2" letter-spacing="-1.2">Docs.</text><text x="581" y="852.0999999999999" font-family="'Inter Tight','Inter','Helvetica Neue',Arial,sans-serif" font-size="40" font-weight="800" fill="#EFEBE2" letter-spacing="-1.2">Tasks.</text><text x="581" y="892.9" font-family="'Inter Tight','Inter','Helvetica Neue',Arial,sans-serif" font-size="40" font-weight="800" fill="#EFEBE2" letter-spacing="-1.2">Data.</text><rect x="978" y="702" width="856" height="277" rx="22" fill="#EFEBE2"/><text x="1022" y="853.26" font-family="'Inter Tight','Inter','Helvetica Neue',Arial,sans-serif" font-size="44" font-weight="800" fill="#1A1815" letter-spacing="-1.2">One workspace, every surface.</text>
</svg>
