<svg xmlns="http://www.w3.org/2000/svg" viewBox="0 0 1920 1080" width="1920" height="1080">
<title>Why Nova</title>
<rect width="1920" height="1080" fill="#161513"/>
<rect x="96" y="96" width="856" height="580" rx="22" fill="#EFEBE2"/><text x="140" y="287.08" font-family="'Inter','Helvetica Neue',Arial,sans-serif" font-size="15" font-weight="700" fill="rgba(26,24,21,0.56)" letter-spacing="2.5">WHY NOVA</text><text x="140" y="358.28" font-family="'Inter Tight','Inter','Helvetica Neue',Arial,sans-serif" font-size="64" font-weight="800" fill="#1A1815" letter-spacing="-1.2">Ship features</text><text x="140" y="423.55999999999995" font-family="'Inter Tight','Inter','Helvetica Neue',Arial,sans-serif" font-size="64" font-weight="800" fill="#1A1815" letter-spacing="-1.2">your users</text><text x="140" y="488.84" font-family="'Inter Tight','Inter','Helvetica Neue',Arial,sans-serif" font-size="64" font-weight="800" fill="#1A1815" letter-spacing="-1.2">actually feel.</text><rect x="978" y="96" width="856" height="580" rx="22" fill="#2B2A26"/><rect x="1036" y="154" width="740" height="464" rx="12" fill="#37352F"/><rect x="1036" y="154" width="740" height="55.68" rx="12" fill="#242320"/><rect x="1036" y="197.68" width="740" height="12" fill="#242320"/><circle cx="1051" cy="181.84" r="3.4" fill="rgba(239,235,226,0.3)"/><circle cx="1064" cy="181.84" r="3.4" fill="rgba(239,235,226,0.3)"/><circle cx="1077" cy="181.84" r="3.4" fill="rgba(239,235,226,0.3)"/><rect x="1036" y="209.68" width="133.2" height="408.32" fill="#242320"/><rect x="1046" y="223.68" width="113.19999999999999" height="5" rx="2.5" fill="#DE7A5C"/><rect x="1046" y="239.68" width="79.23999999999998" height="5" rx="2.5" fill="rgba(239,235,226,0.16)"/><rect x="1046" y="255.68" width="79.23999999999998" height="5" rx="2.5" fill="rgba(239,235,226,0.16)"/><rect x="1046" y="271.68" width="79.23999999999998" height="5" rx="2.5" fill="rgba(239,235,226,0.16)"/><rect x="1046" y="287.68" width="79.23999999999998" height="5" rx="2.5" fill="rgba(239,235,226,0.16)"/><rect x="1243.2" y="229.68" width="222" height="12" rx="6" fill="rgba(239,235,226,0.30)"/><rect x="1243.2" y="257.68" width="444" height="7" rx="3.5" fill="rgba(239,235,226,0.16)"/><rect x="1243.2" y="298.512" width="399.6" height="7" rx="3.5" fill="rgba(239,235,226,0.16)"/><rect x="1243.2" y="339.344" width="426.24" height="7" rx="3.5" fill="rgba(239,235,226,0.16)"/><rect x="1243.2" y="380.17600000000004" width="266.4" height="7" rx="3.5" fill="rgba(175,193,124,0.34)"/><rect x="1243.2" y="421.00800000000004" width="390.72" height="7" rx="3.5" fill="rgba(239,235,226,0.16)"/><rect x="1243.2" y="461.84000000000003" width="319.68" height="7" rx="3.5" fill="rgba(239,235,226,0.16)"/><rect x="96" y="702" width="856" height="277" rx="22" fill="#8E93D6"/><text x="140" y="855" font-family="'Inter Tight','Inter','Helvetica Neue',Arial,sans-serif" font-size="50" font-weight="800" fill="#EFEBE2" letter-spacing="-1.2">Everything in one place.</text><rect x="978" y="702" width="415" height="277" rx="22" fill="#201F1C"/><text x="1022" y="850.5" font-family="'Inter Tight','Inter','Helvetica Neue',Arial,sans-serif" font-size="74" font-weight="800" fill="#EFEBE2" letter-spacing="-2">40ms</text><text x="1024" y="894.5" font-family="'Inter','Helvetica Neue',Arial,sans-serif" font-size="19" font-weight="600" fill="rgba(239,235,226,0.74)">median response</text><rect x="1419" y="702" width="415" height="277" rx="22" fill="#AFC17C"/><text x="1463" y="850.5" font-family="'Inter Tight','Inter','Helvetica Neue',Arial,sans-serif" font-size="74" font-weight="800" fill="#1A1815" letter-spacing="-2">5 min</text><text x="1465" y="894.5" font-family="'Inter','Helvetica Neue',Arial,sans-serif" font-size="19" font-weight="600" fill="rgba(26,24,21,0.56)">to set up</text>
</svg>
