<svg xmlns="http://www.w3.org/2000/svg" viewBox="0 0 1920 1080" width="1920" height="1080">
<title>Features</title>
<rect width="1920" height="1080" fill="#161513"/>
<clipPath id="k1"><rect x="96" y="96" width="415" height="580" rx="22"/></clipPath><g clip-path="url(#k1)"><rect x="96" y="96" width="415" height="325" rx="0" fill="#2B2A26"/><rect x="128.5" y="128.5" width="350" height="260" rx="12" fill="#37352F"/><rect x="128.5" y="128.5" width="350" height="31.2" rx="12" fill="#242320"/><rect x="128.5" y="147.7" width="350" height="12" fill="#242320"/><circle cx="143.5" cy="144.1" r="3.4" fill="rgba(239,235,226,0.3)"/><circle cx="156.5" cy="144.1" r="3.4" fill="rgba(239,235,226,0.3)"/><circle cx="169.5" cy="144.1" r="3.4" fill="rgba(239,235,226,0.3)"/><rect x="144.25" y="171.7" width="49.583333333333336" height="6" rx="3" fill="#AFC17C"/><rect x="144.25" y="187.7" width="99.16666666666667" height="34.32" rx="8" fill="rgba(175,193,124,0.24)"/><rect x="144.25" y="233.45999999999998" width="99.16666666666667" height="34.32" rx="8" fill="rgba(239,235,226,0.07)"/><rect x="144.25" y="279.22" width="99.16666666666667" height="34.32" rx="8" fill="rgba(239,235,226,0.07)"/><rect x="253.91666666666669" y="171.7" width="49.583333333333336" height="6" rx="3" fill="rgba(239,235,226,0.30)"/><rect x="253.91666666666669" y="187.7" width="99.16666666666667" height="34.32" rx="8" fill="rgba(239,235,226,0.07)"/><rect x="253.91666666666669" y="233.45999999999998" width="99.16666666666667" height="34.32" rx="8" fill="rgba(239,235,226,0.07)"/><rect x="253.91666666666669" y="279.22" width="99.16666666666667" height="34.32" rx="8" fill="rgba(239,235,226,0.07)"/><rect x="363.58333333333337" y="171.7" width="49.583333333333336" height="6" rx="3" fill="rgba(239,235,226,0.30)"/><rect x="363.58333333333337" y="187.7" width="99.16666666666667" height="34.32" rx="8" fill="rgba(239,235,226,0.07)"/><rect x="363.58333333333337" y="233.45999999999998" width="99.16666666666667" height="34.32" rx="8" fill="rgba(239,235,226,0.07)"/><rect x="363.58333333333337" y="279.22" width="99.16666666666667" height="34.32" rx="8" fill="rgba(239,235,226,0.07)"/><rect x="96" y="421" width="415" height="255" fill="#EFEBE2"/><text x="128" y="522.4" font-family="'Inter Tight','Inter','Helvetica Neue',Arial,sans-serif" font-size="30" font-weight="800" fill="#1A1815" letter-spacing="-1.2">Realtime</text><text x="128" y="553" font-family="'Inter Tight','Inter','Helvetica Neue',Arial,sans-serif" font-size="30" font-weight="800" fill="#1A1815" letter-spacing="-1.2">canvas</text><text x="128" y="583.6" font-family="'Inter','Helvetica Neue',Arial,sans-serif" font-size="18" font-weight="500" fill="rgba(26,24,21,0.56)">live, together</text></g><rect x="537" y="96" width="856" height="277" rx="22" fill="#201F1C"/><text x="581" y="246.67999999999998" font-family="'Inter Tight','Inter','Helvetica Neue',Arial,sans-serif" font-size="42" font-weight="800" fill="#EFEBE2" letter-spacing="-1.2">Instant sync across every surface.</text><rect x="1419" y="96" width="415" height="277" rx="22" fill="#DE7A5C"/><text x="1463" y="225.7" font-family="'Inter Tight','Inter','Helvetica Neue',Arial,sans-serif" font-size="40" font-weight="800" fill="#EFEBE2" letter-spacing="-1.2">AI</text><text x="1463" y="266.5" font-family="'Inter Tight','Inter','Helvetica Neue',Arial,sans-serif" font-size="40" font-weight="800" fill="#EFEBE2" letter-spacing="-1.2">assist</text><rect x="537" y="399" width="415" height="277" rx="22" fill="#AFC17C"/><text x="581" y="547.5" font-family="'Inter Tight','Inter','Helvetica Neue',Arial,sans-serif" font-size="74" font-weight="800" fill="#1A1815" letter-spacing="-2">99.9%</text><text x="583" y="591.5" font-family="'Inter','Helvetica Neue',Arial,sans-serif" font-size="19" font-weight="600" fill="rgba(26,24,21,0.56)">uptime</text><rect x="978" y="399" width="856" height="277" rx="22" fill="#2B2A26"/><rect x="1005.7" y="426.7" width="800.6" height="221.6" rx="12" fill="#37352F"/><rect x="1005.7" y="426.7" width="800.6" height="26.592" rx="12" fill="#242320"/><rect x="1005.7" y="441.292" width="800.6" height="12" fill="#242320"/><circle cx="1020.7" cy="439.996" r="3.4" fill="rgba(239,235,226,0.3)"/><circle cx="1033.7" cy="439.996" r="3.4" fill="rgba(239,235,226,0.3)"/><circle cx="1046.7" cy="439.996" r="3.4" fill="rgba(239,235,226,0.3)"/><rect x="1021.7" y="465.292" width="224.16800000000003" height="8" rx="4" fill="rgba(239,235,226,0.30)"/><rect x="1040.865" y="595.6104128" width="57.495" height="38.6895872" rx="3" fill="rgba(239,235,226,0.16)"/><rect x="1136.69" y="567.8022719999999" width="57.495" height="66.497728" rx="3" fill="rgba(239,235,226,0.16)"/><rect x="1232.515" y="583.5199167999999" width="57.495" height="50.78008319999999" rx="3" fill="rgba(239,235,226,0.16)"/><rect x="1328.3400000000001" y="547.2484287999999" width="57.495" height="87.05157119999998" rx="3" fill="rgba(239,235,226,0.16)"/><rect x="1424.165" y="567.8022719999999" width="57.495" height="66.497728" rx="3" fill="rgba(239,235,226,0.16)"/><rect x="1519.99" y="525.4855359999999" width="57.495" height="108.81446399999999" rx="3" fill="rgba(239,235,226,0.16)"/><rect x="1615.815" y="552.0846272" width="57.495" height="82.2153728" rx="3" fill="rgba(239,235,226,0.16)"/><rect x="1711.6399999999999" y="513.39504" width="57.495" height="120.90495999999999" rx="3" fill="#DE7A5C"/><line x1="1021.7" y1="634.3" x2="1788.3000000000002" y2="634.3" stroke="rgba(239,235,226,0.16)" stroke-width="2"/><rect x="96" y="702" width="856" height="277" rx="22" fill="#EFEBE2"/><text x="140" y="817.06" font-family="'Inter','Helvetica Neue',Arial,sans-serif" font-size="15" font-weight="700" fill="rgba(26,24,21,0.56)" letter-spacing="2.5">AND 20 MORE</text><text x="140" y="872.26" font-family="'Inter Tight','Inter','Helvetica Neue',Arial,sans-serif" font-size="44" font-weight="800" fill="#1A1815" letter-spacing="-1.2">Compose your own blocks.</text><rect x="978" y="702" width="856" height="277" rx="22" fill="#2B2A26"/><rect x="1005.7" y="729.7" width="800.6" height="221.6" rx="12" fill="#37352F"/><rect x="1005.7" y="729.7" width="800.6" height="26.592" rx="12" fill="#242320"/><rect x="1005.7" y="744.292" width="800.6" height="12" fill="#242320"/><circle cx="1020.7" cy="742.9960000000001" r="3.4" fill="rgba(239,235,226,0.3)"/><circle cx="1033.7" cy="742.9960000000001" r="3.4" fill="rgba(239,235,226,0.3)"/><circle cx="1046.7" cy="742.9960000000001" r="3.4" fill="rgba(239,235,226,0.3)"/><circle cx="1029.7" cy="783.292" r="10" fill="#8E93D6"/><rect x="1049.7" y="775.292" width="320.24" height="7" rx="3.5" fill="rgba(239,235,226,0.30)"/><rect x="1049.7" y="790.292" width="480.36" height="6" rx="3" fill="rgba(239,235,226,0.16)"/><circle cx="1029.7" cy="827.044" r="10" fill="rgba(239,235,226,0.07)"/><rect x="1049.7" y="819.044" width="320.24" height="7" rx="3.5" fill="rgba(239,235,226,0.30)"/><rect x="1049.7" y="834.044" width="480.36" height="6" rx="3" fill="rgba(239,235,226,0.16)"/><circle cx="1029.7" cy="870.796" r="10" fill="rgba(239,235,226,0.07)"/><rect x="1049.7" y="862.796" width="320.24" height="7" rx="3.5" fill="rgba(239,235,226,0.30)"/><rect x="1049.7" y="877.796" width="480.36" height="6" rx="3" fill="rgba(239,235,226,0.16)"/><circle cx="1029.7" cy="914.548" r="10" fill="rgba(239,235,226,0.07)"/><rect x="1049.7" y="906.548" width="320.24" height="7" rx="3.5" fill="rgba(239,235,226,0.30)"/><rect x="1049.7" y="921.548" width="480.36" height="6" rx="3" fill="rgba(239,235,226,0.16)"/>
</svg>
