<svg xmlns="http://www.w3.org/2000/svg" viewBox="0 0 1920 1080" width="1920" height="1080">
<title>Showcase</title>
<rect width="1920" height="1080" fill="#161513"/>
<rect x="96" y="96" width="856" height="580" rx="22" fill="#2B2A26"/><rect x="154" y="154" width="740" height="464" rx="12" fill="#37352F"/><rect x="154" y="154" width="740" height="55.68" rx="12" fill="#242320"/><rect x="154" y="197.68" width="740" height="12" fill="#242320"/><circle cx="169" cy="181.84" r="3.4" fill="rgba(239,235,226,0.3)"/><circle cx="182" cy="181.84" r="3.4" fill="rgba(239,235,226,0.3)"/><circle cx="195" cy="181.84" r="3.4" fill="rgba(239,235,226,0.3)"/><rect x="154" y="209.68" width="162.8" height="408.32" fill="#242320"/><rect x="166" y="223.68" width="138.8" height="6" rx="3" fill="#DE7A5C"/><rect x="166" y="241.68" width="97.16" height="6" rx="3" fill="rgba(239,235,226,0.16)"/><rect x="166" y="259.68" width="97.16" height="6" rx="3" fill="rgba(239,235,226,0.16)"/><rect x="166" y="277.68" width="97.16" height="6" rx="3" fill="rgba(239,235,226,0.16)"/><rect x="166" y="295.68" width="97.16" height="6" rx="3" fill="rgba(239,235,226,0.16)"/><rect x="166" y="313.68" width="97.16" height="6" rx="3" fill="rgba(239,235,226,0.16)"/><rect x="330.8" y="223.68" width="173.0666666666667" height="97.9968" rx="8" fill="rgba(239,235,226,0.07)"/><rect x="342.8" y="235.68" width="54.92000000000001" height="9" rx="4.5" fill="rgba(239,235,226,0.30)"/><rect x="513.8666666666667" y="223.68" width="173.0666666666667" height="97.9968" rx="8" fill="rgba(239,235,226,0.07)"/><rect x="525.8666666666667" y="235.68" width="54.92000000000001" height="9" rx="4.5" fill="#DE7A5C"/><rect x="696.9333333333334" y="223.68" width="173.0666666666667" height="97.9968" rx="8" fill="rgba(239,235,226,0.07)"/><rect x="708.9333333333334" y="235.68" width="54.92000000000001" height="9" rx="4.5" fill="rgba(239,235,226,0.30)"/><rect x="345.2165" y="545.97696" width="39.817" height="60.02303999999999" rx="3" fill="rgba(239,235,226,0.16)"/><rect x="413.86650000000003" y="503.10336" width="39.817" height="102.89663999999999" rx="3" fill="rgba(239,235,226,0.16)"/><rect x="482.5165" y="533.972352" width="39.817" height="72.02764799999999" rx="3" fill="rgba(239,235,226,0.16)"/><rect x="551.1665" y="482.52403200000003" width="39.817" height="123.47596799999998" rx="3" fill="rgba(239,235,226,0.16)"/><rect x="619.8165000000001" y="520.2528" width="39.817" height="85.74719999999999" rx="3" fill="rgba(239,235,226,0.16)"/><rect x="688.4665" y="460.22976000000006" width="39.817" height="145.77023999999997" rx="3" fill="rgba(239,235,226,0.16)"/><rect x="757.1165000000001" y="499.673472" width="39.817" height="106.326528" rx="3" fill="rgba(239,235,226,0.16)"/><rect x="825.7665000000002" y="434.5056" width="39.817" height="171.49439999999998" rx="3" fill="#DE7A5C"/><rect x="978" y="96" width="856" height="277" rx="22" fill="#8E93D6"/><text x="1022" y="248.42" font-family="'Inter Tight','Inter','Helvetica Neue',Arial,sans-serif" font-size="48" font-weight="800" fill="#EFEBE2" letter-spacing="-1.2">Made to be seen.</text><rect x="978" y="399" width="856" height="277" rx="22" fill="#2B2A26"/><rect x="1005.7" y="426.7" width="800.6" height="221.6" rx="12" fill="#37352F"/><rect x="1005.7" y="426.7" width="800.6" height="26.592" rx="12" fill="#242320"/><rect x="1005.7" y="441.292" width="800.6" height="12" fill="#242320"/><circle cx="1020.7" cy="439.996" r="3.4" fill="rgba(239,235,226,0.3)"/><circle cx="1033.7" cy="439.996" r="3.4" fill="rgba(239,235,226,0.3)"/><circle cx="1046.7" cy="439.996" r="3.4" fill="rgba(239,235,226,0.3)"/><circle cx="1029.7" cy="480.292" r="10" fill="#AFC17C"/><rect x="1049.7" y="472.292" width="320.24" height="7" rx="3.5" fill="rgba(239,235,226,0.30)"/><rect x="1049.7" y="487.292" width="480.36" height="6" rx="3" fill="rgba(239,235,226,0.16)"/><circle cx="1029.7" cy="524.044" r="10" fill="rgba(239,235,226,0.07)"/><rect x="1049.7" y="516.044" width="320.24" height="7" rx="3.5" fill="rgba(239,235,226,0.30)"/><rect x="1049.7" y="531.044" width="480.36" height="6" rx="3" fill="rgba(239,235,226,0.16)"/><circle cx="1029.7" cy="567.7959999999999" r="10" fill="rgba(239,235,226,0.07)"/><rect x="1049.7" y="559.7959999999999" width="320.24" height="7" rx="3.5" fill="rgba(239,235,226,0.30)"/><rect x="1049.7" y="574.7959999999999" width="480.36" height="6" rx="3" fill="rgba(239,235,226,0.16)"/><circle cx="1029.7" cy="611.548" r="10" fill="rgba(239,235,226,0.07)"/><rect x="1049.7" y="603.548" width="320.24" height="7" rx="3.5" fill="rgba(239,235,226,0.30)"/><rect x="1049.7" y="618.548" width="480.36" height="6" rx="3" fill="rgba(239,235,226,0.16)"/><rect x="96" y="702" width="856" height="277" rx="22" fill="#201F1C"/><text x="140" y="853.8399999999999" font-family="'Inter Tight','Inter','Helvetica Neue',Arial,sans-serif" font-size="46" font-weight="800" fill="#EFEBE2" letter-spacing="-1.2">Every surface, in one place.</text><clipPath id="k2"><rect x="978" y="702" width="856" height="277" rx="22"/></clipPath><g clip-path="url(#k2)"><rect x="978" y="702" width="394" height="277" rx="0" fill="#2B2A26"/><rect x="1005.7" y="729.7" width="338.6" height="221.6" rx="12" fill="#37352F"/><rect x="1005.7" y="729.7" width="338.6" height="26.592" rx="12" fill="#242320"/><rect x="1005.7" y="744.292" width="338.6" height="12" fill="#242320"/><circle cx="1020.7" cy="742.9960000000001" r="3.4" fill="rgba(239,235,226,0.3)"/><circle cx="1033.7" cy="742.9960000000001" r="3.4" fill="rgba(239,235,226,0.3)"/><circle cx="1046.7" cy="742.9960000000001" r="3.4" fill="rgba(239,235,226,0.3)"/><rect x="1021.7" y="768.292" width="94.80800000000002" height="8" rx="4" fill="rgba(239,235,226,0.30)"/><rect x="1029.315" y="898.6104128" width="22.845000000000002" height="38.6895872" rx="3" fill="rgba(239,235,226,0.16)"/><rect x="1067.39" y="870.8022719999999" width="22.845000000000002" height="66.497728" rx="3" fill="rgba(239,235,226,0.16)"/><rect x="1105.4650000000001" y="886.5199167999999" width="22.845000000000002" height="50.78008319999999" rx="3" fill="rgba(239,235,226,0.16)"/><rect x="1143.54" y="850.2484287999999" width="22.845000000000002" height="87.05157119999998" rx="3" fill="rgba(239,235,226,0.16)"/><rect x="1181.615" y="870.8022719999999" width="22.845000000000002" height="66.497728" rx="3" fill="rgba(239,235,226,0.16)"/><rect x="1219.69" y="828.4855359999999" width="22.845000000000002" height="108.81446399999999" rx="3" fill="rgba(239,235,226,0.16)"/><rect x="1257.765" y="855.0846272" width="22.845000000000002" height="82.2153728" rx="3" fill="rgba(239,235,226,0.16)"/><rect x="1295.8400000000001" y="816.39504" width="22.845000000000002" height="120.90495999999999" rx="3" fill="#DE7A5C"/><line x1="1021.7" y1="937.3" x2="1326.3000000000002" y2="937.3" stroke="rgba(239,235,226,0.16)" stroke-width="2"/><rect x="1372" y="702" width="462" height="277" fill="#EFEBE2"/><text x="1406" y="829.7" font-family="'Inter Tight','Inter','Helvetica Neue',Arial,sans-serif" font-size="30" font-weight="800" fill="#1A1815" letter-spacing="-1.2">Dashboards</text><text x="1406" y="860.3000000000001" font-family="'Inter','Helvetica Neue',Arial,sans-serif" font-size="18" font-weight="500" fill="rgba(26,24,21,0.56)">built in</text></g>
</svg>
