<svg xmlns="http://www.w3.org/2000/svg" viewBox="0 0 1920 1080" width="1920" height="1080">
<title>Spotlight</title>
<rect width="1920" height="1080" fill="#161513"/>
<clipPath id="k3"><rect x="96" y="96" width="856" height="883" rx="22"/></clipPath><g clip-path="url(#k3)"><rect x="96" y="96" width="856" height="512" rx="0" fill="#2B2A26"/><rect x="147.2" y="147.2" width="753.6" height="409.6" rx="12" fill="#37352F"/><rect x="147.2" y="147.2" width="753.6" height="49.152" rx="12" fill="#242320"/><rect x="147.2" y="184.35199999999998" width="753.6" height="12" fill="#242320"/><circle cx="162.2" cy="171.77599999999998" r="3.4" fill="rgba(239,235,226,0.3)"/><circle cx="175.2" cy="171.77599999999998" r="3.4" fill="rgba(239,235,226,0.3)"/><circle cx="188.2" cy="171.77599999999998" r="3.4" fill="rgba(239,235,226,0.3)"/><rect x="147.2" y="196.35199999999998" width="165.792" height="360.44800000000004" fill="#242320"/><rect x="159.2" y="210.35199999999998" width="141.792" height="6" rx="3" fill="#AFC17C"/><rect x="159.2" y="228.35199999999998" width="99.25439999999999" height="6" rx="3" fill="rgba(239,235,226,0.16)"/><rect x="159.2" y="246.35199999999998" width="99.25439999999999" height="6" rx="3" fill="rgba(239,235,226,0.16)"/><rect x="159.2" y="264.352" width="99.25439999999999" height="6" rx="3" fill="rgba(239,235,226,0.16)"/><rect x="159.2" y="282.352" width="99.25439999999999" height="6" rx="3" fill="rgba(239,235,226,0.16)"/><rect x="159.2" y="300.352" width="99.25439999999999" height="6" rx="3" fill="rgba(239,235,226,0.16)"/><rect x="326.99199999999996" y="210.35199999999998" width="176.60266666666666" height="86.50752" rx="8" fill="rgba(239,235,226,0.07)"/><rect x="338.99199999999996" y="222.35199999999998" width="55.9808" height="9" rx="4.5" fill="rgba(239,235,226,0.30)"/><rect x="513.5946666666666" y="210.35199999999998" width="176.60266666666666" height="86.50752" rx="8" fill="rgba(239,235,226,0.07)"/><rect x="525.5946666666666" y="222.35199999999998" width="55.9808" height="9" rx="4.5" fill="#AFC17C"/><rect x="700.1973333333333" y="210.35199999999998" width="176.60266666666666" height="86.50752" rx="8" fill="rgba(239,235,226,0.07)"/><rect x="712.1973333333333" y="222.35199999999998" width="55.9808" height="9" rx="4.5" fill="rgba(239,235,226,0.30)"/><rect x="341.68695999999994" y="491.81414399999994" width="40.586079999999995" height="52.985856" rx="3" fill="rgba(239,235,226,0.16)"/><rect x="411.66295999999994" y="453.96710399999995" width="40.586079999999995" height="90.83289599999999" rx="3" fill="rgba(239,235,226,0.16)"/><rect x="481.63895999999994" y="481.21697279999995" width="40.586079999999995" height="63.5830272" rx="3" fill="rgba(239,235,226,0.16)"/><rect x="551.61496" y="435.80052479999995" width="40.586079999999995" height="108.99947519999999" rx="3" fill="rgba(239,235,226,0.16)"/><rect x="621.59096" y="469.10591999999997" width="40.586079999999995" height="75.69408" rx="3" fill="rgba(239,235,226,0.16)"/><rect x="691.56696" y="416.12006399999996" width="40.586079999999995" height="128.679936" rx="3" fill="rgba(239,235,226,0.16)"/><rect x="761.54296" y="450.93934079999997" width="40.586079999999995" height="93.8606592" rx="3" fill="rgba(239,235,226,0.16)"/><rect x="831.51896" y="393.41184" width="40.586079999999995" height="151.38816" rx="3" fill="#AFC17C"/><rect x="96" y="608" width="856" height="371" fill="#DE7A5C"/><text x="128" y="767.4" font-family="'Inter Tight','Inter','Helvetica Neue',Arial,sans-serif" font-size="30" font-weight="800" fill="#EFEBE2" letter-spacing="-1.2">Design and data,</text><text x="128" y="798" font-family="'Inter Tight','Inter','Helvetica Neue',Arial,sans-serif" font-size="30" font-weight="800" fill="#EFEBE2" letter-spacing="-1.2">same place.</text><text x="128" y="828.6" font-family="'Inter','Helvetica Neue',Arial,sans-serif" font-size="18" font-weight="500" fill="rgba(239,235,226,0.74)">what you design is what they see.</text></g><rect x="978" y="96" width="856" height="277" rx="22" fill="#EFEBE2"/><text x="1022" y="213.1" font-family="'Inter','Helvetica Neue',Arial,sans-serif" font-size="15" font-weight="700" fill="rgba(26,24,21,0.56)" letter-spacing="2.5">SPOTLIGHT</text><text x="1022" y="265.1" font-family="'Inter Tight','Inter','Helvetica Neue',Arial,sans-serif" font-size="40" font-weight="800" fill="#1A1815" letter-spacing="-1.2">No exports. No stale screenshots.</text><rect x="978" y="399" width="856" height="277" rx="22" fill="#2B2A26"/><rect x="1005.7" y="426.7" width="800.6" height="221.6" rx="12" fill="#37352F"/><rect x="1005.7" y="426.7" width="800.6" height="26.592" rx="12" fill="#242320"/><rect x="1005.7" y="441.292" width="800.6" height="12" fill="#242320"/><circle cx="1020.7" cy="439.996" r="3.4" fill="rgba(239,235,226,0.3)"/><circle cx="1033.7" cy="439.996" r="3.4" fill="rgba(239,235,226,0.3)"/><circle cx="1046.7" cy="439.996" r="3.4" fill="rgba(239,235,226,0.3)"/><rect x="1021.7" y="465.292" width="224.16800000000003" height="8" rx="4" fill="rgba(239,235,226,0.30)"/><rect x="1040.865" y="595.6104128" width="57.495" height="38.6895872" rx="3" fill="rgba(239,235,226,0.16)"/><rect x="1136.69" y="567.8022719999999" width="57.495" height="66.497728" rx="3" fill="rgba(239,235,226,0.16)"/><rect x="1232.515" y="583.5199167999999" width="57.495" height="50.78008319999999" rx="3" fill="rgba(239,235,226,0.16)"/><rect x="1328.3400000000001" y="547.2484287999999" width="57.495" height="87.05157119999998" rx="3" fill="rgba(239,235,226,0.16)"/><rect x="1424.165" y="567.8022719999999" width="57.495" height="66.497728" rx="3" fill="rgba(239,235,226,0.16)"/><rect x="1519.99" y="525.4855359999999" width="57.495" height="108.81446399999999" rx="3" fill="rgba(239,235,226,0.16)"/><rect x="1615.815" y="552.0846272" width="57.495" height="82.2153728" rx="3" fill="rgba(239,235,226,0.16)"/><rect x="1711.6399999999999" y="513.39504" width="57.495" height="120.90495999999999" rx="3" fill="#AFC17C"/><line x1="1021.7" y1="634.3" x2="1788.3000000000002" y2="634.3" stroke="rgba(239,235,226,0.16)" stroke-width="2"/><rect x="978" y="702" width="415" height="277" rx="22" fill="#AFC17C"/><text x="1022" y="850.5" font-family="'Inter Tight','Inter','Helvetica Neue',Arial,sans-serif" font-size="74" font-weight="800" fill="#1A1815" letter-spacing="-2">3×</text><text x="1024" y="894.5" font-family="'Inter','Helvetica Neue',Arial,sans-serif" font-size="19" font-weight="600" fill="rgba(26,24,21,0.56)">faster reviews</text><rect x="1419" y="702" width="415" height="277" rx="22" fill="#8E93D6"/><text x="1463" y="832.14" font-family="'Inter Tight','Inter','Helvetica Neue',Arial,sans-serif" font-size="38" font-weight="800" fill="#EFEBE2" letter-spacing="-1.2">Always</text><text x="1463" y="870.9" font-family="'Inter Tight','Inter','Helvetica Neue',Arial,sans-serif" font-size="38" font-weight="800" fill="#EFEBE2" letter-spacing="-1.2">live.</text>
</svg>
