<svg xmlns="http://www.w3.org/2000/svg" viewBox="0 0 1920 1080" width="1920" height="1080">
<title>By the numbers</title>
<rect width="1920" height="1080" fill="#161513"/>
<rect x="96" y="96" width="856" height="277" rx="22" fill="#EFEBE2"/><text x="140" y="253.64000000000001" font-family="'Inter Tight','Inter','Helvetica Neue',Arial,sans-serif" font-size="66" font-weight="800" fill="#1A1815" letter-spacing="-1.2">By the numbers.</text><rect x="978" y="96" width="415" height="277" rx="22" fill="#DE7A5C"/><text x="1022" y="244.5" font-family="'Inter Tight','Inter','Helvetica Neue',Arial,sans-serif" font-size="74" font-weight="800" fill="#EFEBE2" letter-spacing="-2">12k+</text><text x="1024" y="288.5" font-family="'Inter','Helvetica Neue',Arial,sans-serif" font-size="19" font-weight="600" fill="rgba(239,235,226,0.74)">teams</text><rect x="1419" y="96" width="415" height="277" rx="22" fill="#201F1C"/><text x="1463" y="244.5" font-family="'Inter Tight','Inter','Helvetica Neue',Arial,sans-serif" font-size="74" font-weight="800" fill="#EFEBE2" letter-spacing="-2">8k+</text><text x="1465" y="288.5" font-family="'Inter','Helvetica Neue',Arial,sans-serif" font-size="19" font-weight="600" fill="rgba(239,235,226,0.74)">companies</text><rect x="96" y="399" width="415" height="277" rx="22" fill="#201F1C"/><text x="140" y="547.5" font-family="'Inter Tight','Inter','Helvetica Neue',Arial,sans-serif" font-size="74" font-weight="800" fill="#EFEBE2" letter-spacing="-2">40ms</text><text x="142" y="591.5" font-family="'Inter','Helvetica Neue',Arial,sans-serif" font-size="19" font-weight="600" fill="rgba(239,235,226,0.74)">response</text><rect x="537" y="399" width="415" height="277" rx="22" fill="#201F1C"/><text x="581" y="547.5" font-family="'Inter Tight','Inter','Helvetica Neue',Arial,sans-serif" font-size="74" font-weight="800" fill="#EFEBE2" letter-spacing="-2">99.9%</text><text x="583" y="591.5" font-family="'Inter','Helvetica Neue',Arial,sans-serif" font-size="19" font-weight="600" fill="rgba(239,235,226,0.74)">uptime</text><rect x="978" y="399" width="415" height="277" rx="22" fill="#AFC17C"/><text x="1022" y="547.5" font-family="'Inter Tight','Inter','Helvetica Neue',Arial,sans-serif" font-size="74" font-weight="800" fill="#1A1815" letter-spacing="-2">4.9★</text><text x="1024" y="591.5" font-family="'Inter','Helvetica Neue',Arial,sans-serif" font-size="19" font-weight="600" fill="rgba(26,24,21,0.56)">rating</text><clipPath id="k4"><rect x="1419" y="399" width="415" height="580" rx="22"/></clipPath><g clip-path="url(#k4)"><rect x="1419" y="399" width="415" height="313" rx="0" fill="#2B2A26"/><rect x="1450.3" y="430.3" width="352.4" height="250.4" rx="12" fill="#37352F"/><rect x="1450.3" y="430.3" width="352.4" height="30.048" rx="12" fill="#242320"/><rect x="1450.3" y="448.348" width="352.4" height="12" fill="#242320"/><circle cx="1465.3" cy="445.324" r="3.4" fill="rgba(239,235,226,0.3)"/><circle cx="1478.3" cy="445.324" r="3.4" fill="rgba(239,235,226,0.3)"/><circle cx="1491.3" cy="445.324" r="3.4" fill="rgba(239,235,226,0.3)"/><circle cx="1474.3" cy="487.348" r="10" fill="#DE7A5C"/><rect x="1494.3" y="479.348" width="140.96" height="7" rx="3.5" fill="rgba(239,235,226,0.30)"/><rect x="1494.3" y="494.348" width="211.43999999999997" height="6" rx="3" fill="rgba(239,235,226,0.16)"/><circle cx="1474.3" cy="537.436" r="10" fill="rgba(239,235,226,0.07)"/><rect x="1494.3" y="529.436" width="140.96" height="7" rx="3.5" fill="rgba(239,235,226,0.30)"/><rect x="1494.3" y="544.436" width="211.43999999999997" height="6" rx="3" fill="rgba(239,235,226,0.16)"/><circle cx="1474.3" cy="587.524" r="10" fill="rgba(239,235,226,0.07)"/><rect x="1494.3" y="579.524" width="140.96" height="7" rx="3.5" fill="rgba(239,235,226,0.30)"/><rect x="1494.3" y="594.524" width="211.43999999999997" height="6" rx="3" fill="rgba(239,235,226,0.16)"/><circle cx="1474.3" cy="637.6120000000001" r="10" fill="rgba(239,235,226,0.07)"/><rect x="1494.3" y="629.6120000000001" width="140.96" height="7" rx="3.5" fill="rgba(239,235,226,0.30)"/><rect x="1494.3" y="644.6120000000001" width="211.43999999999997" height="6" rx="3" fill="rgba(239,235,226,0.16)"/><rect x="1419" y="712" width="415" height="267" fill="#EFEBE2"/><text x="1451" y="819.4" font-family="'Inter Tight','Inter','Helvetica Neue',Arial,sans-serif" font-size="30" font-weight="800" fill="#1A1815" letter-spacing="-1.2">Loved by</text><text x="1451" y="850" font-family="'Inter Tight','Inter','Helvetica Neue',Arial,sans-serif" font-size="30" font-weight="800" fill="#1A1815" letter-spacing="-1.2">teams</text><text x="1451" y="880.6" font-family="'Inter','Helvetica Neue',Arial,sans-serif" font-size="18" font-weight="500" fill="rgba(26,24,21,0.56)">900+ reviews</text></g><rect x="96" y="702" width="1297" height="277" rx="22" fill="#201F1C"/><text x="140" y="857.3199999999999" font-family="'Inter Tight','Inter','Helvetica Neue',Arial,sans-serif" font-size="58" font-weight="800" fill="#EFEBE2" letter-spacing="-1.2">Real traction, built to scale.</text>
</svg>
