<svg xmlns="http://www.w3.org/2000/svg" viewBox="0 0 1920 1080" width="1920" height="1080">
<title>Details</title>
<rect width="1920" height="1080" fill="#161513"/>
<clipPath id="k5"><rect x="96" y="96" width="856" height="277" rx="22"/></clipPath><g clip-path="url(#k5)"><rect x="96" y="96" width="394" height="277" rx="0" fill="#2B2A26"/><rect x="123.7" y="123.7" width="338.6" height="221.6" rx="12" fill="#37352F"/><rect x="123.7" y="123.7" width="338.6" height="26.592" rx="12" fill="#242320"/><rect x="123.7" y="138.292" width="338.6" height="12" fill="#242320"/><circle cx="138.7" cy="136.996" r="3.4" fill="rgba(239,235,226,0.3)"/><circle cx="151.7" cy="136.996" r="3.4" fill="rgba(239,235,226,0.3)"/><circle cx="164.7" cy="136.996" r="3.4" fill="rgba(239,235,226,0.3)"/><circle cx="147.7" cy="177.292" r="10" fill="#AFC17C"/><rect x="167.7" y="169.292" width="135.44000000000003" height="7" rx="3.5" fill="rgba(239,235,226,0.30)"/><rect x="167.7" y="184.292" width="203.16" height="6" rx="3" fill="rgba(239,235,226,0.16)"/><circle cx="147.7" cy="221.04399999999998" r="10" fill="rgba(239,235,226,0.07)"/><rect x="167.7" y="213.04399999999998" width="135.44000000000003" height="7" rx="3.5" fill="rgba(239,235,226,0.30)"/><rect x="167.7" y="228.04399999999998" width="203.16" height="6" rx="3" fill="rgba(239,235,226,0.16)"/><circle cx="147.7" cy="264.796" r="10" fill="rgba(239,235,226,0.07)"/><rect x="167.7" y="256.796" width="135.44000000000003" height="7" rx="3.5" fill="rgba(239,235,226,0.30)"/><rect x="167.7" y="271.796" width="203.16" height="6" rx="3" fill="rgba(239,235,226,0.16)"/><circle cx="147.7" cy="308.548" r="10" fill="rgba(239,235,226,0.07)"/><rect x="167.7" y="300.548" width="135.44000000000003" height="7" rx="3.5" fill="rgba(239,235,226,0.30)"/><rect x="167.7" y="315.548" width="203.16" height="6" rx="3" fill="rgba(239,235,226,0.16)"/><rect x="490" y="96" width="462" height="277" fill="#EFEBE2"/><text x="524" y="223.7" font-family="'Inter Tight','Inter','Helvetica Neue',Arial,sans-serif" font-size="30" font-weight="800" fill="#1A1815" letter-spacing="-1.2">Built for teams</text><text x="524" y="254.29999999999998" font-family="'Inter','Helvetica Neue',Arial,sans-serif" font-size="18" font-weight="500" fill="rgba(26,24,21,0.56)">roles · reviews · real-time</text></g><rect x="978" y="96" width="415" height="277" rx="22" fill="#8E93D6"/><text x="1022" y="226.14000000000001" font-family="'Inter Tight','Inter','Helvetica Neue',Arial,sans-serif" font-size="38" font-weight="800" fill="#EFEBE2" letter-spacing="-1.2">Fast by</text><text x="1022" y="264.90000000000003" font-family="'Inter Tight','Inter','Helvetica Neue',Arial,sans-serif" font-size="38" font-weight="800" fill="#EFEBE2" letter-spacing="-1.2">default</text><rect x="1419" y="96" width="415" height="580" rx="22" fill="#2B2A26"/><rect x="1460.5" y="137.5" width="332" height="497" rx="12" fill="#37352F"/><rect x="1460.5" y="137.5" width="332" height="59.64" rx="12" fill="#242320"/><rect x="1460.5" y="185.14" width="332" height="12" fill="#242320"/><circle cx="1475.5" cy="167.32" r="3.4" fill="rgba(239,235,226,0.3)"/><circle cx="1488.5" cy="167.32" r="3.4" fill="rgba(239,235,226,0.3)"/><circle cx="1501.5" cy="167.32" r="3.4" fill="rgba(239,235,226,0.3)"/><rect x="1460.5" y="197.14" width="59.76" height="437.36" fill="#242320"/><rect x="1470.5" y="211.14" width="39.76" height="5" rx="2.5" fill="#DE7A5C"/><rect x="1470.5" y="227.14" width="27.831999999999997" height="5" rx="2.5" fill="rgba(239,235,226,0.16)"/><rect x="1470.5" y="243.14" width="27.831999999999997" height="5" rx="2.5" fill="rgba(239,235,226,0.16)"/><rect x="1470.5" y="259.14" width="27.831999999999997" height="5" rx="2.5" fill="rgba(239,235,226,0.16)"/><rect x="1470.5" y="275.14" width="27.831999999999997" height="5" rx="2.5" fill="rgba(239,235,226,0.16)"/><rect x="1553.46" y="217.14" width="99.6" height="12" rx="6" fill="rgba(239,235,226,0.30)"/><rect x="1553.46" y="245.14" width="199.2" height="7" rx="3.5" fill="rgba(239,235,226,0.16)"/><rect x="1553.46" y="288.876" width="179.28" height="7" rx="3.5" fill="rgba(239,235,226,0.16)"/><rect x="1553.46" y="332.61199999999997" width="191.23199999999997" height="7" rx="3.5" fill="rgba(239,235,226,0.16)"/><rect x="1553.46" y="376.348" width="119.51999999999998" height="7" rx="3.5" fill="rgba(175,193,124,0.34)"/><rect x="1553.46" y="420.084" width="175.296" height="7" rx="3.5" fill="rgba(239,235,226,0.16)"/><rect x="1553.46" y="463.82" width="143.42399999999998" height="7" rx="3.5" fill="rgba(239,235,226,0.16)"/><rect x="96" y="399" width="856" height="277" rx="22" fill="#EFEBE2"/><text x="140" y="549.1" font-family="'Inter Tight','Inter','Helvetica Neue',Arial,sans-serif" font-size="40" font-weight="800" fill="#1A1815" letter-spacing="-1.2">Secure by design, private by default.</text><rect x="978" y="399" width="415" height="277" rx="22" fill="#DE7A5C"/><text x="1022" y="547.5" font-family="'Inter Tight','Inter','Helvetica Neue',Arial,sans-serif" font-size="74" font-weight="800" fill="#EFEBE2" letter-spacing="-2">SOC 2</text><text x="1024" y="591.5" font-family="'Inter','Helvetica Neue',Arial,sans-serif" font-size="19" font-weight="600" fill="rgba(239,235,226,0.74)">compliant</text><rect x="96" y="702" width="856" height="277" rx="22" fill="#2B2A26"/><rect x="123.7" y="729.7" width="800.6" height="221.6" rx="12" fill="#37352F"/><rect x="123.7" y="729.7" width="800.6" height="26.592" rx="12" fill="#242320"/><rect x="123.7" y="744.292" width="800.6" height="12" fill="#242320"/><circle cx="138.7" cy="742.9960000000001" r="3.4" fill="rgba(239,235,226,0.3)"/><circle cx="151.7" cy="742.9960000000001" r="3.4" fill="rgba(239,235,226,0.3)"/><circle cx="164.7" cy="742.9960000000001" r="3.4" fill="rgba(239,235,226,0.3)"/><rect x="159.727" y="768.292" width="113.41833333333334" height="6" rx="3" fill="#8E93D6"/><rect x="159.727" y="784.292" width="226.83666666666667" height="29.251199999999997" rx="8" fill="rgba(175,193,124,0.24)"/><rect x="159.727" y="823.2936" width="226.83666666666667" height="29.251199999999997" rx="8" fill="rgba(239,235,226,0.07)"/><rect x="159.727" y="862.2952" width="226.83666666666667" height="29.251199999999997" rx="8" fill="rgba(239,235,226,0.07)"/><rect x="410.5816666666667" y="768.292" width="113.41833333333334" height="6" rx="3" fill="rgba(239,235,226,0.30)"/><rect x="410.5816666666667" y="784.292" width="226.83666666666667" height="29.251199999999997" rx="8" fill="rgba(239,235,226,0.07)"/><rect x="410.5816666666667" y="823.2936" width="226.83666666666667" height="29.251199999999997" rx="8" fill="rgba(239,235,226,0.07)"/><rect x="410.5816666666667" y="862.2952" width="226.83666666666667" height="29.251199999999997" rx="8" fill="rgba(239,235,226,0.07)"/><rect x="661.4363333333333" y="768.292" width="113.41833333333334" height="6" rx="3" fill="rgba(239,235,226,0.30)"/><rect x="661.4363333333333" y="784.292" width="226.83666666666667" height="29.251199999999997" rx="8" fill="rgba(239,235,226,0.07)"/><rect x="661.4363333333333" y="823.2936" width="226.83666666666667" height="29.251199999999997" rx="8" fill="rgba(239,235,226,0.07)"/><rect x="661.4363333333333" y="862.2952" width="226.83666666666667" height="29.251199999999997" rx="8" fill="rgba(239,235,226,0.07)"/><rect x="978" y="702" width="856" height="277" rx="22" fill="#201F1C"/><text x="1022" y="830.26" font-family="'Inter Tight','Inter','Helvetica Neue',Arial,sans-serif" font-size="44" font-weight="800" fill="#EFEBE2" letter-spacing="-1.2">Loved by makers.</text><text x="1022" y="863.9399999999999" font-family="'Inter','Helvetica Neue',Arial,sans-serif" font-size="18" font-weight="500" fill="rgba(239,235,226,0.74)">★ 900+ reviews</text>
</svg>
