<svg width="64" height="64" viewBox="0 0 64 64" fill="none" xmlns="http://www.w3.org/2000/svg">
<path fill-rule="evenodd" clip-rule="evenodd" d="M60.1521 15.9784L32.4765 0L4.80078 15.9784V47.9351L32.4765 63.9135L60.1521 47.9351V15.9784ZM32.3794 44.5557C23.5157 49.8641 15.3117 51.476 12.3389 47.671C9.77662 44.3914 12.0593 38.3143 17.41 32.0137C12.0593 25.7131 9.77662 19.636 12.3389 16.3564C15.3117 12.5514 23.5157 14.1633 32.3794 19.4717C41.2431 14.1633 49.4471 12.5514 52.4199 16.3564C54.9822 19.636 52.6995 25.7131 47.3488 32.0137C52.6995 38.3143 54.9822 44.3914 52.4199 47.671C49.4471 51.476 41.2431 49.8641 32.3794 44.5557ZM30.4664 43.3588C27.6996 44.9422 25.0001 46.153 22.5421 46.9073C18.2347 48.2292 15.131 48.0048 13.9107 46.443C12.6905 44.8812 13.2237 41.8153 15.5483 37.9557C16.4139 36.5186 17.4929 35.0288 18.751 33.5275C20.8263 35.7773 23.2723 38.0293 26.009 40.1674C27.49 41.3245 28.9828 42.3909 30.4664 43.3588ZM32.3794 42.2111C30.662 41.1334 28.9343 39.9216 27.237 38.5956C24.5533 36.4988 22.1284 34.259 20.0769 32.0137C22.1284 29.7684 24.5533 27.5286 27.237 25.4318C28.9343 24.1057 30.662 22.894 32.3794 21.8163C34.0968 22.894 35.8245 24.1057 37.5218 25.4318C40.2055 27.5286 42.6304 29.7684 44.6819 32.0137C42.6304 34.259 40.2055 36.4988 37.5218 38.5956C35.8245 39.9216 34.0968 41.1334 32.3794 42.2111ZM34.2924 43.3588C37.0592 44.9422 39.7587 46.153 42.2167 46.9073C46.5241 48.2292 49.6278 48.0048 50.8481 46.443C52.0683 44.8812 51.5351 41.8153 49.2105 37.9557C48.3449 36.5186 47.2659 35.0288 46.0078 33.5275C43.9325 35.7773 41.4865 38.0293 38.7498 40.1674C37.2688 41.3245 35.776 42.3909 34.2924 43.3588ZM46.0078 30.4999C47.2659 28.9986 48.3449 27.5088 49.2105 26.0717C51.5351 22.2121 52.0683 19.1462 50.8481 17.5844C49.6278 16.0226 46.5241 15.7982 42.2167 17.1201C39.7587 17.8744 37.0592 19.0852 34.2924 20.6686C35.776 21.6365 37.2688 22.7029 38.7498 23.86C41.4865 25.9981 43.9325 28.2501 46.0078 30.4999ZM30.4664 20.6686C28.9828 21.6365 27.49 22.7029 26.009 23.86C23.2723 25.9981 20.8263 28.2501 18.751 30.4999C17.4929 28.9986 16.4139 27.5088 15.5483 26.0717C13.2237 22.2121 12.6905 19.1462 13.9107 17.5844C15.131 16.0226 18.2347 15.7982 22.5421 17.1201C25.0001 17.8744 27.6996 19.0852 30.4664 20.6686ZM32.3792 36.2524C34.7202 36.2524 36.6179 34.3547 36.6179 32.0138C36.6179 29.6728 34.7202 27.7751 32.3792 27.7751C30.0383 27.7751 28.1406 29.6728 28.1406 32.0138C28.1406 34.3547 30.0383 36.2524 32.3792 36.2524Z" fill="#673AB8"/>
</svg>
