<svg width="24" height="24" viewBox="0 0 24 24" fill="none" xmlns="http://www.w3.org/2000/svg">
<path d="M8.70047 15.8997L4.80047 11.9997L8.70047 8.09973C9.09047 7.70973 9.09047 7.08973 8.70047 6.69973C8.31047 6.30973 7.69047 6.30973 7.30047 6.69973L2.71047 11.2897C2.32047 11.6797 2.32047 12.3097 2.71047 12.6997L7.30047 17.2997C7.69047 17.6897 8.31047 17.6897 8.70047 17.2997C9.09047 16.9097 9.09047 16.2897 8.70047 15.8997ZM15.3005 15.8997L19.2005 11.9997L15.3005 8.09973C14.9105 7.70973 14.9105 7.08973 15.3005 6.69973C15.6905 6.30973 16.3105 6.30973 16.7005 6.69973L21.2905 11.2897C21.6805 11.6797 21.6805 12.3097 21.2905 12.6997L16.7005 17.2997C16.3105 17.6897 15.6905 17.6897 15.3005 17.2997C14.9105 16.9097 14.9105 16.2897 15.3005 15.8997Z" fill="#DADADC"/>
</svg>
