<svg xmlns="http://www.w3.org/2000/svg" viewBox="0 0 1920 1080" width="1920" height="1080">
<title>Project 01</title>
<rect width="1920" height="1080" fill="#ECE8DF"/>
<clipPath id="k1"><rect x="96" y="96" width="856" height="883" rx="20"/></clipPath><g clip-path="url(#k1)"><rect x="96" y="96" width="856" height="883" fill="#F6F4EE"/><rect x="173.04" y="173.04" width="701.9200000000001" height="116.62720000000002" rx="6" fill="#191612"/><rect x="173.04" y="318.824" width="701.9200000000001" height="262.4112" rx="10" fill="#FF5233"/><rect x="191.04" y="377.1376" width="280.76800000000003" height="14" rx="7" fill="#F5F2EA"/><rect x="191.04" y="401.1376" width="196.53760000000003" height="10" rx="5" fill="rgba(245,242,234,0.6)"/><rect x="173.04" y="624.9704" width="221.97333333333336" height="247.83280000000005" rx="8" fill="#DBD6CA"/><rect x="407.0133333333333" y="624.9704" width="221.97333333333336" height="247.83280000000005" rx="8" fill="#DBD6CA"/><rect x="640.9866666666667" y="624.9704" width="221.97333333333336" height="247.83280000000005" rx="8" fill="#DBD6CA"/></g><rect x="96" y="96" width="856" height="883" rx="20" fill="none" stroke="rgba(25,22,18,0.10)" stroke-width="1"/><rect x="978" y="96" width="856" height="277" rx="20" fill="#F6F4EE" stroke="rgba(25,22,18,0.10)" stroke-width="1"/><text x="1794" y="192" font-family="'Inter Tight','Inter','Helvetica Neue',Arial,sans-serif" font-size="58" font-weight="800" fill="#FF5233" letter-spacing="-2" text-anchor="end">01</text><text x="1018" y="184.5" font-family="'Inter','Helvetica Neue',Arial,sans-serif" font-size="15" font-weight="700" fill="rgba(25,22,18,0.55)" letter-spacing="2.5">PROJECT 1</text><text x="1018" y="238.5" font-family="'Inter Tight','Inter','Helvetica Neue',Arial,sans-serif" font-size="42" font-weight="800" fill="#191612" letter-spacing="-1">Campus Events</text><text x="1018" y="286.5" font-family="'Inter','Helvetica Neue',Arial,sans-serif" font-size="19" font-weight="700" fill="#FF5233">Product Design · solo</text><rect x="978" y="399" width="856" height="277" rx="20" fill="#F6F4EE" stroke="rgba(25,22,18,0.10)" stroke-width="1"/><text x="1020" y="546.2" font-family="'Inter Tight','Inter','Helvetica Neue',Arial,sans-serif" font-size="30" font-weight="800" fill="#191612" letter-spacing="-1.2">An app to discover and RSVP to events across campus.</text><rect x="978" y="702" width="415" height="277" rx="20" fill="#FF5233"/><text x="1018" y="850.5" font-family="'Inter Tight','Inter','Helvetica Neue',Arial,sans-serif" font-size="68" font-weight="800" fill="#191612" letter-spacing="-2">1.2k</text><text x="1020" y="892.5" font-family="'Inter','Helvetica Neue',Arial,sans-serif" font-size="19" font-weight="600" fill="rgba(25,22,18,0.55)">students using it</text><rect x="1419" y="702" width="415" height="277" rx="20" fill="#1B1A17"/><text x="1461" y="833.9" font-family="'Inter Tight','Inter','Helvetica Neue',Arial,sans-serif" font-size="30" font-weight="800" fill="#F5F2EA" letter-spacing="-1.2">Figma</text><text x="1461" y="864.5" font-family="'Inter Tight','Inter','Helvetica Neue',Arial,sans-serif" font-size="30" font-weight="800" fill="#F5F2EA" letter-spacing="-1.2">SwiftUI</text>
</svg>
