<svg xmlns="http://www.w3.org/2000/svg" viewBox="0 0 1920 1080" width="1920" height="1080">
<title>Project 02</title>
<rect width="1920" height="1080" fill="#ECE8DF"/>
<rect x="96" y="96" width="856" height="277" rx="20" fill="#F6F4EE" stroke="rgba(25,22,18,0.10)" stroke-width="1"/><text x="912" y="192" font-family="'Inter Tight','Inter','Helvetica Neue',Arial,sans-serif" font-size="58" font-weight="800" fill="#FF5233" letter-spacing="-2" text-anchor="end">02</text><text x="136" y="184.5" font-family="'Inter','Helvetica Neue',Arial,sans-serif" font-size="15" font-weight="700" fill="rgba(25,22,18,0.55)" letter-spacing="2.5">PROJECT 2</text><text x="136" y="238.5" font-family="'Inter Tight','Inter','Helvetica Neue',Arial,sans-serif" font-size="42" font-weight="800" fill="#191612" letter-spacing="-1">Study Planner</text><text x="136" y="286.5" font-family="'Inter','Helvetica Neue',Arial,sans-serif" font-size="19" font-weight="700" fill="#FF5233">Design + Front-end</text><rect x="96" y="399" width="856" height="277" rx="20" fill="#F6F4EE" stroke="rgba(25,22,18,0.10)" stroke-width="1"/><text x="138" y="546.2" font-family="'Inter Tight','Inter','Helvetica Neue',Arial,sans-serif" font-size="30" font-weight="800" fill="#191612" letter-spacing="-1.2">A dashboard that turns a syllabus into a weekly plan.</text><rect x="96" y="702" width="415" height="277" rx="20" fill="#F6F4EE" stroke="rgba(25,22,18,0.10)" stroke-width="1"/><text x="136" y="850.5" font-family="'Inter Tight','Inter','Helvetica Neue',Arial,sans-serif" font-size="68" font-weight="800" fill="#191612" letter-spacing="-2">4.8★</text><text x="138" y="892.5" font-family="'Inter','Helvetica Neue',Arial,sans-serif" font-size="19" font-weight="600" fill="rgba(25,22,18,0.55)">on the app store</text><rect x="537" y="702" width="415" height="277" rx="20" fill="#FF5233"/><text x="579" y="833.9" font-family="'Inter Tight','Inter','Helvetica Neue',Arial,sans-serif" font-size="30" font-weight="800" fill="#191612" letter-spacing="-1.2">React</text><text x="579" y="864.5" font-family="'Inter Tight','Inter','Helvetica Neue',Arial,sans-serif" font-size="30" font-weight="800" fill="#191612" letter-spacing="-1.2">· D3</text><clipPath id="k2"><rect x="978" y="96" width="856" height="883" rx="20"/></clipPath><g clip-path="url(#k2)"><rect x="978" y="96" width="856" height="883" fill="#F6F4EE"/><rect x="1055.04" y="173.04" width="280.76800000000003" height="14" rx="7" fill="#C9C3B4"/><path d="M 1055.04 690.5732 L 1155.3142857142857 690.5732 L 1255.5885714285714 617.6812 L 1355.8628571428571 646.838 L 1456.1371428571429 544.7891999999999 L 1556.4114285714286 581.2352 L 1656.6857142857143 490.1202 L 1756.96 435.4512 L 1756.96 799.9112 L 1055.04 799.9112 Z" fill="#FF5233" opacity="0.16"/><path d="M 1055.04 690.5732 L 1155.3142857142857 690.5732 L 1255.5885714285714 617.6812 L 1355.8628571428571 646.838 L 1456.1371428571429 544.7891999999999 L 1556.4114285714286 581.2352 L 1656.6857142857143 490.1202 L 1756.96 435.4512" fill="none" stroke="#FF5233" stroke-width="4"/><rect x="1061.04" y="807.9112" width="120.38400000000001" height="49.735200000000006" rx="3" fill="#DBD6CA"/><rect x="1201.424" y="807.9112" width="120.38400000000001" height="78.89200000000001" rx="3" fill="#DBD6CA"/><rect x="1341.808" y="807.9112" width="120.38400000000001" height="57.02440000000001" rx="3" fill="#DBD6CA"/><rect x="1482.192" y="807.9112" width="120.38400000000001" height="42.446000000000005" rx="3" fill="#DBD6CA"/><rect x="1622.576" y="807.9112" width="120.38400000000001" height="71.6028" rx="3" fill="#DBD6CA"/><line x1="1055.04" y1="799.9112" x2="1756.96" y2="799.9112" stroke="rgba(25,22,18,0.10)" stroke-width="2"/></g><rect x="978" y="96" width="856" height="883" rx="20" fill="none" stroke="rgba(25,22,18,0.10)" stroke-width="1"/>
</svg>
