<svg xmlns="http://www.w3.org/2000/svg" viewBox="0 0 1920 1080" width="1920" height="1080">
<title>Project 03</title>
<rect width="1920" height="1080" fill="#ECE8DF"/>
<clipPath id="k3"><rect x="96" y="96" width="1738" height="277" rx="20"/></clipPath><g clip-path="url(#k3)"><rect x="96" y="96" width="1738" height="277" fill="#1B1A17"/><rect x="120.93" y="120.93" width="556.0466666666667" height="108.57" rx="7" fill="#DBD6CA"/><rect x="686.9766666666667" y="120.93" width="556.0466666666667" height="108.57" rx="7" fill="#C9C3B4"/><rect x="1253.0233333333335" y="120.93" width="556.0466666666667" height="108.57" rx="7" fill="#FF5233"/><rect x="120.93" y="239.5" width="556.0466666666667" height="108.57" rx="7" fill="#DBD6CA"/><rect x="686.9766666666667" y="239.5" width="556.0466666666667" height="108.57" rx="7" fill="#CFC9BA"/><rect x="1253.0233333333335" y="239.5" width="556.0466666666667" height="108.57" rx="7" fill="#C9C3B4"/></g><rect x="96" y="96" width="1738" height="277" rx="20" fill="none" stroke="rgba(25,22,18,0.10)" stroke-width="1"/><rect x="96" y="399" width="856" height="580" rx="20" fill="#F6F4EE" stroke="rgba(25,22,18,0.10)" stroke-width="1"/><text x="912" y="495" font-family="'Inter Tight','Inter','Helvetica Neue',Arial,sans-serif" font-size="58" font-weight="800" fill="#FF5233" letter-spacing="-2" text-anchor="end">03</text><text x="136" y="583" font-family="'Inter','Helvetica Neue',Arial,sans-serif" font-size="15" font-weight="700" fill="rgba(25,22,18,0.55)" letter-spacing="2.5">PROJECT 3</text><text x="136" y="637" font-family="'Inter Tight','Inter','Helvetica Neue',Arial,sans-serif" font-size="42" font-weight="800" fill="#191612" letter-spacing="-1">Field Notes</text><text x="136" y="681" font-family="'Inter Tight','Inter','Helvetica Neue',Arial,sans-serif" font-size="42" font-weight="800" fill="#191612" letter-spacing="-1">zine</text><text x="136" y="729" font-family="'Inter','Helvetica Neue',Arial,sans-serif" font-size="19" font-weight="700" fill="#FF5233">Editorial · print</text><text x="136" y="749" font-family="'Inter','Helvetica Neue',Arial,sans-serif" font-size="20" font-weight="500" fill="rgba(25,22,18,0.55)">A self-published zine on small campus</text><text x="136" y="776" font-family="'Inter','Helvetica Neue',Arial,sans-serif" font-size="20" font-weight="500" fill="rgba(25,22,18,0.55)">moments — photography, type, layout.</text><rect x="978" y="399" width="856" height="277" rx="20" fill="#FF5233"/><text x="1018" y="547.5" font-family="'Inter Tight','Inter','Helvetica Neue',Arial,sans-serif" font-size="68" font-weight="800" fill="#191612" letter-spacing="-2">300</text><text x="1020" y="589.5" font-family="'Inter','Helvetica Neue',Arial,sans-serif" font-size="19" font-weight="600" fill="rgba(25,22,18,0.55)">copies in print</text><rect x="978" y="702" width="856" height="277" rx="20" fill="#1B1A17"/><text x="1020" y="848.62" font-family="'Inter Tight','Inter','Helvetica Neue',Arial,sans-serif" font-size="28" font-weight="800" fill="#F5F2EA" letter-spacing="-1.2">InDesign · Risograph · Photography</text>
</svg>
