<svg xmlns="http://www.w3.org/2000/svg" viewBox="0 0 1920 1080" width="1920" height="1080">
<title>Skills &amp; tools</title>
<rect width="1920" height="1080" fill="#ECE8DF"/>
<rect x="96" y="96" width="856" height="277" rx="20" fill="#F6F4EE" stroke="rgba(25,22,18,0.10)" stroke-width="1"/><text x="138" y="250.74" font-family="'Inter Tight','Inter','Helvetica Neue',Arial,sans-serif" font-size="56" font-weight="800" fill="#191612" letter-spacing="-1.2">Skills &amp; tools.</text><rect x="978" y="96" width="856" height="277" rx="20" fill="#FF5233"/><text x="1020" y="243.78" font-family="'Inter Tight','Inter','Helvetica Neue',Arial,sans-serif" font-size="32" font-weight="800" fill="#191612" letter-spacing="-1.2">Design, research &amp; front-end.</text><rect x="96" y="399" width="856" height="277" rx="20" fill="#F6F4EE" stroke="rgba(25,22,18,0.10)" stroke-width="1"/><text x="136" y="457" font-family="'Inter','Helvetica Neue',Arial,sans-serif" font-size="16" font-weight="700" fill="rgba(25,22,18,0.55)" letter-spacing="2.5">DESIGN</text><rect x="136" y="495" width="166.5" height="42" rx="21" fill="none" stroke="rgba(25,22,18,0.10)" stroke-width="1.5"/><text x="156" y="523" font-family="'Inter','Helvetica Neue',Arial,sans-serif" font-size="19" font-weight="600" fill="#191612">UX Research</text><rect x="314.5" y="495" width="143.5" height="42" rx="21" fill="none" stroke="rgba(25,22,18,0.10)" stroke-width="1.5"/><text x="334.5" y="523" font-family="'Inter','Helvetica Neue',Arial,sans-serif" font-size="19" font-weight="600" fill="#191612">UI Design</text><rect x="470" y="495" width="166.5" height="42" rx="21" fill="none" stroke="rgba(25,22,18,0.10)" stroke-width="1.5"/><text x="490" y="523" font-family="'Inter','Helvetica Neue',Arial,sans-serif" font-size="19" font-weight="600" fill="#191612">Prototyping</text><rect x="648.5" y="495" width="97.5" height="42" rx="21" fill="none" stroke="rgba(25,22,18,0.10)" stroke-width="1.5"/><text x="668.5" y="523" font-family="'Inter','Helvetica Neue',Arial,sans-serif" font-size="19" font-weight="600" fill="#191612">Figma</text><rect x="758" y="495" width="109" height="42" rx="21" fill="none" stroke="rgba(25,22,18,0.10)" stroke-width="1.5"/><text x="778" y="523" font-family="'Inter','Helvetica Neue',Arial,sans-serif" font-size="19" font-weight="600" fill="#191612">Motion</text><rect x="136" y="547" width="201" height="42" rx="21" fill="none" stroke="rgba(25,22,18,0.10)" stroke-width="1.5"/><text x="156" y="575" font-family="'Inter','Helvetica Neue',Arial,sans-serif" font-size="19" font-weight="600" fill="#191612">Design Systems</text><rect x="978" y="399" width="856" height="277" rx="20" fill="#1B1A17"/><text x="1018" y="457" font-family="'Inter','Helvetica Neue',Arial,sans-serif" font-size="16" font-weight="700" fill="rgba(245,242,234,0.60)" letter-spacing="2.5">BUILD</text><rect x="1018" y="495" width="97.5" height="42" rx="21" fill="none" stroke="rgba(245,242,234,0.24)" stroke-width="1.5"/><text x="1038" y="523" font-family="'Inter','Helvetica Neue',Arial,sans-serif" font-size="19" font-weight="600" fill="#F5F2EA">React</text><rect x="1127.5" y="495" width="155" height="42" rx="21" fill="none" stroke="rgba(245,242,234,0.24)" stroke-width="1.5"/><text x="1147.5" y="523" font-family="'Inter','Helvetica Neue',Arial,sans-serif" font-size="19" font-weight="600" fill="#F5F2EA">TypeScript</text><rect x="1294.5" y="495" width="132" height="42" rx="21" fill="none" stroke="rgba(245,242,234,0.24)" stroke-width="1.5"/><text x="1314.5" y="523" font-family="'Inter','Helvetica Neue',Arial,sans-serif" font-size="19" font-weight="600" fill="#F5F2EA">Tailwind</text><rect x="1438.5" y="495" width="109" height="42" rx="21" fill="none" stroke="rgba(245,242,234,0.24)" stroke-width="1.5"/><text x="1458.5" y="523" font-family="'Inter','Helvetica Neue',Arial,sans-serif" font-size="19" font-weight="600" fill="#F5F2EA">Python</text><rect x="1559.5" y="495" width="86" height="42" rx="21" fill="none" stroke="rgba(245,242,234,0.24)" stroke-width="1.5"/><text x="1579.5" y="523" font-family="'Inter','Helvetica Neue',Arial,sans-serif" font-size="19" font-weight="600" fill="#F5F2EA">Node</text><rect x="1657.5" y="495" width="74.5" height="42" rx="21" fill="none" stroke="rgba(245,242,234,0.24)" stroke-width="1.5"/><text x="1677.5" y="523" font-family="'Inter','Helvetica Neue',Arial,sans-serif" font-size="19" font-weight="600" fill="#F5F2EA">Git</text><rect x="96" y="702" width="1738" height="277" rx="20" fill="#1B1A17"/><text x="138" y="822.1800000000001" font-family="'Inter','Helvetica Neue',Arial,sans-serif" font-size="15" font-weight="700" fill="rgba(245,242,234,0.60)" letter-spacing="2.5">RELEVANT COURSEWORK</text><text x="138" y="869.7800000000001" font-family="'Inter Tight','Inter','Helvetica Neue',Arial,sans-serif" font-size="32" font-weight="800" fill="#F5F2EA" letter-spacing="-1.2">HCI · Data Visualization · Algorithms · Typography</text>
</svg>
