<svg width="1024" height="1024" viewBox="0 0 1024 1024" fill="none" xmlns="http://www.w3.org/2000/svg">
<path d="M0 100C0 44.7715 44.7715 0 100 0H924C979.228 0 1024 44.7715 1024 100V924C1024 979.228 979.228 1024 924 1024H100C44.7715 1024 0 979.228 0 924V100Z" fill="black"/>
<path fill-rule="evenodd" clip-rule="evenodd" d="M639.55 385.286L638.196 632.923L877.715 867.029V623.447L877.719 623.451C877.719 622.998 877.717 622.546 877.715 622.094V619.391L877.684 619.361C875.501 489.713 769.722 385.286 639.553 385.286L639.764 385.497L639.55 385.286Z" fill="white"/>
<path fill-rule="evenodd" clip-rule="evenodd" d="M611.411 270.4C492.487 283.712 400.035 384.597 400.035 507.076V621.056L404.09 868.383L164.571 634.277V385.286V383.933L164.575 383.937C165.301 253.022 271.652 147.12 402.737 147.12C492.613 147.12 570.862 196.904 611.411 270.4Z" fill="white"/>
</svg>
