<svg width="64" height="64" viewBox="0 0 64 64" fill="none" xmlns="http://www.w3.org/2000/svg">
<mask id="mask0_8340_58145" style="mask-type:alpha" maskUnits="userSpaceOnUse" x="6" y="0" width="52" height="64">
<path d="M7.98489 58.9739L6.0023 6.14686C5.93683 4.40219 7.27458 2.9236 9.01708 2.81469L53.9502 0.00637552C55.7238 -0.104478 57.2515 1.24349 57.3624 3.01714C57.3665 3.08397 57.3686 3.15091 57.3686 3.21786V60.7823C57.3686 62.5594 55.928 64 54.1509 64C54.1027 64 54.0546 63.9989 54.0065 63.9968L11.056 62.0677C9.38326 61.9926 8.04769 60.6471 7.98489 58.9739Z" fill="white"/>
</mask>
<g mask="url(#mask0_8340_58145)">
<path d="M7.98489 58.9739L6.0023 6.14686C5.93683 4.40219 7.27458 2.9236 9.01708 2.81469L53.9502 0.00637552C55.7238 -0.104478 57.2515 1.24349 57.3624 3.01714C57.3665 3.08397 57.3686 3.15091 57.3686 3.21786V60.7823C57.3686 62.5594 55.928 64 54.1509 64C54.1027 64 54.0546 63.9989 54.0065 63.9968L11.056 62.0677C9.38326 61.9926 8.04769 60.6471 7.98489 58.9739Z" fill="#FF4785"/>
<path d="M43.9319 7.86662L44.2388 0.484838L50.4095 0L50.6753 7.61258C50.6846 7.87751 50.4773 8.09978 50.2124 8.10904C50.0989 8.113 49.9877 8.07663 49.8986 8.00639L47.519 6.13182L44.7016 8.26898C44.4904 8.4292 44.1893 8.38786 44.0291 8.17665C43.9616 8.08774 43.9273 7.97812 43.9319 7.86662ZM36.0402 24.1225C36.0402 25.3744 44.4728 24.7744 45.6048 23.895C45.6048 15.3699 41.0304 10.8901 32.654 10.8901C24.2775 10.8901 19.5844 15.4396 19.5844 22.2639C19.5844 34.1495 35.6244 34.3769 35.6244 40.86C35.6244 42.6798 34.7332 43.7603 32.7728 43.7603C30.2183 43.7603 29.2084 42.4557 29.3272 38.0199C29.3272 37.0576 19.5844 36.7576 19.2873 38.0199C18.5309 48.7694 25.2281 51.8699 32.8916 51.8699C40.3175 51.8699 46.1395 47.9117 46.1395 40.7462C46.1395 28.0076 29.8618 28.3488 29.8618 22.0364C29.8618 19.4773 31.7629 19.1361 32.8916 19.1361C34.0798 19.1361 36.2184 19.3455 36.0402 24.1225Z" fill="white"/>
</g>
</svg>
