<svg width="64" height="64" viewBox="0 0 64 64" fill="none" xmlns="http://www.w3.org/2000/svg">
<g clip-path="url(#clip0_8373_58372)">
<path fill-rule="evenodd" clip-rule="evenodd" d="M1.89171 36.548L1.89572 36.5733H1.89771L1.89941 36.584C3.74685 48.2474 4.6706 54.0793 8.02049 57.9145C9.76739 59.9144 11.9424 61.495 14.384 62.539C19.0662 64.5407 24.9004 63.6175 36.5649 61.7689L36.5796 61.7666C48.2364 59.9195 54.0673 58.9956 57.9002 55.6461C59.8998 53.8978 61.4798 51.7214 62.5226 49.2786C64.5244 44.5964 63.6011 38.7602 61.7525 27.0917C59.9059 15.4212 58.9826 9.58695 55.6317 5.75051C53.8849 3.75056 51.7098 2.16994 49.2682 1.12609C44.5821 -0.8757 38.7498 0.0475921 27.0813 1.89816L27.0686 1.90017C15.4126 3.7474 9.58313 4.67124 5.75007 8.01895C3.74979 9.76708 2.16917 11.9435 1.12565 14.3865C-0.874691 19.0672 0.0478012 24.8964 1.89171 36.548ZM35.576 55.5327C29.6204 56.4759 25.5969 57.1067 22.4728 57.2957H22.4748C19.4442 57.4788 17.93 57.1902 16.8634 56.7326C15.2937 56.0615 13.8954 55.0454 12.7723 53.7597C12.0082 52.8862 11.2659 51.5331 10.5038 48.596C9.71784 45.5655 9.07512 41.544 8.13193 35.5864C7.18675 29.6288 6.55795 25.6053 6.36892 22.4792C6.18585 19.4507 6.47438 17.9344 6.93005 16.8678C7.60094 15.2974 8.61705 13.8984 9.9029 12.7747C10.7764 12.0126 12.1276 11.2684 15.0646 10.5063C18.0951 9.72027 22.1146 9.07755 28.0703 8.13237C34.0279 7.18918 38.0494 6.55839 41.1734 6.36936C44.202 6.18629 45.7183 6.47482 46.7848 6.93249C48.3546 7.60351 49.7529 8.61962 50.876 9.90533C51.6381 10.7789 52.3823 12.132 53.1444 15.069C53.9304 18.0995 54.5731 22.121 55.5163 28.0787C56.4595 34.0363 57.0903 38.0618 57.2793 41.1858C57.4624 44.2144 57.1739 45.7307 56.7162 46.7972C56.046 48.3674 55.0305 49.7665 53.7453 50.8903C52.8718 51.6545 51.5187 52.3967 48.5837 53.1588C45.5511 53.9448 41.5336 54.5895 35.576 55.5327ZM51.4471 26.5942L12.6052 39.5641C12.3803 38.1971 12.1395 36.6848 11.8729 34.9934C10.9178 28.9622 10.3248 25.1516 10.1497 22.2504C9.98452 19.5064 10.285 18.6587 10.4143 18.3562C10.862 17.3096 11.5386 16.3783 12.3942 15.6281C12.641 15.4132 13.3553 14.864 16.0158 14.1736C18.8274 13.4453 22.634 12.8304 28.6633 11.8753C34.6945 10.9202 38.5031 10.3272 41.4043 10.1521C44.1463 9.98691 44.994 10.2874 45.2965 10.4167C46.3432 10.864 47.2756 11.5414 48.0246 12.3986C48.2395 12.6454 48.7867 13.3577 49.4771 16.0201C50.1179 18.4955 50.6711 21.739 51.4471 26.5942Z" fill="black"/>
</g>
<defs>
<clipPath id="clip0_8373_58372">
<rect width="64" height="64" fill="white"/>
</clipPath>
</defs>
</svg>
