<svg width="64" height="64" viewBox="0 0 64 64" fill="none" xmlns="http://www.w3.org/2000/svg">
<g clip-path="url(#clip0_8340_58180)">
<path d="M12.6746 39.7824L51.7309 26.741C50.9506 21.8589 50.3943 18.5976 49.7501 16.1085C49.0558 13.4314 48.5056 12.7151 48.2895 12.467C47.5364 11.6051 46.5988 10.9239 45.5463 10.4742C45.2422 10.3441 44.3898 10.042 41.6327 10.2081C38.7155 10.3842 34.8859 10.9804 28.8214 11.9408C22.7588 12.9012 18.9312 13.5195 16.1041 14.2518C13.4289 14.9461 12.7106 15.4983 12.4625 15.7144C11.6022 16.4687 10.9219 17.4051 10.4717 18.4575C10.3417 18.7616 10.0395 19.614 10.2056 22.3731C10.3817 25.2904 10.9779 29.122 11.9383 35.1865C12.2064 36.8872 12.4485 38.4078 12.6746 39.7824Z" fill="url(#paint0_linear_8340_58180)"/>
<path d="M1.90618 36.7752C0.0494117 25.0423 -0.880976 19.1758 1.13186 14.4659C2.18114 12.0094 3.77048 9.82097 5.7818 8.06319C9.6374 4.69579 15.5018 3.7674 27.2307 1.90863C38.9636 0.0478548 44.8281 -0.880532 49.54 1.13231C51.9951 2.18192 54.1822 3.77126 55.9387 5.78224C59.3081 9.63985 60.2365 15.5063 62.0932 27.2412C63.952 38.9741 64.8804 44.8425 62.8676 49.5505C61.819 52.0068 60.2303 54.1952 58.2196 55.9531C54.364 59.3225 48.4976 60.2509 36.7667 62.1097C25.0378 63.9685 19.1714 64.8969 14.4634 62.884C12.0083 61.8344 9.82128 60.245 8.06475 58.2341C4.69535 54.3765 3.76696 48.51 1.90819 36.7752H1.90618ZM22.5968 57.6118C25.7381 57.4218 29.7838 56.7875 35.7723 55.8391C41.7628 54.8907 45.8025 54.2424 48.8517 53.4521C51.803 52.6858 53.1635 51.9395 54.0419 51.1711C55.3342 50.0411 56.3552 48.6343 57.0291 47.0554C57.4893 45.983 57.7795 44.4584 57.5954 41.4131C57.4053 38.2718 56.771 34.2241 55.8226 28.2336C54.8742 22.2431 54.228 18.1994 53.4376 15.1521C52.6713 12.1989 51.923 10.8383 51.1567 9.95998C50.0274 8.66718 48.6214 7.64546 47.043 6.97074C45.9705 6.51055 44.4459 6.22043 41.4006 6.4045C38.2593 6.59458 34.2156 7.22885 28.2251 8.17724C22.2367 9.12764 18.195 9.77391 15.1477 10.5642C12.1945 11.3306 10.8359 12.0789 9.95754 12.8452C8.66459 13.9751 7.64288 15.3819 6.96829 16.9609C6.5101 18.0333 6.21998 19.558 6.40406 22.6032C6.59414 25.7466 7.2264 29.7922 8.1768 35.7827C9.12519 41.7732 9.77146 45.8169 10.5618 48.8642C11.3281 51.8174 12.0744 53.178 12.8427 54.0563C13.972 55.3491 15.3781 56.3708 16.9565 57.0456C18.0289 57.5058 19.5515 57.7959 22.5988 57.6118H22.5968Z" fill="url(#paint1_linear_8340_58180)"/>
</g>
<defs>
<linearGradient id="paint0_linear_8340_58180" x1="25.0698" y1="12.2929" x2="30.3542" y2="45.3093" gradientUnits="userSpaceOnUse">
<stop stop-color="#66E3FF"/>
<stop offset="1" stop-color="#7064F9"/>
</linearGradient>
<linearGradient id="paint1_linear_8340_58180" x1="25.0734" y1="-0.000165324" x2="35.2355" y2="63.4915" gradientUnits="userSpaceOnUse">
<stop stop-color="#66E3FF"/>
<stop offset="1" stop-color="#7064F9"/>
</linearGradient>
<clipPath id="clip0_8340_58180">
<rect width="64" height="64" rx="4" fill="white"/>
</clipPath>
</defs>
</svg>
