<svg width="64" height="64" viewBox="0 0 64 64" fill="none" xmlns="http://www.w3.org/2000/svg">
<path fill-rule="evenodd" clip-rule="evenodd" d="M54.1947 56.4143L59.2001 0.341858H4.2583L9.25833 56.4231L31.6956 62.6518L54.1947 56.4143ZM31.7052 11.806H31.7051H14.4818L15.1071 18.6842L31.7052 18.6842L31.7289 18.6842L41.3972 18.6842L40.7713 25.7275H31.7052V25.728H15.7206L16.337 32.606H31.729V32.6055H40.1749L39.3765 41.526L31.7052 43.5965V43.5966L31.6991 43.5982L24.0389 41.5298L23.5492 36.0441H19.8269H16.6447L17.6083 46.8438L31.6976 50.7551L31.7293 50.7463V50.7457L45.8057 46.8444L45.9092 45.6823L47.5255 27.5745L47.6933 25.7275L48.935 11.806H31.7289H31.7052Z" fill="black"/>
</svg>
